<svg xmlns="http://www.w3.org/2000/svg" width="33.791" height="67.015"><defs><linearGradient id="a" y1="1.024" x2="1" gradientUnits="objectBoundingBox"><stop offset="0" stop-color="#006eba"/><stop offset=".067" stop-color="#166cb6"/><stop offset=".145" stop-color="#366bb2"/><stop offset=".386" stop-color="#ca3962"/><stop offset=".427" stop-color="#cf3360"/><stop offset=".48" stop-color="#dd225d"/><stop offset=".5" stop-color="#e41b5c"/><stop offset=".569" stop-color="#e5354d"/><stop offset=".639" stop-color="#e74c41"/><stop offset=".738" stop-color="#ee7f29"/><stop offset=".8" stop-color="#f3a219"/><stop offset=".903" stop-color="#f6b413"/><stop offset="1" stop-color="#f9c110"/></linearGradient></defs><path d="M9.6 88.316v-3.37a1.15 1.15 0 012.3 0v3.37a1.15 1.15 0 01-2.3 0zm4.665-5.736a1.15 1.15 0 010-2.3h2.087a1.15 1.15 0 010 2.3zm-9.116 0a1.15 1.15 0 110-2.3h2.09a1.15 1.15 0 010 2.3zM9.6 77.916v-3.37a1.15 1.15 0 012.3 0v3.37a1.15 1.15 0 01-2.3 0zm17.8-8.67v-6.021a1.15 1.15 0 112.3 0v6.021a1.15 1.15 0 01-2.3 0zm5.069-8.789a1.15 1.15 0 010-2.3h4.167a1.15 1.15 0 110 2.3zm-12.005 0a1.15 1.15 0 110-2.3h4.168a1.15 1.15 0 010 2.3zm6.936-5.07v-6.02a1.15 1.15 0 112.3 0v6.02a1.15 1.15 0 11-2.3 0zm-5-18.015V34a1.15 1.15 0 112.3 0v3.37a1.15 1.15 0 11-2.3 0zm4.666-5.735a1.15 1.15 0 010-2.3h2.087a1.15 1.15 0 110 2.3zm-9.117 0a1.15 1.15 0 010-2.3h2.087a1.15 1.15 0 110 2.3zm4.451-4.666V23.6a1.15 1.15 0 112.3 0v3.37a1.15 1.15 0 11-2.3 0z" transform="rotate(180 18.896 44.733)" fill="url(#a)"/></svg>