<svg xmlns="http://www.w3.org/2000/svg" width="50" height="106.283"><defs><linearGradient id="a" x1=".952" y1="1" x2=".034" y2=".034" gradientUnits="objectBoundingBox"><stop offset="0" stop-color="#006eba"/><stop offset=".067" stop-color="#166cb6"/><stop offset=".145" stop-color="#366bb2"/><stop offset=".386" stop-color="#ca3962"/><stop offset=".427" stop-color="#cf3360"/><stop offset=".48" stop-color="#dd225d"/><stop offset=".5" stop-color="#e41b5c"/><stop offset=".569" stop-color="#e5354d"/><stop offset=".639" stop-color="#e74c41"/><stop offset=".738" stop-color="#ee7f29"/><stop offset=".8" stop-color="#f3a219"/><stop offset=".903" stop-color="#f6b413"/><stop offset="1" stop-color="#f9c110"/></linearGradient></defs><path d="M4669.81 1327v7.965a1.522 1.522 0 103.043 0V1327a1.522 1.522 0 10-3.043 0zm1.522 16.811a1.522 1.522 0 011.521 1.522v7.965a1.522 1.522 0 11-3.043 0v-7.965a1.522 1.522 0 011.522-1.523zm5.184-5.183h5.515a1.522 1.522 0 110 3.044h-5.515a1.522 1.522 0 010-3.044zm-15.882 0h5.514a1.522 1.522 0 110 3.044h-5.514a1.522 1.522 0 110-3.044zm33.218 40.9a1.522 1.522 0 001.522-1.522v-4.459a1.522 1.522 0 00-3.044 0v4.459a1.522 1.522 0 001.522 1.524zm-1.522 12.238v-4.459a1.522 1.522 0 013.044 0v4.459a1.522 1.522 0 01-3.044 0zm4.651-9.11a1.522 1.522 0 011.522-1.522h2.762a1.522 1.522 0 010 3.044h-2.765a1.522 1.522 0 01-1.519-1.52zm-12.062 0a1.522 1.522 0 011.522-1.522h2.761a1.522 1.522 0 110 3.044h-2.761a1.522 1.522 0 01-1.522-1.52zm13.737-94.13v4.458a1.522 1.522 0 003.044 0v-4.458a1.522 1.522 0 00-3.044 0zm1.522 12.238a1.522 1.522 0 011.521 1.522v4.458a1.522 1.522 0 01-3.044 0v-4.458a1.522 1.522 0 011.524-1.519zm4.649-4.65h2.762a1.522 1.522 0 110 3.044h-2.762a1.522 1.522 0 010-3.044zm-12.061 0h2.761a1.522 1.522 0 110 3.044h-2.761a1.522 1.522 0 110-3.044z" transform="translate(-4659.112 -1287.007)" fill="url(#a)"/></svg>