<svg xmlns="http://www.w3.org/2000/svg" width="78.206" height="62.01"><path d="M56.066 16.63a4.434 4.434 0 00-2.29-.76 4.583 4.583 0 00-1.88.39 8.01 8.01 0 00-1.54.87.99.99 0 00-.16 1.5l3.56 3.56a1.259 1.259 0 01-1.78 1.78l-4.91-4.91a2.577 2.577 0 00-3.93.11c-1.7 1.7-.87 3.29-.34 3.81l3.25 3.25a1.259 1.259 0 01-1.78 1.78l-5.36-5.35c-.55-.55-2.14-1.26-3.78.37s-1.08 3.31-.37 4.02l5.3 5.3a1.259 1.259 0 01-1.78 1.78l-14.65-14.65c-.43-.43-2.47-1.92-4.27-.12a2.8 2.8 0 00.01 4.14l19.88 19.88c.61.61.2 1.22-.25 1.13l-2.79-.61a20.342 20.342 0 00-4.08-.77 8.033 8.033 0 00-3.11.29 3.157 3.157 0 00-1.23.74 2.935 2.935 0 00-.74 1.33 2.563 2.563 0 000 1.51 2.836 2.836 0 00.74 1.15 4.891 4.891 0 001.21.87 5.347 5.347 0 001.07.43c.96.24 12.27 3.08 19.86 5.14 2.53.69 4.64 1.29 5.86 1.7.33.11.59.2.82.3a3.011 3.011 0 01.36.18 1.55 1.55 0 01.29.22l4.73 4.73a.982.982 0 00.71.29 1.024 1.024 0 00.71-.29l14.51-14.51a.982.982 0 00.29-.71 1.024 1.024 0 00-.29-.71l-5.41-5.41a3.245 3.245 0 01-.6-.89 9.635 9.635 0 01-.41-1.01c-.25-.73-.49-1.58-.75-2.52a38.39 38.39 0 00-2.05-5.97 11.431 11.431 0 00-2.15-3.24l-8.39-8.39a12.3 12.3 0 00-2.05-1.73zm-42.71-3.27a1.491 1.491 0 000-2.12l-6.35-6.35a1.5 1.5 0 00-2.12 2.12l6.34 6.34a1.491 1.491 0 002.12 0zm6.18-3.35a1.455 1.455 0 00.73-.4 1.492 1.492 0 00.4-1.39l-1.59-7.05a1.5 1.5 0 10-2.92.66l1.59 7.05a1.485 1.485 0 001.79 1.13zM8.216 20.68a1.492 1.492 0 001.39-.4 1.455 1.455 0 00.4-.73 1.5 1.5 0 00-1.13-1.79l-7.05-1.59a1.5 1.5 0 10-.66 2.92z" fill="#fff"/></svg>