<svg xmlns="http://www.w3.org/2000/svg" width="178.377" height="32"><path d="M98.113 7.807v-3.05h-5v3.05h-5.99v8.957h4.778v-5.885h7.424v3.493c0 5.716-2.284 9.539-9.573 9.815v2.976c9.761-.176 14.357-4.581 14.357-12.791V7.807zm-16.067-2.09v7.523c0 6.188.123 9.276 3.355 11v2.987c-5.094-.835-8.361-3.806-8.361-12.6v-8.91zm-12.565 0v7.523c0 6.188-.129 9.276-3.355 11v2.987c5.088-.835 8.355-3.806 8.355-12.6v-8.91zm49.101 13.033a26.6 26.6 0 002.629-12.413h-14.334v3.062h9.04c0 6.558-3.109 13.362-10.61 14.8v2.958a16.889 16.889 0 0010.651-4.784 17.368 17.368 0 006.816 4.866v-3.354a17.449 17.449 0 01-4.192-5.135zm22.997-2.91a8.816 8.816 0 01-2.553-.376 31.444 31.444 0 001.382-9.753h-5.27a38.943 38.943 0 01-.586 7.382c-2.822-1.994-5.545-4.406-9.31-4.823v4.188c3.308.712 5.463 2.694 8.25 4.259a11.885 11.885 0 01-8.836 7.459v2.976c6.622-.859 10.762-4.118 13.122-8.735a16.253 16.253 0 003.777.412zm18.653-10.123h-5.27c-.714 6.318-5.334 9.906-11.64 10.124v2.986a26.818 26.818 0 007.36-1.059v9.249h5.03V15.158c2.389-2 4.098-5.006 4.52-9.441zm18.146 9.418c-4.21 0-9.9-1.318-9.9-4.329V5.717h-5v21.3h5v-10.39c.99 1.318 5.65 1.488 9.9 1.488zM10.08 4.371a2.828 2.828 0 01.33 2.055 1.827 1.827 0 01-.872 1.329 1.06 1.06 0 01-1.593-.872 2.084 2.084 0 010-.334v-.2a2.184 2.184 0 01.545-1.5.673.673 0 01.293-.17 1.253 1.253 0 01.217 0 .381.381 0 01-.094-.211.363.363 0 01.053-.217.732.732 0 01.463-.322c.297-.132.558.272.658.442zm-.843.8a.217.217 0 01-.123.17.726.726 0 00-.4.539 1.323 1.323 0 00.066 1.036.381.381 0 00.287.146c.351 0 .586-.615.586-.984a1.3 1.3 0 00-.457-1.171.656.656 0 01.043.26zM4.473.067a.275.275 0 010 .2 34.024 34.024 0 00-.784 4.987 20.54 20.54 0 002.342-.82 20.171 20.171 0 01.328-2.529 1.107 1.107 0 01.293-.644c.176-.082.281-.117.369-.07s.076.082.07.158a17.928 17.928 0 00-.263 2.734s.31-.146.463-.234l.164-.1c.105-.053.211-.094.3 0s.07.222 0 .4a.767.767 0 01-.263.375 4.913 4.913 0 01-.662.4 32.732 32.732 0 00.296 3.34v.135l.035.24a.293.293 0 01-.07.275c-.117.123-.5.094-.761 0-.158-.088-.182-.182-.234-.486a24.715 24.715 0 01-.123-3.092 21.869 21.869 0 01-2.343.908 32.514 32.514 0 000 4.192v.281c.035.246.053.439-.117.48a1.072 1.072 0 01-.843-.152.509.509 0 01-.2-.351 4.14 4.14 0 01-.006-.755c0-.984.053-2.459.135-3.408 0 0-.31.1-.615.176A9.075 9.075 0 00.942 7C.826 7.074.65 7.034.4 6.906a.949.949 0 01-.4-.662.287.287 0 01.135-.246.9.9 0 01.365-.076h.17a17.981 17.981 0 002.008-.363 24.44 24.44 0 011.093-5.1A.814.814 0 014.1.032h.1a.218.218 0 01.273.035zm14.229.755a.679.679 0 01.621.2.861.861 0 01.252.72 2.828 2.828 0 01-1.084 1.759.855.855 0 00.978.164 2.266 2.266 0 001.212-1.174.24.24 0 000-.111.316.316 0 010-.117.287.287 0 01.187-.135.357.357 0 01.31.1.363.363 0 01.059.328 2.465 2.465 0 01-.586.943 2.383 2.383 0 01-1.918 1.012 1.282 1.282 0 01-.9-.515 1.7 1.7 0 01-.152.1c-.059.047-.135.082-.2.135a.843.843 0 00-.2.211c-.029.035-.053.07-.082.076a.141.141 0 01-.158 0 .41.41 0 01-.129-.281.217.217 0 010-.088.463.463 0 01.2-.263l.187-.135a2.588 2.588 0 00.269-.252 3.01 3.01 0 01-.076-.644 2.588 2.588 0 01.234-1.171 1.276 1.276 0 01.978-.861zm-.129.814a1.429 1.429 0 00-.422 1.142.767.767 0 00.035.211 1.979 1.979 0 00.647-1.088c0-.164 0-.246-.059-.293a.211.211 0 00-.2.029z" fill="#d70056"/><path d="M13.982 4.921c.316-.5.509-.831.627-1l.386-.586a4.028 4.028 0 01.814-1.71 1.757 1.757 0 01.732-.65c.2-.047.31.053.34.287.047.545-.539 1.265-1.072 1.792-.182.176-.287.34-.293.328a.755.755 0 00.416.931c.949.41 1.23.72 1.124 1.335a4.894 4.894 0 01-1.973 2.424 4.234 4.234 0 00-.427.334.831.831 0 01-.24.164.726.726 0 01-.656.035.4.4 0 01-.176-.334c0-.222.111-.322.351-.416a.966.966 0 00.263-.064c.076-.041.545-.363 1.171-.855.755-.656 1.025-1.1.943-1.312s-.691-.375-.884-.486a.99.99 0 01-.492-1.06 10.54 10.54 0 00-.539 1 4.157 4.157 0 01-.509.867.5.5 0 01-.527.164.451.451 0 01-.316-.345 1.212 1.212 0 01-.72.931.761.761 0 01-1.026-.516 2.611 2.611 0 01-.123-1.06 7.869 7.869 0 000-1.171c0-.176-.035-.363.117-.445s.369 0 .667.269a.228.228 0 01.064.31 7.12 7.12 0 00-.064 1.493.392.392 0 00.263.363c.141.029.293-.076.41-.281a2.746 2.746 0 00.266-1.31V3.328a.223.223 0 01.129-.24.79.79 0 01.322.059c.152.059.386.17.4.345a.527.527 0 01-.035.152c0 .07-.041.222-.059.345a5.756 5.756 0 00-.07.843c0 .158.041.263.123.287s.19-.031.273-.198zm3.923 2.494a.72.72 0 00-.059-.258.8.8 0 01-.047-.223.334.334 0 01.041-.158 1.171 1.171 0 01.732-.586.322.322 0 01.17.047c.158.1.123.4.094.586a19.047 19.047 0 00.779 5.34c0 .047.088.047.088 0a18.526 18.526 0 01.586-3.888 1.124 1.124 0 01.533-.79.732.732 0 01.621 0 1.294 1.294 0 01.545.919c.111.4.193.8.269 1.171a10.3 10.3 0 00.586 2.207.55.55 0 00.486.252h.17v1.107a1.072 1.072 0 01-1.364-.41 8.584 8.584 0 01-.714-2.465s-.146-.8-.24-1.112-.176-.433-.3-.41-.158.146-.182.275a19.96 19.96 0 00-.187 4.778c.035.217 0 .381-.211.468a1.013 1.013 0 01-.586 0 .585.585 0 01-.392-.2 3.548 3.548 0 01-.449-.924 16.459 16.459 0 01-.714-4.842 23.755 23.755 0 00-.82 6.236 9.094 9.094 0 00.187 1.874c.1.345.029.533-.111.586a1.206 1.206 0 01-.79-.064c-.269-.088-.328-.5-.34-1.171a20.95 20.95 0 011.493-7.94 2.219 2.219 0 00.129-.4zM23.532.014H55.42V32H23.532z" fill="#d70056"/><path d="M25.101 10.596a1.247 1.247 0 01-.506-.972 2.98 2.98 0 01.4-1.663 2.114 2.114 0 011.358-1.06.345.345 0 01.246.041.223.223 0 01.076.146.96.96 0 01-.105.5.474.474 0 01-.381.263 1.1 1.1 0 00-.714.586 2.008 2.008 0 00-.182.732.451.451 0 00.357.515c.4.053.586-.474.586-.656a.773.773 0 00-.029-.322.837.837 0 01.293-.632.287.287 0 01.357-.035.34.34 0 01.059.222 1.757 1.757 0 00.943 1.054.679.679 0 01.094.064.334.334 0 01.041.222.709.709 0 01-.228.486.451.451 0 01-.515-.029 1.563 1.563 0 01-.667-.726h-.053a2.242 2.242 0 01-.059.422 1.329 1.329 0 01-.638.872.8.8 0 01-.726-.029zm5.027-2.098a.246.246 0 01-.2-.094.24.24 0 01-.035-.182c0-.082.152-.141.293-.2a1.991 1.991 0 00.621-.427 2.851 2.851 0 01-.135-.814 2.553 2.553 0 01.586-1.792.966.966 0 01.486-.263.656.656 0 01.586.117.867.867 0 01.281.673 3.229 3.229 0 01-1.025 1.944 1.013 1.013 0 00.767.176 2.2 2.2 0 001.282-.586 6.207 6.207 0 01.831-.7 7.432 7.432 0 012.816-1.095.263.263 0 01.193.123.375.375 0 010 .141.474.474 0 01-.082.228.7.7 0 01-.556.386 9.807 9.807 0 00-2.125.586 4.356 4.356 0 00-.738.556 5.814 5.814 0 01-1.171.878 1.938 1.938 0 01-.919.211 1.1 1.1 0 01-.908-.4c-.1.088-.234.187-.392.3a.667.667 0 01-.451.228zm1.493-2.927a1.405 1.405 0 00-.386.855 1.587 1.587 0 00.041.586 2.4 2.4 0 00.621-1.124c0-.141.035-.369-.064-.433s-.117.029-.211.094z" fill="#fff"/><path d="M27.069 5.114a.943.943 0 01.094-.445c.059-.117.17-.158.357-.234s.89-.463.89-.463.076-.96.129-1.282a.989.989 0 000-.334.493.493 0 010-.094c0-.129.059-.176.211-.182a1 1 0 01.545.135.223.223 0 01.117.211.31.31 0 01-.035.141 7.646 7.646 0 00-.2 1.042 23.485 23.485 0 012.886-1.077.586.586 0 01.334 0 .644.644 0 01.392.539c0 .129-.076.2-.228.246 0 0-.515.064-.685.1a13.812 13.812 0 00-2.717.949 23.936 23.936 0 00.211 4.848c0 .105.059.4 0 .457a.492.492 0 01-.381.076c-.193-.018-.433-.064-.474-.211a9.52 9.52 0 01-.158-1.757c0-1.353 0-2.453.029-3.086-.287.158-.451.252-.656.381a1.13 1.13 0 01-.48.228c-.105.023-.176-.047-.181-.188zm-3.537 8.053a4.028 4.028 0 001.716-1.5c.076-.187.1-.41 0-.5s-.275.082-.416.211a2.986 2.986 0 01-1.312.685z" fill="#fff"/><path d="M47.879 8.642a3.759 3.759 0 001-1.809s0-.2-.111-.263a.24.24 0 00-.269 0 3.513 3.513 0 00-.99 1.347 1.434 1.434 0 00-.1.673.3.3 0 00.47.052zm-2.802-.44c.263-.187.094-.586 0-.925a3.408 3.408 0 00-.445-1.025c-.182-.193-.322-.123-.427 0l-.035.129a2.161 2.161 0 00.381 1.54s.302.497.526.281zm4.307 2.029c.211.053.369 0 .8-.123a3.349 3.349 0 001.218-.726c.117-.129.041-.246-.152-.275a2.576 2.576 0 00-1.5.357 1.786 1.786 0 00-.492.4c-.038.103-.079.317.126.367zm-6.968-.616a2.752 2.752 0 00.7 0c.152-.041.275-.076.223-.193a1.564 1.564 0 00-.621-.451 3.1 3.1 0 00-.527-.182.925.925 0 00-.738 0c-.064.035-.076.164 0 .31a1.493 1.493 0 00.963.516zm4.527 3.869c.8 0 1.294-.392 1.276-1.025a2.453 2.453 0 00-1.358-2.008 1.528 1.528 0 00-1.481 0c-.369.217-.381.925-.111 1.382a2.717 2.717 0 01-.545-.861 1.089 1.089 0 01.228-1.224 1.874 1.874 0 011.815-.129 3.87 3.87 0 011.7 1.417 1.921 1.921 0 01.375.826c0 .287.357.24.427.064s0-.217-.035-.386a3.941 3.941 0 00-1.932-2.342 2.986 2.986 0 00-3.045-.047 1.717 1.717 0 00-.375 2.243 3.952 3.952 0 003.061 2.09zm-.55-1.581c-.5-.386-.31-.785-.129-.814.545-.1.984.515.984.931 0 .322-.316.767-1.171.375a1.838 1.838 0 01-.182-.105c.407.128.77-.16.5-.387zm-4.58.38a.661.661 0 00-.094.158c0 .047 0 .064.07.105a1.85 1.85 0 001.025.047 2.008 2.008 0 00.755-.386c.064-.059.222-.263.111-.34a3.882 3.882 0 00-1.224.141 1.013 1.013 0 00-.643.275zm3.363 1.254a1.429 1.429 0 00-.48.667 1.171 1.171 0 00-.059.586.328.328 0 00.3.293.293.293 0 00.252-.117 3.407 3.407 0 00.117-.539c.047-.217.129-.492.129-.492l.1-.293a.105.105 0 00-.035-.141.334.334 0 00-.328.035zm3.572.589c-.047-.082-.152-.222-.217-.345a.386.386 0 00-.345-.182c-.1 0-.123.1-.117.228a2.342 2.342 0 00.217.843c.129.275.193.468.509.521a.515.515 0 00.451-.193c.146-.17 0-.375-.117-.48a2.7 2.7 0 01-.381-.392zm2.22-1.866a3.454 3.454 0 00-.826-.152 1.382 1.382 0 00-.281 0 .141.141 0 00-.094.041.176.176 0 00-.035.2c.2.527.72.667 1.446.656.293 0 .457 0 .5-.176a.217.217 0 00-.076-.24 1.991 1.991 0 00-.634-.329zm-.708 4.686c-.263.082-.849.509-1.487.82-.439.222-1.031.445-1.13.5s-.427.2-.468.375a.733.733 0 000 .211 3.742 3.742 0 00-.422.094.31.31 0 000-.263c-.064-.164-.422-.41-1.288-.8a6.862 6.862 0 00-1.757-.621c-.34-.029-.586.328-.263.451a6.148 6.148 0 011.78 1.042 1.563 1.563 0 00.972.492h.111a2.8 2.8 0 00-.943 1.3 7.206 7.206 0 00-.855 2.442c.088.263.509.586.691.217a20.2 20.2 0 011.124-2.383 2.406 2.406 0 01.468-.691.334.334 0 01.457.07 5.269 5.269 0 01.685 1.364 12.337 12.337 0 01.732 2.928c.053.48.89.263 1.036-.222a12.435 12.435 0 00-.937-3.384 4.526 4.526 0 00-.99-1.757 6.113 6.113 0 001.458-.586 4.432 4.432 0 001.593-1.066c.341-.445-.336-.609-.567-.533z" fill="#ffd900"/><path d="M46.712 16.221c-.422.094-.55.539-.422 1.072.1.386.211.545.586.527.457-.029.515-.357.521-.884s-.185-.827-.685-.715zm-.314 8.178c-.281-.076-.586.117-.931.217a14.368 14.368 0 01-3.215.609 2.278 2.278 0 01-1.171-.117c-.176-.1-.164-.445-.094-.773s-.228-.586-.463-.72c-1.423-.785-6.119.094-6.242.123-.094-2.19-.527-3.952-1.388-4.831a12.63 12.63 0 002.459-3.074c.111-.252.076-.386.053-.41a23.566 23.566 0 002.8-.258c.1 0 .141-.029.228.064a25.06 25.06 0 001.926 2.383 4.485 4.485 0 01-.316.509c-.047.053-.088.082-.117.123s.088.345.228.3.322-.316.5-.586c.211.228.422.439.586.615 0 0 .258.246.234.316-.141.3-.334.761-.521 1.171a.564.564 0 000 .586c.223.31.533.439.679.176.053-.076 0-.211.047-.328a3.466 3.466 0 01.644-1.007c.2-.094.515-.755.105-1.007-.416-.433-.89-.867-1.353-1.364a5.662 5.662 0 00-2.758-7.255c-3.624-1.435-7.612 1.476-6.581 4.907a2.734 2.734 0 00-2.518.17c-1.979 1.095-2.038 4.192-.269 5.2l.263.129a1.973 1.973 0 003.021 2.395c.176-.111.1-.439-.041-.363s-.111.1-.182.129a1.534 1.534 0 01-2.184-2.043 1.224 1.224 0 00.2 0c.3-.053.41-.1.521-.31s.111-.34-.164-.468a.586.586 0 00-.521 0 1.564 1.564 0 00-.269.187.943.943 0 01-.34-.164 2.422 2.422 0 012.559-4.017c.041.047.176.275.211.322.117.146.293.117.55.041a.474.474 0 00.375-.328c.059-.146-.059-.369-.123-.627-.96-3.3 2.342-5.492 5.112-4.462a5.064 5.064 0 012.8 6.195 17.793 17.793 0 01-1.516-1.874.949.949 0 00-.984-.345 30.446 30.446 0 01-3.021.386c-.047-.105-.34-.275-.451-.17s-.211.55-.322.7a14.574 14.574 0 01-2.67 3 1.95 1.95 0 00-.586.258c-.2.187-.2.392.041.673 0 0 .357.509.656.416s.55.386.738.738a9.216 9.216 0 011 3.3 35.822 35.822 0 00-4.749 1.353 2.02 2.02 0 00-.714.474 1.077 1.077 0 00-.2.4c-.059.187-.164.545 0 .586a.937.937 0 00.82-.164 26.179 26.179 0 0110.387-2.431c.656.047.72.316.586.82a.826.826 0 00.059.779c.3.427 1.112.474 2.465.3a13.76 13.76 0 003.4-.8c.622-.227 1.096-.619.721-.754z" fill="#ffd900"/><path d="M36.629 19.705c.24-.064.176-1.271.176-1.271a.41.41 0 00-.357-.287 1.757 1.757 0 00-.972.146c-.1.088-.111.129-.111.129a2.2 2.2 0 00.1 1.259c.092.158.947.077 1.164.024zm-.527 2.262c.287 0 .679-.07.755-.228a1.721 1.721 0 000-1.206 2.043 2.043 0 00-1.083 0 .416.416 0 00-.322.4l.035.586c.012.385.281.477.615.448zm3.005-2.49a3.649 3.649 0 000-1.007.322.322 0 00-.34-.345c-.749 0-1 .059-1.06.228a2.231 2.231 0 00.141 1.118 1.37 1.37 0 001.259.006zm-.878 2.279c.146 0 .908.088.954-.158s.17-1.171-.176-1.206-1.171-.123-1.224.182a2.828 2.828 0 00.082 1.031.41.41 0 00.364.151z" fill="#ffd900"/></svg>