<svg xmlns="http://www.w3.org/2000/svg" xmlns:xlink="http://www.w3.org/1999/xlink" width="143.327" height="139.11"><defs><linearGradient id="a" x1="1.018" y1=".377" x2="0" y2="1" gradientUnits="objectBoundingBox"><stop offset="0" stop-color="#006eba"/><stop offset=".067" stop-color="#166cb6"/><stop offset=".145" stop-color="#366bb2"/><stop offset=".386" stop-color="#ca3962"/><stop offset=".427" stop-color="#cf3360"/><stop offset=".48" stop-color="#dd225d"/><stop offset=".5" stop-color="#e41b5c"/><stop offset=".569" stop-color="#e5354d"/><stop offset=".639" stop-color="#e74c41"/><stop offset=".738" stop-color="#ee7f29"/><stop offset=".8" stop-color="#f3a219"/><stop offset=".903" stop-color="#f6b413"/><stop offset="1" stop-color="#f9c110"/></linearGradient><linearGradient id="c" x1=".99" y1=".005" x2=".015" y2=".992" xlink:href="#a"/><clipPath id="b"><path fill="none" d="M0 0h57.813v74.349H0z"/></clipPath></defs><path d="M-475.09 148.5l10.607-10.606 10.607 10.606-10.607 10.607zm-86.374 1.535l7.071-7.071 7.07 7.071-7.07 7.071zm38.65-14.143l7.071-7.071 7.07 7.071-7.07 7.071zm89-26.07l7.071-7.071 7.07 7.071-7.07 7.071zM-563 58.148l10.607-10.607 10.607 10.607-10.607 10.606zm116.668-4.726l9.192-9.192 9.193 9.192-9.193 9.193zm-19.829-26.351L-459.09 20l7.07 7.071-7.07 7.071z" transform="translate(563 -20)" fill="url(#a)"/><g clip-path="url(#b)" transform="rotate(13 -65.956 214.089)"><path d="M56.313 8h-6.5V1.5a1.5 1.5 0 00-1.5-1.5H17.1a1.474 1.474 0 00-.282.028h-.011a1.5 1.5 0 00-.364.129l-.086.046a1.554 1.554 0 00-.319.235l-15.6 15.6a1.527 1.527 0 00-.235.319l-.045.084a1.543 1.543 0 00-.13.365A1.67 1.67 0 000 17.1v47.749a1.5 1.5 0 001.5 1.5H8v6.5a1.5 1.5 0 001.5 1.5h46.813a1.5 1.5 0 001.5-1.5V9.5a1.5 1.5 0 00-1.5-1.5" fill="#fff"/><path d="M56.313 8h-6.5V1.5a1.5 1.5 0 00-1.5-1.5H17.1a1.463 1.463 0 00-.281.028h-.009a1.476 1.476 0 00-.362.129c-.03.014-.058.03-.087.046a1.548 1.548 0 00-.318.235L.44 16.043a1.517 1.517 0 00-.236.318 1.38 1.38 0 00-.045.085 1.512 1.512 0 00-.13.365A1.491 1.491 0 000 17.1v47.749a1.5 1.5 0 001.5 1.5H8v6.5a1.5 1.5 0 001.5 1.5h46.813a1.5 1.5 0 001.5-1.5V9.5a1.5 1.5 0 00-1.5-1.5M15.6 5.121V15.6H5.121zM3 18.6h14.1a1.5 1.5 0 001.5-1.5V3h28.213v60.349H3zm51.813 52.749H11v-5h37.313a1.5 1.5 0 001.5-1.5V11h5zM10.641 25.391a1 1 0 011-1h24.386a1 1 0 010 2H11.641a1 1 0 01-1-1m0 9.755a1 1 0 011-1H29.82a1 1 0 010 2H11.641a1 1 0 01-1-1m0 9.755a1 1 0 011-1H27.16a1 1 0 010 2H11.641a1 1 0 01-1-1m0 9.754a1 1 0 011-1h25.273a1 1 0 010 2H11.641a1 1 0 01-1-1" fill="url(#c)"/></g></svg>