<svg xmlns="http://www.w3.org/2000/svg" width="54" height="88.312"><path d="M52.014 59.232L27 76.832l-25.014-17.6A1.261 1.261 0 000 60.263v8.3a2.52 2.52 0 001.071 2.062l24.478 17.221a2.518 2.518 0 002.9 0l24.48-17.221a2.525 2.525 0 001.07-2.062v-8.3a1.261 1.261 0 00-1.986-1.031z" fill="#f8b616"/><path d="M52.014 30.232L27 47.832l-25.014-17.6A1.261 1.261 0 000 31.263v8.3a2.52 2.52 0 001.071 2.062l24.478 17.221a2.518 2.518 0 002.9 0l24.48-17.221a2.525 2.525 0 001.07-2.062v-8.3a1.261 1.261 0 00-1.986-1.031z" fill="#015baa"/><path d="M52.014.232L27 17.832 1.986.232A1.261 1.261 0 000 1.263v8.3a2.52 2.52 0 001.071 2.062l24.478 17.221a2.518 2.518 0 002.9 0l24.48-17.221a2.525 2.525 0 001.07-2.062v-8.3A1.261 1.261 0 0052.013.232z" fill="#d70356"/></svg>