<svg xmlns="http://www.w3.org/2000/svg" width="218.669" height="27.609"><defs><linearGradient id="a" x1=".006" y1="1" x2="1" y2=".057" gradientUnits="objectBoundingBox"><stop offset="0" stop-color="#006eba"/><stop offset=".067" stop-color="#166cb6"/><stop offset=".145" stop-color="#366bb2"/><stop offset=".386" stop-color="#ca3962"/><stop offset=".427" stop-color="#cf3360"/><stop offset=".48" stop-color="#dd225d"/><stop offset=".5" stop-color="#e41b5c"/><stop offset=".569" stop-color="#e5354d"/><stop offset=".639" stop-color="#e74c41"/><stop offset=".738" stop-color="#ee7f29"/><stop offset=".8" stop-color="#f3a219"/><stop offset=".903" stop-color="#f6b413"/><stop offset="1" stop-color="#f9c110"/></linearGradient></defs><path d="M246.739 24.6c-1.193-.582-5.443-2.533-6.55-2.533a2.612 2.612 0 00-1.31.436c-2.767 1.455-7.948 2.155-11.3 2.155-.844 0-1.165-.116-1.369-.524a7.573 7.573 0 01-.67-2.62c0-.553.2-.641.553-.641.233 0 1.688.087 2.707.087 2.1 0 5.882-.292 5.882-.7 0-.087-.088-.146-.38-.233-.175-.058-.757-.2-.96-.262a2.3 2.3 0 00-.611-.116 1.437 1.437 0 00-.961.465.685.685 0 01-.466.2c-.232 0-3.406-.582-3.406-1.369 0-.291.38-.611.583-.815.232-.232.931-1.018 1.368-1.571a.964.964 0 00.232-.379c0-.2-.291-.232-.436-.232h-1.078c-.96 0-1.922.058-2.853.058-.728 0-.786-.232-.786-.99v-1.4c0-.787.058-1.02.786-1.02.932 0 1.893.059 2.853.059h3.2a1.418 1.418 0 001.019-.291 3.151 3.151 0 00.583-.757.5.5 0 00.086-.292c0-.291-.32-.349-.553-.349h-1.368a.506.506 0 00-.436.32c-.175.349-.524.378-1.136.378H228.4c-.932 0-1.339-.087-1.339-.815 0-.611.087-1.339.087-1.98V6.726c0-.99-.058-1.747-.058-2.329 0-1.019.757-1.135 1.571-1.135.962 0 1.922.058 2.883.058h.932a.479.479 0 00.466-.465v-.2a.5.5 0 00-.466-.466h-2.823c-1.165 0-2.359.087-3.552.087-.611 0-.671-.319-.671-1.105v-.9c0-.874.03-1.193.671-1.193 1.193 0 2.388.058 3.552.058h16.387c1.165 0 2.357-.058 3.552-.058.611 0 .669.292.669 1.048v1.02c0 .815-.058 1.135-.669 1.135-1.2 0-2.388-.087-3.552-.087h-3.087a.5.5 0 00-.465.466v.2a.48.48 0 00.465.465h1.194c.9 0 1.8-.058 2.708-.058.844 0 1.63.086 1.63 1.135 0 .7-.059 1.455-.059 2.329v2.148c0 .67.059 1.31.059 1.922 0 .815-.349.873-1.426.873h-.875c-1.134 0-1.367 0-1.6-.378a.607.607 0 00-.466-.32h-4.746c-.116 0-.292.029-.292.175v.149c0 .32-.465.378-.7.408a.658.658 0 00-.582.611c0 .319.32.349.582.349H247c.96 0 1.922-.059 2.882-.059.727 0 .787.233.787 1.136v1.165c0 .873-.059 1.105-.787 1.105-.96 0-1.922-.058-2.882-.058h-1.136c-.2 0-.437 0-.437.175 0 .115.147.2.234.262a.359.359 0 01.146.292c0 .319-.38.378-.641.465a2.106 2.106 0 00-.38.146 2.753 2.753 0 00-.523.582 1.965 1.965 0 00-.466.873c0 .553 1.048.786 1.484.931a27.863 27.863 0 013.641 1.455c.495.263.7.35.7.757 0 .9-.989 3-2.038 3a2.227 2.227 0 01-.845-.295zm-11.762-8.123c0 .319.845.524 1.893.757.5.117 1.019.232 1.515.378a3.2 3.2 0 00.727.147c.787 0 1.427-1.31 1.427-1.485 0-.32-.378-.32-.64-.32h-3.786c-.379.001-1.136.176-1.136.525zm7.511-9.4v.173a.709.709 0 00.7.7h.67a.673.673 0 00.7-.7v-.175a.672.672 0 00-.7-.7h-.67a.69.69 0 00-.7.7zm-5.764 0v.173a.709.709 0 00.7.7h.554a.672.672 0 00.7-.7v-.175a.689.689 0 00-.7-.7h-.554a.689.689 0 00-.701.7zm-5.619 0v.173a.709.709 0 00.7.7h.436a.69.69 0 00.7-.7v-.175a.69.69 0 00-.7-.7h-.441a.69.69 0 00-.7.7zm5.619-4.425v.2a.46.46 0 00.466.465h1.019a.46.46 0 00.465-.465v-.2a.478.478 0 00-.465-.466h-1.019a.479.479 0 00-.467.464zM44.645 23.611c-.175-1.485-.465-2.941-.728-4.4l-.263-1.31a.929.929 0 00-.9-.786h-.116l-4.514.641c-.611.087-3.667.61-3.959.61-.553 0-.67-.348-.786-.815-.089-.403-.379-2.441-.379-2.82 0-.581.407-.64 2.038-.815.64-.058 1.456-.146 2.5-.291l4.337-.611a.775.775 0 00.67-.757.663.663 0 00-.029-.2l-.32-1.688a.848.848 0 00-.844-.758h-.2l-1.98.293c-.611.087-3.9.611-4.193.611-.494 0-.668-.437-.756-.874-.087-.524-.32-2.213-.32-2.65 0-.641.409-.7 2.183-.9.641-.088 1.514-.176 2.591-.35l1.718-.261a.789.789 0 00.7-.787 4.044 4.044 0 00-.087-.582l-.176-.757C40.773 3 40.22.727 40.22.611c0-.32.437-.409.96-.437C42.346.086 43.539 0 44.733 0c.261 0 .525 0 .525.2a.863.863 0 01-.147.438 1.165 1.165 0 00-.232.7c0 .38.292 1.748.379 2.213l.058.232a.943.943 0 00.931.845h.116l1.837-.29c.552-.059 3.929-.612 4.075-.612.671 0 .7.641.845 1.339.058.466.291 1.718.291 2.126 0 .7-.437.757-2.329.989-.611.059-1.339.147-2.271.292l-1.777.263a.781.781 0 00-.611.785v.146l.349 1.777a.876.876 0 00.874.727h.116l3.9-.553c.582-.087 4.134-.67 4.28-.67.67 0 .757.64.845 1.485l.086.582a10.983 10.983 0 01.146 1.338.759.759 0 01-.728.874c-.261.029-3.61.466-4.046.524l-3.727.525a.821.821 0 00-.67.728.708.708 0 00.03.232l.2 1.048c.175.845 1.077 4.95 1.077 5.445 0 .466-.5.554-.873.641a20.881 20.881 0 01-2.882.524c-.521-.001-.667-.408-.755-1.282zm162.27-.786c0-.146.292-.495.787-1.077.233-.291.553-.64.874-1.048a.677.677 0 00.087-.32 2.767 2.767 0 00-.291-.815.432.432 0 00-.408-.349 2.577 2.577 0 00-.932.437 2.475 2.475 0 01-.348.2 39.975 39.975 0 01-3.99 2.125c-.232.118-.32.147-.407.408-.088.2-.175.467-.466.467-.2 0-.466-.525-.786-1.252-.087-.146-.146-.321-.234-.5a9.314 9.314 0 01-.757-1.805c0-.2.117-.233 1.166-.641.582-.233.7-.5.7-1.107v-4.1c0-.35 0-.524-.174-.524s-.32.407-.582 1.048c-.087.146-.2.349-.409.349-.232 0-.436-.349-.67-.757-.058-.087-.086-.145-.2-.145s-.145.087-.145.377v6.289c0 1.31.058 2.62.058 3.96 0 .7-.263.757-1.106.757h-1.456c-.874 0-1.193-.059-1.193-.728 0-1.339.087-2.678.087-3.989v-2.413c0-.319 0-.524-.175-.524-.2 0-.291.319-.349.465-.087.292-.291.875-.641.875-.378 0-1.95-2.3-1.95-3a1.386 1.386 0 01.2-.581 21.962 21.962 0 001.746-4.514c.292-1.077.35-1.515.553-2.5 0-.059.03-.175.03-.233 0-.408-.292-.465-.641-.465-.233 0-.465.029-.641.029-.437 0-.494-.349-.494-1.048V4.425c0-.815.058-1.164.524-1.164.261 0 .844.058 1.019.058a.858.858 0 00.815-.96v-1.34a16.213 16.213 0 00-.087-2.213v-.232c0-.233.175-.291.495-.291.262 0 2.357.146 3 .2.67.058.728.117.728.408 0 .2-.145.292-.291.437a.892.892 0 00-.233.7v2.593c0 .465.291.67.553.67a1.253 1.253 0 00.146-.029h.349c.495 0 .553.291.553 1.135v1.776c0 .756-.058 1.048-.553 1.048-.175 0-.349-.029-.524-.029-.2 0-.524.058-.524.348a3.787 3.787 0 00.611 1.107 3.088 3.088 0 01.2.319c.349.495.843 1.194 1.106 1.194.233 0 .261-.2.261-.582V4.484c0-1.252-.028-2.5-.028-3.756 0-.815.116-1.63 1.136-1.63.61 0 1.251.087 1.921.087h1.4c.67 0 1.31-.087 1.922-.087 1.019 0 1.164.786 1.164 1.63 0 1.252-.058 2.5-.058 3.756v4.163c0 .989.087 1.979.087 2.824 0 .873-.378.961-.96.961h-1.69c-.641 0-.641-.058-.67-.175-.059-.087-.409-.087-.524-.087-.35 0-.437.291-.437.583v3.26c0 .263 0 .67.349.67.145 0 1.136-.408 1.136-.874a4.11 4.11 0 00-.611-1.31 1.146 1.146 0 01-.147-.408c0-.465 2.01-1.368 2.417-1.368.35 0 .553.407 1.02 1.193a18.169 18.169 0 011.077 2.126c.087.2.233.465.494.465.205 0 .32-.2.408-.349.32-.67.612-1.339.9-2.038a19.945 19.945 0 00.816-2.562c0-.379-.321-.466-.642-.466-.639 0-1.28.058-1.921.058-.787 0-.844-.292-.844-1.107v-.755c0-1.31 0-1.514.523-1.66.234-.059.292-.262.292-.466V3.029c0-.292-.087-.379-.35-.437-.379-.087-.437-.465-.437-1.135V.815c0-1.427 0-1.688.844-1.688.7 0 1.514.058 2.358.058h3.668c.844 0 1.688-.058 2.358-.058.787 0 .845.291.845 1.106V.9c0 1.544-.029 1.747-.9 1.747-.261 0-.67-.029-.727-.029-.466 0-.671.349-.671.786v.059c0 .582-.115 2.561-.174 3.115v.233a.833.833 0 00.814.815c.437 0 .9-.03 1.368-.03.7 0 .758.408.758 1.136v1.31c0 .787-.058 1.107-.787 1.107-.785 0-1.571-.058-2.357-.058-.379 0-.583.408-.583.727 0 .293.2.38.466.409.2.029.523.146.523.407 0 .234-.2.292-.377.38-.263.145-.263.29-.263 1.223V20.5c0 .233 0 .233.2.233h.146c.408 0 .408-1.921.408-2.241 0-.292.058-.554.7-.554a3.814 3.814 0 011.515.319.684.684 0 01.407.728 15.857 15.857 0 01-.67 4.046 1.9 1.9 0 01-1.95 1.456h-1.339c-2.708 0-2.737-.787-2.737-3.349 0-.378-.029-.582-.233-.582-.262 0-.465.409-.582.611a28.393 28.393 0 01-2.154 3.116c-.35.466-.5.553-.757.553-.666-.001-2.851-1.37-2.851-2.01zm-1.746-15.2v.7a.478.478 0 00.465.465h.146a.478.478 0 00.466-.465v-.7a.479.479 0 00-.466-.466h-.146a.46.46 0 00-.465.469zm8.006-4.687v4.224c0 .2.058.5.32.5.349 0 .349-.611.379-.844.116-1.251.116-2.5.2-3.756v-.121c0-.233-.087-.35-.408-.35h-.116a.361.361 0 00-.374.35zm-8.006.029v.611a.46.46 0 00.465.466h.146a.46.46 0 00.466-.466V2.97a.46.46 0 00-.466-.466h-.146a.46.46 0 00-.465.466zM69.522 22.621c-.087-.407-.175-.9-.292-1.484l-1.222-5.882a.755.755 0 00-.757-.641c-.059 0-.146.03-.2.03l-1.486.32c-.523.116-2.939.64-3.289.64-.408 0-.553-.378-.641-.7-.087-.35-.408-2.1-.408-2.389 0-.553.465-.64 2.126-.9.437-.087.96-.175 1.571-.292l1.4-.291a.77.77 0 00.641-.728 1.69 1.69 0 00-.029-.2l-.263-1.367c-.029-.117-.145-.728-.291-1.369-.175-.787-.35-1.515-.35-1.572 0-.262.292-.319.5-.349a25.882 25.882 0 012.97-.233c.377 0 .843.029.843.524a.836.836 0 01-.116.379.907.907 0 00-.087.378c0 .2.233 1.339.291 1.631l.253 1.274a.8.8 0 00.758.641c.058 0 .145-.03.175-.03l3.9-.785c.757-.146 1.542-.292 2.27-.495a1.361 1.361 0 01.5-.088c.524 0 2.417 1.66 2.417 2.329 0 .292-.2.466-.408.67a20.212 20.212 0 00-2.155 2.94 30.386 30.386 0 01-1.805 2.475.9.9 0 01-.67.349c-.437 0-2.766-.932-2.766-1.6a1.486 1.486 0 01.35-.67 7.746 7.746 0 001.223-1.63.339.339 0 00-.38-.321c-.058 0-.116.029-.174.029l-1.543.321a.75.75 0 00-.612.787v.115a1.314 1.314 0 00.03.292l1.165 5.648a26.116 26.116 0 01.611 3c0 .378-.233.465-.553.553a23.618 23.618 0 01-2.678.5c-.499-.004-.558-.295-.819-1.809zm98.378.758a26.413 26.413 0 01-1.369-2.242 7.4 7.4 0 01-.843-1.747c0-.262.32-.408.553-.466a30.648 30.648 0 007.454-3.2A39.005 39.005 0 00184.2 6.609c.059-.087.116-.146.175-.233.262-.379.495-.7.814-.7.582 0 1.485 1.572 1.748 2.039.058.087.087.2.175.32a4.642 4.642 0 01.498 1.365c0 .7-2.358 2.941-2.969 3.524-4.687 4.57-9.375 7.191-15.2 9.986a1.26 1.26 0 00-.787.756.253.253 0 01-.233.175c-.229.003-.404-.258-.521-.463zm-80.829 0a25.844 25.844 0 01-1.371-2.242 7.373 7.373 0 01-.844-1.747c0-.262.32-.408.554-.466a30.672 30.672 0 007.453-3.2 38.992 38.992 0 0010.51-9.112c.059-.087.116-.146.175-.233.262-.379.5-.7.815-.7.582 0 1.485 1.572 1.748 2.039.058.087.087.2.174.32a4.627 4.627 0 01.5 1.368c0 .7-2.359 2.941-2.97 3.524-4.687 4.57-9.374 7.191-15.2 9.986a1.253 1.253 0 00-.787.756.254.254 0 01-.234.175c-.232-.003-.406-.264-.523-.469zm43.082-4.6c-2.3-2.008-5.5-5.3-7.6-7.6-.262-.32-.64-.757-1.077-.757-.494 0-1.106.553-1.455.873-.787.7-3.785 3.611-4.513 4.367a1.083 1.083 0 01-.786.437c-.524 0-1.63-1.31-2.009-1.748a8.093 8.093 0 01-1.4-2.066c0-.292.67-.612.9-.728a40.724 40.724 0 006.288-4.92 5.293 5.293 0 013.028-1.252c1.834 0 3.262 1.427 4.6 2.795a65.608 65.608 0 008.793 7.774.85.85 0 01.495.67c0 .843-2.125 3.551-3.145 3.551-.547 0-1.652-.989-2.118-1.397zm27.721-4.746h-13.393c-1.281 0-2.649.088-3.726.088-.989 0-.989-.553-.989-2.1v-1.34c0-.872.086-1.223.844-1.223.407 0 2.038.117 3.871.117h13.394c1.717 0 3.581-.117 3.843-.117.756 0 .873.321.873 1.165v1.4c0 1.6-.03 2.1-.961 2.1-1.136-.003-2.475-.091-3.756-.091zm-29.641-7.279a3.042 3.042 0 113.027 3.029 3.025 3.025 0 01-3.027-3.029zm1.485 0A1.552 1.552 0 00131.26 8.3a1.535 1.535 0 001.54-1.546 1.543 1.543 0 10-3.085 0zm41.619 1.981a29.984 29.984 0 00-4.892-3.407c-.232-.146-.523-.319-.523-.611 0-.582 1.746-3.348 2.591-3.348a2.945 2.945 0 01.9.408 33.162 33.162 0 015.124 3.668.621.621 0 01.263.524c0 .845-2.067 3.2-2.737 3.2a1.27 1.27 0 01-.726-.435zm-80.83 0a30.055 30.055 0 00-4.891-3.407c-.233-.146-.524-.319-.524-.611 0-.582 1.746-3.348 2.591-3.348a2.956 2.956 0 01.9.408 33.254 33.254 0 015.124 3.668.622.622 0 01.262.524c0 .845-2.067 3.2-2.737 3.2a1.27 1.27 0 01-.725-.435z" transform="translate(-32.5 2.217)" stroke="rgba(0,0,0,0)" stroke-miterlimit="10" fill="url(#a)"/></svg>