<svg xmlns="http://www.w3.org/2000/svg" width="151.918" height="85.075"><path d="M4.504 12.442c-.638.267-1.337.535-2.077.8a.761.761 0 01.021.206c0 .246-.083.39-.186.39s-.2-.082-.308-.246a23.6 23.6 0 01-1.213-2.281 47.24 47.24 0 003.763-1.254v-3.99h-.966a20.168 20.168 0 01-.534 2.941c-.021.082-.042.123-.124.123a.272.272 0 01-.124-.02 7.489 7.489 0 00-1.851-.186h-.1a21.7 21.7 0 001.11-7.548s1.522.062 2.056.145c.227.041.391.1.391.206s-.143.206-.534.328c-.021.349-.042 1.07-.1 1.913h.776V1.192A7.8 7.8 0 004.442.061a26.439 26.439 0 012.653.145c.247.041.33.124.33.206 0 .143-.33.328-.576.39-.021.268-.042.391-.042.618v2.55H8.35v1.686A20.586 20.586 0 0010.427 0s1.749.246 2.426.391a.285.285 0 01.247.246c0 .1-.124.206-.555.267-.124.494-.433 1.461-.843 2.592h7.527c-.042 2.859.041 9.44-.761 12.2a3.975 3.975 0 01-4.154 3.147c-.925 0-.967-.124-.988-.165a7.661 7.661 0 00-1.213-2.2 11.313 11.313 0 01-1.768 1.563.192.192 0 01-.1-.061 9.991 9.991 0 00-2.447-.906c4.545-2.817 6.211-7.9 6.787-11.6H13.7c-1.707 6.581-4.915 8.576-4.935 8.576a.153.153 0 01-.124-.041 7.4 7.4 0 00-1.831-.761v5.676H4.504zm2.3.37A12.326 12.326 0 0011.6 5.47h-.72a8.843 8.843 0 01-1.666 2.736.192.192 0 01-.1-.061 8.32 8.32 0 00-2.159-.72 6.738 6.738 0 001.128-1.358H6.807v3.044c.885-.391 1.543-.7 1.831-.864V8.8a7.336 7.336 0 00.082 1.44.356.356 0 01.021.123c0 .062 0 .124-1.934 1.028zm9.855-7.342c-.37 2.756-1.419 7.363-4.319 10.735a9.189 9.189 0 001.768.268c1.953 0 2.694-1.213 2.838-11zm14.666 6.623c0-.206.021-1.5.041-2.859a9.775 9.775 0 01-1.089 1.686c-.021 0-.061-.041-.082-.082a9.261 9.261 0 00-1.851-1.768c2.221-2.221 3.846-6.54 4.3-9.028.021 0 2.982.658 2.982 1.069 0 .145-.2.267-.514.267-.042 0-.1-.02-.164-.02a39.852 39.852 0 01-1.44 3.681c.1 0 .206.02.288.02.37.042.514.145.514.247 0 .164-.246.328-.575.411 0 .1-.021.906-.021.906v1.543A16.243 16.243 0 0036.631.904c2.283.33 2.756.473 2.756.7 0 .143-.185.288-.535.309-.1.411-.267 1.192-.555 2.1h1.561V1.646a13.969 13.969 0 00-.06-1.442s2.119.041 2.777.143c.206.042.328.124.328.247s-.185.288-.6.37c-.021.288-.042.658-.042.843v2.2h4.697v2.286h-4.692V9.77h5.392v2.282h-5.372v6.828h-2.447v-6.828h-5.367V9.77h5.386V6.293h-2.343a8.439 8.439 0 01-1.666 2.941.154.154 0 01-.082-.021 8.607 8.607 0 00-2.056-.555l-.021 10.3h-2.427zm39.761-2.735a5.038 5.038 0 00-4.425-4.974 4.873 4.873 0 01.082.967c0 3.126-2.2 7.363-4.195 9.5a3.241 3.241 0 01-2.346 1.233c-1.5 0-3.866-1.974-3.866-5.183 0-4.175 3.969-8.782 9.543-8.782 4.607 0 7.959 3.147 7.959 7.383-.021 6.7-7.568 8.515-8.185 8.515a.156.156 0 01-.145-.082 16.455 16.455 0 00-2.55-2.283c3.5-.246 8.124-1.851 8.124-6.293m-12.257 1.48c0 1.543.967 2.324 1.337 2.324a.914.914 0 00.679-.37c1.521-1.665 3.228-5.121 3.228-7.506a4.039 4.039 0 00-.061-.72c-2.962.906-5.183 3.887-5.183 6.273m28.797.595c-.864.719-1.461 1.234-1.461 1.892 0 1.09 2.3 1.686 4.669 1.686a22.837 22.837 0 006.787-1.213 20.09 20.09 0 00-.6 2.817c0 .145-.041.164-.164.206a20.017 20.017 0 01-5.388.761c-4.956 0-8.041-1.768-8.041-3.929a4.333 4.333 0 011.6-2.858zM84.948 2.55a15.014 15.014 0 004.956.7 27.861 27.861 0 005.06-.453c.164-.02.309-.143.412-.143a5.559 5.559 0 011.131 2.262c0 .164-.124.185-.391.246a14.677 14.677 0 00-5.636 2.8l-2.467-.661c.616-.494 1.46-1.07 1.953-1.461.061-.061.1-.082.1-.1 0-.041-.082-.041-.124-.041a19.6 19.6 0 01-5.162-.618zm36.014 6.829c-4.586.246-9.563 1.646-9.563 4.011 0 .534.247 1.994 4.217 1.994a19.487 19.487 0 006.457-1.192 22.73 22.73 0 00-.493 3.044.135.135 0 01-.124.143 23.335 23.335 0 01-5.2.638c-4.73 0-7.507-1.79-7.507-4.5 0-1.933 1.667-3.66 4.442-4.935a7.336 7.336 0 01-.493-2.941c0-.679.041-1.419.041-2.222 0-.658-.041-1.707-.1-2.817 0-.061-.021-.1-.021-.145s.021-.061.083-.061c.185 0 2.632.309 3.023.391.226.042.349.124.349.227 0 .123-.185.246-.494.328-.061.719-.288 3.744-.288 4.463a4.316 4.316 0 00.349 1.851c.515-.164 1.07-.328 1.667-.473.987-.246 2.571-.576 3.373-.8a.4.4 0 01.145-.021c.1 0 .143.042.143.143v2.88zM3.229 45.075c0-.227.02-1.769.041-3.332a12.326 12.326 0 01-1.213 1.686c-.021 0-.041-.021-.061-.042a13.518 13.518 0 00-2-1.542 20.784 20.784 0 004.874-8.7c.37.061 2.88.616 2.88 1.007 0 .124-.206.227-.515.227H7.1a27.414 27.414 0 01-1.749 3.866c.227 0 .391.021.433.021.328.041.473.143.473.267 0 .143-.227.328-.618.431-.02.164-.02 1.194-.02 1.194l-.1 11.845-2.345-.021zm12.319-8.2H7.116v-2.163h12.4v2.163h-1.541v9.831c0 1.008.061 1.789.061 1.934v.1c0 2.653-2.241 3.085-4.134 3.085-.288 0-.555 0-.8-.021-.1 0-.164-.02-.185-.1a12.83 12.83 0 00-1.625-2.509 17.809 17.809 0 002.592.309c1.028 0 1.665-.288 1.665-1.173zm-8.165 1.744H13.8v8.556h-2.18v-1.193H9.481v1.851h-2.1zm4.236 1.933H9.481v3.455h2.139zm17.711-3.001a.886.886 0 01-.1-.247c0-.082.083-.1.268-.1 3.455-.061 9.089-1.665 14.951-2.221a.437.437 0 00.227-.082.6.6 0 01.227-.083 7.321 7.321 0 011.172 2.55c0 .124-.061.186-.164.186a1.267 1.267 0 01-.33-.083 9.341 9.341 0 00-2.9.556c-1.789.678-5.224 3.64-5.224 6.272 0 3.044 3.517 3.763 6.952 3.866a22.737 22.737 0 00-2 2.653.15.15 0 01-.124.082h-.06c-.576-.082-7.342-1.152-7.342-6.293 0-2.119 1.233-4.524 3.783-6.561-2.776.473-5.7 1.543-8.164 1.913zm14.212 1.46a9.326 9.326 0 012 2.735l-1.543.822a9.571 9.571 0 00-1.892-2.879zm2.344-.946a10.075 10.075 0 012 2.529l-1.522.864a9.214 9.214 0 00-1.892-2.653zm15.571 8.266a2.6 2.6 0 01-.412-.021c-1.665-.061-2.982-.884-2.982-2.015a2.634 2.634 0 011.152-1.934l1.892.515c-.433.308-.74.6-.74.822 0 .206.267.391.966.391h.203c.061-1.049.145-2.056.246-3-.2.02-.39.02-.555.02h-.161a7.585 7.585 0 01-2.838-.534s-.041-2.1-.041-2.241c0-.164.02-.267.143-.267a.46.46 0 01.185.061 7.82 7.82 0 002.714.719c.227 0 .494 0 .761-.02.145-1.543.268-2.9.268-4.114 0-.309 0-.6-.021-.864 0-.061-.021-.1-.021-.143 0-.062.042-.1.143-.1.062 0 2.119.309 2.818.494.246.061.349.143.349.226 0 .124-.267.267-.535.288a117.72 117.72 0 01-.514 3.763c.637-.164 1.275-.37 1.913-.6l-.042 2.262c0 .082 0 .123-.1.143-.637.206-1.337.391-2.077.555-.1.946-.206 1.934-.267 2.9a19.278 19.278 0 002.982-1.3v.967c0 .534 0 1.152.042 1.5v.061c0 .288-2.119.967-3.147 1.194v.637c0 1.768.946 2.468 2.119 2.468a3.89 3.89 0 003.7-3.62c0-1.707-1.461-3.516-3.475-5.2a19.981 19.981 0 002.9-.576.231.231 0 01.1-.02c.143 0 3.105 2.673 3.105 5.738a6.282 6.282 0 01-6.314 6.108c-2.51 0-4.484-1.645-4.484-4.771v-.185zm20.468-9.871h8.165v2.1h-8.165zm.863 8.309h6.725v6.993h-2.18v-1.009h-2.344v1.131h-2.2zm.165-11h6.417V35.6h-6.417zm.02 5.656h6.314v1.764h-6.314zm.021 2.653h6.293v1.789h-6.293zm4.339 4.608h-2.344v2.073h2.344zm3.681-2.9h3.147v-2.74h-4.175v-2.077h4.175v-2.344a55.967 55.967 0 01-2.9.288c-.1 0-.145 0-.185-.1a8.545 8.545 0 00-1.337-1.913c2.777-.041 7.157-.555 8.843-1.357.082.1 1.173 1.377 1.5 1.871a.441.441 0 01.1.267.172.172 0 01-.185.185.82.82 0 01-.534-.267 24.548 24.548 0 01-2.982.679v2.691h4.5v2.077h-4.5v2.735h3.228v8.021h-2.3v-1.028h-4.091v1.091h-2.3zm6.4 2h-4.096v2.88h4.093zm11.415-4.76a1.139 1.139 0 01-.041-.206c0-.082.041-.1.2-.124a23.342 23.342 0 004.114-.493c.246-.062.514-.124.781-.165-.02-1.5-.082-3.064-.2-4.586 0 0 2.18.1 2.961.227.268.041.391.123.391.2 0 .145-.267.33-.6.37 0 .864-.02 2.057-.041 3.291 1.4-.247 2.962-.515 4.689-.741.021-.493.021-1.007.021-1.5 0-.966-.021-1.912-.082-2.694 0 0 2.18.185 2.92.328.227.042.33.124.33.227 0 .124-.227.288-.576.349-.042.946-.082 1.974-.124 2.962q2.1-.246 4.442-.431l-.185 2.467a.1.1 0 01-.1.1c-1.5.021-2.941.082-4.319.206a19.486 19.486 0 01-.37 2.92 3.432 3.432 0 01-3.435 2.838c-.761 0-1.749-.226-1.749-.576a19.315 19.315 0 00-.473-2.694 4.05 4.05 0 002.057.843c1.213 0 1.337-1.152 1.522-3.065-1.687.206-3.25.473-4.608.761-.041 1.707-.041 3.044-.041 3.208 0 1.6.1 3.044 3.331 3.044a23.314 23.314 0 005.266-.782 20.441 20.441 0 00-.658 2.8.2.2 0 01-.165.185 33.143 33.143 0 01-4.01.267c-5.47 0-6.191-2.447-6.191-5.882v-.658c.021-.494.021-1.049.021-1.6l-.411.1c-1.317.33-2.777.679-3.847.822zm27.499 4.175a.192.192 0 01-.062-.1c0-.185 1.934-1.6 3.662-3.044a48.127 48.127 0 004.853-4.69c.021-.02.042-.02.042-.041h-.021a.222.222 0 00-.1.021 14.99 14.99 0 01-4.5.9h-.267l-.916-2.466v-.061c0-.061.021-.082.062-.082h.041a7.614 7.614 0 001.461.123 20.642 20.642 0 006.136-1.07c.226-.082.288-.206.412-.206.246 0 2.221 1.44 2.221 1.768 0 .145-.206.206-.473.309a749.223 749.223 0 01-5.285 4.73c-.042.042-.061.061-.061.082s.02.021.041.021a.121.121 0 00.082-.021 8.928 8.928 0 012.8-.515c2.858 0 5.47 1.625 5.47 4.442 0 3.332-3.475 5.964-7.528 5.964-3.413 0-5.038-1.645-5.038-3.208 0-1.275 1.049-2.529 3.105-2.529 2.138 0 3.743 1.379 3.825 3.065 2.016-.638 2.88-2.077 2.88-3.189 0-1.316-1.049-2.447-3.27-2.447a9.91 9.91 0 00-1.049.082 8.372 8.372 0 00-6.006 3.456c-.041.061-.082.1-.123.1s-.062-.021-.124-.042zm7.63 3.537c0-1.461-1.583-1.461-1.665-1.461-.247 0-.925.042-.925.618 0 .124.041 1.049 2.57 1.131a1.443 1.443 0 00.021-.288M1.543 69.054H6.91c.062-.719.083-1.419.083-2.1v-.618s2.076.1 2.734.227c.268.041.433.143.433.267s-.185.246-.616.349c-.042.555-.083 1.173-.145 1.871h9.994v2.344H9.09c-.082.6-.185 1.214-.328 1.831h6.211c.124 0 .227-.143.37-.143.021 0 1.728.9 1.728 1.234 0 .123-.164.206-.391.246a16.491 16.491 0 01-3.147 5.553 15.762 15.762 0 006.725 2.407 17.554 17.554 0 00-2.571 2.221.112.112 0 01-.1.062 14.72 14.72 0 01-5.778-2.92 15.35 15.35 0 01-5.886 3.19.113.113 0 01-.1-.062 7.982 7.982 0 00-1.831-1.686c-.2.227-.431.433-.658.638-.041.02-.061.041-.1.041a.074.074 0 01-.061-.021 10.84 10.84 0 00-2.68-1.069c3.517-2.362 5.409-7.055 6.129-11.518H1.543zm8.6 11.25a14.854 14.854 0 01-2.344-3.5 17.2 17.2 0 01-3.517 6.231 13.769 13.769 0 005.861-2.732m-.56-4.976a9.27 9.27 0 002.2 3.373 10.923 10.923 0 002-3.373zm19.954 8.329a89.8 89.8 0 004.689-9.276 15.117 15.117 0 01-3.5.494 64.94 64.94 0 01-.74-2.571.094.094 0 01.1-.082c.041 0 .082.021.123.021a9.564 9.564 0 001.234.082 19.6 19.6 0 003.7-.452 21.512 21.512 0 00.987-4.608s2.428.412 2.941.555c.247.062.35.186.35.288 0 .145-.247.288-.658.309-.185.658-.515 1.974-.843 3.086.226-.021.452-.042.678-.042 2.057 0 3.106 1.172 3.106 4.442a15.733 15.733 0 01-.679 4.669 4.286 4.286 0 01-4.114 3.167 3.862 3.862 0 01-2.036-.555c-.082-.042-.1-.082-.1-.185a26.615 26.615 0 00-.349-2.983c-.6 1.3-1.255 2.633-1.955 4.114zm7.2-2.613a1.925 1.925 0 001.852-1.439 12.713 12.713 0 00.6-3.866c0-.967-.061-1.934-1.049-1.934a5.681 5.681 0 00-1.069.124 99.488 99.488 0 01-2.571 5.944 3 3 0 002.241 1.172m7.4-9.542c2.673 1.83 4.38 4.071 4.5 6.354l-2.426 1.213a.348.348 0 01-.1.042c-.042 0-.061-.042-.082-.124a8.048 8.048 0 00-4.051-6.252c-.145-.1-.206-.143-.206-.184s.082-.083.226-.145zm-.164-3.271a10.3 10.3 0 012.755 2.119l-1.192 1.131a9.262 9.262 0 00-2.714-2.262zm2.036-1.4a10.667 10.667 0 012.714 1.933l-1.151 1.173a9.843 9.843 0 00-2.674-2.1zm20.73 12.444a.175.175 0 01.042.124c0 .021-.021.061-.021.082-1.234 2.612-2.447 3.784-3.805 3.784a3.641 3.641 0 01-1.789-.576c-2.776-1.625-3.517-4.545-3.517-8.925 0-.843.062-2 .062-2.941 0-.267 0-.515-.021-.741 0-.123 0-.164.082-.164.145 0 3.311.247 3.311.618 0 .123-.206.267-.576.328-.061.6-.267 3.044-.267 4.545 0 1.871.309 3.723 2.016 4.689a1.1 1.1 0 00.555.186c.679 0 1.234-.967 2.2-3.744a17.215 17.215 0 001.728 2.735m5.306 1.152c-.042.021-.061.041-.1.041s-.061-.061-.061-.184c0-.145.021-.268.021-.412a13.659 13.659 0 00-4.443-9.276l2.53-.8c2.653 2.3 4.668 6.354 4.668 9.172v.247zm10.081-2.118a.192.192 0 01-.062-.1c0-.185 1.934-1.6 3.662-3.044a48.125 48.125 0 004.853-4.69c.021-.02.042-.02.042-.041h-.021a.222.222 0 00-.1.021 14.99 14.99 0 01-4.5.9h-.267l-.906-2.468v-.061c0-.062.021-.082.062-.082h.041a7.614 7.614 0 001.461.123 20.642 20.642 0 006.123-1.067c.226-.082.288-.206.412-.206.246 0 2.221 1.44 2.221 1.768 0 .145-.206.206-.473.309a749.223 749.223 0 01-5.285 4.73c-.042.042-.061.061-.061.082s.02.021.041.021a.121.121 0 00.082-.021 8.928 8.928 0 012.8-.515c2.858 0 5.47 1.625 5.47 4.442 0 3.332-3.475 5.964-7.528 5.964-3.413 0-5.038-1.645-5.038-3.208 0-1.275 1.049-2.529 3.105-2.529 2.138 0 3.743 1.379 3.825 3.065 2.016-.638 2.88-2.077 2.88-3.189 0-1.316-1.049-2.447-3.27-2.447a9.911 9.911 0 00-1.049.082 8.372 8.372 0 00-6.006 3.456c-.041.061-.082.1-.123.1s-.062-.021-.124-.042zm7.63 3.537c0-1.461-1.583-1.461-1.665-1.461-.247 0-.925.042-.925.618 0 .124.041 1.049 2.57 1.131a1.443 1.443 0 00.021-.288m16.516-2.859a3.044 3.044 0 11-3.044 3.044 3.051 3.051 0 013.044-3.044m0 4.381a1.337 1.337 0 10-1.337-1.337 1.335 1.335 0 001.337 1.337" fill="#d60056"/></svg>