<svg xmlns="http://www.w3.org/2000/svg" width="561.666" height="26.608"><defs><clipPath id="a"><path fill="none" d="M0 0h561.666v26.608H0z"/></clipPath></defs><g clip-path="url(#a)" fill="#c90044"><path d="M5.221 17.565c-.886.372-1.854.743-2.879 1.111a1.18 1.18 0 01.026.285c0 .341-.112.545-.259.545s-.285-.117-.424-.341A33.312 33.312 0 010 16.001c1.824-.519 3.622-1.15 5.221-1.746V8.726h-1.34a28.38 28.38 0 01-.739 4.08c-.03.108-.061.169-.173.169a.326.326 0 01-.169-.033 10.624 10.624 0 00-2.567-.255H.086c1.4-3.337 1.543-8.1 1.543-10.469 0 0 2.109.086 2.853.2.311.056.536.147.536.29s-.195.277-.735.458c-.03.48-.061 1.478-.147 2.65h1.085v-3.85A10.8 10.8 0 005.135.397s2.71.026 3.682.195c.341.061.458.182.458.29 0 .2-.458.458-.8.54-.03.372-.061.545-.061.856v3.54h2.14v2.338A28.761 28.761 0 0013.438.315s2.42.337 3.367.54a.39.39 0 01.341.341c0 .143-.173.281-.774.372-.173.683-.6 2.023-1.167 3.592h10.439c-.061 3.964.056 13.088-1.055 16.909a5.518 5.518 0 01-5.762 4.37c-1.284 0-1.34-.173-1.37-.233a10.482 10.482 0 00-1.686-3.047 15.386 15.386 0 01-2.451 2.161.259.259 0 01-.141-.078 13.993 13.993 0 00-3.393-1.258c6.306-3.9 8.61-10.953 9.41-16.083h-1.228c-2.368 9.124-6.817 11.89-6.838 11.89a.2.2 0 01-.173-.061 10.324 10.324 0 00-2.541-1.055v7.867H5.221zm3.194.514c3.652-2.369 5.731-6.561 6.643-10.183h-1c-1.137 2.395-2.109 3.795-2.3 3.795a.3.3 0 01-.147-.086 11.485 11.485 0 00-2.991-1 9.087 9.087 0 001.565-1.876h-1.77v4.213c1.223-.54 2.14-.968 2.541-1.193v.765a10.287 10.287 0 00.112 2 .475.475 0 01.03.169c0 .086 0 .169-2.684 1.426zM22.078 7.896c-.51 3.825-1.971 10.214-5.986 14.89a12.913 12.913 0 002.451.372c2.706 0 3.739-1.686 3.933-15.262zm20.327 9.189c0-.285.03-2.079.056-3.959a13.625 13.625 0 01-1.513 2.334c-.026 0-.086-.056-.112-.108a12.734 12.734 0 00-2.567-2.467c3.082-3.082 5.334-9.068 5.96-12.517.03 0 4.136.912 4.136 1.483 0 .2-.285.372-.713.372-.061 0-.143-.03-.229-.03a55.713 55.713 0 01-2 5.109c.143 0 .29.026.4.026.519.052.713.2.713.341 0 .229-.341.458-.8.571 0 .138-.022 1.258-.022 1.258v2.131c2.993-3.644 3.91-9.032 4.048-10.065 3.168.458 3.821.661 3.821.968 0 .2-.255.4-.739.428-.143.575-.372 1.66-.769 2.918h2.165V2.597a19.456 19.456 0 00-.086-2s2.939.056 3.851.2c.285.056.458.169.458.337s-.255.4-.83.519c-.03.4-.056.912-.056 1.167v3.058h6.5v3.163h-6.5v4.815h7.473v3.169h-7.447v9.47h-3.388v-9.47h-7.444v-3.169h7.469V9.041h-3.25c-1.024 2.481-2.079 4.08-2.312 4.08a.2.2 0 01-.112-.03 11.734 11.734 0 00-2.848-.769l-.03 14.289h-3.373zm55.119-3.798a6.978 6.978 0 00-6.133-6.9 6.583 6.583 0 01.117 1.34c0 4.331-3.047 10.209-5.818 13.174a4.494 4.494 0 01-3.255 1.712c-2.079 0-5.36-2.74-5.36-7.184 0-5.8 5.507-12.184 13.23-12.184 6.388 0 11.043 4.37 11.043 10.239-.03 9.3-10.5 11.808-11.355 11.808a.217.217 0 01-.2-.112 23.117 23.117 0 00-3.536-3.164c4.845-.35 11.264-2.563 11.264-8.731m-17 2.057c0 2.135 1.34 3.224 1.854 3.224a1.256 1.256 0 00.938-.519c2.114-2.312 4.482-7.1 4.482-10.408a6.317 6.317 0 00-.086-1c-4.11 1.258-7.188 5.394-7.188 8.705m39.932.825c-1.2 1-2.027 1.712-2.027 2.624 0 1.508 3.2 2.338 6.47 2.338a31.754 31.754 0 009.414-1.682 28.439 28.439 0 00-.826 3.907c0 .2-.061.229-.229.285a27.875 27.875 0 01-7.473 1.055c-6.877 0-11.151-2.455-11.151-5.45 0-1.906 1.772-3.592 2.226-3.964zm-3.708-12.323a20.717 20.717 0 006.868.968 38.563 38.563 0 007.015-.627c.233-.03.428-.2.575-.2a7.693 7.693 0 011.573 3.142c0 .225-.177.251-.549.337a20.4 20.4 0 00-7.81 3.881l-3.423-.912c.855-.685 2.027-1.479 2.705-2.029.086-.078.147-.108.147-.138 0-.056-.117-.056-.173-.056a27.075 27.075 0 01-7.153-.856zm49.93 9.47c-6.358.341-13.261 2.282-13.261 5.558 0 .748.341 2.771 5.848 2.771a27.109 27.109 0 008.956-1.651 30.834 30.834 0 00-.687 4.219c0 .112-.056.169-.173.2a32.336 32.336 0 01-7.214.882c-6.557 0-10.412-2.477-10.412-6.246 0-2.675 2.312-5.07 6.164-6.838a10.14 10.14 0 01-.687-4.08c0-.942.061-1.971.061-3.086 0-.908-.061-2.364-.147-3.907 0-.086-.026-.143-.026-.195s.025-.086.111-.086c.255 0 3.652.428 4.193.54.32.056.488.173.488.316 0 .169-.255.337-.687.458-.086 1-.4 5.187-.4 6.185a6.066 6.066 0 00.48 2.567 35.223 35.223 0 012.312-.661c1.37-.337 3.566-.791 4.677-1.107a.551.551 0 01.2-.03c.147 0 .2.061.2.2v3.994zm22.623 3.221c0-.311.03-2.451.061-4.621a17.3 17.3 0 01-1.686 2.343c-.03 0-.056-.03-.082-.056a18.771 18.771 0 00-2.771-2.14A28.857 28.857 0 00191.584 0c.51.082 3.985.851 3.985 1.4 0 .169-.281.316-.713.316h-.196a38 38 0 01-2.425 5.355c.316 0 .54.035.6.035.458.056.657.195.657.363 0 .2-.316.458-.851.605-.03.225-.03 1.651-.03 1.651l-.145 16.425-3.255-.03zm17.081-11.376h-11.691v-3h17.2v3h-2.14v13.632c0 1.4.082 2.485.082 2.68v.143c0 3.678-3.1 4.283-5.731 4.283-.4 0-.765 0-1.111-.03-.143 0-.229-.035-.255-.151a17.972 17.972 0 00-2.252-3.471 25 25 0 003.6.428c1.418 0 2.3-.4 2.3-1.629zM195.06 7.586h8.9V19.45h-3.022v-1.655h-2.97v2.567h-2.908zm5.878 2.675h-2.97v4.793h2.969zm24.541-4.158a1.152 1.152 0 01-.138-.341c0-.117.108-.147.372-.147 4.785-.086 12.6-2.308 20.725-3.077a.619.619 0 00.32-.112.775.775 0 01.311-.117c.346 0 1.625 3.082 1.625 3.54 0 .169-.082.255-.225.255a1.653 1.653 0 01-.458-.117 13.037 13.037 0 00-4.024.774c-2.477.942-7.24 5.048-7.24 8.7 0 4.223 4.876 5.217 9.639 5.364a31.567 31.567 0 00-2.766 3.678.208.208 0 01-.173.112h-.086c-.8-.112-10.179-1.6-10.179-8.722 0-2.943 1.712-6.28 5.247-9.1-3.851.657-7.9 2.14-11.32 2.654zm19.71 2.023a12.842 12.842 0 012.762 3.795l-2.135 1.145a13.227 13.227 0 00-2.624-3.992zm3.25-1.31a13.92 13.92 0 012.767 3.51l-2.109 1.2a12.81 12.81 0 00-2.624-3.683zm21.586 11.462a3.474 3.474 0 01-.575-.03c-2.308-.082-4.132-1.228-4.132-2.792a3.677 3.677 0 011.595-2.684l2.624.713c-.6.428-1.024.83-1.024 1.141 0 .29.372.54 1.34.54h.281c.086-1.448.2-2.848.346-4.162a7.113 7.113 0 01-.769.03h-.233a10.549 10.549 0 01-3.938-.739s-.052-2.913-.052-3.112c0-.229.026-.372.2-.372a.691.691 0 01.255.086 10.791 10.791 0 003.769 1c.311 0 .683 0 1.055-.026.194-2.135.363-4.024.363-5.705 0-.428 0-.83-.022-1.2 0-.082-.03-.138-.03-.195 0-.086.052-.147.2-.147.086 0 2.939.428 3.907.692.346.082.484.195.484.311 0 .169-.372.367-.739.393-.177 1.513-.432 3.289-.713 5.226.886-.233 1.768-.51 2.654-.83l-.06 3.134c0 .117 0 .177-.143.2-.882.29-1.85.549-2.883.778-.138 1.31-.281 2.675-.367 4.02a27.551 27.551 0 004.136-1.794v1.336c0 .739 0 1.595.056 2.083v.086c0 .393-2.939 1.336-4.361 1.651v.882c0 2.451 1.31 3.428 2.935 3.428a5.393 5.393 0 005.131-5.022c0-2.369-2.023-4.876-4.815-7.214a27.866 27.866 0 004.024-.8.267.267 0 01.138-.03c.2 0 4.3 3.709 4.3 7.957a8.718 8.718 0 01-8.753 8.476c-3.484 0-6.22-2.286-6.22-6.622v-.255zM298.392 4.59h11.324v2.909h-11.324zm1.2 11.519h9.332v9.695h-3.029v-1.4h-3.25v1.573h-3.056zm.231-15.258h8.9v2.533h-8.9zm.03 7.845h8.753v2.451h-8.75zm.026 3.678h8.731v2.481h-8.731zm6.017 6.388h-3.25v2.879h3.25zm5.1-4.024h4.37v-3.79h-5.8V8.069h5.8V4.823c-1.4.169-2.8.307-4.024.393-.147 0-.2 0-.259-.147a11.936 11.936 0 00-1.854-2.65c3.851-.056 9.928-.769 12.262-1.88.117.138 1.63 1.906 2.088 2.593a.64.64 0 01.138.372.239.239 0 01-.259.255 1.132 1.132 0 01-.739-.367 34.259 34.259 0 01-4.132.938v3.739h6.241v2.879h-6.238v3.791h4.478v11.13h-3.194v-1.431h-5.68v1.513H311zm8.874 2.766h-5.676v3.994h5.679zm15.824-6.582a1.506 1.506 0 01-.06-.29c0-.108.06-.138.285-.169a32.424 32.424 0 005.705-.683c.341-.086.713-.169 1.085-.229a92.094 92.094 0 00-.29-6.358s3.026.143 4.11.316c.367.056.545.169.545.285 0 .2-.372.45-.83.51 0 1.2-.026 2.857-.052 4.56 1.936-.337 4.1-.709 6.5-1.024.03-.679.03-1.4.03-2.079 0-1.344-.03-2.654-.112-3.743 0 0 3.021.264 4.05.458.311.065.454.173.454.32 0 .169-.311.4-.8.48a530.413 530.413 0 01-.173 4.11 171.3 171.3 0 016.159-.6l-.255 3.419a.137.137 0 01-.143.147 79.444 79.444 0 00-5.986.277 26.471 26.471 0 01-.514 4.05 4.761 4.761 0 01-4.763 3.942c-1.055 0-2.42-.316-2.42-.8a27.129 27.129 0 00-.657-3.739 5.577 5.577 0 002.849 1.169c1.681 0 1.85-1.595 2.1-4.244-2.338.285-4.5.653-6.388 1.05-.056 2.373-.056 4.223-.056 4.452 0 2.226.147 4.219 4.616 4.219a32.685 32.685 0 007.3-1.076 29.329 29.329 0 00-.916 3.873.269.269 0 01-.22.259 46.66 46.66 0 01-5.563.372c-7.59 0-8.584-3.4-8.584-8.156v-.916c.026-.683.026-1.457.026-2.226l-.566.143c-1.828.454-3.855.942-5.338 1.145zm38.122 5.787a.249.249 0 01-.091-.143c0-.255 2.684-2.226 5.079-4.219a67.181 67.181 0 006.73-6.5c.03-.03.056-.03.056-.056h-.03a.341.341 0 00-.143.026 20.866 20.866 0 01-6.246 1.249h-.372l-1.249-3.415v-.086c0-.086.03-.117.087-.117h.056a10.289 10.289 0 002.023.173 28.609 28.609 0 008.5-1.483c.311-.117.4-.29.566-.29.341 0 3.086 2 3.086 2.451 0 .2-.29.29-.657.432-2.17 1.967-5.308 4.763-7.326 6.561-.065.056-.091.086-.091.112s.026.03.061.03a.16.16 0 00.112-.03 12.3 12.3 0 013.877-.717c3.964 0 7.586 2.256 7.586 6.168 0 4.621-4.819 8.268-10.438 8.268-4.729 0-6.985-2.282-6.985-4.448 0-1.768 1.457-3.51 4.3-3.51 2.974 0 5.2 1.915 5.312 4.249 2.792-.886 3.994-2.879 3.994-4.422 0-1.824-1.461-3.389-4.534-3.389-.458 0-.947.056-1.461.108a11.62 11.62 0 00-8.329 4.789c-.052.091-.112.151-.169.151s-.082-.03-.173-.061zm10.581 4.906c0-2.023-2.2-2.023-2.308-2.023-.346 0-1.284.056-1.284.856 0 .169.056 1.457 3.562 1.569a1.919 1.919 0 00.03-.4m27.851-17.775h7.443c.087-1 .117-1.967.117-2.9v-.86s2.879.138 3.791.316c.372.056.6.2.6.372s-.259.337-.856.484c-.056.765-.117 1.621-.2 2.589H437v3.25h-14.291c-.112.83-.251 1.69-.454 2.541h8.614c.173 0 .311-.2.51-.2.026 0 2.395 1.253 2.395 1.712 0 .173-.229.29-.54.341a22.912 22.912 0 01-4.361 7.7 21.825 21.825 0 009.323 3.332 24.347 24.347 0 00-3.566 3.086.156.156 0 01-.138.082 20.3 20.3 0 01-8.014-4.05 21.328 21.328 0 01-8.161 4.426.159.159 0 01-.143-.086 11.176 11.176 0 00-2.533-2.334c-.29.307-.605.6-.916.882-.061.03-.082.056-.147.056a.119.119 0 01-.086-.026 14.94 14.94 0 00-3.704-1.492c4.88-3.281 7.5-9.781 8.5-15.975h-7.04zm11.916 15.6a20.8 20.8 0 01-3.25-4.845 23.892 23.892 0 01-4.871 8.64 19.06 19.06 0 008.122-3.795m-.765-6.9a12.9 12.9 0 003.047 4.681 15.219 15.219 0 002.771-4.681zm27.655 11.559a123.35 123.35 0 006.5-12.867 20.914 20.914 0 01-4.845.683c-.255-.769-1.024-3.505-1.024-3.566s.052-.108.138-.108c.065 0 .117.026.173.026a13.346 13.346 0 001.716.112 27.073 27.073 0 005.131-.627 30.128 30.128 0 001.361-6.389s3.363.571 4.08.774c.346.086.484.255.484.393 0 .2-.341.4-.912.428-.259.916-.713 2.736-1.171 4.283.316-.03.631-.056.942-.056 2.853 0 4.309 1.621 4.309 6.155a21.817 21.817 0 01-.942 6.475 5.946 5.946 0 01-5.705 4.391 5.318 5.318 0 01-2.822-.769c-.117-.056-.138-.112-.138-.255a36.325 36.325 0 00-.488-4.132c-.826 1.794-1.738 3.648-2.71 5.7zm9.98-3.622a2.668 2.668 0 002.563-2 17.574 17.574 0 00.83-5.36c0-1.34-.082-2.68-1.457-2.68a7.759 7.759 0 00-1.478.169 146.19 146.19 0 01-3.566 8.243 4.182 4.182 0 003.108 1.629m10.264-13.236c3.7 2.533 6.077 5.645 6.25 8.809l-3.367 1.681a.5.5 0 01-.147.061c-.052 0-.082-.061-.108-.173-.264-2.9-1.573-6.017-5.623-8.666-.2-.147-.285-.2-.285-.255s.117-.117.32-.2zm-.225-4.538a14.406 14.406 0 013.825 2.939l-1.66 1.569a12.625 12.625 0 00-3.76-3.134zm2.825-1.937a14.9 14.9 0 013.76 2.68l-1.6 1.625a13.4 13.4 0 00-3.7-2.909zm28.742 17.25a.249.249 0 01.052.173c0 .03-.022.086-.022.117-1.716 3.618-3.4 5.239-5.277 5.239a5.043 5.043 0 01-2.485-.791c-3.847-2.252-4.876-6.3-4.876-12.379 0-1.167.086-2.762.086-4.08 0-.367 0-.713-.026-1.029 0-.169 0-.22.112-.22.2 0 4.595.341 4.595.851 0 .169-.29.372-.8.458-.086.826-.372 4.219-.372 6.306 0 2.589.424 5.156 2.8 6.5a1.538 1.538 0 00.769.255c.938 0 1.707-1.34 3.052-5.187a23.4 23.4 0 002.395 3.791m7.356 1.6a.285.285 0 01-.138.056c-.061 0-.086-.086-.086-.259 0-.195.026-.363.026-.566 0-4.223-2.364-9.3-6.159-12.863l3.505-1.115c3.683 3.2 6.475 8.817 6.475 12.72v.341zm13.967-2.948a.231.231 0 01-.091-.138c0-.255 2.684-2.226 5.079-4.219a67.182 67.182 0 006.73-6.5c.03-.03.056-.03.056-.056h-.026a.342.342 0 00-.143.026 20.866 20.866 0 01-6.246 1.249h-.372l-1.253-3.415v-.087c0-.091.03-.117.086-.117h.056a10.289 10.289 0 002.023.173 28.748 28.748 0 008.506-1.482c.311-.117.4-.29.566-.29.341 0 3.086 2 3.086 2.451 0 .2-.29.29-.657.432-2.17 1.967-5.308 4.763-7.331 6.561-.06.056-.086.086-.086.112s.026.03.06.03a.165.165 0 00.112-.03 12.3 12.3 0 013.877-.717c3.964 0 7.586 2.256 7.586 6.168 0 4.621-4.819 8.269-10.438 8.269-4.729 0-6.985-2.282-6.985-4.448 0-1.768 1.457-3.514 4.3-3.514 2.974 0 5.2 1.919 5.312 4.253 2.792-.886 3.985-2.883 3.985-4.422 0-1.824-1.452-3.389-4.53-3.389-.458 0-.942.056-1.457.108a11.62 11.62 0 00-8.329 4.789c-.052.091-.112.151-.169.151s-.086-.03-.173-.061zm10.581 4.91c0-2.023-2.2-2.023-2.308-2.023-.346 0-1.284.056-1.284.856 0 .169.056 1.457 3.562 1.569a1.939 1.939 0 00.03-.4m22.891-3.97a4.223 4.223 0 11-4.219 4.224 4.235 4.235 0 014.219-4.227m0 6.081a1.854 1.854 0 10-1.855-1.854 1.855 1.855 0 001.854 1.854"/></g></svg>