<svg xmlns="http://www.w3.org/2000/svg" xmlns:xlink="http://www.w3.org/1999/xlink" width="351.474" height="182.985"><defs><linearGradient id="a" y1="1" x2="1" y2=".293" gradientUnits="objectBoundingBox"><stop offset="0" stop-color="#006eba"/><stop offset=".067" stop-color="#166cb6"/><stop offset=".145" stop-color="#366bb2"/><stop offset=".386" stop-color="#ca3962"/><stop offset=".427" stop-color="#cf3360"/><stop offset=".48" stop-color="#dd225d"/><stop offset=".5" stop-color="#e41b5c"/><stop offset=".569" stop-color="#e5354d"/><stop offset=".639" stop-color="#e74c41"/><stop offset=".738" stop-color="#ee7f29"/><stop offset=".8" stop-color="#f3a219"/><stop offset=".903" stop-color="#f6b413"/><stop offset="1" stop-color="#f9c110"/></linearGradient><linearGradient id="b" y1="0" y2=".707" xlink:href="#a"/><linearGradient id="c" y1="1" y2=".055" xlink:href="#a"/><linearGradient id="d" y1="0" y2="0" xlink:href="#a"/></defs><path d="M0 97.535c2.477-7.108 6.525-13.8 12.407-18.569 3.2-2.668 6.7-4.9 9.828-7.563-3.666-2.486-5.121-7.695-2.48-11.473a6.414 6.414 0 015.034-2.979c2.775-.045 5.736 1.6 6.493 4.413.9 3.579-1.667 6.711-3.963 9.09a14.832 14.832 0 006.356-1.036c7.995-3.4 12.766-11.783 14.111-15.472a74.222 74.222 0 003.407-14.35c.083-.573.243-2.84.31-3.366l5.74 5.887c-.315 4.727-3.3 12.468-7.562 18.592a39.223 39.223 0 01-7.858 7.8 31.147 31.147 0 01-6.923 3.512c-3.145 1.082-6.724 1.668-9.95.677-3.467 3-7.436 5.387-10.985 8.184A35.114 35.114 0 004.858 91.67a44.575 44.575 0 00-3.015 6.465zm22.413-35.83c-1.613 2.355-.429 6.382 1.914 7.789q.384-.382.758-.777c2-2.051 5.538-6.329 1.73-8.244a3.778 3.778 0 00-1.665-.416 3.2 3.2 0 00-2.737 1.648zm29.343 18.378l3.544-3.545 3.545 3.545-3.545 3.545zM15.86 29.848l5.317-5.317 5.317 5.317-5.317 5.317zm55.983-.709l4.608-4.608 4.609 4.608-4.609 4.609zM47.48 3.545L51.025 0l3.545 3.545-3.545 3.545z" transform="translate(269.707 84.224)" stroke="rgba(0,0,0,0)" stroke-miterlimit="10" fill="url(#a)"/><path d="M0 .6c2.477 7.109 6.525 13.8 12.407 18.57 3.2 2.668 6.7 4.9 9.828 7.563-3.666 2.486-5.121 7.695-2.48 11.473a6.414 6.414 0 005.034 2.979c2.775.045 5.736-1.6 6.493-4.413.9-3.579-1.667-6.711-3.963-9.09a14.831 14.831 0 016.356 1.036c7.995 3.4 12.766 11.783 14.111 15.472a74.222 74.222 0 013.407 14.35c.083.573.243 2.84.31 3.366l5.74-5.887c-.315-4.727-3.3-12.468-7.562-18.592a39.225 39.225 0 00-7.858-7.8 31.147 31.147 0 00-6.923-3.513c-3.145-1.082-6.724-1.668-9.95-.677-3.467-3-7.436-5.387-10.985-8.184A35.113 35.113 0 014.858 6.465 44.575 44.575 0 011.842 0zm22.413 35.83c-1.613-2.355-.429-6.382 1.914-7.789q.384.382.758.777c2 2.051 5.538 6.329 1.73 8.244a3.779 3.779 0 01-1.665.416 3.2 3.2 0 01-2.737-1.648zm29.343-18.378L55.3 21.6l3.545-3.545-3.545-3.548zM15.86 68.288l5.318 5.317 5.317-5.317-5.318-5.318zM71.843 69l4.608 4.608L81.06 69l-4.609-4.609zM47.48 94.59l3.545 3.545 3.545-3.545-3.545-3.545z" transform="rotate(180 40.883 91.18)" stroke="rgba(0,0,0,0)" stroke-miterlimit="10" fill="url(#b)"/><path d="M2518.205 1455.974a.8.8 0 00-.753-.809c-.334 0-.7.056-1.032.056-.642 0-.7-.335-.7-1.116v-1.562c0-.781.056-1.088.7-1.088.279 0 .837.029 1.06.029.558 0 .725-.5.725-.977v-1.339c0-.781-.084-1.729-.084-1.84 0-.419.279-.447.614-.447.558 0 2.232.112 2.9.167.391 0 .865.056.865.5 0 .251-.167.335-.335.474-.251.2-.251.53-.251 1.2v1.312c0 .5.2.949.754.949.25 0 .781-.029 1.088-.029.642 0 .7.279.7 1.088v1.562c0 .781-.056 1.116-.7 1.116-.335 0-.7-.056-1.033-.056a.777.777 0 00-.809.726v1.729c0 .308.029.753.447.753a4.812 4.812 0 001.088-.418 1.036 1.036 0 01.418-.112c.586 0 .614 2.064.614 2.538 0 .921-.084 1.06-1.7 1.7-.586.25-.865.446-.865 1.115v3.572c0 .7.029 1.4.029 2.12 0 2.594-1.869 3.292-4.129 3.292-1.116 0-1.786-.028-1.786-3.18 0-.474.167-.865.726-.865.222 0 .474.029.7.029.67 0 .753-.2.753-.949v-2.343c0-.251 0-.864-.586-.864a.858.858 0 00-.864.474.556.556 0 01-.447.335c-.306 0-.362-.335-.642-1.646-.083-.39-.167-.837-.278-1.4a5.521 5.521 0 01-.167-.892c0-.363.2-.446 2.009-.865a1.008 1.008 0 00.976-1.06zm11.467 14.535a.8.8 0 00-.781.809v.308c0 .53-.224.7-.726.7h-1.785c-1.116 0-1.311-.084-1.311-.7 0-1.033.055-2.065.055-3.125v-11.913c0-.865-.055-1.7-.055-2.567 0-.948.558-1.115 1.366-1.115s1.618.056 2.427.056h.977a.814.814 0 00.753-.781v-2.481c0-1.312-.084-2.121-.084-2.371 0-.336.223-.391.5-.391.195 0 .557 0 1.868.112 1.256.112 2.065.14 2.065.53 0 .2-.14.307-.279.418a1.264 1.264 0 00-.251.949c-.028.836-.028 1.646-.028 2.455v.753a.894.894 0 00.81.809h1c.808 0 1.59-.056 2.4-.056s1.4.14 1.4 1.115c0 .865-.056 1.7-.056 2.567v11.91c0 1.06.084 2.092.084 3.125 0 .641-.335.7-.865.7h-2.037c-.557 0-.948 0-.948-.7v-.364c0-.474-.335-.7-.753-.753zm.92-13.252a.661.661 0 00-.67-.67h-.419a.662.662 0 00-.67.67v1.9a.662.662 0 00.67.67h.419a.679.679 0 00.67-.67zm-.67 9.681a.679.679 0 00.67-.67v-2.287a.678.678 0 00-.67-.67h-.419a.661.661 0 00-.67.67v2.287a.662.662 0 00.67.67zm5.552-7.114a.819.819 0 00.781-.782v-1.673a.8.8 0 00-.781-.781h-.306a.8.8 0 00-.782.781v1.673a.8.8 0 00.782.782zm0 7.114a.818.818 0 00.781-.781v-2.065a.8.8 0 00-.781-.781h-.306a.8.8 0 00-.782.781v2.065a.8.8 0 00.782.781zm15.489 4.687c-.028.139-.167.362-.362.362-.335 0-.474-.419-.977-1.7-.139-.363-.307-.81-.531-1.339a3.65 3.65 0 01-.306-1.032.721.721 0 01.5-.7 4.67 4.67 0 00.529-.25c1.061-.614 1.536-.781 1.536-1.869v-3.515a.777.777 0 00-.81-.809c-.167 0-.474.056-.726.056-.641 0-.7-.335-.7-1.088v-1.479c0-.753.057-1.143.642-1.143.419 0 1.088.084 1.619.084h.362c.614 0 1.228-.056 1.842-.056.892 0 1.506.307 1.506 1.312 0 .781-.056 1.59-.056 2.455v3.292c0 2.4 1.34 3.293 1.7 3.293a.1.1 0 00.112-.112.5.5 0 00-.167-.279 4.482 4.482 0 01-.67-1.311c0-.279.335-.307.53-.335.53-.084 3.822-.837 3.822-1.228 0-.139-.251-.167-.335-.167h-.837c-.92 0-1.841.056-2.762.056-.53 0-.586-.307-.586-.893v-.977c0-.586.056-.892.586-.892.921 0 1.842.056 2.762.056h.419a.322.322 0 00.334-.336v-.223c0-.251-.223-.307-.419-.307-.67 0-1.339.056-2.008.056-.53 0-.586-.307-.586-.921v-.7c0-.92.028-1.2.642-1.2.642 0 1.311.056 1.952.056.251 0 .363-.084.363-.336 0-.808-.167-.836-.753-.864-1.367-.056-2.595-.167-2.595-1.842 0-.084.056-1 .056-1.2v-.558c0-.586-.056-.977-.056-1.312 0-.808.474-.92.977-.92.557 0 1.115.028 1.674.028h.614a.346.346 0 00.363-.336v-.112a.37.37 0 00-.363-.363h-.419c-.781 0-1.562.057-2.343.057-.726 0-.754-.168-.754-.866v-.892c0-.67.056-.809.726-.809.809 0 1.59.028 2.371.028h1.4c.614 0 1.2-.028 1.786-.028.7 0 1 .279 1 1.06 0 .447-.056.949-.056 1.591v.67c0 1.673.167 1.646.753 1.813.419.111.67.279.67.753a4.667 4.667 0 01-1.228 2.874c-.056.056-.139.14-.139.2 0 .167.167.167.28.2.222 0 .446.112.446.363 0 .2-.112.251-.223.363a.351.351 0 00-.112.25.191.191 0 00.2.2h1.172c.363 0 .446-.2.446-.5a1.358 1.358 0 00-.028-.335c0-.056-.028-.167-.028-.25a.652.652 0 01.056-.223.828.828 0 00.056-.279 1.016 1.016 0 00-.195-.474 2.351 2.351 0 01-.2-.977c0-.112.028-.92.028-1.06v-.7c0-.586-.028-.977-.028-1.312 0-.808.447-.92.976-.92.558 0 1.116.028 1.675.028h1.06a.323.323 0 00.335-.336v-.112a.346.346 0 00-.335-.363h-.921c-.781 0-1.562.057-2.343.057-.7 0-.754-.168-.754-.81v-.948c0-.67.057-.809.726-.809.781 0 1.563.028 2.371.028h1.9c.586 0 1.171-.028 1.757-.028.7 0 1 .279 1 1.06 0 .447-.028.949-.028 1.591v.67c0 .5.056.92.056 1.366 0 .363.112.5.447.585s.7.252.7.7c0 .53-.418 2.651-1.618 2.986a7.394 7.394 0 01-2.036.2.205.205 0 00-.223.223c0 .055.028.111.028.167 0 .14-.14.251-.224.335a.338.338 0 00-.167.278c0 .14.167.168.279.168.725 0 1.451-.056 2.176-.056.614 0 .642.306.642 1.088v.781c0 .642-.028.949-.642.949-.725 0-1.45-.056-2.176-.056-.2 0-.475.056-.475.307v.2a.369.369 0 00.362.363h.642c.894 0 1.814-.056 2.735-.056.558 0 .614.251.614.892v1c0 .586-.056.865-.586.865-.921 0-1.841-.056-2.762-.056h-1c-.112 0-.335.028-.335.167 0 .475 3.627 1.115 4.186 1.2.5.084.613.056.613.39a3.769 3.769 0 01-.557 1.535.69.69 0 00-.112.307c0 .167.14.223.279.279.446.112.5.5.5.893a3.931 3.931 0 01-.642 2.316 1.6 1.6 0 01-.949.446c-.726.056-2.9.084-3.794.084h-6.612c-2.315 0-5.189-.084-6.863-.865a4.724 4.724 0 01-1.311-.892 1.174 1.174 0 00-.726-.335c-.362 0-.892.446-1.422.921-.139.111-.251.223-.391.334a1.287 1.287 0 00-.528.765zm3.1-21.482a13.268 13.268 0 011.339 2.427c0 .5-2.26 1.786-2.678 1.786-.307 0-.418-.336-.53-.558a22.161 22.161 0 00-2.622-3.962c-.139-.167-.391-.446-.391-.642 0-.53 1.953-1.925 2.538-1.925.472.001 2.035 2.4 2.342 2.875zm9.235 13.921c-.167 0-.475.028-.475.251 0 .2.363.53.614.753.419.391.781.753.781.976s-.167.308-.362.308c-.056 0-.168-.028-.224-.028a.817.817 0 00-.251-.056.885.885 0 00-.25.084 31.254 31.254 0 01-3.181 1.2c-.112.056-.5.139-.5.306 0 .2.67.2 2.288.2h5.272c.363 0 1.953-.028 2.455-.028.112 0 .418-.028.418-.223 0-.14-.362-.25-.474-.278a18.068 18.068 0 01-3.348-1.367c-.167-.112-.308-.2-.308-.391 0-.335.586-.948.838-1.172.083-.084.279-.279.279-.391s-.139-.139-.223-.139zm-2.985-10.852a.353.353 0 00-.335.391c0 .474.223.474.642.474h.251c.335 0 .586-.14.586-.53a.308.308 0 00-.335-.335zm5.161 8.2a.369.369 0 00.362-.363v-.14a.369.369 0 00-.362-.363h-1.4a.346.346 0 00-.335.363v.14a.365.365 0 00.335.363zm3.6-8.2a.371.371 0 00-.335.391c0 .474.223.474.642.474h.642c.2 0 .585 0 .585-.558 0-.25-.195-.306-.418-.306zm14.067-.642c0-.865.307-.893 3.375-1.06.558-.028 1.2-.057 1.98-.112 3.516-.223 11.606-1.143 15.01-1.785a1.047 1.047 0 01.279-.028c.5 0 .586.39.7.92a19.629 19.629 0 01.362 3.1c0 .529-.306.529-1.506.557a11.373 11.373 0 00-3.99.5 8.671 8.671 0 00-5.775 8.147c0 2.65 1.4 3.376 3.851 3.376.7 0 1.618-.084 2.008-.084.529 0 .725.084.725.613a12.669 12.669 0 01-.474 3.265c-.223.558-.614.641-1.2.641-5.161 0-9.485-1.339-9.485-7.365a11.694 11.694 0 012.4-7.114.792.792 0 00.167-.419c0-.251-.195-.418-.5-.418a10 10 0 00-1.507.251c-1.479.279-3.4.7-4.854 1.116a1.878 1.878 0 01-.39.056c-.586 0-.781-1.255-.921-2.121a15 15 0 01-.259-2.035zm18.524 4.631a12.4 12.4 0 011.9 2.734c0 .558-1.507 1.423-1.786 1.423-.14 0-.195-.084-.558-.642-.53-.809-1.088-1.534-1.7-2.316a.476.476 0 01-.14-.307c0-.391 1.563-1.227 1.869-1.227.132.001.3.196.411.334zm5.552 1.032c0 .558-1.478 1.451-1.786 1.451-.2 0-.334-.251-.418-.391a21.721 21.721 0 00-1.786-2.427.878.878 0 01-.223-.418c0-.363 1.535-1.228 1.869-1.228a10.539 10.539 0 012.34 3.014zm-103.283 32.945c1.06 0 2.12-.056 3.181-.056.446 0 .53.223.53.726v1.115c0 .5-.084.7-.53.7-1.061 0-2.121-.056-3.181-.056h-17.437c-1.06 0-2.12.056-3.179.056-.447 0-.531-.2-.531-.67v-1.143c0-.5.083-.726.531-.726 1.06 0 2.12.056 3.179.056h5.8a.689.689 0 00.781-.642 3.468 3.468 0 00-.056-.5c0-.056-.028-.195-.028-.25 0-.335.391-.335.613-.335.81 0 2.762.139 3.6.224.223.028.67.056.67.362 0 .139-.14.223-.279.335a.438.438 0 00-.2.362c0 .251.139.447.5.447zm-.167 17.995c0 .2.083.279.921.921a16.186 16.186 0 002.316 1.45c.418.223.53.335.53.5 0 .586-1.618 2.4-2.371 2.4-.251 0-.474-.112-1.032-.53a21.23 21.23 0 01-4.213-3.934 15.517 15.517 0 01-2.455-4.465c-.139-.446-.307-.613-.7-.613h-.781c-.307 0-.53 0-.53.167 0 .084.14.167.2.223a7.967 7.967 0 013.069 5.915c0 3.041-2.148 3.543-4.743 3.543h-.614c-.921 0-1.451-.139-1.535-1.9 0-.084 0-.558-.363-.558a6.375 6.375 0 00-.977.363.459.459 0 00-.167.084 36.554 36.554 0 01-5.831 2.037c-.642 0-1.451-1.283-1.451-1.869 0-.251.2-.335.586-.447a47.674 47.674 0 0010.072-3.794.43.43 0 00.251-.363.3.3 0 00-.336-.307.743.743 0 00-.334.084 49.571 49.571 0 01-6.25 2.706 20.037 20.037 0 01-2.456.7c-.585 0-1.171-1.144-1.171-1.59 0-.308.251-.363.474-.418a42.176 42.176 0 008.007-2.9.334.334 0 00.223-.306c0-.2-.251-.308-.419-.308a.563.563 0 00-.307.084c-1.143.558-5.886 2.483-6.918 2.483-.67 0-1.256-1.256-1.256-1.7 0-.334.5-.39.753-.446 1.144-.252 2.26-.586 3.375-.949.14-.028.418-.139.418-.306s-.167-.2-.306-.2c-.252 0-.5.028-.782.028-.5 0-.529-.251-.529-.809a.558.558 0 00-.558-.613h-.865c-.7 0-1.088-.057-1.088-.475 0-.195.056-.586.056-.977v-.725c0-.53-.028-.892-.028-1.115 0-.7.781-.753 1.7-.753.976 0 1.953.028 2.929.028h13.866c.976 0 1.953-.028 2.929-.028 1 0 1.729.084 1.729.753 0 .2-.056.558-.056 1.115v.725c0 .419.056.81.056.977 0 .391-.306.475-.976.475h-1a.543.543 0 00-.586.529v.112c0 .558-.056.781-.53.781-.781 0-1.534-.056-2.315-.056-.307 0-.642.084-.642.474 0 .056.279 1.173.865 1.173.362 0 1.172-.809 1.45-1.089.223-.223.335-.362.5-.362a15.828 15.828 0 012.343 1.646c.167.14.558.391.558.642 0 .167-.2.251-.336.251-.112 0-.222-.028-.334-.028h-.14a.542.542 0 00-.335.167c-.335.251-.614.447-.837.614-.477.337-.728.505-.728.784zm-15.651-7.254c-.2 0-.474.028-.474.363a.4.4 0 00.363.418h14.4c.279 0 .391-.167.391-.446 0-.252-.2-.335-.447-.335zm10.769-7.644c.753 0 1.507-.028 2.26-.028s1.339.112 1.339 1c0 .307-.028.614-.028 1.144v.335c0 .53.028.837.028 1.115 0 .894-.558 1.032-1.311 1.032s-1.507-.028-2.288-.028h-7.365c-.753 0-1.507.028-2.26.028s-1.311-.139-1.311-1c0-.306.028-.613.028-1.143v-.335c0-.558-.028-.837-.028-1.144 0-.865.558-1 1.283-1 .781 0 1.534.028 2.287.028zm-7.253 2.4a.309.309 0 00.306.307h6.556a.31.31 0 00.308-.307v-.168a.31.31 0 00-.308-.306h-6.556a.292.292 0 00-.306.306zm1.7 14.674c-.084.056-.335.14-.335.279 0 .167.139.167.279.167h.223c.475 0 1.228-.056 1.228-.725 0-.167-.084-.279-.25-.279a7.118 7.118 0 00-1.148.558zm27.626-.195c-1.172 0-2.372.056-3.544.056-.613 0-.669-.308-.669-1.088v-1.228c0-.809.056-1.088.7-1.088 1.171 0 2.344.056 3.516.056h5.3a.317.317 0 00.335-.307v-.251a.317.317 0 00-.335-.306h-4.52c-1.06 0-2.148.056-3.236.056-.67 0-.726-.252-.726-1.061v-.558c0-1.339 0-1.59.726-1.59.614 0 1.228.056 1.869.056.278 0 .362-.2.362-.446 0-.279-.112-.474-.39-.474-1.144 0-2.261.055-3.4.055-.614 0-.67-.307-.67-1.06v-1.143c0-.753.056-1.06.67-1.06.977 0 1.953.056 2.929.056h.5a.343.343 0 00.362-.307c0-.251-.028-.53-.362-.53-.447 0-.894.028-1.339.028-.642 0-.754-.25-.754-1v-1.423c0-.642.112-.893.7-.893.892 0 1.757.056 2.65.056h.557c.419 0 .419-.391.419-.614a.431.431 0 00-.474-.418h-1.311c-1.116 0-2.232.056-3.348.056-.669 0-.725-.25-.725-1.032v-1.506c0-.781.056-1.032.725-1.032 1.116 0 2.232.056 3.348.056h.837c.781 0 .977-.418.977-.726 0-.167-.083-.725-.083-.864 0-.28.362-.308.558-.308.614 0 2.594.139 3.263.2.838.056 1.033.112 1.033.335 0 .112-.056.167-.28.307-.167.14-.306.252-.306.474a.569.569 0 00.642.586h2.427c.558 0 .781-.307.781-.614a3.715 3.715 0 00-.057-.586c0-.084-.028-.167-.028-.222 0-.308.363-.308.586-.308.67 0 2.9.14 3.655.224.223 0 .641.028.641.306 0 .112-.139.223-.278.308-.167.111-.307.223-.307.418 0 .252.139.474.529.474h1.2c1.144 0 2.26-.056 3.376-.056.669 0 .725.251.725 1.032v1.506c0 .782-.056 1.032-.725 1.032-1.117 0-2.232-.056-3.376-.056h-1.228c-.306 0-.529.112-.529.447 0 .306.083.585.474.585h.391c.892 0 1.757-.056 2.65-.056.642 0 .7.279.7 1.032v1.283c0 .7-.056 1-.67 1-.446 0-.921-.028-1.366-.028-.364 0-.559.028-.559.447a.405.405 0 00.419.391h.642c.949 0 1.9-.056 2.846-.056.613 0 .669.307.669 1.06v1.143c0 .753-.056 1.06-.669 1.06-1.06 0-2.121-.055-3.209-.055h-.307c-.335 0-.391.195-.391.558a.345.345 0 00.391.362c.614 0 1.228-.056 1.869-.056.67 0 .725.279.725 1.144v.614c0 1.171-.027 1.451-.725 1.451-1.087 0-2.177-.056-3.265-.056h-4.547a.31.31 0 00-.308.306v.251a.31.31 0 00.308.307h5.188c1.2 0 2.372-.056 3.543-.056.642 0 .7.279.7 1.088v1.228c0 .781-.056 1.088-.669 1.088-1.2 0-2.372-.056-3.572-.056h-4.6a.79.79 0 00-.865.809c0 .67.056 1.339.056 2.037 0 .726-.279.781-1.284.781h-1.7c-.892 0-1.2-.056-1.2-.753s.056-1.4.056-2.093a.776.776 0 00-.837-.781zm3.933-12.192a.293.293 0 00-.307.307v.251a.31.31 0 00.307.307h1.367a.317.317 0 00.335-.307v-.251a.317.317 0 00-.335-.307zm1.339 4.938a.346.346 0 00.363-.334v-.224a.352.352 0 00-.363-.362h-1.283a.351.351 0 00-.363.362v.224a.346.346 0 00.363.334zm1.116-9.179a.5.5 0 00-.558.5.512.512 0 00.53.53h2.734c.447 0 .614-.139.614-.585 0-.224-.14-.447-.53-.447zm3.571 4.241a.293.293 0 00-.308.307v.251a.31.31 0 00.308.307h1.395a.31.31 0 00.307-.307v-.251a.31.31 0 00-.307-.307zm1.339 4.938a.345.345 0 00.362-.334v-.224a.351.351 0 00-.362-.362h-1.283a.337.337 0 00-.364.362v.224a.331.331 0 00.364.334zm28.182 6.78c-.39 0-.641.028-.641.334a.457.457 0 00.111.28 13.95 13.95 0 01.866 1.2.61.61 0 01.112.279.309.309 0 01-.336.279c-.195 0-.418-.112-.614-.112a.638.638 0 00-.306.084 26.712 26.712 0 01-7.17 1.674c-.252.028-.837.083-1.06.083-.5 0-.726-.391-1.06-1.061a5.609 5.609 0 01-.53-1.59c0-.5.614-.5.977-.53a27.166 27.166 0 004.045-.5c.14-.028.279-.084.279-.2s-.139-.14-.335-.167c-.754-.111-1-.5-1-1.255s.056-1.535.056-2.316v-2.678c0-.781-.056-1.562-.056-2.315 0-.977.474-1.283 1.366-1.283.837 0 1.646.084 2.455.084h9.207c.781 0 1.59-.056 2.4-.056.92 0 1.422.223 1.422 1.256 0 .781-.056 1.534-.056 2.315v2.678c0 .781.056 1.563.056 2.344 0 .53-.167 1.06-.753 1.2-.112 0-.391.055-.391.195 0 .167.419.223.753.28a34.221 34.221 0 004.045.5c.336 0 .614.028.614.447 0 .614-.781 2.651-1.758 2.651a33.936 33.936 0 01-5.942-1.033 28.557 28.557 0 01-2.985-1 .342.342 0 01-.2-.307 1.834 1.834 0 01.28-.7 1.629 1.629 0 00.251-.642c0-.39-.251-.418-.7-.418zm6.864-20.9c.418 0 3.209.7 3.823.836.222.056.474.14.474.391s-.335.362-.53.418c-.251.056-.251.083-.418.335a1.526 1.526 0 00-.25.53c0 .224.223.224.39.224.558 0 1.144-.028 1.7-.028.641 0 1.479.084 1.479.893 0 .474-.056.948-.056 1.422v.921c0 .475.056.949.056 1.367 0 .614-.307.7-1.255.7h-1.646c-.669 0-1.088-.056-1.088-.7 0-.278.056-.614.056-.864 0-.642-.334-.893-.948-.893h-13.759c-.418 0-1 .056-1 .865 0 .335.028.669.028.892 0 .642-.335.7-1.423.7h-1.506c-.614 0-1.032-.056-1.032-.7 0-.362.056-.836.056-1.367v-.921c0-.474-.056-.948-.056-1.395 0-.893.893-.921 1.563-.921.53 0 1.06.028 1.618.028.2 0 .446-.056.446-.307a4.066 4.066 0 00-.5-.977.5.5 0 01-.112-.251c0-.363 1.033-.585 1.339-.669a11.6 11.6 0 012.065-.5c.418 0 .5.25.725.586a9.762 9.762 0 01.753 1.534c.223.558.39.614.977.614.865 0 .921-.447.921-1.144 0-.558-.084-1.312-.084-1.451 0-.447.307-.5.642-.5.725 0 2.622.139 3.4.168.223.028.977.028.977.362 0 .2-.2.307-.475.447-.306.167-.418.195-.418 1.115 0 .642.223 1 .893 1 .892 0 1.088-.447 1.786-2.344.079-.245.135-.412.387-.412zm-1.87 6.221c.726 0 1.451-.056 2.177-.056.865 0 1.227.279 1.227 1.171 0 .308-.028.586-.028.894v.279c0 .307.028.586.028.893 0 .865-.362 1.172-1.2 1.172-.725 0-1.451-.056-2.2-.056h-6.472c-.725 0-1.451.056-2.2.056-.837 0-1.2-.279-1.2-1.172 0-.307.028-.586.028-.893v-.279c0-.308-.028-.586-.028-.894 0-.864.363-1.171 1.2-1.171.725 0 1.45.056 2.2.056zm.894 7.7a.316.316 0 00.334-.307v-.139a.339.339 0 00-.334-.334h-8.259a.339.339 0 00-.335.334v.139a.316.316 0 00.335.307zm-8.259 1.591a.316.316 0 00-.335.307v.167a.316.316 0 00.335.306h8.259a.316.316 0 00.334-.306v-.167a.316.316 0 00-.334-.307zm.028 2.455a.346.346 0 00-.363.335v.084a.37.37 0 00.363.363h8.2a.369.369 0 00.362-.363v-.084a.346.346 0 00-.362-.335zm1.283-9.541a.31.31 0 00.307.306h5.049a.309.309 0 00.308-.306v-.167a.31.31 0 00-.308-.308h-5.049a.293.293 0 00-.307.308zm29.522 14.98a.56.56 0 00-.558.558v.224c0 .67-.251.781-1.087.781h-1.7c-1.173 0-1.507-.056-1.507-.7 0-1.144.084-2.26.084-3.4v-3.823c0-.948-.056-1.841-.056-2.734 0-1.088.642-1.311 1.59-1.311s1.925.084 2.874.084h1.813c.948 0 1.9-.084 2.846-.084.977 0 1.646.2 1.646 1.311 0 .921-.084 1.814-.084 2.734v3.823c0 1.143.084 2.26.084 3.376 0 .67-.308.725-1.367.725h-1.535c-.921 0-1.2-.084-1.2-.725v-.308a.55.55 0 00-.53-.53zm-.642-4.128a.763.763 0 00.781.781h1a.8.8 0 00.781-.781v-1.786a.8.8 0 00-.781-.781h-1a.8.8 0 00-.781.781zm14.2-11.745c0 1.115.084 2.232.084 3.375 0 .642-.308.7-1.256.7h-1.646c-1.032 0-1.255-.028-1.4-.39-.028-.14-.083-.279-.613-.279h-3.766c-.531 0-.558.139-.614.279-.139.362-.363.39-1.4.39h-1.618c-.921 0-1.256-.056-1.256-.7 0-1.06.056-2.232.056-3.375v-2.706c0-.922-.056-1.842-.056-2.735 0-1.088.67-1.283 1.618-1.283.977 0 1.953.056 2.9.056h4.492c.948 0 1.925-.056 2.873-.056s1.646.167 1.646 1.283c0 .921-.056 1.813-.056 2.735zm-9.234-.781a.78.78 0 00.781.781h3.46a.762.762 0 00.781-.781v-1.618a.763.763 0 00-.781-.781H2594a.762.762 0 00-.781.781zm8.035 16.655a.555.555 0 00-.558.53v.28c0 .67-.278.753-1.2.753h-1.618c-1.144 0-1.479-.056-1.479-.7 0-1.144.084-2.26.084-3.4v-3.823c0-.948-.056-1.841-.056-2.734 0-1.088.642-1.311 1.591-1.311.977 0 1.925.084 2.873.084h1.9c.948 0 1.9-.084 2.845-.084.976 0 1.646.2 1.646 1.311 0 .921-.083 1.814-.083 2.734v3.823c0 1.143.083 2.26.083 3.376 0 .67-.306.725-1.311.725h-1.535c-1.088 0-1.451-.056-1.451-.67 0-.112.028-.224.028-.335a.558.558 0 00-.558-.558zm-.642-4.128a.78.78 0 00.781.781h.892a.78.78 0 00.781-.781v-1.786a.779.779 0 00-.781-.781h-.892a.8.8 0 00-.781.781zm29.133-18.469c.5.223.864.419.864.67 0 .223-.307.307-.5.363a1.808 1.808 0 00-.753 1.06c0 .222.139.306.335.306a12.589 12.589 0 002.26-.613 2.454 2.454 0 01.781-.2c.614 0 .753.586.864 1.088a12.253 12.253 0 01.336 2.26c0 .418-.252.53-1.786.809s-3.432.614-5.161.809c-.893.112-.949.725-.949.753 0 .14.139.2.251.2a.881.881 0 00.251-.084 6.951 6.951 0 012.371-.418 4.077 4.077 0 012.009.447 2.785 2.785 0 011.339 1.59.5.5 0 00.475.335 15.973 15.973 0 002.594-1.311c.251-.14.446-.252.557-.308a.983.983 0 01.364-.139c.7 0 1.674 3.208 1.674 3.849 0 .363-.279.447-.837.642-1.339.5-2.176.866-3.459 1.4-.67.279-.781.53-.781 1.283 0 .335.028 1.005.028 1.619 0 1.785-.028 1.813-1.59 1.813-1.925 0-2.511-.084-2.511-.949a6.833 6.833 0 01.056-.753v-.14a.353.353 0 00-.334-.391c-.28 0-1.675.893-1.675 1.87 0 1.4 2.373 1.4 3.348 1.4a23.48 23.48 0 005.189-.7 3.374 3.374 0 01.7-.083c.67 0 .7 1 .7 2.79 0 1.06-.056 1.338-.866 1.506a38.071 38.071 0 01-5.412.335 10.452 10.452 0 01-4.882-.893 4.529 4.529 0 01-2.846-4.324c0-2.622 1.98-4.129 4.017-5.329a26.185 26.185 0 011.534-.836c.252-.112.474-.252.474-.558a.8.8 0 00-.864-.726 8.6 8.6 0 00-3.823 1.618 12.625 12.625 0 00-2.957 3.962.453.453 0 01-.418.307c-.614 0-3.459-1.562-3.459-2.232 0-.223.167-.39.5-.753 1.144-1.312 2.958-4.213 3.85-5.469a.616.616 0 00.167-.39.406.406 0 00-.418-.391c-.335 0-.726.028-1.088.028-.948 0-1.032-.084-1.032-2.176 0-1.729.113-1.757 1.005-1.757.614 0 1.618.056 2.539.056 1.367 0 1.618-.113 1.841-.5a13.79 13.79 0 001.312-3.459c.083-.419.139-.614.418-.614a34.352 34.352 0 013.396 1.331zm-134.719 45.415c.865 0 2.093-.055 2.65-.055.614 0 1.312.753 1.73 1.2l.223.223c.447.474 1.228 1.283 1.228 1.7a7.711 7.711 0 01-.251.921c-.113.474-.2.864-.307 1.339-1.2 5.916-4.408 9.765-9.6 12.666-.837.447-3.376 1.758-4.213 1.758-.614 0-1.115-.892-1.4-1.366a6.977 6.977 0 01-.92-2.093c0-.307.278-.391.53-.447a17.822 17.822 0 008.062-4.658c1.73-1.869 3.013-4.854 3.013-6.362 0-.5-.5-.557-.949-.557h-8.872c-1.2 0-2.371.028-3.571.028-.949 0-1.088-.112-1.088-1.2v-1.814c0-1.171.139-1.339.948-1.339 1.256 0 2.539.055 3.795.055zm10.183-1.673a2.9 2.9 0 11-2.9-2.9 2.905 2.905 0 012.898 2.902zm-4.38 0a1.454 1.454 0 001.478 1.479 1.471 1.471 0 001.479-1.479 1.479 1.479 0 00-2.957 0zm19.088 13.475c0 .669.084 1.339.726 1.339a11.5 11.5 0 002.092-.836 38.981 38.981 0 009.542-6.891c.223-.222.5-.53.781-.53.558 0 1.981 2.819 1.981 3.544 0 .307-.307.585-.531.809a38.532 38.532 0 01-4.575 3.71 52.449 52.449 0 01-9.6 5.217l-.836.39a2.666 2.666 0 01-.754.252 15.044 15.044 0 01-2.594-1.172c-.642-.391-.642-.753-.642-1.423v-16.432c0-.223-.055-.53-.055-.726a.321.321 0 01.306-.362c.223 0 2.929.39 3.515.474.977.14 1.256.223 1.256.5a.293.293 0 01-.14.251c-.447.391-.474.7-.474 2.008zm34.293 1.73c0 1.506.139 1.757 1.814 1.757a57.428 57.428 0 007.253-.529 2.773 2.773 0 01.5-.056c.614 0 .7.92.7 2.2v.5c0 .641-.055 1.227-.558 1.507a1.722 1.722 0 01-.641.195c-.893.083-4.966.279-5.524.279q-1.841 0-3.682-.084a5.1 5.1 0 01-3.237-1.088c-.864-.894-.948-2.707-.948-4.185v-3.767a.632.632 0 00-.642-.642h-.139l-.558.112c-.558.14-3.765.81-4.073.81-.446 0-.586-.53-.7-1.005a23.377 23.377 0 01-.446-2.622c0-.446.5-.557.976-.642 1.172-.223 2.343-.418 3.515-.641l1.367-.28a.847.847 0 00.7-.865v-1.925c0-1.032 0-2.064-.056-3.1 0-.446-.084-.921-.084-1.366 0-.224.056-.364.307-.364.2 0 2.456.252 2.9.28.837.084 1.842.167 1.842.557 0 .112-.056.168-.167.307a1.376 1.376 0 00-.418 1.2v3.543a.619.619 0 00.614.614 1.573 1.573 0 00.279-.057l4.742-.92 3.4-.753c.669 0 2.79 2.093 2.79 2.762 0 .278-.167.419-.363.614-.251.278-.977 1.2-1.255 1.562a136.887 136.887 0 01-4.157 4.854c-.279.307-.7.781-1.145.781-.585 0-2.957-1.562-2.957-2.343 0-.223.921-1.032 1.172-1.256.223-.195 1.646-1.45 1.646-1.674a.2.2 0 00-.223-.2c-.14 0-.53.112-.7.139l-3.124.67a.868.868 0 00-.726.837zm9.653-13.14c0 .558-1.4 1.562-1.674 1.562-.139 0-.251-.14-.335-.25a41.816 41.816 0 00-2.093-2.427c-.083-.084-.222-.223-.222-.363 0-.419 1.506-1.367 1.757-1.367a10.555 10.555 0 012.565 2.848zm3.069-2.093c0 .558-1.367 1.563-1.674 1.563-.167 0-.278-.167-.362-.279-.614-.753-1.367-1.646-2.065-2.344-.112-.112-.251-.223-.251-.39 0-.391 1.422-1.4 1.758-1.4a10.222 10.222 0 012.592 2.852zm31.335 6.027c.056.083.084.2.167.307a4.437 4.437 0 01.474 1.311c0 .669-2.26 2.818-2.845 3.376-4.491 4.379-8.983 6.891-14.563 9.569a1.208 1.208 0 00-.753.725.243.243 0 01-.223.167c-.223 0-.391-.25-.5-.447a25.043 25.043 0 01-1.312-2.148 7.086 7.086 0 01-.809-1.674c0-.251.307-.391.53-.447a29.366 29.366 0 007.142-3.069 37.35 37.35 0 0010.072-8.732c.056-.083.112-.139.167-.223.25-.363.474-.67.781-.67.554.003 1.419 1.51 1.67 1.957zm-16.795-5.692a31.677 31.677 0 014.909 3.516.594.594 0 01.252.5c0 .809-1.981 3.069-2.623 3.069a1.219 1.219 0 01-.7-.418 28.73 28.73 0 00-4.688-3.265c-.223-.14-.5-.306-.5-.585 0-.558 1.673-3.209 2.483-3.209a2.832 2.832 0 01.865.394zm35.464 18.05c0 .922.028 1.842.028 2.79 0 1.339-.084 1.451-1.9 1.451h-1.256c-1.116 0-1.451-.139-1.451-.865 0-1.115.056-2.2.056-3.32v-16.1c0-1.143-.056-2.594-.056-3.459 0-.362.056-.53.447-.53a41.378 41.378 0 014.3.557c.168.056.307.168.307.335a.486.486 0 01-.167.334 1.451 1.451 0 00-.307 1v5.413c0 .14.028.391.335.391.167 0 .334-.112.474-.112a2.867 2.867 0 011.033.447c.892.557 2.036 1.451 2.4 1.729a33.159 33.159 0 012.567 2.26.721.721 0 01.2.447c0 .558-2.037 2.818-2.679 2.818-.25 0-.53-.279-.7-.447-.474-.447-2.762-2.51-3.208-2.51-.391 0-.418.39-.418.67zm23.355-.083a2.743 2.743 0 01-2.9 2.873 2.427 2.427 0 01-2.6-2.455 2.781 2.781 0 012.873-2.985 2.522 2.522 0 012.625 2.569zm-3.767-4.324c-.726 0-.836-.112-.864-.837l-.279-6.612c-.112-1.729-.335-5.579-.335-6.137 0-.475.167-.586.781-.586h3.4c.614 0 .781.111.781.586 0 .557-.222 4.379-.334 6.472l-.252 6.277c-.028.726-.139.837-.864.837z" transform="translate(-2384.596 -1374.572)" fill="url(#c)"/><path d="M119.287 4.74a8.315 8.315 0 01.105 1.35c0 2.46-.36 4.05-2.265 5.37a5.927 5.927 0 01-1.575.825l1.74 1.425c4.1-2.19 4.17-5.25 4.17-8.97zm7.1-3.135a7.473 7.473 0 01-1.515.135h-8.085a11.892 11.892 0 01-1.83-.15v2.085c.705-.06 1.2-.105 1.83-.105h7.815a8.92 8.92 0 01-2.76 2.79l1.545 1.245a15.094 15.094 0 003.615-4.11 7.553 7.553 0 01.585-.78zm6.39-.135l-1.41 1.5a31.189 31.189 0 013.75 3.24l1.53-1.575a31.5 31.5 0 00-3.875-3.165zm-1.88 9.99l1.26 1.98a16.245 16.245 0 005.565-2.115 15.95 15.95 0 005.55-5.55l-1.165-2.115a14.223 14.223 0 01-5.46 5.835 15.46 15.46 0 01-5.75 1.965zm20.58-8.025c.165-.39.3-.78.42-1.1s.315-.84.48-1.215l-2.31-.465a5.893 5.893 0 01-.315 1.545 9.427 9.427 0 01-.87 2.04 11.487 11.487 0 01-2.6 3.09l1.89 1.14a12.3 12.3 0 002.415-3.15h3.165a7.992 7.992 0 01-3.06 6.18 5.585 5.585 0 01-1.425.84l2.03 1.355c2.715-1.71 4.275-4.38 4.545-8.37h2.1a15.505 15.505 0 011.56.06V3.33a9.836 9.836 0 01-1.56.1zm12.06 4.845c.555-.045 1.56-.075 2.415-.075h8.055c.63 0 1.395.06 1.755.075V5.925c-.39.03-1.065.09-1.755.09h-8.055c-.78 0-1.875-.045-2.415-.09zm28.155-.93a48.991 48.991 0 00-6.27-2.325v-2.2a16.313 16.313 0 01.135-1.815h-2.34a10.462 10.462 0 01.15 1.815v8.61a16.051 16.051 0 01-.15 2.08h2.34c-.06-.6-.135-1.645-.135-2.085V7.185a43.326 43.326 0 015.415 2.235zm10.185-4.95l.015 1.92a41.113 41.113 0 006.375 0V2.4a30.309 30.309 0 01-6.39 0zm-.51 6.2a9.155 9.155 0 00-.255 1.935c0 1.515 1.215 2.445 3.78 2.445a20.647 20.647 0 003.84-.3l-.045-2.01a17.12 17.12 0 01-3.72.39c-1.5 0-2.07-.39-2.07-1.05a4.888 4.888 0 01.18-1.245zm-3.855-7.35a11.1 11.1 0 01-.15 1.455 41.187 41.187 0 00-.615 5.88 18.963 18.963 0 00.585 4.855l1.71-.12c-.015-.21-.015-.45-.03-.615a4.364 4.364 0 01.09-.69 35.814 35.814 0 011.065-3.645l-.93-.72c-.21.48-.45.975-.66 1.5a7.169 7.169 0 01-.06-.96 36.727 36.727 0 01.72-5.445 12.483 12.483 0 01.36-1.32zm22.86 7.17h-2.64v-2.6h2.64zm-4.32-4.16v5.7h6.12v-5.7zm-1.44 7.44V2.49h9.015v9.21zM212.752.66v13.5h1.86v-.79h9.015v.8h1.95V.67zm25.605 10.155v1.41h-5.445v-1.41zm-7.15 3.355h1.71v-.4h5.44v.36h1.785V9.285h-8.935zm2.53-7.33a11.591 11.591 0 001.86-1.71 12.9 12.9 0 001.92 1.71zm4.3-3.99a10.263 10.263 0 011.02 1.77l1.65-.585a7.155 7.155 0 00-.72-1.185h2.43v-1.5h-4.18c.135-.315.27-.63.39-.945L236.872 0a7.868 7.868 0 01-1.47 2.55v-1.2h-3.255c.15-.3.27-.615.39-.915L230.827 0a9.613 9.613 0 01-2.31 3.7 13.365 13.365 0 011.49.98 12.6 12.6 0 001.35-1.83h.15a8.621 8.621 0 01.825 1.77l1.575-.525a7.3 7.3 0 00-.615-1.245h1.83c-.12.1-.225.21-.345.3a7.433 7.433 0 01.78.48h-.87a14.859 14.859 0 01-6.14 4.23 7.662 7.662 0 01.96 1.38 19.291 19.291 0 003.165-1.665v.72h6.015v-.66a19.267 19.267 0 003.075 1.575 8.916 8.916 0 011.05-1.485 14.145 14.145 0 01-6.225-3.87 8.05 8.05 0 00.78-1zm-137.65 21.34l-2.28-.03a8.609 8.609 0 01.1 1.5c0 .915.03 2.64.165 4.005.42 3.99 1.845 5.46 3.465 5.46 1.2 0 2.13-.915 3.12-3.495l-1.5-1.8c-.285 1.17-.87 2.91-1.575 2.91-.93 0-1.38-1.455-1.59-3.6-.09-1.065-.1-2.19-.09-3.15a11.77 11.77 0 01.185-1.8zm7.425.315l-1.89.63c1.62 1.83 2.415 5.325 2.64 7.71l1.965-.75a16.189 16.189 0 00-2.715-7.59zm13.14 4.68a21.824 21.824 0 012.865-.165 21.456 21.456 0 012.55.18l.045-1.785a25.79 25.79 0 00-2.61-.135c-.96 0-2.025.075-2.85.15zm1.17-4.77c-.81.195-1.65.36-2.49.495l.12-.57c.075-.33.21-.99.315-1.395l-2.26-.175a7.712 7.712 0 01-.06 1.5q-.045.36-.135.855c-.45.03-.885.045-1.32.045a14.624 14.624 0 01-1.875-.12l.045 1.86c.525.03 1.08.06 1.8.06.3 0 .63-.015.975-.03-.105.42-.21.84-.315 1.23a32.752 32.752 0 01-2.565 6.69l2.085.69a47.907 47.907 0 002.355-6.87c.165-.6.315-1.26.45-1.905.99-.12 1.995-.285 2.88-.48zM120.037 31a10.2 10.2 0 00-.255 1.98c0 1.5 1.275 2.37 3.78 2.37a23.77 23.77 0 003.03-.21l.075-1.905a17.221 17.221 0 01-3.09.3c-1.59 0-1.965-.48-1.965-1.125a5.139 5.139 0 01.21-1.245zm22.07-5.445a20.633 20.633 0 00-1.19-2.055l-1.185.495a16.8 16.8 0 011.17 2.085zm-5.1 3.795a24.766 24.766 0 012.865-.165 21.281 21.281 0 012.55.195l.045-1.8a25.718 25.718 0 00-2.61-.12 27.984 27.984 0 00-2.85.15zm1.17-4.755c-.81.195-1.65.36-2.49.48l.12-.555c.075-.33.21-.99.315-1.41l-2.265-.18a7.826 7.826 0 01-.06 1.515c-.03.225-.075.525-.135.84-.45.03-.885.045-1.32.045a14.389 14.389 0 01-1.875-.105l.04 1.845c.525.03 1.08.06 1.8.06.3 0 .63-.015.975-.03-.09.42-.21.84-.315 1.245a33.093 33.093 0 01-2.565 6.69l2.085.69a48.551 48.551 0 002.355-6.87 39.13 39.13 0 00.45-1.905 26.737 26.737 0 002.88-.495zm-2.09 6.585a9.9 9.9 0 00-.255 1.98c0 1.5 1.275 2.37 3.78 2.37a23.77 23.77 0 003.03-.21l.075-1.905a18.711 18.711 0 01-3.09.3c-1.59 0-1.965-.495-1.965-1.14a5.259 5.259 0 01.21-1.245zm5.415-7.875a15.9 15.9 0 011.215 2.07l1.185-.51a17.751 17.751 0 00-1.215-2.04zm8.385.885l-2.28-.03a8.609 8.609 0 01.1 1.5c0 .915.03 2.64.165 4.005.42 3.99 1.845 5.46 3.465 5.46 1.2 0 2.13-.915 3.12-3.495l-1.5-1.8c-.285 1.17-.87 2.91-1.575 2.91-.93 0-1.38-1.455-1.59-3.6-.09-1.065-.1-2.19-.09-3.15a11.771 11.771 0 01.185-1.8zm7.425.315l-1.89.63c1.62 1.83 2.415 5.325 2.64 7.71l1.965-.75a16.189 16.189 0 00-2.72-7.59zm13.14 4.68a21.824 21.824 0 012.865-.165 21.456 21.456 0 012.55.18l.045-1.785a25.79 25.79 0 00-2.605-.135c-.96 0-2.025.075-2.85.15zm1.17-4.77c-.81.195-1.65.36-2.49.495l.12-.57c.075-.33.21-.99.315-1.395l-2.26-.175a7.712 7.712 0 01-.06 1.5q-.045.36-.135.855c-.45.03-.885.045-1.32.045a14.624 14.624 0 01-1.875-.12l.045 1.86c.525.03 1.08.06 1.8.06.3 0 .63-.015.975-.03-.1.42-.21.84-.315 1.23a32.752 32.752 0 01-2.565 6.69l2.085.69a47.907 47.907 0 002.355-6.87c.165-.6.315-1.26.45-1.905.99-.12 1.995-.285 2.88-.48zM169.537 31a10.2 10.2 0 00-.255 1.98c0 1.5 1.275 2.37 3.78 2.37a23.77 23.77 0 003.03-.21l.075-1.905a17.221 17.221 0 01-3.09.3c-1.59 0-1.965-.48-1.965-1.125a5.139 5.139 0 01.21-1.245zm23.685-4.74v-1.71h-5.925v-2.445h-1.845v2.445h-5.745v1.71h4.29c-.165 3.21-.51 6.63-4.56 8.505a5.7 5.7 0 011.26 1.515 8.8 8.8 0 004.815-6.39h4.125c-.21 2.73-.48 4.035-.87 4.365a.963.963 0 01-.72.195c-.435 0-1.485 0-2.52-.1a4.151 4.151 0 01.63 1.755 20.545 20.545 0 002.565 0 2.215 2.215 0 001.62-.69c.6-.66.915-2.34 1.185-6.42a7.3 7.3 0 00.06-.78h-5.79c.075-.645.12-1.305.165-1.95zm6.33 5.91c-.555 0-1.155-.735-1.155-2.235a4.658 4.658 0 013.765-4.305 23.843 23.843 0 01-.8 3.6c-.595 2.01-1.195 2.94-1.81 2.94zm4.08 3.315c3.75-.57 5.67-2.79 5.67-5.91a5.669 5.669 0 00-6-5.805 6.624 6.624 0 00-6.84 6.36c0 2.5 1.4 4.32 3.03 4.32s2.91-1.83 3.8-4.83a32.282 32.282 0 00.885-4.035 3.677 3.677 0 013.1 3.93 4.022 4.022 0 01-3.375 3.975c-.39.09-.81.165-1.38.24zm16.74-5.745v-3.225h3.39v3.225zm-5.265 0v-3.225h3.375v3.225zm5.265-4.98v-2.59h-1.89v2.59h-5.175v7.56h1.8v-.825h3.375v4.68h1.89v-4.68h3.39v.75h1.875V24.76zm12.81-1.92a16.446 16.446 0 01-.315 3.15c-.75.06-1.455.105-1.92.12a13.792 13.792 0 01-1.575 0l.165 2.01a39.08 39.08 0 011.65-.225c.285-.045.75-.1 1.275-.165a22.08 22.08 0 01-3 6.945l1.95.78a31.549 31.549 0 003.015-7.935c.42-.03.78-.06 1.02-.06.945 0 1.455.165 1.455 1.35a10.986 10.986 0 01-.615 4.06 1.08 1.08 0 01-1.11.645 8.548 8.548 0 01-1.815-.315l.33 1.965a8.292 8.292 0 001.77.21 2.385 2.385 0 002.445-1.36 14.521 14.521 0 00.84-5.415c0-2.13-1.11-2.835-2.685-2.835-.3 0-.75.03-1.245.06.1-.54.225-1.08.3-1.53.075-.375.18-.84.27-1.23zm5.535 2.37a17.156 17.156 0 012.52 5.66l1.87-.89a26.773 26.773 0 00-2.595-5.52zm10.8-.57c1.155.3 4.47.99 5.97 1.185l.45-1.83a47.028 47.028 0 01-5.94-1.155zm.57 1.185l-2.01-.27a54.088 54.088 0 01-.735 6.195l1.725.435a3.219 3.219 0 01.555-.87 5.208 5.208 0 014.1-1.74c1.305 0 2.22.7 2.22 1.665 0 1.89-2.355 2.985-6.81 2.355l.57 1.95c6.18.54 8.325-1.545 8.325-4.26 0-1.8-1.515-3.405-4.125-3.405a7.284 7.284 0 00-4.365 1.41c.1-.855.355-2.64.55-3.465z" fill="#d70056"/><path d="M-5846 27h0l-10-10h-74v-2h74.828l9.172 9.171 9.171-9.171H-5762v2h-74l-10 10z" transform="translate(6024.707 33.393)" stroke="rgba(0,0,0,0)" stroke-miterlimit="10" fill="url(#d)"/></svg>