<svg xmlns="http://www.w3.org/2000/svg" width="800" height="60" viewBox="0 0 800 60"><path d="M4064.524,666.459c-20,0-20,20.676-40.008,20.676s-20-20.676-40.008-20.676-20,20.676-40,20.676-20-20.676-40-20.676-20,20.676-40,20.676-20-20.676-40-20.676-20,20.676-40,20.676-20-20.676-40-20.676-20,20.676-40,20.676-20-20.676-40-20.676-20,20.676-40,20.676-20-20.676-40-20.676-20,20.676-40,20.676-20-20.676-40-20.676-20,20.676-40,20.676-20-20.676-40-20.676-20,20.676-40,20.676-20-20.676-40-20.676-20,20.676-40,20.676-20-20.676-39.993-20.676v60h800Z" transform="translate(-3264.524 -666.459)" fill="#ffb2aa"/></svg>