<svg xmlns="http://www.w3.org/2000/svg" xmlns:xlink="http://www.w3.org/1999/xlink" width="375" height="47" viewBox="0 0 375 47"><defs><clipPath id="a"><rect width="375" height="47" transform="translate(-4586 1392)" fill="#fff7e2"/></clipPath></defs><g transform="translate(4586 -1392)" clip-path="url(#a)"><path d="M3889.524,666.459c-15.628,0-15.628,16.2-31.256,16.2s-15.628-16.2-31.256-16.2-15.627,16.2-31.252,16.2-15.626-16.2-31.253-16.2-15.626,16.2-31.251,16.2-15.627-16.2-31.252-16.2-15.623,16.2-31.247,16.2-15.625-16.2-31.251-16.2-15.625,16.2-31.252,16.2-15.625-16.2-31.25-16.2-15.625,16.2-31.25,16.2-15.625-16.2-31.248-16.2-15.625,16.2-31.249,16.2-15.625-16.2-31.25-16.2-15.624,16.2-31.247,16.2-15.626-16.2-31.251-16.2-15.624,16.2-31.247,16.2-15.624-16.2-31.247-16.2-15.622,16.2-31.245,16.2-15.624-16.2-31.246-16.2v47h625Z" transform="translate(-7850.523 725.541)" fill="#fff7e2"/></g></svg>