<svg xmlns="http://www.w3.org/2000/svg" width="800" height="60"><path d="M800 0c-20 0-20 20.676-40.008 20.676S739.992 0 719.984 0s-20 20.676-40 20.676-20-20.676-40-20.676-20 20.676-40 20.676-20-20.676-40-20.676-20 20.676-40 20.676-20-20.676-40-20.676-20 20.676-40 20.676-20-20.676-40-20.676-20 20.676-40 20.676-20-20.676-40-20.676-20 20.676-40 20.676-20-20.676-40-20.676-20 20.676-40 20.676-20-20.676-40-20.676-20 20.676-40 20.676S99.984 0 79.984 0s-20 20.676-40 20.676S19.984 0-.009 0v60h800z" fill="#fff7e2"/></svg>