<svg xmlns="http://www.w3.org/2000/svg" width="32.966" height="46.224" viewBox="0 0 32.966 46.224"><path d="M1099.567-725.138A160.314,160.314,0,0,1,1111-702.33l2.21-.743a135.944,135.944,0,0,0-21.055-40.477,30.621,30.621,0,0,0-4.3-5l-3.444,3.07a50.492,50.492,0,0,0,3.942,4.941A134.451,134.451,0,0,1,1099.567-725.138Zm-16.831-3.756a10.152,10.152,0,0,1,2.992,1.928A70.118,70.118,0,0,1,1102-708.7l-1.929,1.309a77.532,77.532,0,0,0-14.466-13.766c-1.709-1.374-3.843-2.3-5.366-3.859Z" transform="translate(-1080.243 748.554)" fill="#fff"/></svg>