<svg xmlns="http://www.w3.org/2000/svg" width="25.001" height="25" viewBox="0 0 25.001 25"><path d="M-5924,24.5a2.663,2.663,0,0,1-2.776-2.525v-7.2h-7.2A2.663,2.663,0,0,1-5936.5,12a2.662,2.662,0,0,1,2.526-2.775h7.2v-7.2A2.663,2.663,0,0,1-5924-.5a2.663,2.663,0,0,1,2.776,2.525v7.2h7.2A2.661,2.661,0,0,1-5911.5,12a2.662,2.662,0,0,1-2.524,2.776h-7.2v7.2A2.663,2.663,0,0,1-5924,24.5Zm-9.975-14.275A1.666,1.666,0,0,0-5935.5,12a1.667,1.667,0,0,0,1.526,1.776h8.2v8.2A1.667,1.667,0,0,0-5924,23.5a1.667,1.667,0,0,0,1.776-1.525v-8.2h8.2A1.667,1.667,0,0,0-5912.5,12a1.666,1.666,0,0,0-1.524-1.775h-8.2v-8.2A1.667,1.667,0,0,0-5924,.5a1.667,1.667,0,0,0-1.776,1.525v8.2Z" transform="translate(5936.5 0.5)" fill="#d70056"/></svg>