<svg xmlns="http://www.w3.org/2000/svg" width="54" height="88.312" viewBox="0 0 54 88.312"><g transform="translate(-640 -8263)"><path d="M4790.856,2821.473l-25.014,17.6-25.014-17.6a1.261,1.261,0,0,0-1.986,1.031v8.3a2.52,2.52,0,0,0,1.071,2.062l24.478,17.221a2.518,2.518,0,0,0,2.9,0l24.48-17.221a2.525,2.525,0,0,0,1.07-2.062v-8.3a1.261,1.261,0,0,0-1.986-1.031Z" transform="translate(-4098.842 5500.759)" fill="#f8b616"/><path d="M4790.856,2821.473l-25.014,17.6-25.014-17.6a1.261,1.261,0,0,0-1.986,1.031v8.3a2.52,2.52,0,0,0,1.071,2.062l24.478,17.221a2.518,2.518,0,0,0,2.9,0l24.48-17.221a2.525,2.525,0,0,0,1.07-2.062v-8.3a1.261,1.261,0,0,0-1.986-1.031Z" transform="translate(-4098.842 5471.759)" fill="#015baa"/><path d="M4790.856,2821.473l-25.014,17.6-25.014-17.6a1.261,1.261,0,0,0-1.986,1.031v8.3a2.52,2.52,0,0,0,1.071,2.062l24.478,17.221a2.518,2.518,0,0,0,2.9,0l24.48-17.221a2.525,2.525,0,0,0,1.07-2.062v-8.3a1.261,1.261,0,0,0-1.986-1.031Z" transform="translate(-4098.842 5441.759)" fill="#d70356"/></g></svg>