<svg xmlns="http://www.w3.org/2000/svg" width="78.206" height="62.01" viewBox="0 0 78.206 62.01"><g transform="translate(-0.004 0)"><path d="M56.07,16.63a4.434,4.434,0,0,0-2.29-.76,4.583,4.583,0,0,0-1.88.39,8.01,8.01,0,0,0-1.54.87.99.99,0,0,0-.16,1.5l3.56,3.56a1.259,1.259,0,0,1-1.78,1.78l-4.91-4.91a2.577,2.577,0,0,0-3.93.11c-1.7,1.7-.87,3.29-.34,3.81l3.25,3.25a1.259,1.259,0,0,1-1.78,1.78s-4.81-4.8-5.36-5.35-2.14-1.26-3.78.37-1.08,3.31-.37,4.02l5.3,5.3a1.259,1.259,0,0,1-1.78,1.78L23.63,19.48c-.43-.43-2.47-1.92-4.27-.12a2.8,2.8,0,0,0,.01,4.14L39.25,43.38c.61.61.2,1.22-.25,1.13l-2.79-.61a20.342,20.342,0,0,0-4.08-.77,8.033,8.033,0,0,0-3.11.29,3.157,3.157,0,0,0-1.23.74,2.935,2.935,0,0,0-.74,1.33,2.563,2.563,0,0,0,0,1.51,2.836,2.836,0,0,0,.74,1.15,4.891,4.891,0,0,0,1.21.87,5.347,5.347,0,0,0,1.07.43c.96.24,12.27,3.08,19.86,5.14,2.53.69,4.64,1.29,5.86,1.7.33.11.59.2.82.3a3.011,3.011,0,0,1,.36.18,1.55,1.55,0,0,1,.29.22l4.73,4.73a.982.982,0,0,0,.71.29,1.024,1.024,0,0,0,.71-.29L77.92,47.21a.982.982,0,0,0,.29-.71,1.024,1.024,0,0,0-.29-.71l-5.41-5.41a3.245,3.245,0,0,1-.6-.89,9.635,9.635,0,0,1-.41-1.01c-.25-.73-.49-1.58-.75-2.52a38.39,38.39,0,0,0-2.05-5.97,11.431,11.431,0,0,0-2.15-3.24l-8.39-8.39a12.3,12.3,0,0,0-2.05-1.73Z" fill="#fff"/><path d="M13.36,13.36a1.491,1.491,0,0,0,0-2.12L7.01,4.89A1.5,1.5,0,0,0,4.89,7.01l6.34,6.34a1.491,1.491,0,0,0,2.12,0Z" fill="#fff"/><path d="M19.54,10.01a1.455,1.455,0,0,0,.73-.4,1.492,1.492,0,0,0,.4-1.39L19.08,1.17a1.5,1.5,0,1,0-2.92.66l1.59,7.05A1.485,1.485,0,0,0,19.54,10.01Z" fill="#fff"/><path d="M8.22,20.68a1.492,1.492,0,0,0,1.39-.4,1.455,1.455,0,0,0,.4-.73,1.5,1.5,0,0,0-1.13-1.79L1.83,16.17a1.5,1.5,0,1,0-.66,2.92Z" fill="#fff"/></g></svg>