<svg xmlns="http://www.w3.org/2000/svg" width="56" height="56" viewBox="0 0 56 56"><path d="M56,28A28,28,0,1,0,23.625,55.66V36.094H16.516V28h7.109V21.831c0-7.017,4.18-10.894,10.576-10.894a43.057,43.057,0,0,1,6.268.547v6.891H36.938c-3.478,0-4.563,2.158-4.563,4.373V28h7.766L38.9,36.094H32.375V55.66A28.007,28.007,0,0,0,56,28Z" transform="translate(0 0)" fill="#d70056"/><path d="M324.384,225.156l1.241-8.094h-7.766V211.81c0-2.214,1.085-4.373,4.563-4.373h3.531v-6.891a43.065,43.065,0,0,0-6.268-.547c-6.4,0-10.576,3.876-10.576,10.894v6.169H302v8.094h7.109v19.566a28.3,28.3,0,0,0,8.75,0V225.156Z" transform="translate(-285.484 -189.063)" fill="#fff"/></svg>