<svg xmlns="http://www.w3.org/2000/svg" xmlns:xlink="http://www.w3.org/1999/xlink" width="143.327" height="139.11" viewBox="0 0 143.327 139.11"><defs><linearGradient id="a" x1="1.018" y1="0.377" x2="0" y2="1" gradientUnits="objectBoundingBox"><stop offset="0" stop-color="#006eba"/><stop offset="0.067" stop-color="#166cb6"/><stop offset="0.145" stop-color="#366bb2"/><stop offset="0.386" stop-color="#ca3962"/><stop offset="0.427" stop-color="#cf3360"/><stop offset="0.48" stop-color="#dd225d"/><stop offset="0.5" stop-color="#e41b5c"/><stop offset="0.569" stop-color="#e5354d"/><stop offset="0.639" stop-color="#e74c41"/><stop offset="0.738" stop-color="#ee7f29"/><stop offset="0.8" stop-color="#f3a219"/><stop offset="0.903" stop-color="#f6b413"/><stop offset="1" stop-color="#f9c110"/></linearGradient><clipPath id="b"><rect width="57.813" height="74.349" transform="translate(0 0)" fill="none"/></clipPath><linearGradient id="c" x1="0.99" y1="0.005" x2="0.015" y2="0.992" xlink:href="#a"/></defs><g transform="translate(-869 -4979.583)"><path d="M-475.09,148.5l10.607-10.606,10.607,10.606-10.607,10.607Zm-86.374,1.535,7.071-7.071,7.07,7.071-7.07,7.071Zm38.65-14.143,7.071-7.071,7.07,7.071-7.07,7.071Zm89-26.07,7.071-7.071,7.07,7.071-7.07,7.071ZM-563,58.148l10.607-10.607,10.607,10.607-10.607,10.606Zm116.668-4.726,9.192-9.192,9.193,9.192-9.193,9.193Zm-19.829-26.351L-459.09,20l7.07,7.071-7.07,7.071Z" transform="translate(1432 4959.583)" fill="url(#a)"/><g transform="translate(915.469 4999.907) rotate(13)"><g clip-path="url(#b)"><path d="M56.313,8h-6.5V1.5a1.5,1.5,0,0,0-1.5-1.5H17.1a1.474,1.474,0,0,0-.282.028h-.011a1.5,1.5,0,0,0-.364.129c-.03.015-.058.03-.086.046a1.554,1.554,0,0,0-.319.235l-15.6,15.6a1.527,1.527,0,0,0-.235.319c-.016.028-.03.055-.045.084a1.543,1.543,0,0,0-.13.365h0A1.67,1.67,0,0,0,0,17.1V64.849a1.5,1.5,0,0,0,1.5,1.5H8v6.5a1.5,1.5,0,0,0,1.5,1.5H56.313a1.5,1.5,0,0,0,1.5-1.5V9.5a1.5,1.5,0,0,0-1.5-1.5" fill="#fff"/><path d="M56.313,8h-6.5V1.5a1.5,1.5,0,0,0-1.5-1.5H17.1a1.463,1.463,0,0,0-.281.028H16.81a1.476,1.476,0,0,0-.362.129c-.03.014-.058.03-.087.046a1.548,1.548,0,0,0-.318.235L.44,16.043a1.517,1.517,0,0,0-.236.318c-.016.028-.031.056-.045.085a1.512,1.512,0,0,0-.13.365h0A1.491,1.491,0,0,0,0,17.1V64.849a1.5,1.5,0,0,0,1.5,1.5H8v6.5a1.5,1.5,0,0,0,1.5,1.5H56.313a1.5,1.5,0,0,0,1.5-1.5V9.5a1.5,1.5,0,0,0-1.5-1.5M15.6,5.121V15.6H5.121ZM3,18.6H17.1a1.5,1.5,0,0,0,1.5-1.5V3H46.813V63.349H9.539c-.013,0-.025,0-.039,0s-.025,0-.038,0H3ZM54.813,71.349H11v-5H48.313a1.5,1.5,0,0,0,1.5-1.5V11h5ZM10.641,25.391a1,1,0,0,1,1-1H36.027a1,1,0,0,1,0,2H11.641a1,1,0,0,1-1-1m0,9.755a1,1,0,0,1,1-1H29.82a1,1,0,0,1,0,2H11.641a1,1,0,0,1-1-1m0,9.755a1,1,0,0,1,1-1H27.16a1,1,0,0,1,0,2H11.641a1,1,0,0,1-1-1m0,9.754a1,1,0,0,1,1-1H36.914a1,1,0,0,1,0,2H11.641a1,1,0,0,1-1-1" fill="url(#c)"/></g></g></g></svg>