<svg xmlns="http://www.w3.org/2000/svg" width="56" height="56" viewBox="0 0 56 56"><path d="M28,0A28,28,0,1,1,0,28,28,28,0,0,1,28,0Z" transform="translate(0 0)" fill="#d70056"/><path d="M-581.193-295.858c12.368,0,19.131-10.246,19.131-19.131q0-.437-.019-.869a13.683,13.683,0,0,0,3.354-3.481,13.413,13.413,0,0,1-3.861,1.058A6.747,6.747,0,0,0-559.632-322a13.481,13.481,0,0,1-4.269,1.632,6.718,6.718,0,0,0-4.908-2.124,6.725,6.725,0,0,0-6.725,6.723,6.719,6.719,0,0,0,.174,1.533,19.089,19.089,0,0,1-13.859-7.025,6.7,6.7,0,0,0-.911,3.379,6.719,6.719,0,0,0,2.992,5.6,6.676,6.676,0,0,1-3.045-.841c0,.028,0,.056,0,.086a6.727,6.727,0,0,0,5.395,6.592,6.742,6.742,0,0,1-1.772.237,6.7,6.7,0,0,1-1.264-.121,6.732,6.732,0,0,0,6.281,4.67,13.491,13.491,0,0,1-8.351,2.878,13.688,13.688,0,0,1-1.6-.093,19.036,19.036,0,0,0,10.307,3.02" transform="translate(603.636 338.462)" fill="#fff"/></svg>