<svg xmlns="http://www.w3.org/2000/svg" xmlns:xlink="http://www.w3.org/1999/xlink" width="197.792" height="134.897" viewBox="0 0 197.792 134.897"><defs><linearGradient id="a" x1="1.003" x2="-0.011" y2="0.999" gradientUnits="objectBoundingBox"><stop offset="0" stop-color="#006eba"/><stop offset="0.067" stop-color="#166cb6"/><stop offset="0.145" stop-color="#366bb2"/><stop offset="0.386" stop-color="#ca3962"/><stop offset="0.427" stop-color="#cf3360"/><stop offset="0.48" stop-color="#dd225d"/><stop offset="0.5" stop-color="#e41b5c"/><stop offset="0.569" stop-color="#e5354d"/><stop offset="0.639" stop-color="#e74c41"/><stop offset="0.738" stop-color="#ee7f29"/><stop offset="0.8" stop-color="#f3a219"/><stop offset="0.903" stop-color="#f6b413"/><stop offset="1" stop-color="#f9c110"/></linearGradient><linearGradient id="b" x1="0.916" y1="0.108" x2="-0.011" y2="1" xlink:href="#a"/><linearGradient id="c" x1="1" y1="0.369" x2="0" y2="1" xlink:href="#a"/></defs><g transform="translate(-859.634 -3933.551)"><g transform="matrix(0.985, -0.174, 0.174, 0.985, 273.156, 4995.342)"><path d="M839.374-905.878H804.2a4.5,4.5,0,0,1,4.419-3.7h26.335A4.5,4.5,0,0,1,839.374-905.878Zm-35.254,2v52.449h35.335v-52.449Zm4.5,58.148h26.335a4.5,4.5,0,0,0,4.419-3.7H804.2A4.5,4.5,0,0,0,808.62-845.73Z" fill="#fff"/><path d="M834.955-912.577H808.62a7.509,7.509,0,0,0-7.5,7.5v54.847a7.508,7.508,0,0,0,7.5,7.5h26.335a7.508,7.508,0,0,0,7.5-7.5v-54.847A7.509,7.509,0,0,0,834.955-912.577Zm-26.335,3h26.335a4.5,4.5,0,0,1,4.419,3.7H804.2A4.5,4.5,0,0,1,808.62-909.577Zm26.335,63.847H808.62a4.5,4.5,0,0,1-4.419-3.7h35.173A4.5,4.5,0,0,1,834.955-845.73Zm4.5-5.7H804.12v-52.449h35.335ZM818.5-907.7a.666.666,0,0,1,.665-.666h5.239a.666.666,0,0,1,.665.666.665.665,0,0,1-.665.665h-5.239A.665.665,0,0,1,818.5-907.7Z" fill="url(#a)"/></g><g transform="translate(91.537 4938.72)"><path d="M928.4-928.181l-7.752-7.753a3.5,3.5,0,0,0-4.95,0l-34.1,34.1-5,14.525a2.484,2.484,0,0,0,.6,2.581,2.484,2.484,0,0,0,1.76.733,2.522,2.522,0,0,0,.821-.138l14.523-5,34.1-34.1A3.5,3.5,0,0,0,928.4-928.181Z" fill="url(#b)"/><path d="M883.723-898.784l7.531,7.531L879.771-887.3Zm42.559-27.276-7.752-7.753a.5.5,0,0,0-.708,0l-33.149,33.149,8.46,8.46,33.149-33.15A.5.5,0,0,0,926.282-926.06Z" fill="#fff"/></g><path d="M-435.116,127.826l7.071-7.071,7.07,7.071-7.07,7.071ZM-549.526,117.22l7.071-7.071,7.07,7.071-7.07,7.071ZM-616,110.148l10.607-10.606,10.606,10.606-10.606,10.607Zm176.579-26,10.607-10.606,10.607,10.606-10.607,10.606Zm-29.911-63.722,9.192-9.192,9.193,9.192-9.193,9.193ZM-519.161,7.071-512.09,0l7.07,7.071-7.07,7.071Z" transform="translate(1475.634 3933.551)" fill="url(#c)"/></g></svg>