<svg xmlns="http://www.w3.org/2000/svg" xmlns:xlink="http://www.w3.org/1999/xlink" width="63.448" height="69.119" viewBox="0 0 63.448 69.119"><defs><linearGradient id="a" x1="1" y1="0.289" x2="0" y2="1" gradientUnits="objectBoundingBox"><stop offset="0" stop-color="#006eba"/><stop offset="0.067" stop-color="#166cb6"/><stop offset="0.145" stop-color="#366bb2"/><stop offset="0.386" stop-color="#ca3962"/><stop offset="0.427" stop-color="#cf3360"/><stop offset="0.48" stop-color="#dd225d"/><stop offset="0.5" stop-color="#e41b5c"/><stop offset="0.569" stop-color="#e5354d"/><stop offset="0.639" stop-color="#e74c41"/><stop offset="0.738" stop-color="#ee7f29"/><stop offset="0.8" stop-color="#f3a219"/><stop offset="0.903" stop-color="#f6b413"/><stop offset="1" stop-color="#f9c110"/></linearGradient><clipPath id="b"><rect width="28.013" height="36.025" fill="none"/></clipPath><linearGradient id="c" x1="1" y1="-0.001" x2="0.002" y2="1.007" xlink:href="#a"/></defs><g transform="translate(-6 1.713)"><path d="M42.6,62.266l5.139-5.139,5.14,5.139-5.14,5.14ZM13.471,60.553,16.9,57.127l3.425,3.426L16.9,63.979ZM62.6,43.525,66.022,40.1l3.426,3.426-3.426,3.426Zm-6.065-27.33,4.453-4.453,4.454,4.453-4.454,4.454ZM6,3.426l5.139-5.14,5.14,5.14-5.14,5.139Zm40.922,0L50.349,0l3.426,3.426L50.349,6.853Z" transform="translate(0 0)" fill="url(#a)"/><g transform="translate(22.516 9.848) rotate(13)"><g transform="translate(0 0)" clip-path="url(#b)"><path d="M27.286,3.876h-3.15V.727A.727.727,0,0,0,23.41,0H8.288a.714.714,0,0,0-.137.014H8.146a.728.728,0,0,0-.176.063L7.928.1a.753.753,0,0,0-.155.114L.213,7.774A.74.74,0,0,0,.1,7.928l-.022.041a.748.748,0,0,0-.063.177h0A.809.809,0,0,0,0,8.288V31.422a.727.727,0,0,0,.727.727h3.15V35.3a.727.727,0,0,0,.727.727H27.286a.727.727,0,0,0,.727-.727V4.6a.727.727,0,0,0-.727-.727" transform="translate(0 0)" fill="#fff"/><path d="M27.286,3.876h-3.15V.727A.727.727,0,0,0,23.41,0H8.288a.709.709,0,0,0-.136.014H8.145A.715.715,0,0,0,7.97.077L7.928.1a.75.75,0,0,0-.154.114L.213,7.774A.735.735,0,0,0,.1,7.928c-.008.014-.015.027-.022.041a.733.733,0,0,0-.063.177h0A.722.722,0,0,0,0,8.288V31.422a.727.727,0,0,0,.727.727h3.15V35.3a.727.727,0,0,0,.727.727H27.286a.727.727,0,0,0,.727-.727V4.6a.727.727,0,0,0-.727-.727M7.561,2.481V7.561H2.481ZM1.454,9.014H8.288a.727.727,0,0,0,.727-.727V1.454H22.683V30.7H4.622l-.019,0-.018,0H1.454ZM26.559,34.572H5.33V32.149H23.41a.727.727,0,0,0,.727-.727V5.33h2.423ZM5.156,12.3a.484.484,0,0,1,.485-.485H17.457a.485.485,0,0,1,0,.969H5.641a.484.484,0,0,1-.485-.485m0,4.727a.484.484,0,0,1,.485-.485h8.809a.485.485,0,0,1,0,.969H5.641a.484.484,0,0,1-.485-.485m0,4.727a.484.484,0,0,1,.485-.485h7.52a.485.485,0,0,1,0,.969H5.641a.484.484,0,0,1-.485-.485m0,4.726A.484.484,0,0,1,5.641,26H17.886a.485.485,0,0,1,0,.969H5.641a.484.484,0,0,1-.485-.485" transform="translate(0 0)" fill="url(#c)"/></g></g></g></svg>