<svg xmlns="http://www.w3.org/2000/svg" xmlns:xlink="http://www.w3.org/1999/xlink" width="74.653" height="65.482" viewBox="0 0 74.653 65.482"><defs><linearGradient id="a" x1="-0.015" y1="0.998" x2="0.951" y2="0.04" gradientUnits="objectBoundingBox"><stop offset="0" stop-color="#006eba"/><stop offset="0.067" stop-color="#166cb6"/><stop offset="0.145" stop-color="#366bb2"/><stop offset="0.386" stop-color="#ca3962"/><stop offset="0.427" stop-color="#cf3360"/><stop offset="0.48" stop-color="#dd225d"/><stop offset="0.5" stop-color="#e41b5c"/><stop offset="0.569" stop-color="#e5354d"/><stop offset="0.639" stop-color="#e74c41"/><stop offset="0.738" stop-color="#ee7f29"/><stop offset="0.8" stop-color="#f3a219"/><stop offset="0.903" stop-color="#f6b413"/><stop offset="1" stop-color="#f9c110"/></linearGradient><linearGradient id="b" x1="0" y1="1" x2="0.927" y2="0.129" xlink:href="#a"/><linearGradient id="c" x1="0" y1="1" x2="1" y2="0.293" xlink:href="#a"/></defs><g transform="translate(-21.36)"><g transform="matrix(0.985, -0.174, 0.174, 0.985, 21.36, 11.633)"><path d="M17.113,1.8H.039A2.185,2.185,0,0,1,2.184,0H14.968A2.185,2.185,0,0,1,17.113,1.8ZM0,2.766v25.46H17.152V2.766ZM2.184,30.993H14.968a2.185,2.185,0,0,0,2.145-1.8H.039A2.185,2.185,0,0,0,2.184,30.993Z" transform="translate(1.456 1.456)" fill="#fff"/><path d="M16.424,0H3.641A3.645,3.645,0,0,0,0,3.641V30.265a3.644,3.644,0,0,0,3.641,3.641H16.424a3.645,3.645,0,0,0,3.641-3.641V3.641A3.645,3.645,0,0,0,16.424,0ZM3.641,1.456H16.424a2.185,2.185,0,0,1,2.145,1.8H1.5A2.185,2.185,0,0,1,3.641,1.456ZM16.424,32.449H3.641a2.185,2.185,0,0,1-2.145-1.8H18.569A2.185,2.185,0,0,1,16.424,32.449Zm2.184-2.766H1.456V4.223H18.609ZM8.438,2.366a.323.323,0,0,1,.323-.323H11.3a.323.323,0,0,1,0,.646H8.761A.323.323,0,0,1,8.438,2.366Z" transform="translate(0 0)" fill="url(#a)"/></g><g transform="translate(52.604 33.111)"><path d="M901.676-932.7l-3.763-3.763a1.7,1.7,0,0,0-2.4,0l-16.553,16.553-2.427,7.051a1.206,1.206,0,0,0,.29,1.253,1.206,1.206,0,0,0,.854.356,1.222,1.222,0,0,0,.4-.067l7.05-2.426,16.553-16.554A1.7,1.7,0,0,0,901.676-932.7Z" transform="translate(-876.463 936.957)" fill="url(#b)"/><path d="M881.689-916.884l3.656,3.656-5.574,1.918Zm20.659-13.24-3.763-3.764a.244.244,0,0,0-.344,0L882.151-917.8l4.107,4.107,16.091-16.092A.242.242,0,0,0,902.349-930.125Z" transform="translate(-878.165 935.414)" fill="#fff"/></g><path d="M87.806,62.05l3.433-3.433L94.67,62.05l-3.432,3.433ZM32.268,56.9,35.7,53.468,39.133,56.9,35.7,60.333ZM85.716,40.846,90.864,35.7l5.149,5.149-5.149,5.149ZM71.2,9.913l4.461-4.462L80.12,9.913l-4.462,4.462ZM47.008,3.433,50.441,0l3.432,3.433L50.441,6.865Z" transform="translate(0 0)" fill="url(#c)"/></g></svg>