<svg xmlns="http://www.w3.org/2000/svg" xmlns:xlink="http://www.w3.org/1999/xlink" width="392" height="109" viewBox="0 0 392 109"><defs><linearGradient id="a" x1="0.157" y1="0.843" x2="0.843" y2="0.157" gradientUnits="objectBoundingBox"><stop offset="0" stop-color="#006fbc"/><stop offset="0.16" stop-color="#006fbc"/><stop offset="0.18" stop-color="#086cb8"/><stop offset="0.21" stop-color="#1f67af"/><stop offset="0.25" stop-color="#445da0"/><stop offset="0.3" stop-color="#79508b"/><stop offset="0.35" stop-color="#ba4071"/><stop offset="0.39" stop-color="#e73560"/><stop offset="0.41" stop-color="#e62f5f"/><stop offset="0.45" stop-color="#e61e5c"/><stop offset="0.49" stop-color="#e50358"/><stop offset="0.5" stop-color="#e50058"/><stop offset="0.53" stop-color="#e50558"/><stop offset="0.57" stop-color="#e5165b"/><stop offset="0.61" stop-color="#e6315f"/><stop offset="0.61" stop-color="#e73560"/><stop offset="0.66" stop-color="#ea4d51"/><stop offset="0.75" stop-color="#f28d2e"/><stop offset="0.82" stop-color="#f9ba15"/><stop offset="1" stop-color="#fbc311"/></linearGradient></defs><g transform="translate(-675 -2586)"><g transform="translate(767.579 2614.38)"><path d="M40.96,66.432H230.271L219.983,40.4,230.271,14.38H40.96Z" transform="translate(69.151 -14.38)" fill="#016fbc"/><rect width="198.199" height="52.052" transform="translate(0)" fill="#016fbc"/></g><g transform="translate(809.13 2625.391)" style="isolation:isolate"><path d="M76.326,44.068c2.074,0,6.382-.081,6.664-.081.846,0,1.007.242,1.007,1.168v3.523c0,.926-.161,1.168-1.007,1.168-.282,0-4.59-.081-6.664-.081H70.609c-2.114,0-6.785.081-7.067.081-.846,0-1.007-.242-1.007-1.168V46.968A1.67,1.67,0,0,1,63.542,45.1c.805-.564,1.429-1.047,2.195-1.671,7.63-6.463,11.053-9.946,11.053-13.227,0-2.194-1.429-3.7-4.308-3.7a7.791,7.791,0,0,0-5.678,2.8c-.362.4-.564.6-.805.6s-.443-.2-.805-.564l-2.96-3.161c-.322-.362-.483-.6-.483-.886,0-.242.161-.483.523-.846A15.191,15.191,0,0,1,72.984,20.09c6.865,0,10.791,3.906,10.791,9.02s-4.107,9.744-9.3,14.214c-.322.282-.443.443-.443.564s.242.2.725.2h1.55Z" transform="translate(-61.75 -20.09)" fill="#fff"/><path d="M101.112,34.374c0,9.905-5.919,15.663-13.348,15.663S75.02,45,75.02,35.542c0-8.516,4.51-15.422,13.348-15.422,7.026,0,12.744,4.792,12.744,14.254ZM81.865,35.723c0,5.355,2.194,8.114,5.919,8.114,3.906,0,6.543-3.684,6.543-9.221s-2.356-7.953-5.959-7.953C83.738,26.663,81.865,30.891,81.865,35.723Z" transform="translate(-48.304 -20.06)" fill="#fff"/><path d="M116.272,34.374c0,9.905-5.919,15.663-13.348,15.663S90.18,45,90.18,35.542c0-8.516,4.51-15.422,13.348-15.422,7.026,0,12.744,4.792,12.744,14.254ZM97.025,35.723c0,5.355,2.194,8.114,5.919,8.114,3.906,0,6.543-3.684,6.543-9.221s-2.356-7.953-5.959-7.953C98.9,26.663,97.025,30.891,97.025,35.723Z" transform="translate(-32.942 -20.06)" fill="#fff"/><path d="M111.614,41.957c0-.483-.02-.805-.463-.805a.707.707,0,0,0-.362.121,21.464,21.464,0,0,1-3.644,1.289c-.966,0-2.194-2.537-2.194-3.161,0-.5.483-.624.906-.685a34.4,34.4,0,0,0,6.563-2.456c.946-.463,1.389-.7,1.389-1.007s-.463-.664-1.047-1.188c-.141-.121-.282-.262-.463-.4-.141-.161-.523-.463-.523-.685,0-.624,2.134-2.275,2.738-2.275.262,0,.483.262.685.423.564.483,1.168.966,1.711,1.45a1.116,1.116,0,0,0,.6.362c.523,0,3.765-3.02,3.765-3.564,0-.282-.423-.322-1.168-.322h-4.49a1.606,1.606,0,0,0-1.45.544c-.886.946-5.315,5.033-6.362,5.033a4.2,4.2,0,0,1-2.456-2.537c0-.342.423-.6,1.087-1.047,2.376-1.591,6.08-4.792,7.187-7.449.2-.463.322-.805.765-.805.322,0,3.06.685,3.644.805.262.06.825.2.825.544,0,.2-.262.282-.423.322-.2.06-.423.081-.544.282a2.422,2.422,0,0,0-.262.5c0,.2.181.221.664.221h3.282c1.087,0,2.174-.02,3.262-.02a2.3,2.3,0,0,1,2.033.906c.282.322.966,1.087.966,1.55,0,.5-1.208,1.832-1.57,2.255a36.905,36.905,0,0,1-3.946,3.986c-.463.4-1.57,1.349-1.993,1.631-.121.081-.262.2-.262.342,0,.161.282.161.362.161h3.825c.946,0,1.913-.02,2.859-.02,1.107,0,2.074.081,2.074.966,0,.423-.081.966-.081,1.772V45.9c0,.886.081,2.033.081,2.315,0,.483-.362.544-1.027.544h-1.711c-1.248,0-1.49-.06-1.49-.6,0-.121.02-.221.02-.322,0-.4-.282-.544-.624-.544h-7.912c-.342,0-.6.141-.6.5,0,.081.02.262.02.4,0,.544-.322.544-1.55.544h-1.429c-1.087,0-1.429-.06-1.429-.544,0-.2.081-1.57.081-2.315V41.936Zm12.664,1.651a.821.821,0,0,0,.805-.805V40.749a.8.8,0,0,0-.805-.805h-7.651a.808.808,0,0,0-.805.805V42.8a.82.82,0,0,0,.805.805Z" transform="translate(-17.975 -17.354)" fill="#fff"/><path d="M126.989,28.9c.221.4.342.624.664.624a3.8,3.8,0,0,0,1.268-.624,2.746,2.746,0,0,1,1.067-.544c.423,0,.825.523,1.168.987a2.619,2.619,0,0,1,.7,1.228c0,.262-.443.463-.926.685-.463.221-.926.423-1.369.624-.3.121-.6.221-.6.6a2.022,2.022,0,0,0,.322.725,25.994,25.994,0,0,0,1.913,3.141c.5.644,1.087,1.168,1.087,1.47,0,.564-1.51,1.731-1.953,1.731a1.185,1.185,0,0,1-.564-.242,9.855,9.855,0,0,0-4.751-1.832c-.725,0-1.611.443-1.611,1.248,0,1.731,2.859,2.033,4.107,2.033.4,0,.805-.04,1.168-.04.6,0,.644.5.644.987a6.25,6.25,0,0,1-.221,1.631c-.1.362-.282.463-.785.463a17.86,17.86,0,0,1-3.725-.523c-2.215-.564-4.168-1.872-4.168-4.409s2.134-4.127,4.55-4.127a8.811,8.811,0,0,1,1.409.161c.161,0,.322-.081.322-.262a2.961,2.961,0,0,0-.423-.886c-.2-.342-.322-.523-.684-.523a.734.734,0,0,0-.282.04,27.4,27.4,0,0,1-4.49.725c-.544,0-.624-.181-.785-.664a7.744,7.744,0,0,1-.423-1.792c0-.262,0-.523.624-.544a25.448,25.448,0,0,0,3.362-.3c.3-.06.523-.161.523-.463a4.1,4.1,0,0,0-.745-1.248c-.221-.3-.725-.825-.725-1.107,0-.2.221-.383.443-.483a7.642,7.642,0,0,1,2.3-.765c.423,0,.584.322,1.188,1.429.121.242.262.5.423.805Z" transform="translate(-3.11 -13.473)" fill="#fff"/><path d="M135.886,27.143s.282.04.282.2a.689.689,0,0,1-.141.342,2.151,2.151,0,0,0-.322,1.248.439.439,0,0,0,.443.463c.362,0,2.3-.443,2.819-.564a4.785,4.785,0,0,1,.825-.161c.282,0,.383.4.423.624a9.733,9.733,0,0,1,.221,1.691c0,.5-.242.564-.886.685-1.007.181-2.033.342-3.06.483-.483.06-.7.121-.7.544,0,.282.141.5.443.5a17.835,17.835,0,0,0,2.114-.423,2.372,2.372,0,0,1,.5-.081c.161,0,.262.161.342.423a8.216,8.216,0,0,1,.141,1.913c0,.644-.624.725-2.456.926-.805.081-.966.181-.966.544,0,1.087,0,1.248.644,1.45.846.282,3.523,1.409,3.523,2.356,0,.443-.846,1.933-1.47,1.933a4.163,4.163,0,0,1-1.49-.926,2.252,2.252,0,0,0-.886-.483c-.282,0-.362.221-.463.443-.644,1.55-2.235,1.993-3.785,1.993a4.453,4.453,0,0,1-2.436-.624,2.826,2.826,0,0,1-1.248-2.356,2.729,2.729,0,0,1,1.148-2.194,5.4,5.4,0,0,1,3.1-.825h.221a.4.4,0,0,0,.423-.443.478.478,0,0,0-.463-.544c-.362,0-1.59.1-2.476.1-.765,0-.966,0-1.087-.564a7.972,7.972,0,0,1-.282-1.852c0-.3.04-.584.4-.584.584,0,1.429.1,2.4.1h.544c.5,0,.886-.04.886-.483a.46.46,0,0,0-.483-.5c-.685,0-1.893.081-2.839.081h-.6c-.805,0-1.429,0-1.55-.3a7.118,7.118,0,0,1-.221-2.094c0-.282,0-.624.4-.624s2.476.181,3.785.181h.443c.483,0,.846-.04.846-.463,0-.181-.1-1.289-.161-1.651a2.683,2.683,0,0,1-.06-.564c0-.242.141-.3.382-.3.383,0,2.4.262,2.9.342ZM130.873,40.35c0,.483.745.5,1.087.5.544,0,1.188-.141,1.188-.825,0-.282-.242-.3-.624-.3-.4,0-1.651.04-1.651.624Z" transform="translate(4.783 -13.331)" fill="#fff"/></g><g transform="translate(675 2586)"><g transform="translate(0 0)"><path d="M100.444,81.026c-2.215,3.805-9.382,3.866-12.482,6.946-3.1,3.1-3.141,10.268-6.946,12.482-3.765,2.174-9.986-1.349-14.274-.2-4.147,1.107-7.771,7.308-12.261,7.308s-8.114-6.2-12.261-7.308c-4.288-1.148-10.53,2.376-14.274.2C24.14,98.26,24.08,91.072,21,87.972c-3.1-3.1-10.268-3.141-12.482-6.946-2.174-3.765,1.349-9.986.2-14.274C7.611,62.6,1.41,58.98,1.41,54.491s6.2-8.114,7.308-12.261c1.148-4.288-2.376-10.53-.2-14.274C10.711,24.15,17.9,24.09,21,21.009c3.1-3.1,3.141-10.268,6.946-12.482,3.765-2.174,9.986,1.349,14.274.2C46.367,7.621,49.991,1.42,54.481,1.42s8.114,6.2,12.261,7.308c4.288,1.148,10.53-2.376,14.274-.2,3.805,2.194,3.866,9.382,6.946,12.482,3.1,3.1,10.268,3.141,12.482,6.946,2.174,3.765-1.349,9.986-.2,14.274,1.107,4.147,7.308,7.771,7.308,12.261s-6.2,8.114-7.308,12.261C99.1,71.04,102.619,77.281,100.444,81.026ZM99.417,57.692a18.746,18.746,0,0,0,2.416-3.2,16.233,16.233,0,0,0-2.416-3.2c-1.812-2.094-3.845-4.47-4.691-7.57-.846-3.181-.262-6.342.262-9.1a18.883,18.883,0,0,0,.483-3.765,18.264,18.264,0,0,0-3.564-1.49c-2.637-.926-5.657-1.973-7.953-4.288-2.315-2.315-3.362-5.315-4.288-7.953a19.593,19.593,0,0,0-1.49-3.564H77.9a22.569,22.569,0,0,0-3.483.483,30.635,30.635,0,0,1-5.637.685,13.488,13.488,0,0,1-3.463-.423c-3.1-.825-5.476-2.879-7.57-4.691a18.745,18.745,0,0,0-3.2-2.416,16.232,16.232,0,0,0-3.2,2.416c-2.094,1.812-4.49,3.866-7.57,4.691a13.6,13.6,0,0,1-3.463.423,30.635,30.635,0,0,1-5.637-.685,21.936,21.936,0,0,0-3.483-.483H30.9a19.594,19.594,0,0,0-1.49,3.564c-.926,2.658-1.973,5.657-4.288,7.953-2.315,2.315-5.315,3.362-7.953,4.288a19.594,19.594,0,0,0-3.564,1.49,18.706,18.706,0,0,0,.483,3.765c.523,2.778,1.107,5.919.262,9.1-.825,3.1-2.879,5.476-4.691,7.59a18.746,18.746,0,0,0-2.416,3.2,16.232,16.232,0,0,0,2.416,3.2c1.812,2.094,3.845,4.49,4.691,7.59.846,3.181.262,6.342-.262,9.1a18.883,18.883,0,0,0-.483,3.765,19.593,19.593,0,0,0,3.564,1.49c2.658.926,5.657,1.973,7.953,4.288,2.315,2.315,3.362,5.315,4.288,7.953a19.593,19.593,0,0,0,1.49,3.564h.282a22.569,22.569,0,0,0,3.483-.483,30.635,30.635,0,0,1,5.637-.685,13.489,13.489,0,0,1,3.463.423c3.1.825,5.476,2.879,7.59,4.691a18.747,18.747,0,0,0,3.2,2.416,16.861,16.861,0,0,0,3.2-2.4c2.094-1.812,4.49-3.866,7.57-4.691a13.647,13.647,0,0,1,3.483-.423A30.636,30.636,0,0,1,74.452,95a21.936,21.936,0,0,0,3.483.483h.282a19.6,19.6,0,0,0,1.49-3.564C80.633,89.26,81.68,86.26,84,83.965c2.315-2.315,5.315-3.362,7.953-4.288a19.593,19.593,0,0,0,3.564-1.49,18.706,18.706,0,0,0-.483-3.765c-.523-2.778-1.107-5.919-.242-9.12.825-3.1,2.879-5.476,4.691-7.57Z" transform="translate(1.429 1.439)" fill="#231815" opacity="0.65"/><path d="M98.833,65.332c1.107-4.147,7.308-7.771,7.308-12.261s-6.2-8.114-7.308-12.261c-1.148-4.288,2.376-10.53.2-14.274-2.195-3.805-9.382-3.866-12.482-6.946-3.1-3.1-3.141-10.268-6.946-12.482-3.765-2.174-9.986,1.349-14.274.2C61.184,6.2,57.56,0,53.071,0S44.957,6.2,40.81,7.308c-4.288,1.148-10.53-2.376-14.274-.2C22.73,9.3,22.67,16.489,19.589,19.589c-3.1,3.1-10.268,3.141-12.482,6.946-2.174,3.765,1.349,9.986.2,14.274C6.2,44.957,0,48.581,0,53.071s6.2,8.114,7.308,12.261c1.148,4.288-2.376,10.53-.2,14.274,2.194,3.805,9.382,3.866,12.482,6.946,3.1,3.1,3.141,10.268,6.946,12.482,3.765,2.174,9.986-1.349,14.274-.2,4.147,1.107,7.771,7.308,12.261,7.308s8.114-6.2,12.261-7.308c4.288-1.148,10.53,2.376,14.274.2,3.805-2.194,3.866-9.382,6.946-12.482,3.1-3.1,10.268-3.141,12.482-6.946C101.209,75.841,97.685,69.62,98.833,65.332Z" transform="translate(0 0)" fill="url(#a)"/><path d="M90.408,60.964c-.846,3.181-.262,6.342.242,9.12a18.884,18.884,0,0,1,.483,3.765,19.6,19.6,0,0,1-3.564,1.49c-2.658.926-5.657,1.973-7.953,4.288-2.315,2.315-3.362,5.315-4.288,7.953a20.223,20.223,0,0,1-1.49,3.564h-.282a21.634,21.634,0,0,1-3.483-.483,30.635,30.635,0,0,0-5.637-.685,13.76,13.76,0,0,0-3.483.423c-3.1.825-5.476,2.879-7.57,4.691a17.517,17.517,0,0,1-3.2,2.4,16.232,16.232,0,0,1-3.2-2.416c-2.094-1.812-4.49-3.845-7.59-4.691a13.6,13.6,0,0,0-3.463-.423,30.635,30.635,0,0,0-5.637.685,22.9,22.9,0,0,1-3.483.483h-.282a19.593,19.593,0,0,1-1.49-3.564c-.926-2.658-1.973-5.657-4.288-7.953-2.315-2.315-5.315-3.362-7.953-4.288a19.592,19.592,0,0,1-3.564-1.49,18.706,18.706,0,0,1,.483-3.765c.523-2.778,1.107-5.919.262-9.1-.825-3.1-2.879-5.476-4.691-7.59a18.746,18.746,0,0,1-2.416-3.2,16.232,16.232,0,0,1,2.416-3.2c1.812-2.094,3.845-4.49,4.691-7.59.846-3.181.262-6.322-.262-9.1a18.883,18.883,0,0,1-.483-3.765,19.594,19.594,0,0,1,3.564-1.49c2.658-.926,5.657-1.973,7.953-4.288,2.315-2.315,3.362-5.315,4.288-7.953a20.222,20.222,0,0,1,1.49-3.564h.282a21.633,21.633,0,0,1,3.483.483,30.635,30.635,0,0,0,5.637.685,13.488,13.488,0,0,0,3.463-.423c3.1-.825,5.476-2.879,7.57-4.691a18.746,18.746,0,0,1,3.2-2.416,16.232,16.232,0,0,1,3.2,2.416c2.094,1.812,4.49,3.866,7.57,4.691a13.6,13.6,0,0,0,3.463.423,30.635,30.635,0,0,0,5.637-.685,22.9,22.9,0,0,1,3.483-.483H73.8a19.6,19.6,0,0,1,1.49,3.564c.926,2.658,1.973,5.657,4.288,7.953,2.315,2.315,5.315,3.362,7.953,4.288a19.594,19.594,0,0,1,3.564,1.49,18.708,18.708,0,0,1-.483,3.765c-.523,2.778-1.107,5.919-.262,9.1.825,3.1,2.879,5.476,4.691,7.57a18.745,18.745,0,0,1,2.416,3.2,16.232,16.232,0,0,1-2.416,3.2c-1.812,2.094-3.845,4.47-4.691,7.57Z" transform="translate(2.908 2.898)" fill="#fff"/></g><path d="M32.037,51.034H15.89V17.07H31.654c6.946,0,11.214,3.443,11.214,8.778v.1a7.91,7.91,0,0,1-4.47,7.328c3.926,1.51,6.362,3.785,6.362,8.335v.1c0,6.2-5.053,9.322-12.7,9.322Zm3.4-23.918c0-2.235-1.752-3.5-4.892-3.5H23.178V30.8h6.885c3.3,0,5.376-1.067,5.376-3.584Zm1.892,13.59c0-2.275-1.691-3.684-5.537-3.684H23.158v7.469h8.879c3.3,0,5.295-1.168,5.295-3.684Zm17.637,7.147a.16.16,0,0,0-.141-.081c-.362,0-.725.02-1.087.02-.7,0-1.148-.121-1.148-.906,0-.463.02-.906.02-1.409V42.337c0-.5-.02-.966-.02-1.389,0-.745.362-.926,1.047-.926.584,0,1.188.04,1.772.04H62.8c.564,0,1.168-.04,1.731-.04.7,0,1.087.161,1.087.926,0,.483-.02.926-.02,1.389v3.141c0,.483.02.926.02,1.389,0,.785-.383.926-1.067.926-.523,0-1.027-.02-1.53-.04-.1.04-.1.06-.1.121s.04.1.06.1a29.241,29.241,0,0,0,5.537,1.208c.282.02.5.081.5.4,0,.383-.463,1.51-1.027,1.51a22.709,22.709,0,0,1-3.866-.785,18.247,18.247,0,0,1-2.738-.926c-.141-.06-.282-.141-.282-.3a2.516,2.516,0,0,1,.4-.886.34.34,0,0,0,.06-.2c0-.161-.121-.2-.242-.221H56.78c-.181.02-.322.081-.322.282a.3.3,0,0,0,.06.2,4.744,4.744,0,0,1,.7,1.087c0,.121-.141.2-.242.2a1.338,1.338,0,0,1-.3-.06.716.716,0,0,0-.2-.04.908.908,0,0,0-.221.06,28.148,28.148,0,0,1-5.678,1.51,3.961,3.961,0,0,1-.483.06c-.624,0-1.007-1.349-1.007-1.53,0-.362.4-.4.685-.443a21.288,21.288,0,0,0,5.013-1.127c.04-.02.1-.06.1-.121Zm2.376-14.476c.463,0,.644-.181.644-.624a10.775,10.775,0,0,0-.06-1.611.685.685,0,0,1-.02-.2c0-.3.2-.342.463-.342.443,0,1.591.1,2.074.121.161.02.544.04.544.282,0,.161-.181.242-.362.362-.3.181-.322.3-.3,1.409,0,.443.181.624.644.624h.523a.919.919,0,0,0,.966-.483,18.122,18.122,0,0,0,.966-1.731c.04-.141.1-.3.242-.3a5.93,5.93,0,0,1,1.228.342c1.188.362,1.188.483,1.188.564,0,.2-.221.221-.362.282a.438.438,0,0,0-.342.221c-.1.121-.322.483-.4.584a.525.525,0,0,0-.06.221.285.285,0,0,0,.322.282c.644,0,1.268-.02,1.933-.02.624,0,1.289.06,1.289.846,0,.342-.04.685-.04,1.027v.7c0,.3.04.564.04.866,0,.544-.342.523-1.168.523s-1.168.02-1.168-.5c0-.3.04-.584.04-.886v-.161c0-.463-.181-.644-.644-.644h-12.7c-.443,0-.644.181-.644.644v.161c0,.3.04.584.04.886,0,.523-.362.5-1.148.5s-1.168.02-1.168-.5c0-.282.04-.584.04-.886v-.7c0-.322-.04-.664-.04-1.007,0-.765.624-.866,1.228-.866.664,0,1.329.02,1.993.02.2,0,.362-.1.362-.322a.6.6,0,0,0-.04-.2c-.141-.242-.362-.584-.523-.825-.06-.1-.181-.2-.181-.342,0-.342,1.53-.785,1.812-.785.322,0,.5.3.906,1.007A3.925,3.925,0,0,1,55.995,33c0,.161-.121.221-.242.282-.04.04-.02.1.02.1h1.591Zm6.865,4.55c0,.181.02.383.02.564,0,.664-.362.866-.966.866-.5,0-1.007-.04-1.51-.04H56.478c-.483,0-.987.04-1.47.04-.624,0-.987-.181-.987-.866,0-.181.02-.383.02-.564v-.644c0-.181-.02-.362-.02-.544,0-.664.342-.866.966-.866.5,0,1.007.02,1.49.02h5.275c.5,0,.987-.02,1.49-.02.624,0,.987.181.987.846,0,.2-.02.383-.02.564v.644ZM63.021,42.2a.338.338,0,0,0,.362-.362v-.081a.361.361,0,0,0-.362-.362H55.21a.374.374,0,0,0-.362.362v.081a.349.349,0,0,0,.362.362ZM55.21,43.384a.361.361,0,0,0-.362.362v.121a.374.374,0,0,0,.362.362h7.812a.361.361,0,0,0,.362-.362v-.121a.349.349,0,0,0-.362-.362Zm0,2.054a.374.374,0,0,0-.362.362v.161a.374.374,0,0,0,.362.362h7.812a.361.361,0,0,0,.362-.362V45.8a.361.361,0,0,0-.362-.362Zm1.047-7.791a.39.39,0,0,0,.362.362h5.013a.39.39,0,0,0,.362-.362v-.121a.39.39,0,0,0-.362-.362H56.619a.39.39,0,0,0-.362.362Z" transform="translate(16.101 17.297)" fill="#d70056" style="isolation:isolate"/></g></g></svg>