<svg xmlns="http://www.w3.org/2000/svg" xmlns:xlink="http://www.w3.org/1999/xlink" width="301.997" height="83.996" viewBox="0 0 301.997 83.996"><defs><linearGradient id="a" x1="0.157" y1="0.843" x2="0.843" y2="0.157" gradientUnits="objectBoundingBox"><stop offset="0" stop-color="#006fbc"/><stop offset="0.16" stop-color="#006fbc"/><stop offset="0.18" stop-color="#086cb8"/><stop offset="0.21" stop-color="#1f67af"/><stop offset="0.25" stop-color="#445da0"/><stop offset="0.3" stop-color="#79508b"/><stop offset="0.35" stop-color="#ba4071"/><stop offset="0.39" stop-color="#e73560"/><stop offset="0.41" stop-color="#e62f5f"/><stop offset="0.45" stop-color="#e61e5c"/><stop offset="0.49" stop-color="#e50358"/><stop offset="0.5" stop-color="#e50058"/><stop offset="0.53" stop-color="#e50558"/><stop offset="0.57" stop-color="#e5165b"/><stop offset="0.61" stop-color="#e6315f"/><stop offset="0.61" stop-color="#e73560"/><stop offset="0.66" stop-color="#ea4d51"/><stop offset="0.75" stop-color="#f28d2e"/><stop offset="0.82" stop-color="#f9ba15"/><stop offset="1" stop-color="#fbc311"/></linearGradient></defs><g transform="translate(-6376.249 -3686.649)"><g transform="translate(6447.511 3708.519)"><path d="M40.96,54.492H186.843l-7.928-20.064,7.928-20.048H40.96Z" transform="translate(43.892 -14.38)" fill="#016fbc"/><rect width="152.733" height="40.112" transform="translate(0)" fill="#016fbc"/></g><g transform="translate(6479.61 3717.004)" style="isolation:isolate"><path d="M72.983,38.568c1.6,0,4.918-.062,5.135-.062.652,0,.776.186.776.9v2.715c0,.714-.124.9-.776.9-.217,0-3.537-.062-5.135-.062H68.576c-1.629,0-5.228.062-5.446.062-.652,0-.776-.186-.776-.9V40.8a1.287,1.287,0,0,1,.776-1.443c.621-.434,1.1-.807,1.691-1.288,5.88-4.98,8.518-7.664,8.518-10.193,0-1.691-1.1-2.855-3.32-2.855a6,6,0,0,0-4.375,2.157c-.279.31-.434.465-.621.465s-.341-.155-.621-.434l-2.281-2.436c-.248-.279-.372-.465-.372-.683,0-.186.124-.372.4-.652a11.706,11.706,0,0,1,8.254-3.351c5.29,0,8.316,3.01,8.316,6.951s-3.165,7.509-7.168,10.953c-.248.217-.341.341-.341.434s.186.155.559.155h1.195Z" transform="translate(-61.75 -20.09)" fill="#fff"/><path d="M95.127,31.1c0,7.633-4.561,12.07-10.286,12.07S75.02,39.3,75.02,32c0-6.563,3.475-11.884,10.286-11.884,5.415,0,9.821,3.692,9.821,10.984ZM80.295,32.144c0,4.127,1.691,6.252,4.561,6.252,3.01,0,5.042-2.839,5.042-7.106s-1.815-6.128-4.592-6.128C81.738,25.162,80.295,28.42,80.295,32.144Z" transform="translate(-54.432 -20.073)" fill="#fff"/><path d="M110.287,31.1c0,7.633-4.561,12.07-10.286,12.07S90.18,39.3,90.18,32c0-6.563,3.475-11.884,10.286-11.884,5.415,0,9.821,3.692,9.821,10.984ZM95.455,32.144c0,4.127,1.691,6.252,4.561,6.252,3.01,0,5.042-2.839,5.042-7.106s-1.815-6.128-4.592-6.128C96.9,25.162,95.455,28.42,95.455,32.144Z" transform="translate(-46.072 -20.073)" fill="#fff"/><path d="M110.085,37.56c0-.372-.016-.621-.357-.621a.545.545,0,0,0-.279.093,16.54,16.54,0,0,1-2.808.993c-.745,0-1.691-1.955-1.691-2.436,0-.388.372-.481.7-.527a26.511,26.511,0,0,0,5.058-1.893c.729-.357,1.071-.543,1.071-.776s-.357-.512-.807-.915c-.109-.093-.217-.2-.357-.31-.109-.124-.4-.357-.4-.527,0-.481,1.645-1.753,2.11-1.753.2,0,.372.2.527.326.434.372.9.745,1.319,1.117a.86.86,0,0,0,.465.279,9.256,9.256,0,0,0,2.9-2.746c0-.217-.326-.248-.9-.248h-3.46a1.237,1.237,0,0,0-1.117.419c-.683.729-4.1,3.879-4.9,3.879a3.234,3.234,0,0,1-1.893-1.955c0-.264.326-.465.838-.807,1.831-1.226,4.685-3.692,5.539-5.74.155-.357.248-.621.59-.621.248,0,2.358.527,2.808.621.2.047.636.155.636.419,0,.155-.2.217-.326.248-.155.047-.326.062-.419.217a1.866,1.866,0,0,0-.2.388c0,.155.14.171.512.171h2.529c.838,0,1.676-.016,2.513-.016a1.771,1.771,0,0,1,1.567.7c.217.248.745.838.745,1.195,0,.388-.931,1.412-1.21,1.738a28.439,28.439,0,0,1-3.041,3.072c-.357.31-1.21,1.039-1.536,1.257-.093.062-.2.155-.2.264,0,.124.217.124.279.124h2.948c.729,0,1.474-.016,2.2-.016.853,0,1.6.062,1.6.745,0,.326-.062.745-.062,1.365V40.6c0,.683.062,1.567.062,1.784,0,.372-.279.419-.791.419H121.52c-.962,0-1.148-.047-1.148-.465,0-.093.016-.171.016-.248,0-.31-.217-.419-.481-.419h-6.1c-.264,0-.465.109-.465.388,0,.062.016.2.016.31,0,.419-.248.419-1.195.419h-1.1c-.838,0-1.1-.047-1.1-.419,0-.155.062-1.21.062-1.784V37.544Zm9.759,1.272a.633.633,0,0,0,.621-.621V36.629a.613.613,0,0,0-.621-.621h-5.9a.622.622,0,0,0-.621.621v1.582a.632.632,0,0,0,.621.621Z" transform="translate(-37.927 -18.601)" fill="#fff"/><path d="M125.3,28.373c.171.31.264.481.512.481a2.926,2.926,0,0,0,.977-.481,2.116,2.116,0,0,1,.822-.419c.326,0,.636.4.9.76a2.018,2.018,0,0,1,.543.946c0,.2-.341.357-.714.528-.357.171-.714.326-1.055.481-.233.093-.465.171-.465.465a1.558,1.558,0,0,0,.248.559,20.031,20.031,0,0,0,1.474,2.42c.388.5.838.9.838,1.133,0,.434-1.164,1.334-1.5,1.334a.913.913,0,0,1-.434-.186,7.594,7.594,0,0,0-3.661-1.412c-.559,0-1.241.341-1.241.962,0,1.334,2.2,1.567,3.165,1.567.31,0,.621-.031.9-.031.465,0,.5.388.5.76a4.816,4.816,0,0,1-.171,1.257c-.078.279-.217.357-.605.357a13.763,13.763,0,0,1-2.87-.4c-1.707-.434-3.212-1.443-3.212-3.4a3.274,3.274,0,0,1,3.506-3.18,6.789,6.789,0,0,1,1.086.124c.124,0,.248-.062.248-.2a2.282,2.282,0,0,0-.326-.683c-.155-.264-.248-.4-.527-.4a.565.565,0,0,0-.217.031,21.117,21.117,0,0,1-3.46.559c-.419,0-.481-.14-.605-.512a5.967,5.967,0,0,1-.326-1.381c0-.2,0-.4.481-.419a19.61,19.61,0,0,0,2.591-.233c.233-.047.4-.124.4-.357a3.162,3.162,0,0,0-.574-.962c-.171-.233-.559-.636-.559-.853,0-.155.171-.295.341-.372a5.889,5.889,0,0,1,1.769-.59c.326,0,.45.248.915,1.1.093.186.2.388.326.621Z" transform="translate(-29.837 -16.489)" fill="#fff"/><path d="M133.942,27.055s.217.031.217.155a.531.531,0,0,1-.109.264,1.658,1.658,0,0,0-.248.962.338.338,0,0,0,.341.357c.279,0,1.769-.341,2.172-.434a3.687,3.687,0,0,1,.636-.124c.217,0,.295.31.326.481a7.5,7.5,0,0,1,.171,1.3c0,.388-.186.434-.683.527-.776.14-1.567.264-2.358.372-.372.047-.543.093-.543.419,0,.217.109.388.341.388a13.745,13.745,0,0,0,1.629-.326,1.828,1.828,0,0,1,.388-.062c.124,0,.2.124.264.326a6.331,6.331,0,0,1,.109,1.474c0,.5-.481.559-1.893.714-.621.062-.745.14-.745.419,0,.838,0,.962.5,1.117.652.217,2.715,1.086,2.715,1.815,0,.341-.652,1.489-1.133,1.489a3.208,3.208,0,0,1-1.148-.714,1.735,1.735,0,0,0-.683-.372c-.217,0-.279.171-.357.341a2.879,2.879,0,0,1-2.917,1.536A3.432,3.432,0,0,1,129.055,39a2.178,2.178,0,0,1-.962-1.815,2.1,2.1,0,0,1,.884-1.691,4.164,4.164,0,0,1,2.389-.636h.171a.306.306,0,0,0,.326-.341.369.369,0,0,0-.357-.419c-.279,0-1.226.078-1.908.078-.59,0-.745,0-.838-.434a6.143,6.143,0,0,1-.217-1.427c0-.233.031-.45.31-.45.45,0,1.1.078,1.846.078h.419c.388,0,.683-.031.683-.372a.354.354,0,0,0-.372-.388c-.527,0-1.458.062-2.188.062h-.465c-.621,0-1.1,0-1.195-.233a5.485,5.485,0,0,1-.171-1.614c0-.217,0-.481.31-.481s1.908.14,2.917.14h.341c.372,0,.652-.031.652-.357,0-.14-.078-.993-.124-1.272a2.068,2.068,0,0,1-.047-.434c0-.186.109-.233.295-.233.295,0,1.846.2,2.234.264Zm-3.863,10.178c0,.372.574.388.838.388.419,0,.915-.109.915-.636,0-.217-.186-.233-.481-.233-.31,0-1.272.031-1.272.481Z" transform="translate(-25.541 -16.412)" fill="#fff"/></g><g transform="translate(6376.249 3686.649)"><g transform="translate(0 0)"><path d="M77.726,62.765c-1.707,2.932-7.23,2.979-9.619,5.353-2.389,2.389-2.42,7.912-5.353,9.619-2.9,1.676-7.7-1.039-11-.155-3.2.853-5.989,5.632-9.448,5.632s-6.252-4.778-9.448-5.632c-3.3-.884-8.114,1.831-11,.155-2.932-1.691-2.979-7.23-5.353-9.619-2.389-2.389-7.912-2.42-9.619-5.353-1.676-2.9,1.039-7.7.155-11-.853-3.2-5.632-5.989-5.632-9.448s4.778-6.252,5.632-9.448c.884-3.3-1.831-8.114-.155-11,1.691-2.932,7.23-2.979,9.619-5.353,2.389-2.389,2.42-7.912,5.353-9.619,2.9-1.676,7.7,1.039,11,.155,3.2-.853,5.989-5.632,9.448-5.632S48.559,6.2,51.755,7.052c3.3.884,8.114-1.831,11-.155,2.932,1.691,2.979,7.23,5.353,9.619,2.389,2.389,7.912,2.42,9.619,5.353,1.676,2.9-1.039,7.7-.155,11,.853,3.2,5.632,5.989,5.632,9.448s-4.778,6.252-5.632,9.448C76.687,55.069,79.4,59.879,77.726,62.765Zm-.791-17.981A14.446,14.446,0,0,0,78.8,42.316a12.509,12.509,0,0,0-1.862-2.467,15.254,15.254,0,0,1-3.615-5.833,15.6,15.6,0,0,1,.2-7.013,14.551,14.551,0,0,0,.372-2.9,14.074,14.074,0,0,0-2.746-1.148,15.325,15.325,0,0,1-6.128-3.3,15.427,15.427,0,0,1-3.3-6.128,15.1,15.1,0,0,0-1.148-2.746H60.35a17.391,17.391,0,0,0-2.684.372,23.608,23.608,0,0,1-4.344.527,10.394,10.394,0,0,1-2.669-.326A15.069,15.069,0,0,1,44.82,7.734a14.445,14.445,0,0,0-2.467-1.862,12.508,12.508,0,0,0-2.467,1.862,15.185,15.185,0,0,1-5.833,3.615,10.48,10.48,0,0,1-2.669.326,23.608,23.608,0,0,1-4.344-.527,16.9,16.9,0,0,0-2.684-.372h-.217a15.1,15.1,0,0,0-1.148,2.746,15.224,15.224,0,0,1-3.3,6.128,15.427,15.427,0,0,1-6.128,3.3A15.1,15.1,0,0,0,10.812,24.1a14.415,14.415,0,0,0,.372,2.9,15.612,15.612,0,0,1,.2,7.013,15.247,15.247,0,0,1-3.615,5.849,14.446,14.446,0,0,0-1.862,2.467A12.508,12.508,0,0,0,7.771,44.8a15.317,15.317,0,0,1,3.615,5.849,15.6,15.6,0,0,1-.2,7.013,14.551,14.551,0,0,0-.372,2.9,15.1,15.1,0,0,0,2.746,1.148,15.224,15.224,0,0,1,6.128,3.3,15.427,15.427,0,0,1,3.3,6.128,15.1,15.1,0,0,0,1.148,2.746h.217a17.392,17.392,0,0,0,2.684-.372,23.607,23.607,0,0,1,4.344-.527,10.394,10.394,0,0,1,2.669.326A15.247,15.247,0,0,1,39.9,76.929a14.446,14.446,0,0,0,2.467,1.862,12.993,12.993,0,0,0,2.467-1.846,15.185,15.185,0,0,1,5.833-3.615A10.516,10.516,0,0,1,53.353,73a23.608,23.608,0,0,1,4.344.527,16.9,16.9,0,0,0,2.684.372H60.6a15.1,15.1,0,0,0,1.148-2.746,15.224,15.224,0,0,1,3.3-6.128,15.427,15.427,0,0,1,6.128-3.3,15.1,15.1,0,0,0,2.746-1.148,14.415,14.415,0,0,0-.372-2.9,15.461,15.461,0,0,1-.186-7.028,15.069,15.069,0,0,1,3.615-5.833Z" transform="translate(0.778 0.783)" fill="#231815" opacity="0.65"/><path d="M76.161,50.345c.853-3.2,5.632-5.989,5.632-9.448s-4.778-6.252-5.632-9.448c-.884-3.3,1.831-8.114.155-11-1.691-2.932-7.23-2.979-9.619-5.353-2.389-2.389-2.42-7.912-5.353-9.619-2.9-1.676-7.7,1.039-11,.155C47.149,4.778,44.356,0,40.9,0s-6.252,4.778-9.448,5.632c-3.3.884-8.114-1.831-11-.155-2.932,1.691-2.979,7.23-5.353,9.619-2.389,2.389-7.912,2.42-9.619,5.353-1.676,2.9,1.039,7.7.155,11C4.778,34.644,0,37.437,0,40.9s4.778,6.252,5.632,9.448c.884,3.3-1.831,8.114-.155,11,1.691,2.932,7.23,2.979,9.619,5.353,2.389,2.389,2.42,7.912,5.353,9.619,2.9,1.676,7.7-1.039,11-.155,3.2.853,5.989,5.632,9.448,5.632s6.252-4.778,9.448-5.632c3.3-.884,8.114,1.831,11,.155,2.932-1.691,2.979-7.23,5.353-9.619,2.389-2.389,7.912-2.42,9.619-5.353C77.992,58.443,75.277,53.649,76.161,50.345Z" transform="translate(0 0)" fill="url(#a)"/><path d="M70.327,47.635a15.914,15.914,0,0,0,.186,7.028,14.552,14.552,0,0,1,.372,2.9,15.1,15.1,0,0,1-2.746,1.148,15.224,15.224,0,0,0-6.128,3.3,15.427,15.427,0,0,0-3.3,6.128,15.583,15.583,0,0,1-1.148,2.746h-.217a16.671,16.671,0,0,1-2.684-.372,23.607,23.607,0,0,0-4.344-.528,10.6,10.6,0,0,0-2.684.326A15.069,15.069,0,0,0,41.8,73.932a13.5,13.5,0,0,1-2.467,1.846,12.508,12.508,0,0,1-2.467-1.862A15.317,15.317,0,0,0,31.013,70.3a10.481,10.481,0,0,0-2.669-.326A23.607,23.607,0,0,0,24,70.5a17.646,17.646,0,0,1-2.684.372H21.1a15.1,15.1,0,0,1-1.148-2.746A15.224,15.224,0,0,0,16.647,62a15.427,15.427,0,0,0-6.128-3.3,15.1,15.1,0,0,1-2.746-1.148,14.415,14.415,0,0,1,.372-2.9,15.612,15.612,0,0,0,.2-7.013,15.247,15.247,0,0,0-3.615-5.849A14.446,14.446,0,0,1,2.87,39.319a12.508,12.508,0,0,1,1.862-2.467A15.317,15.317,0,0,0,8.347,31a15.612,15.612,0,0,0-.2-7.013,14.551,14.551,0,0,1-.372-2.9,15.1,15.1,0,0,1,2.746-1.148,15.224,15.224,0,0,0,6.128-3.3,15.427,15.427,0,0,0,3.3-6.128A15.583,15.583,0,0,1,21.1,7.763h.217A16.671,16.671,0,0,1,24,8.135a23.608,23.608,0,0,0,4.344.527,10.394,10.394,0,0,0,2.669-.326,15.069,15.069,0,0,0,5.833-3.615A14.446,14.446,0,0,1,39.314,2.86a12.508,12.508,0,0,1,2.467,1.862,15.185,15.185,0,0,0,5.833,3.615,10.48,10.48,0,0,0,2.669.326,23.608,23.608,0,0,0,4.344-.527,17.645,17.645,0,0,1,2.684-.372h.217a15.1,15.1,0,0,1,1.148,2.746,15.224,15.224,0,0,0,3.3,6.128,15.427,15.427,0,0,0,6.128,3.3,15.1,15.1,0,0,1,2.746,1.148,14.416,14.416,0,0,1-.372,2.9,15.612,15.612,0,0,0-.2,7.013A15.069,15.069,0,0,0,73.9,36.837,14.445,14.445,0,0,1,75.757,39.3,12.508,12.508,0,0,1,73.9,41.771,15.254,15.254,0,0,0,70.281,47.6Z" transform="translate(1.583 1.577)" fill="#fff"/></g><path d="M28.333,43.243H15.89V17.07H28.038c5.353,0,8.642,2.653,8.642,6.764v.078a6.1,6.1,0,0,1-3.444,5.647c3.025,1.164,4.9,2.917,4.9,6.423v.078c0,4.778-3.894,7.183-9.79,7.183Zm2.622-18.431c0-1.722-1.35-2.7-3.77-2.7H21.506v5.539h5.306c2.544,0,4.142-.822,4.142-2.762Zm1.458,10.472c0-1.753-1.3-2.839-4.266-2.839H21.491V38.2h6.842c2.544,0,4.08-.9,4.08-2.839ZM46,40.792a.123.123,0,0,0-.109-.062c-.279,0-.559.016-.838.016-.543,0-.884-.093-.884-.7,0-.357.016-.7.016-1.086v-2.42c0-.388-.016-.745-.016-1.07,0-.574.279-.714.807-.714.45,0,.915.031,1.365.031h5.694c.434,0,.9-.031,1.334-.031.543,0,.838.124.838.714,0,.372-.016.714-.016,1.07v2.42c0,.372.016.714.016,1.071,0,.605-.295.714-.822.714-.4,0-.791-.016-1.179-.031-.078.031-.078.047-.078.093s.031.078.047.078a22.533,22.533,0,0,0,4.267.931c.217.016.388.062.388.31,0,.295-.357,1.164-.791,1.164a17.5,17.5,0,0,1-2.979-.605,14.061,14.061,0,0,1-2.11-.714c-.109-.047-.217-.109-.217-.233a1.939,1.939,0,0,1,.31-.683.262.262,0,0,0,.047-.155c0-.124-.093-.155-.186-.171H47.4c-.14.016-.248.062-.248.217a.232.232,0,0,0,.047.155,3.656,3.656,0,0,1,.543.838c0,.093-.109.155-.186.155a1.031,1.031,0,0,1-.233-.047.551.551,0,0,0-.155-.031.7.7,0,0,0-.171.047,21.691,21.691,0,0,1-4.375,1.164,3.053,3.053,0,0,1-.372.047c-.481,0-.776-1.039-.776-1.179,0-.279.31-.31.527-.341a16.4,16.4,0,0,0,3.863-.869c.031-.016.078-.047.078-.093Zm1.831-11.155c.357,0,.5-.14.5-.481a8.3,8.3,0,0,0-.047-1.241.528.528,0,0,1-.016-.155c0-.233.155-.264.357-.264.341,0,1.226.078,1.6.093.124.016.419.031.419.217,0,.124-.14.186-.279.279-.233.14-.248.233-.233,1.086,0,.341.14.481.5.481h.4a.708.708,0,0,0,.745-.372,13.966,13.966,0,0,0,.745-1.334c.031-.109.078-.233.186-.233a4.57,4.57,0,0,1,.946.264c.915.279.915.372.915.434,0,.155-.171.171-.279.217a.337.337,0,0,0-.264.171c-.078.093-.248.372-.31.45a.4.4,0,0,0-.047.171.22.22,0,0,0,.248.217c.5,0,.977-.016,1.489-.016.481,0,.993.047.993.652,0,.264-.031.528-.031.791v.543c0,.233.031.434.031.667,0,.419-.264.4-.9.4s-.9.016-.9-.388c0-.233.031-.45.031-.683v-.124c0-.357-.14-.5-.5-.5h-9.79c-.341,0-.5.14-.5.5v.124c0,.233.031.45.031.683,0,.4-.279.388-.884.388s-.9.016-.9-.388c0-.217.031-.45.031-.683v-.543c0-.248-.031-.512-.031-.776,0-.59.481-.667.946-.667.512,0,1.024.016,1.536.016.155,0,.279-.078.279-.248a.459.459,0,0,0-.031-.155c-.109-.186-.279-.45-.4-.636-.047-.078-.14-.155-.14-.264,0-.264,1.179-.605,1.4-.605.248,0,.388.233.7.776a3.024,3.024,0,0,1,.419.838c0,.124-.093.171-.186.217-.031.031-.016.078.016.078H47.85Zm5.29,3.506c0,.14.016.295.016.434,0,.512-.279.667-.745.667-.388,0-.776-.031-1.164-.031H47.167c-.372,0-.76.031-1.133.031-.481,0-.76-.14-.76-.667,0-.14.016-.295.016-.434v-.5c0-.14-.016-.279-.016-.419,0-.512.264-.667.745-.667.388,0,.776.016,1.148.016h4.065c.388,0,.76-.016,1.148-.016.481,0,.76.14.76.652,0,.155-.016.295-.016.434v.5Zm-.915,3.289a.261.261,0,0,0,.279-.279v-.062a.278.278,0,0,0-.279-.279H46.19a.288.288,0,0,0-.279.279v.062a.269.269,0,0,0,.279.279Zm-6.02.915a.278.278,0,0,0-.279.279v.093A.288.288,0,0,0,46.19,38h6.02a.278.278,0,0,0,.279-.279v-.093a.269.269,0,0,0-.279-.279Zm0,1.582a.288.288,0,0,0-.279.279v.124a.288.288,0,0,0,.279.279h6.02a.278.278,0,0,0,.279-.279v-.124a.278.278,0,0,0-.279-.279Zm.807-6a.3.3,0,0,0,.279.279h3.863a.3.3,0,0,0,.279-.279v-.093a.3.3,0,0,0-.279-.279H47.276a.3.3,0,0,0-.279.279Z" transform="translate(8.763 9.413)" fill="#d70056" style="isolation:isolate"/></g></g></svg>