<svg xmlns="http://www.w3.org/2000/svg" width="178.377" height="32" viewBox="0 0 178.377 32"><g transform="translate(0 -0.026)"><g transform="translate(0 0.026)"><path d="M159.28,11.2V8.15h-5V11.2h-5.99v8.957h4.778V14.272h7.424v3.493c0,5.716-2.284,9.539-9.573,9.815v2.976c9.761-.176,14.357-4.581,14.357-12.791V11.2Z" transform="translate(-61.167 -3.393)" fill="#d70056"/><path d="M136.156,9.79v7.523c0,6.188.123,9.276,3.355,11V31.3c-5.094-.835-8.361-3.806-8.361-12.6V9.79Z" transform="translate(-54.11 -4.073)" fill="#d70056"/><path d="M115.925,9.79v7.523c0,6.188-.129,9.276-3.355,11V31.3c5.088-.835,8.355-3.806,8.355-12.6V9.79Z" transform="translate(-46.444 -4.073)" fill="#d70056"/><path d="M192.514,23.093a26.6,26.6,0,0,0,2.629-12.413H180.809v3.062h9.04c0,6.558-3.109,13.362-10.61,14.8V31.5a16.889,16.889,0,0,0,10.651-4.784,17.368,17.368,0,0,0,6.816,4.866V28.228a17.449,17.449,0,0,1-4.192-5.135Z" transform="translate(-73.932 -4.343)" fill="#d70056"/><path d="M229.1,19.909a8.816,8.816,0,0,1-2.553-.376,31.444,31.444,0,0,0,1.382-9.753h-5.27a38.943,38.943,0,0,1-.586,7.382c-2.822-1.994-5.545-4.406-9.31-4.823v4.188c3.308.712,5.463,2.694,8.25,4.259a11.885,11.885,0,0,1-8.836,7.459v2.976c6.622-.859,10.762-4.118,13.122-8.735a16.253,16.253,0,0,0,3.777.412Z" transform="translate(-87.521 -4.069)" fill="#d70056"/><path d="M260.75,9.79h-5.27c-.714,6.318-5.334,9.906-11.64,10.124V22.9a26.818,26.818,0,0,0,7.36-1.059V31.09h5.03V19.231C258.619,17.231,260.328,14.225,260.75,9.79Z" transform="translate(-100.518 -4.073)" fill="#d70056"/><path d="M293.162,19.208c-4.21,0-9.9-1.318-9.9-4.329V9.79h-5v21.3h5V20.7c.99,1.318,5.65,1.488,9.9,1.488Z" transform="translate(-114.784 -4.073)" fill="#d70056"/><path d="M15.7,7.155A2.828,2.828,0,0,1,16.03,9.21a1.827,1.827,0,0,1-.872,1.329,1.06,1.06,0,0,1-1.593-.872,2.084,2.084,0,0,1,0-.334c0-.07,0-.141,0-.2a2.184,2.184,0,0,1,.545-1.5.673.673,0,0,1,.293-.17,1.253,1.253,0,0,1,.217,0,.381.381,0,0,1-.094-.211.363.363,0,0,1,.053-.217.732.732,0,0,1,.463-.322C15.339,6.581,15.6,6.985,15.7,7.155Zm-.843.8a.217.217,0,0,1-.123.17.726.726,0,0,0-.4.539A1.323,1.323,0,0,0,14.4,9.7a.381.381,0,0,0,.287.146c.351,0,.586-.615.586-.984a1.3,1.3,0,0,0-.457-1.171A.656.656,0,0,1,14.859,7.951Z" transform="translate(-5.62 -2.784)" fill="#d70056"/><path d="M4.473.093a.275.275,0,0,1,0,.2A34.024,34.024,0,0,0,3.689,5.28a20.54,20.54,0,0,0,2.342-.82,20.171,20.171,0,0,1,.328-2.529,1.107,1.107,0,0,1,.293-.644c.176-.082.281-.117.369-.07s.076.082.07.158a17.928,17.928,0,0,0-.263,2.734s.31-.146.463-.234l.164-.1c.105-.053.211-.094.3,0s.07.222,0,.4a.767.767,0,0,1-.263.375,4.913,4.913,0,0,1-.662.4A32.732,32.732,0,0,0,7.126,8.29v.135l.035.24a.293.293,0,0,1-.07.275c-.117.123-.5.094-.761,0-.158-.088-.182-.182-.234-.486a24.715,24.715,0,0,1-.123-3.092A21.869,21.869,0,0,1,3.63,6.27a32.514,32.514,0,0,0,0,4.192c0,.094,0,.193,0,.281.035.246.053.439-.117.48a1.072,1.072,0,0,1-.843-.152.509.509,0,0,1-.2-.351,4.14,4.14,0,0,1-.006-.755c0-.984.053-2.459.135-3.408,0,0-.31.1-.615.176a9.075,9.075,0,0,0-1.042.293C.826,7.1.65,7.06.4,6.932A.949.949,0,0,1,0,6.27H0a.287.287,0,0,1,.135-.246A.9.9,0,0,1,.5,5.948h.17a17.981,17.981,0,0,0,2.008-.363A24.44,24.44,0,0,1,3.771.485.814.814,0,0,1,4.1.058h.1A.218.218,0,0,1,4.473.093Z" transform="translate(0 -0.026)" fill="#d70056"/><path d="M30.669,1.421a.679.679,0,0,1,.621.2.861.861,0,0,1,.252.72A2.828,2.828,0,0,1,30.458,4.1a.855.855,0,0,0,.978.164A2.266,2.266,0,0,0,32.648,3.09a.24.24,0,0,0,0-.111.316.316,0,0,1,0-.117.287.287,0,0,1,.187-.135.357.357,0,0,1,.31.1.363.363,0,0,1,.059.328,2.465,2.465,0,0,1-.586.943A2.383,2.383,0,0,1,30.7,5.11a1.282,1.282,0,0,1-.9-.515,1.7,1.7,0,0,1-.152.1c-.059.047-.135.082-.2.135a.843.843,0,0,0-.2.211c-.029.035-.053.07-.082.076a.141.141,0,0,1-.158,0,.41.41,0,0,1-.129-.281.217.217,0,0,1,0-.088.463.463,0,0,1,.2-.263l.187-.135a2.588,2.588,0,0,0,.269-.252,3.01,3.01,0,0,1-.076-.644,2.588,2.588,0,0,1,.234-1.171,1.276,1.276,0,0,1,.978-.861Zm-.129.814a1.429,1.429,0,0,0-.422,1.142.767.767,0,0,0,.035.211A1.979,1.979,0,0,0,30.8,2.5c0-.164,0-.246-.059-.293h0a.211.211,0,0,0-.2.029Z" transform="translate(-11.967 -0.599)" fill="#d70056"/><path d="M21.883,5.633c.316-.5.509-.831.627-1l.386-.586a4.028,4.028,0,0,1,.814-1.71,1.757,1.757,0,0,1,.732-.65c.2-.047.31.053.34.287.047.545-.539,1.265-1.072,1.792-.182.176-.287.34-.293.328a.755.755,0,0,0,.416.931c.949.41,1.23.72,1.124,1.335a4.894,4.894,0,0,1-1.973,2.424,4.234,4.234,0,0,0-.427.334.831.831,0,0,1-.24.164.726.726,0,0,1-.656.035.4.4,0,0,1-.176-.334c0-.222.111-.322.351-.416a.966.966,0,0,0,.263-.064c.076-.041.545-.363,1.171-.855.755-.656,1.025-1.1.943-1.312s-.691-.375-.884-.486a.99.99,0,0,1-.492-1.06,10.54,10.54,0,0,0-.539,1,4.157,4.157,0,0,1-.509.867.5.5,0,0,1-.527.164.451.451,0,0,1-.316-.345,1.212,1.212,0,0,1-.72.931A.761.761,0,0,1,19.2,6.891a2.611,2.611,0,0,1-.123-1.06,7.869,7.869,0,0,0,0-1.171c0-.176-.035-.363.117-.445s.369,0,.667.269a.228.228,0,0,1,.064.31,7.12,7.12,0,0,0-.064,1.493.392.392,0,0,0,.263.363c.141.029.293-.076.41-.281A2.746,2.746,0,0,0,20.8,5.059V4.04a.223.223,0,0,1,.129-.24.79.79,0,0,1,.322.059c.152.059.386.17.4.345a.527.527,0,0,1-.035.152c0,.07-.041.222-.059.345a5.756,5.756,0,0,0-.07.843c0,.158.041.263.123.287S21.8,5.8,21.883,5.633Z" transform="translate(-7.901 -0.712)" fill="#d70056"/><path d="M29.431,11.774a.72.72,0,0,0-.059-.258.8.8,0,0,1-.047-.223.334.334,0,0,1,.041-.158,1.171,1.171,0,0,1,.732-.586.322.322,0,0,1,.17.047c.158.1.123.4.094.586a19.047,19.047,0,0,0,.779,5.34c0,.047.088.047.088,0a18.526,18.526,0,0,1,.586-3.888,1.124,1.124,0,0,1,.533-.79.732.732,0,0,1,.621,0,1.294,1.294,0,0,1,.545.919c.111.4.193.8.269,1.171a10.3,10.3,0,0,0,.586,2.207.55.55,0,0,0,.486.252h.17V17.5a1.072,1.072,0,0,1-1.364-.41,8.584,8.584,0,0,1-.714-2.465s-.146-.8-.24-1.112-.176-.433-.3-.41-.158.146-.182.275a19.96,19.96,0,0,0-.187,4.778c.035.217,0,.381-.211.468a1.013,1.013,0,0,1-.586,0,.585.585,0,0,1-.392-.2A3.548,3.548,0,0,1,30.4,17.5a16.459,16.459,0,0,1-.714-4.842h0a23.755,23.755,0,0,0-.82,6.236,9.094,9.094,0,0,0,.187,1.874c.1.345.029.533-.111.586a1.206,1.206,0,0,1-.79-.064c-.269-.088-.328-.5-.34-1.171a20.95,20.95,0,0,1,1.493-7.94,2.219,2.219,0,0,0,.129-.4Z" transform="translate(-11.526 -4.359)" fill="#d70056"/><rect width="31.888" height="31.986" transform="translate(23.532 0.014)" fill="#d70056"/><path d="M42.506,15.46A1.247,1.247,0,0,1,42,14.488a2.98,2.98,0,0,1,.4-1.663,2.114,2.114,0,0,1,1.358-1.06.345.345,0,0,1,.246.041.223.223,0,0,1,.076.146.96.96,0,0,1-.105.5.474.474,0,0,1-.381.263,1.1,1.1,0,0,0-.714.586,2.008,2.008,0,0,0-.182.732.451.451,0,0,0,.357.515c.4.053.586-.474.586-.656a.773.773,0,0,0-.029-.322.837.837,0,0,1,.293-.632.287.287,0,0,1,.357-.035.34.34,0,0,1,.059.222,1.757,1.757,0,0,0,.943,1.054.679.679,0,0,1,.094.064.334.334,0,0,1,.041.222.709.709,0,0,1-.228.486.451.451,0,0,1-.515-.029,1.563,1.563,0,0,1-.667-.726h-.053a2.242,2.242,0,0,1-.059.422,1.329,1.329,0,0,1-.638.872.8.8,0,0,1-.726-.029Z" transform="translate(-17.405 -4.864)" fill="#fff"/><path d="M51.117,11.853a.246.246,0,0,1-.2-.094.24.24,0,0,1-.035-.182c0-.082.152-.141.293-.2a1.991,1.991,0,0,0,.621-.427,2.851,2.851,0,0,1-.135-.814,2.553,2.553,0,0,1,.586-1.792.966.966,0,0,1,.486-.263.656.656,0,0,1,.586.117.867.867,0,0,1,.281.673,3.229,3.229,0,0,1-1.025,1.944,1.013,1.013,0,0,0,.767.176,2.2,2.2,0,0,0,1.282-.586,6.207,6.207,0,0,1,.831-.7,7.432,7.432,0,0,1,2.816-1.095.263.263,0,0,1,.193.123.375.375,0,0,1,0,.141.474.474,0,0,1-.082.228.7.7,0,0,1-.556.386,9.807,9.807,0,0,0-2.125.586,4.356,4.356,0,0,0-.738.556,5.814,5.814,0,0,1-1.171.878,1.938,1.938,0,0,1-.919.211,1.1,1.1,0,0,1-.908-.4c-.1.088-.234.187-.392.3a.667.667,0,0,1-.451.228ZM52.61,8.926a1.405,1.405,0,0,0-.386.855,1.587,1.587,0,0,0,.041.586,2.4,2.4,0,0,0,.621-1.124c0-.141.035-.369-.064-.433s-.117.029-.211.094Z" transform="translate(-20.989 -3.355)" fill="#fff"/><path d="M46.23,6.612a.943.943,0,0,1,.094-.445c.059-.117.17-.158.357-.234s.89-.463.89-.463.076-.96.129-1.282a.989.989,0,0,0,0-.334.493.493,0,0,1,0-.094c0-.129.059-.176.211-.182a1,1,0,0,1,.545.135.223.223,0,0,1,.117.211.31.31,0,0,1-.035.141,7.646,7.646,0,0,0-.2,1.042A23.485,23.485,0,0,1,51.224,4.03a.586.586,0,0,1,.334,0h0a.644.644,0,0,1,.392.539c0,.129-.076.2-.228.246,0,0-.515.064-.685.1a13.812,13.812,0,0,0-2.717.949,23.936,23.936,0,0,0,.211,4.848c0,.105.059.4,0,.457a.492.492,0,0,1-.381.076c-.193-.018-.433-.064-.474-.211a9.52,9.52,0,0,1-.158-1.757c0-1.353,0-2.453.029-3.086-.287.158-.451.252-.656.381a1.13,1.13,0,0,1-.48.228C46.306,6.823,46.235,6.753,46.23,6.612Z" transform="translate(-19.161 -1.498)" fill="#fff"/><path d="M40.182,21.014a4.028,4.028,0,0,0,1.716-1.5c.076-.187.1-.41,0-.5s-.275.082-.416.211a2.986,2.986,0,0,1-1.312.685Z" transform="translate(-16.65 -7.847)" fill="#fff"/><path d="M81.184,13.253a3.759,3.759,0,0,0,1-1.809s0-.2-.111-.263a.24.24,0,0,0-.269,0,3.513,3.513,0,0,0-.99,1.347,1.434,1.434,0,0,0-.1.673A.3.3,0,0,0,81.184,13.253Z" transform="translate(-33.305 -4.611)" fill="#ffd900"/><path d="M76.1,12.535c.263-.187.094-.586,0-.925a3.408,3.408,0,0,0-.445-1.025c-.182-.193-.322-.123-.427,0l-.035.129h0a2.161,2.161,0,0,0,.381,1.54S75.876,12.751,76.1,12.535Z" transform="translate(-31.023 -4.333)" fill="#ffd900"/><path d="M83.969,16.65c.211.053.369,0,.8-.123a3.349,3.349,0,0,0,1.218-.726c.117-.129.041-.246-.152-.275a2.576,2.576,0,0,0-1.5.357,1.786,1.786,0,0,0-.492.4C83.805,16.386,83.764,16.6,83.969,16.65Z" transform="translate(-34.585 -6.419)" fill="#ffd900"/><path d="M71.5,15.761a2.752,2.752,0,0,0,.7,0c.152-.041.275-.076.223-.193a1.564,1.564,0,0,0-.621-.451,3.1,3.1,0,0,0-.527-.182.925.925,0,0,0-.738,0h0c-.064.035-.076.164,0,.31A1.493,1.493,0,0,0,71.5,15.761Z" transform="translate(-29.084 -6.146)" fill="#ffd900"/><path d="M77.6,19.654c.8,0,1.294-.392,1.276-1.025a2.453,2.453,0,0,0-1.358-2.008,1.528,1.528,0,0,0-1.481,0c-.369.217-.381.925-.111,1.382a2.717,2.717,0,0,1-.545-.861,1.089,1.089,0,0,1,.228-1.224,1.874,1.874,0,0,1,1.815-.129,3.87,3.87,0,0,1,1.7,1.417,1.921,1.921,0,0,1,.375.826c0,.287.357.24.427.064s0-.217-.035-.386a3.941,3.941,0,0,0-1.932-2.342,2.986,2.986,0,0,0-3.045-.047,1.717,1.717,0,0,0-.375,2.243A3.952,3.952,0,0,0,77.6,19.654Zm-.55-1.581c-.5-.386-.31-.785-.129-.814.545-.1.984.515.984.931,0,.322-.316.767-1.171.375a1.838,1.838,0,0,1-.182-.105C76.959,18.588,77.322,18.3,77.052,18.073Z" transform="translate(-30.657 -6.17)" fill="#ffd900"/><path d="M71.124,20.643a.661.661,0,0,0-.094.158c0,.047,0,.064.07.105a1.85,1.85,0,0,0,1.025.047,2.008,2.008,0,0,0,.755-.386c.064-.059.222-.263.111-.34a3.882,3.882,0,0,0-1.224.141A1.013,1.013,0,0,0,71.124,20.643Z" transform="translate(-29.311 -8.36)" fill="#ffd900"/><path d="M76.529,23.026a1.429,1.429,0,0,0-.48.667,1.171,1.171,0,0,0-.059.586.328.328,0,0,0,.3.293.293.293,0,0,0,.252-.117,3.407,3.407,0,0,0,.117-.539c.047-.217.129-.492.129-.492l.1-.293a.105.105,0,0,0-.035-.141.334.334,0,0,0-.328.035Z" transform="translate(-31.353 -9.489)" fill="#ffd900"/><path d="M82.519,23.7c-.047-.082-.152-.222-.217-.345a.386.386,0,0,0-.345-.182c-.1,0-.123.1-.117.228a2.342,2.342,0,0,0,.217.843c.129.275.193.468.509.521a.515.515,0,0,0,.451-.193c.146-.17,0-.375-.117-.48A2.7,2.7,0,0,1,82.519,23.7Z" transform="translate(-33.771 -9.574)" fill="#ffd900"/><path d="M85.9,20.787a3.454,3.454,0,0,0-.826-.152,1.382,1.382,0,0,0-.281,0,.141.141,0,0,0-.094.041.176.176,0,0,0-.035.2c.2.527.72.667,1.446.656.293,0,.457,0,.5-.176a.217.217,0,0,0-.076-.24A1.991,1.991,0,0,0,85.9,20.787Z" transform="translate(-34.932 -8.527)" fill="#ffd900"/><path d="M80.669,28.837c-.263.082-.849.509-1.487.82-.439.222-1.031.445-1.13.5s-.427.2-.468.375a.733.733,0,0,0,0,.211,3.742,3.742,0,0,0-.422.094.31.31,0,0,0,0-.263c-.064-.164-.422-.41-1.288-.8a6.862,6.862,0,0,0-1.757-.621c-.34-.029-.586.328-.263.451a6.148,6.148,0,0,1,1.78,1.042,1.563,1.563,0,0,0,.972.492h.111a2.8,2.8,0,0,0-.943,1.3,7.206,7.206,0,0,0-.855,2.442c.088.263.509.586.691.217a20.2,20.2,0,0,1,1.124-2.383,2.406,2.406,0,0,1,.468-.691.334.334,0,0,1,.457.07,5.269,5.269,0,0,1,.685,1.364,12.337,12.337,0,0,1,.732,2.928c.053.48.89.263,1.036-.222a12.435,12.435,0,0,0-.937-3.384,4.526,4.526,0,0,0-.99-1.757,6.113,6.113,0,0,0,1.458-.586,4.432,4.432,0,0,0,1.593-1.066C81.577,28.925,80.9,28.761,80.669,28.837Z" transform="translate(-30.409 -11.891)" fill="#ffd900"/><path d="M79.2,27.624c-.422.094-.55.539-.422,1.072.1.386.211.545.586.527.457-.029.515-.357.521-.884S79.7,27.512,79.2,27.624Z" transform="translate(-32.488 -11.403)" fill="#ffd900"/><path d="M65.831,31.033c-.281-.076-.586.117-.931.217a14.368,14.368,0,0,1-3.215.609,2.278,2.278,0,0,1-1.171-.117c-.176-.1-.164-.445-.094-.773s-.228-.586-.463-.72c-1.423-.785-6.119.094-6.242.123-.094-2.19-.527-3.952-1.388-4.831a12.63,12.63,0,0,0,2.459-3.074c.111-.252.076-.386.053-.41a23.566,23.566,0,0,0,2.8-.258c.1,0,.141-.029.228.064a25.06,25.06,0,0,0,1.926,2.383,4.485,4.485,0,0,1-.316.509c-.047.053-.088.082-.117.123s.088.345.228.3.322-.316.5-.586c.211.228.422.439.586.615,0,0,.258.246.234.316-.141.3-.334.761-.521,1.171a.564.564,0,0,0,0,.586c.223.31.533.439.679.176.053-.076,0-.211.047-.328a3.466,3.466,0,0,1,.644-1.007c.2-.094.515-.755.105-1.007-.416-.433-.89-.867-1.353-1.364a5.662,5.662,0,0,0-2.758-7.255c-3.624-1.435-7.612,1.476-6.581,4.907a2.734,2.734,0,0,0-2.518.17c-1.979,1.095-2.038,4.192-.269,5.2l.263.129a1.973,1.973,0,0,0,3.021,2.395c.176-.111.1-.439-.041-.363s-.111.1-.182.129a1.534,1.534,0,0,1-2.184-2.043,1.224,1.224,0,0,0,.2,0c.3-.053.41-.1.521-.31s.111-.34-.164-.468a.586.586,0,0,0-.521,0,1.564,1.564,0,0,0-.269.187.943.943,0,0,1-.34-.164,2.422,2.422,0,0,1,2.559-4.017c.041.047.176.275.211.322.117.146.293.117.55.041a.474.474,0,0,0,.375-.328c.059-.146-.059-.369-.123-.627-.96-3.3,2.342-5.492,5.112-4.462a5.064,5.064,0,0,1,2.8,6.195,17.793,17.793,0,0,1-1.516-1.874.949.949,0,0,0-.984-.345,30.446,30.446,0,0,1-3.021.386c-.047-.105-.34-.275-.451-.17s-.211.55-.322.7a14.574,14.574,0,0,1-2.67,3,1.95,1.95,0,0,0-.586.258c-.2.187-.2.392.041.673,0,0,.357.509.656.416s.55.386.738.738a9.216,9.216,0,0,1,1,3.3,35.822,35.822,0,0,0-4.749,1.353,2.02,2.02,0,0,0-.714.474,1.077,1.077,0,0,0-.2.4c-.059.187-.164.545,0,.586a.937.937,0,0,0,.82-.164A26.179,26.179,0,0,1,58.6,30.688c.656.047.72.316.586.82a.826.826,0,0,0,.059.779c.3.427,1.112.474,2.465.3a13.76,13.76,0,0,0,3.4-.8C65.732,31.56,66.206,31.168,65.831,31.033Z" transform="translate(-19.433 -6.634)" fill="#ffd900"/><path d="M61.44,32.466c.24-.064.176-1.271.176-1.271a.41.41,0,0,0-.357-.287,1.757,1.757,0,0,0-.972.146c-.1.088-.111.129-.111.129h0a2.2,2.2,0,0,0,.1,1.259C60.368,32.6,61.223,32.519,61.44,32.466Z" transform="translate(-24.811 -12.761)" fill="#ffd900"/><path d="M61.01,36.363c.287,0,.679-.07.755-.228a1.721,1.721,0,0,0,0-1.206,2.043,2.043,0,0,0-1.083,0,.416.416,0,0,0-.322.4l.035.586C60.407,36.3,60.676,36.392,61.01,36.363Z" transform="translate(-24.908 -14.396)" fill="#ffd900"/><path d="M65.586,32.232a3.649,3.649,0,0,0,0-1.007.322.322,0,0,0-.34-.345c-.749,0-1,.059-1.06.228a2.231,2.231,0,0,0,.141,1.118A1.37,1.37,0,0,0,65.586,32.232Z" transform="translate(-26.479 -12.755)" fill="#ffd900"/><path d="M64.764,36.077c.146,0,.908.088.954-.158s.17-1.171-.176-1.206-1.171-.123-1.224.182a2.828,2.828,0,0,0,.082,1.031A.41.41,0,0,0,64.764,36.077Z" transform="translate(-26.535 -14.321)" fill="#ffd900"/></g></g></svg>