<svg xmlns="http://www.w3.org/2000/svg" width="266.22" height="54.327" viewBox="0 0 266.22 54.327"><g transform="translate(-33 -8563)"><path d="M14.82-13.94A13.675,13.675,0,0,1,13-12.74c-.94.52-2.66,1.4-4.28,2.34a46.435,46.435,0,0,1-2.48-5.48l-2.5,1.02c.9,2.1,1.86,4.2,2.78,5.9-1.9,1.4-3.28,3.02-3.28,5.22,0,3.4,2.98,4.5,6.92,4.5A38.736,38.736,0,0,0,16.52.28l.04-2.86a33.126,33.126,0,0,1-6.48.72c-2.74,0-4.12-.76-4.12-2.18,0-1.38,1.1-2.52,2.76-3.6a60.656,60.656,0,0,1,5.52-2.94c.72-.36,1.36-.7,1.96-1.06Zm8.14-1.68a14.861,14.861,0,0,1-.18,1.94,58.7,58.7,0,0,0-.82,8.26A23.891,23.891,0,0,0,22.74.9L24.98.74c-.02-.28-.02-.62-.02-.82a3.91,3.91,0,0,1,.1-.92,47.248,47.248,0,0,1,1.42-4.72L25.26-6.7c-.3.66-.62,1.32-.88,2.02a9.167,9.167,0,0,1-.08-1.28,52.382,52.382,0,0,1,.94-7.66,16.645,16.645,0,0,1,.48-1.76Zm10,12.3c0,1.16-.42,1.8-1.64,1.8-1.04,0-1.84-.36-1.84-1.16,0-.74.76-1.2,1.88-1.2a6.175,6.175,0,0,1,1.6.22Zm6.26.8A12.572,12.572,0,0,0,35.4-5.08c-.08-1.34-.18-2.92-.22-4.84,1.08-.08,2.12-.2,3.08-.34v-2.46c-.94.2-1.98.34-3.06.46,0-.88.04-1.62.06-2.06a12.649,12.649,0,0,1,.12-1.28H32.54a11.207,11.207,0,0,1,.12,1.3c.02.42.02,1.22.04,2.2-.46.02-.94.02-1.4.02a32.842,32.842,0,0,1-3.46-.18V-9.9c1.18.08,2.3.12,3.46.12.46,0,.94,0,1.42-.02.02,1.4.08,2.84.14,4.06a8.9,8.9,0,0,0-1.3-.08c-2.7,0-4.4,1.38-4.4,3.4C27.16-.34,28.88.82,31.6.82c2.68,0,3.76-1.36,3.88-3.24a20.2,20.2,0,0,1,2.4,1.98Z" transform="translate(260 8615)"/><g transform="translate(-433.702 8314.269)"><path d="M488,279.721c-.3,0-.6.017-.9.025a26.65,26.65,0,0,0-7.8,1.71.525.525,0,0,1-.5-.063.546.546,0,0,1-.234-.441V270.675a.547.547,0,0,1,.54-.549h10.923a.53.53,0,0,0,.531-.524v-2.141a.528.528,0,0,0-.531-.529H479.1a.539.539,0,0,1-.54-.534v-8.241a.53.53,0,0,0-.531-.531h-2.136a.54.54,0,0,0-.537.531V266.4a.534.534,0,0,1-.536.534h-5.847a.532.532,0,0,0-.534.529V269.6a.534.534,0,0,0,.534.524h5.847a.543.543,0,0,1,.536.549v12.29a.544.544,0,0,1-.265.464c-2.675,1.564-6.18,4.3-7.627,8.446-1.113,3.214-1.013,5.829.321,7.762a7.2,7.2,0,0,0,5.39,2.828l.151.01h.017a.5.5,0,0,0,.128-.02l.145-.035c4.092-1.011,5.025-4.994,4.944-6.945v-9.888a.54.54,0,0,1,.319-.5,24.2,24.2,0,0,1,8.366-2.139c4.543-.225,9.961,1.7,11.222,6.3a7.535,7.535,0,0,1-1.023,6.706A8,8,0,0,1,491.123,299c-.865,0-3.365-.26-4.468-1.379a.522.522,0,0,0-.551-.14l-2.151.71a.606.606,0,0,0-.331.336.6.6,0,0,0,.04.461c1.973,3.129,6.909,3.214,7.471,3.214a11.275,11.275,0,0,0,8.872-4.322,10.709,10.709,0,0,0,1.557-9.467C499.8,282,493.154,279.721,488,279.721Zm-13.5,7.98a.527.527,0,0,1,.326-.113.537.537,0,0,1,.536.541v7.431a3.565,3.565,0,0,1-2.136,3.641.432.432,0,0,1-.27.027,3.828,3.828,0,0,1-2.53-1.4c-.714-1.056-.69-2.7.078-4.9A11.556,11.556,0,0,1,474.5,287.7Z" fill="#211512"/><path d="M498.363,269.346a.542.542,0,0,0-.752-.052l-1.63,1.381a.52.52,0,0,0-.054.745l4.67,5.51a.536.536,0,0,0,.369.186h.04a.6.6,0,0,0,.351-.12l1.622-1.387a.533.533,0,0,0,.062-.755Z" fill="#211512"/><path d="M536.27,276.364H531.9a.572.572,0,0,1-.416-.188.529.529,0,0,1-.115-.429l1.717-10.259a.531.531,0,0,1,.534-.449h1.389a.544.544,0,0,0,.531-.534v-2.131a.536.536,0,0,0-.531-.534h-6.712a.54.54,0,0,1-.544-.539v-2.7a.529.529,0,0,0-.521-.539h-2.146a.539.539,0,0,0-.537.539v2.7a.528.528,0,0,1-.536.539H517.3a.532.532,0,0,0-.527.534v2.131a.54.54,0,0,0,.527.534h1.361a.548.548,0,0,1,.534.467l1.359,10.253a.615.615,0,0,1-.135.429.607.607,0,0,1-.412.176h-3.966a.525.525,0,0,0-.531.534v2.138a.527.527,0,0,0,.531.534H536.27a.534.534,0,0,0,.532-.534V276.9A.532.532,0,0,0,536.27,276.364Zm-13.292-11.325h6.3a.519.519,0,0,1,.409.188.568.568,0,0,1,.125.434l-1.725,10.254a.533.533,0,0,1-.526.449h-3.224a.532.532,0,0,1-.539-.464l-1.359-10.252a.586.586,0,0,1,.133-.431A.526.526,0,0,1,522.978,265.039Z" fill="#211512"/><path d="M534.641,285.3l-8.224-2.555a.516.516,0,0,0-.311,0l-8.441,2.547a.525.525,0,0,0-.378.519l.421,15.612a.54.54,0,0,0,.539.514h15.807a.534.534,0,0,0,.542-.514l.426-15.6A.537.537,0,0,0,534.641,285.3Zm-8.4.767a.358.358,0,0,1,.155.028l5.04,1.559a.529.529,0,0,1,.381.494l-.431,10.041a.541.541,0,0,1-.532.549h-9.4a.546.546,0,0,1-.537-.559l-.434-10a.542.542,0,0,1,.386-.511l5.218-1.572A.38.38,0,0,1,526.242,286.071Z" fill="#211512"/><path d="M550.119,277l4.277-16.822a.53.53,0,0,0-.085-.466.578.578,0,0,0-.424-.2H541.094a.526.526,0,0,0-.527.531v40.846a.527.527,0,0,0,.527.529h2.138a.534.534,0,0,0,.537-.529V263.252a.544.544,0,0,1,.539-.539h5.455a.528.528,0,0,1,.419.21.5.5,0,0,1,.095.462l-3.617,14.179a.543.543,0,0,0,.075.429l.248.4c.063.08,5.984,9.286,3.984,13.894a4.377,4.377,0,0,1-3.009,2.332.541.541,0,0,0-.378.594l.363,2.128a.519.519,0,0,0,.236.354.538.538,0,0,0,.426.06,7.457,7.457,0,0,0,5.3-4.2c2.356-5.441-2.259-13.722-3.736-16.141A.515.515,0,0,1,550.119,277Z" fill="#211512"/><path d="M602.948,269.87a.521.521,0,0,0,.527-.524v-9.288a.521.521,0,0,0-.527-.529H570.056a.529.529,0,0,0-.532.529V262.2a.534.534,0,0,0,.532.529h29.678a.538.538,0,0,1,.532.542v2.875a.533.533,0,0,1-.532.539H572.081a.674.674,0,0,0-.21.04.591.591,0,0,1-.226.043l-1.484-.038a.47.47,0,0,0-.381.141.514.514,0,0,0-.166.376c-.025,1.449-.025,3.076-.035,4.778-.022,9.131-.055,21.629-3.094,28.977a.537.537,0,0,0,.256.692l1.946.925a.416.416,0,0,0,.215.053.9.9,0,0,0,.191-.028.552.552,0,0,0,.3-.3c3.324-7.954,3.354-20.836,3.384-30.242l.005-1.685a.544.544,0,0,1,.542-.542Z" fill="#211512"/><path d="M604.234,299.546H591.067a.533.533,0,0,1-.539-.544v-3.89a.537.537,0,0,1,.539-.54h9.555a.526.526,0,0,0,.539-.526v-2.138a.53.53,0,0,0-.539-.532h-9.555a.531.531,0,0,1-.539-.529v-3.129a.533.533,0,0,1,.539-.544h9.7a.524.524,0,0,0,.534-.521.494.494,0,0,0-.143-.356l-3.618-6.058a.588.588,0,0,0-.331-.25.52.52,0,0,0-.391.067l-1.845,1.1a.541.541,0,0,0-.176.732l.758,1.276a.541.541,0,0,1-.459.825H583.7a.554.554,0,0,1-.461-.273.524.524,0,0,1-.015-.519l3.041-5.874a.545.545,0,0,1,.481-.294H601.7a.521.521,0,0,0,.531-.526v-2.144a.524.524,0,0,0-.531-.526H576.168a.527.527,0,0,0-.542.526V276.5a.524.524,0,0,0,.542.526h5.766a.527.527,0,0,1,.459.261.537.537,0,0,1,.017.529l-4.442,8.582a.506.506,0,0,0,.015.526.547.547,0,0,0,.456.251h8.354a.544.544,0,0,1,.539.544v3.129a.543.543,0,0,1-.539.529h-9.565a.531.531,0,0,0-.534.532v2.138a.527.527,0,0,0,.534.526h9.565a.549.549,0,0,1,.539.54V299a.543.543,0,0,1-.539.544H573.62a.532.532,0,0,0-.534.534v2.131a.53.53,0,0,0,.534.532h30.614a.53.53,0,0,0,.534-.532V300.08A.533.533,0,0,0,604.234,299.546Z" fill="#211512"/><path d="M652.069,288.736a.482.482,0,0,0-.092.01H638.789v2.893H648.7c.288,0,.439.02.539.193.14.216-.238.981-.4,1.3l-.045.085a15.51,15.51,0,0,1-7.306,7.075l-.063.03.8,2.738.08-.043a18.452,18.452,0,0,0,9.943-12.525,11.248,11.248,0,0,0,.216-1.236.45.45,0,0,0-.088-.4A.387.387,0,0,0,652.069,288.736Z" fill="#e9607c"/><rect width="11.452" height="2.898" transform="translate(640.063 282.574)" fill="#e9607c"/><path d="M666.961,293.171a1.194,1.194,0,0,1-.1-1.374,43.752,43.752,0,0,0,3.868-7.935.761.761,0,0,0,.018-.639.555.555,0,0,0-.306-.271H656.981v2.891H666.3c.4,0,.509.037.595.228.128.268-.161.79-.329,1.1l-.053.11a51.637,51.637,0,0,1-9.857,13.238l-.05.042,1.429,2.349.065-.07a68.423,68.423,0,0,0,6.217-7.355.748.748,0,0,1,.592-.324.681.681,0,0,1,.511.236l6.1,7.531.067.08,1.567-2.206Z" fill="#e9607c"/><path d="M632.216,282.96c-.053,0-.09.005-.146.005l.026-.013H617.367v2.891H627.43c.268.007.439.057.526.173.123.148.056.438-.032.742-.01.06-.025.135-.04.2-1.47,6.634-4.674,11.029-9.5,13.044l-.067.028.672,2.783.08-.028c5.874-2.414,8.97-7.576,10.424-12.159a3.5,3.5,0,0,0,2.728,1.439c2.061,0,3.74-2.048,3.74-4.563S634.277,282.96,632.216,282.96Zm0,6.816a2.311,2.311,0,1,1,1.865-2.271A2.1,2.1,0,0,1,632.216,289.776Z" fill="#e9607c"/><path d="M628.52,277.532h6.489v-9.865a1.286,1.286,0,0,1,1.293-1.289h9.863v-6.493H636.3a1.293,1.293,0,0,1-1.293-1.3v-9.857H628.52v9.857a1.3,1.3,0,0,1-1.3,1.3h-9.855v6.493h9.855a1.293,1.293,0,0,1,1.3,1.289Z" fill="#e9607c"/></g></g></svg>