<svg xmlns="http://www.w3.org/2000/svg" xmlns:xlink="http://www.w3.org/1999/xlink" width="50" height="106.283" viewBox="0 0 50 106.283"><defs><linearGradient id="a" x1="0.952" y1="1" x2="0.034" y2="0.034" gradientUnits="objectBoundingBox"><stop offset="0" stop-color="#006eba"/><stop offset="0.067" stop-color="#166cb6"/><stop offset="0.145" stop-color="#366bb2"/><stop offset="0.386" stop-color="#ca3962"/><stop offset="0.427" stop-color="#cf3360"/><stop offset="0.48" stop-color="#dd225d"/><stop offset="0.5" stop-color="#e41b5c"/><stop offset="0.569" stop-color="#e5354d"/><stop offset="0.639" stop-color="#e74c41"/><stop offset="0.738" stop-color="#ee7f29"/><stop offset="0.8" stop-color="#f3a219"/><stop offset="0.903" stop-color="#f6b413"/><stop offset="1" stop-color="#f9c110"/></linearGradient></defs><path d="M4669.81,1327v7.965a1.522,1.522,0,1,0,3.043,0V1327a1.522,1.522,0,1,0-3.043,0Zm1.522,16.811a1.522,1.522,0,0,1,1.521,1.522v7.965a1.522,1.522,0,1,1-3.043,0v-7.965A1.522,1.522,0,0,1,4671.332,1343.81Zm5.184-5.183h5.515a1.522,1.522,0,1,1,0,3.044h-5.515a1.522,1.522,0,0,1,0-3.044Zm-15.882,0h5.514a1.522,1.522,0,1,1,0,3.044h-5.514a1.522,1.522,0,1,1,0-3.044Zm33.218,40.9a1.522,1.522,0,0,0,1.522-1.522v-4.459a1.522,1.522,0,0,0-3.044,0v4.459A1.522,1.522,0,0,0,4693.852,1379.53Zm-1.522,12.238v-4.459a1.522,1.522,0,0,1,3.044,0v4.459a1.522,1.522,0,0,1-3.044,0Zm4.651-9.11a1.522,1.522,0,0,1,1.522-1.522h2.762a1.522,1.522,0,0,1,0,3.044H4698.5A1.522,1.522,0,0,1,4696.981,1382.658Zm-12.062,0a1.522,1.522,0,0,1,1.522-1.522h2.761a1.522,1.522,0,1,1,0,3.044h-2.761A1.522,1.522,0,0,1,4684.919,1382.658Zm13.737-94.13v4.458a1.522,1.522,0,0,0,3.044,0v-4.458a1.522,1.522,0,0,0-3.044,0Zm1.522,12.238a1.522,1.522,0,0,1,1.521,1.522v4.458a1.522,1.522,0,0,1-3.044,0v-4.458A1.522,1.522,0,0,1,4700.179,1300.767Zm4.649-4.65h2.762a1.522,1.522,0,1,1,0,3.044h-2.762a1.522,1.522,0,0,1,0-3.044Zm-12.061,0h2.761a1.522,1.522,0,1,1,0,3.044h-2.761a1.522,1.522,0,1,1,0-3.044Z" transform="translate(-4659.112 -1287.007)" fill="url(#a)"/></svg>