<svg xmlns="http://www.w3.org/2000/svg" xmlns:xlink="http://www.w3.org/1999/xlink" width="33.791" height="67.015" viewBox="0 0 33.791 67.015"><defs><linearGradient id="a" y1="1.024" x2="1" gradientUnits="objectBoundingBox"><stop offset="0" stop-color="#006eba"/><stop offset="0.067" stop-color="#166cb6"/><stop offset="0.145" stop-color="#366bb2"/><stop offset="0.386" stop-color="#ca3962"/><stop offset="0.427" stop-color="#cf3360"/><stop offset="0.48" stop-color="#dd225d"/><stop offset="0.5" stop-color="#e41b5c"/><stop offset="0.569" stop-color="#e5354d"/><stop offset="0.639" stop-color="#e74c41"/><stop offset="0.738" stop-color="#ee7f29"/><stop offset="0.8" stop-color="#f3a219"/><stop offset="0.903" stop-color="#f6b413"/><stop offset="1" stop-color="#f9c110"/></linearGradient></defs><path d="M9.6,88.316v-3.37a1.15,1.15,0,0,1,2.3,0v3.37a1.15,1.15,0,0,1-2.3,0Zm4.665-5.736a1.15,1.15,0,0,1,0-2.3h2.087a1.15,1.15,0,0,1,0,2.3Zm-9.116,0a1.15,1.15,0,1,1,0-2.3H7.239a1.15,1.15,0,0,1,0,2.3ZM9.6,77.916v-3.37a1.15,1.15,0,0,1,2.3,0v3.37a1.15,1.15,0,0,1-2.3,0Zm17.8-8.67V63.225a1.15,1.15,0,1,1,2.3,0v6.021a1.15,1.15,0,0,1-2.3,0Zm5.069-8.789a1.15,1.15,0,0,1,0-2.3h4.167a1.15,1.15,0,1,1,0,2.3Zm-12.005,0a1.15,1.15,0,1,1,0-2.3h4.168a1.15,1.15,0,0,1,0,2.3Zm6.936-5.07v-6.02a1.15,1.15,0,1,1,2.3,0v6.02a1.15,1.15,0,1,1-2.3,0Zm-5-18.015V34a1.15,1.15,0,1,1,2.3,0v3.37a1.15,1.15,0,1,1-2.3,0Zm4.666-5.735a1.15,1.15,0,0,1,0-2.3h2.087a1.15,1.15,0,1,1,0,2.3Zm-9.117,0a1.15,1.15,0,0,1,0-2.3h2.087a1.15,1.15,0,1,1,0,2.3Zm4.451-4.666V23.6a1.15,1.15,0,1,1,2.3,0v3.37a1.15,1.15,0,1,1-2.3,0Z" transform="translate(37.793 89.466) rotate(180)" fill="url(#a)"/></svg>