<svg xmlns="http://www.w3.org/2000/svg" xmlns:xlink="http://www.w3.org/1999/xlink" width="302.006" height="83.998" viewBox="0 0 302.006 83.998"><defs><linearGradient id="a" x1="0.157" y1="0.843" x2="0.843" y2="0.157" gradientUnits="objectBoundingBox"><stop offset="0" stop-color="#006fbc"/><stop offset="0.16" stop-color="#006fbc"/><stop offset="0.18" stop-color="#086cb8"/><stop offset="0.21" stop-color="#1f67af"/><stop offset="0.25" stop-color="#445da0"/><stop offset="0.3" stop-color="#79508b"/><stop offset="0.35" stop-color="#ba4071"/><stop offset="0.39" stop-color="#e73560"/><stop offset="0.41" stop-color="#e62f5f"/><stop offset="0.45" stop-color="#e61e5c"/><stop offset="0.49" stop-color="#e50358"/><stop offset="0.5" stop-color="#e50058"/><stop offset="0.53" stop-color="#e50558"/><stop offset="0.57" stop-color="#e5165b"/><stop offset="0.61" stop-color="#e6315f"/><stop offset="0.61" stop-color="#e73560"/><stop offset="0.66" stop-color="#ea4d51"/><stop offset="0.75" stop-color="#f28d2e"/><stop offset="0.82" stop-color="#f9ba15"/><stop offset="1" stop-color="#fbc311"/></linearGradient></defs><g transform="translate(-33.509 -3692.52)"><path d="M40.96,54.493H186.848L178.92,34.429l7.928-20.049H40.96Z" transform="translate(148.667 3700.2)" fill="#fbc311"/><rect width="152.738" height="40.113" transform="translate(105.637 3714.58)" fill="#fbc311"/><g transform="translate(33.509 3692.52)"><path d="M77.728,62.766c-1.707,2.932-7.23,2.979-9.619,5.353-2.389,2.389-2.42,7.913-5.353,9.619-2.9,1.676-7.7-1.04-11-.155-3.2.853-5.989,5.632-9.449,5.632s-6.253-4.779-9.449-5.632c-3.3-.884-8.114,1.831-11,.155-2.932-1.691-2.979-7.23-5.353-9.619-2.389-2.389-7.913-2.42-9.619-5.353-1.676-2.9,1.04-7.7.155-11-.853-3.2-5.632-5.989-5.632-9.449s4.779-6.253,5.632-9.449c.884-3.3-1.831-8.114-.155-11,1.691-2.932,7.23-2.979,9.619-5.353C18.9,14.127,18.926,8.6,21.859,6.9c2.9-1.676,7.7,1.04,11,.155,3.2-.853,5.989-5.632,9.449-5.632S48.56,6.2,51.756,7.052c3.3.884,8.114-1.831,11-.155,2.932,1.691,2.979,7.23,5.353,9.619,2.389,2.389,7.913,2.42,9.619,5.353,1.676,2.9-1.04,7.7-.155,11,.853,3.2,5.632,5.989,5.632,9.449s-4.779,6.253-5.632,9.449C76.689,55.071,79.4,59.881,77.728,62.766Zm-.791-17.982A14.446,14.446,0,0,0,78.8,42.318a12.509,12.509,0,0,0-1.862-2.467,15.255,15.255,0,0,1-3.615-5.834,15.605,15.605,0,0,1,.2-7.013,14.552,14.552,0,0,0,.372-2.9,14.075,14.075,0,0,0-2.746-1.148,15.325,15.325,0,0,1-6.128-3.3,15.428,15.428,0,0,1-3.3-6.128,15.1,15.1,0,0,0-1.148-2.746h-.217a17.392,17.392,0,0,0-2.684.372,23.608,23.608,0,0,1-4.344.528,10.394,10.394,0,0,1-2.669-.326,15.07,15.07,0,0,1-5.834-3.615,14.446,14.446,0,0,0-2.467-1.862,12.509,12.509,0,0,0-2.467,1.862,15.186,15.186,0,0,1-5.834,3.615,10.481,10.481,0,0,1-2.669.326,23.608,23.608,0,0,1-4.344-.528,16.9,16.9,0,0,0-2.684-.372H24.14a15.1,15.1,0,0,0-1.148,2.746,15.225,15.225,0,0,1-3.3,6.128,15.428,15.428,0,0,1-6.128,3.3A15.1,15.1,0,0,0,10.812,24.1a14.416,14.416,0,0,0,.372,2.9,15.613,15.613,0,0,1,.2,7.013,15.247,15.247,0,0,1-3.615,5.849,14.446,14.446,0,0,0-1.862,2.467A12.509,12.509,0,0,0,7.771,44.8a15.317,15.317,0,0,1,3.615,5.849,15.6,15.6,0,0,1-.2,7.013,14.552,14.552,0,0,0-.372,2.9,15.1,15.1,0,0,0,2.746,1.148,15.225,15.225,0,0,1,6.128,3.3,15.428,15.428,0,0,1,3.3,6.128,15.1,15.1,0,0,0,1.148,2.746h.217a17.392,17.392,0,0,0,2.684-.372,23.608,23.608,0,0,1,4.344-.528,10.394,10.394,0,0,1,2.669.326A15.248,15.248,0,0,1,39.9,76.932a14.446,14.446,0,0,0,2.467,1.862,12.993,12.993,0,0,0,2.467-1.846,15.186,15.186,0,0,1,5.834-3.615,10.517,10.517,0,0,1,2.684-.326,23.609,23.609,0,0,1,4.344.528,16.9,16.9,0,0,0,2.684.372H60.6a15.1,15.1,0,0,0,1.148-2.746,15.224,15.224,0,0,1,3.3-6.128,15.428,15.428,0,0,1,6.128-3.3,15.1,15.1,0,0,0,2.746-1.148,14.415,14.415,0,0,0-.372-2.9,15.461,15.461,0,0,1-.186-7.028,15.07,15.07,0,0,1,3.615-5.834Z" transform="translate(0.778 0.783)" fill="#231815" opacity="0.65"/><g transform="translate(0 0)"><path d="M76.163,50.346c.853-3.2,5.632-5.989,5.632-9.449s-4.779-6.253-5.632-9.449c-.884-3.3,1.831-8.114.155-11-1.691-2.932-7.23-2.979-9.619-5.353-2.389-2.389-2.42-7.913-5.353-9.619-2.9-1.676-7.7,1.04-11,.155C47.15,4.779,44.357,0,40.9,0s-6.253,4.779-9.449,5.632c-3.3.884-8.114-1.831-11-.155C17.516,7.168,17.47,12.707,15.1,15.1c-2.389,2.389-7.913,2.42-9.619,5.353-1.676,2.9,1.04,7.7.155,11C4.779,34.645,0,37.438,0,40.9s4.779,6.253,5.632,9.449c.884,3.3-1.831,8.114-.155,11,1.691,2.932,7.23,2.979,9.619,5.353,2.389,2.389,2.42,7.913,5.353,9.619,2.9,1.676,7.7-1.04,11-.155,3.2.853,5.989,5.632,9.449,5.632s6.253-4.779,9.449-5.632c3.3-.884,8.114,1.831,11,.155,2.932-1.691,2.979-7.23,5.353-9.619,2.389-2.389,7.913-2.42,9.619-5.353C77.994,58.445,75.279,53.651,76.163,50.346Z" transform="translate(0 0)" fill="url(#a)"/><path d="M70.329,47.636a15.915,15.915,0,0,0,.186,7.028,14.554,14.554,0,0,1,.372,2.9,15.1,15.1,0,0,1-2.746,1.148,15.224,15.224,0,0,0-6.128,3.3,15.428,15.428,0,0,0-3.3,6.128,15.584,15.584,0,0,1-1.148,2.746h-.217a16.67,16.67,0,0,1-2.684-.372,23.608,23.608,0,0,0-4.344-.528,10.6,10.6,0,0,0-2.684.326A15.07,15.07,0,0,0,41.8,73.934a13.5,13.5,0,0,1-2.467,1.846,12.509,12.509,0,0,1-2.467-1.862A15.318,15.318,0,0,0,31.014,70.3a10.482,10.482,0,0,0-2.669-.326A23.607,23.607,0,0,0,24,70.506a17.646,17.646,0,0,1-2.684.372H21.1a15.1,15.1,0,0,1-1.148-2.746A15.225,15.225,0,0,0,16.647,62a15.428,15.428,0,0,0-6.128-3.3A15.1,15.1,0,0,1,7.773,57.55a14.416,14.416,0,0,1,.372-2.9,15.613,15.613,0,0,0,.2-7.013,15.247,15.247,0,0,0-3.615-5.849A14.446,14.446,0,0,1,2.87,39.32a12.508,12.508,0,0,1,1.862-2.467A15.317,15.317,0,0,0,8.347,31a15.613,15.613,0,0,0-.2-7.013,14.552,14.552,0,0,1-.372-2.9,15.1,15.1,0,0,1,2.746-1.148,15.225,15.225,0,0,0,6.128-3.3,15.428,15.428,0,0,0,3.3-6.128A15.584,15.584,0,0,1,21.1,7.763h.217A16.671,16.671,0,0,1,24,8.135a23.608,23.608,0,0,0,4.344.528,10.394,10.394,0,0,0,2.669-.326,15.07,15.07,0,0,0,5.834-3.615A14.446,14.446,0,0,1,39.315,2.86a12.509,12.509,0,0,1,2.467,1.862,15.186,15.186,0,0,0,5.834,3.615,10.481,10.481,0,0,0,2.669.326,23.608,23.608,0,0,0,4.344-.528,17.646,17.646,0,0,1,2.684-.372h.217a15.1,15.1,0,0,1,1.148,2.746,15.224,15.224,0,0,0,3.3,6.128,15.428,15.428,0,0,0,6.128,3.3,15.1,15.1,0,0,1,2.746,1.148,14.415,14.415,0,0,1-.372,2.9,15.613,15.613,0,0,0-.2,7.013A15.07,15.07,0,0,0,73.9,36.838,14.445,14.445,0,0,1,75.76,39.3,12.508,12.508,0,0,1,73.9,41.772a15.255,15.255,0,0,0-3.615,5.834Z" transform="translate(1.583 1.577)" fill="#fff"/></g><path d="M34.516,43.31l-2.389-5.865H21.064L18.675,43.31H12.81L24.027,16.95h5.306L40.551,43.31h-6.02ZM26.587,23.87l-3.475,8.487h6.951ZM47.7,40.859a.123.123,0,0,0-.109-.062c-.279,0-.559.016-.838.016-.543,0-.884-.093-.884-.7,0-.357.016-.7.016-1.086v-2.42c0-.388-.016-.745-.016-1.071,0-.574.279-.714.807-.714.45,0,.915.031,1.365.031h5.694c.434,0,.9-.031,1.334-.031.543,0,.838.124.838.714,0,.372-.016.714-.016,1.071v2.42c0,.372.016.714.016,1.071,0,.605-.295.714-.822.714-.4,0-.791-.016-1.179-.031-.078.031-.078.047-.078.093s.031.078.047.078a22.533,22.533,0,0,0,4.267.931c.217.016.388.062.388.31,0,.295-.357,1.164-.791,1.164a17.5,17.5,0,0,1-2.979-.605,14.063,14.063,0,0,1-2.11-.714c-.109-.047-.217-.109-.217-.233a1.939,1.939,0,0,1,.31-.683.262.262,0,0,0,.047-.155c0-.124-.093-.155-.186-.171H49.1c-.14.016-.248.062-.248.217a.232.232,0,0,0,.047.155,3.656,3.656,0,0,1,.543.838c0,.093-.109.155-.186.155a1.031,1.031,0,0,1-.233-.047.551.551,0,0,0-.155-.031.7.7,0,0,0-.171.047,21.692,21.692,0,0,1-4.375,1.164,3.053,3.053,0,0,1-.372.047c-.481,0-.776-1.04-.776-1.179,0-.279.31-.31.528-.341a16.4,16.4,0,0,0,3.863-.869c.031-.016.078-.047.078-.093ZM49.534,29.7c.357,0,.5-.14.5-.481a8.3,8.3,0,0,0-.047-1.241.528.528,0,0,1-.016-.155c0-.233.155-.264.357-.264.341,0,1.226.078,1.6.093.124.016.419.031.419.217,0,.124-.14.186-.279.279-.233.14-.248.233-.233,1.086,0,.341.14.481.5.481h.4a.708.708,0,0,0,.745-.372,13.971,13.971,0,0,0,.745-1.334c.031-.109.078-.233.186-.233a4.57,4.57,0,0,1,.946.264c.915.279.915.372.915.434,0,.155-.171.171-.279.217a.337.337,0,0,0-.264.171c-.078.093-.248.372-.31.45a.4.4,0,0,0-.047.171.22.22,0,0,0,.248.217c.5,0,.977-.016,1.489-.016.481,0,.993.047.993.652,0,.264-.031.528-.031.791v.543c0,.233.031.434.031.667,0,.419-.264.4-.9.4s-.9.016-.9-.388c0-.233.031-.45.031-.683V31.55c0-.357-.14-.5-.5-.5h-9.79c-.341,0-.5.14-.5.5v.124c0,.233.031.45.031.683,0,.4-.279.388-.884.388s-.9.016-.9-.388c0-.217.031-.45.031-.683v-.543c0-.248-.031-.512-.031-.776,0-.59.481-.667.946-.667.512,0,1.024.016,1.536.016.155,0,.279-.078.279-.248a.459.459,0,0,0-.031-.155c-.109-.186-.279-.45-.4-.636-.047-.078-.14-.155-.14-.264,0-.264,1.179-.605,1.4-.605.248,0,.388.233.7.776a3.025,3.025,0,0,1,.419.838c0,.124-.093.171-.186.217-.031.031-.016.078.016.078H49.55Zm5.291,3.506c0,.14.016.295.016.434,0,.512-.279.667-.745.667-.388,0-.776-.031-1.164-.031H48.867c-.372,0-.76.031-1.133.031-.481,0-.76-.14-.76-.667,0-.14.016-.295.016-.434v-.5c0-.14-.016-.279-.016-.419,0-.512.264-.667.745-.667.388,0,.776.016,1.148.016h4.065c.388,0,.76-.016,1.148-.016.481,0,.76.14.76.652,0,.155-.016.295-.016.434v.5ZM53.909,36.5a.261.261,0,0,0,.279-.279v-.062a.278.278,0,0,0-.279-.279h-6.02a.288.288,0,0,0-.279.279v.062a.269.269,0,0,0,.279.279Zm-6.02.915a.278.278,0,0,0-.279.279v.093a.288.288,0,0,0,.279.279h6.02a.278.278,0,0,0,.279-.279v-.093a.269.269,0,0,0-.279-.279Zm0,1.583a.288.288,0,0,0-.279.279V39.4a.288.288,0,0,0,.279.279h6.02a.278.278,0,0,0,.279-.279v-.124A.278.278,0,0,0,53.909,39Zm.807-6a.3.3,0,0,0,.279.279h3.863a.3.3,0,0,0,.279-.279V32.9a.3.3,0,0,0-.279-.279H48.976a.3.3,0,0,0-.279.279Z" transform="translate(7.065 9.348)" fill="#d70056" style="isolation:isolate"/></g><g transform="translate(135.989 3723.065)" style="isolation:isolate"><path d="M72.237,27.992c4.887,0,8.254,2.25,8.254,6.609,0,3.879-2.5,8.13-9.945,8.13a15.509,15.509,0,0,1-6.315-1.35c-.434-.217-.652-.4-.652-.683a1.844,1.844,0,0,1,.155-.59l1.071-2.793c.186-.434.31-.621.528-.621a1.326,1.326,0,0,1,.59.279,9.075,9.075,0,0,0,4.763,1.319c3.2,0,4.53-1.412,4.53-3.351s-1.877-2.855-4.189-2.855a9.282,9.282,0,0,0-2.917.4,3.023,3.023,0,0,1-1.008.217,3.508,3.508,0,0,1-.977-.186l-.683-.186c-.621-.186-.807-.341-.807-.807a2.061,2.061,0,0,1,.031-.4c.124-1.04.217-1.939.31-3.072l.341-4.127c.093-1.195.186-2.188.217-3.227.031-.745.155-.9.776-.9.4,0,3.786.062,5.415.062h1.939c1.629,0,5.167-.062,5.384-.062.652,0,.776.186.776.9v3.1c0,.714-.124.9-.776.9-.217,0-3.755-.062-5.384-.062H70.95c-.807,0-.962.124-1.008.915l-.093,1.35c-.031.248-.062.621-.062.714,0,.372.124.5.5.5.279,0,1.133-.124,1.97-.124Z" transform="translate(-63.58 -19.629)" fill="#231815"/><path d="M96.727,30.675c0,7.633-4.561,12.071-10.286,12.071S76.62,38.867,76.62,31.575c0-6.563,3.475-11.885,10.286-11.885,5.415,0,9.821,3.693,9.821,10.985ZM81.9,31.714c0,4.127,1.691,6.253,4.561,6.253,3.01,0,5.042-2.839,5.042-7.106s-1.815-6.128-4.592-6.128C83.338,24.732,81.9,27.991,81.9,31.714Z" transform="translate(-56.388 -19.69)" fill="#231815"/><path d="M96.525,37.12c0-.372-.016-.621-.357-.621a.545.545,0,0,0-.279.093,16.541,16.541,0,0,1-2.808.993c-.745,0-1.691-1.955-1.691-2.436,0-.388.372-.481.7-.528a26.512,26.512,0,0,0,5.058-1.893c.729-.357,1.071-.543,1.071-.776s-.357-.512-.807-.915c-.109-.093-.217-.2-.357-.31-.109-.124-.4-.357-.4-.528,0-.481,1.645-1.753,2.11-1.753.2,0,.372.2.528.326.434.372.9.745,1.319,1.117a.86.86,0,0,0,.465.279,9.256,9.256,0,0,0,2.9-2.746c0-.217-.326-.248-.9-.248h-3.46a1.237,1.237,0,0,0-1.117.419c-.683.729-4.1,3.879-4.9,3.879A3.234,3.234,0,0,1,91.7,29.518c0-.264.326-.465.838-.807,1.831-1.226,4.686-3.693,5.539-5.741.155-.357.248-.621.59-.621.248,0,2.358.528,2.808.621.2.047.636.155.636.419,0,.155-.2.217-.326.248-.155.047-.326.062-.419.217a1.866,1.866,0,0,0-.2.388c0,.155.124.171.512.171h2.529c.838,0,1.676-.016,2.513-.016a1.771,1.771,0,0,1,1.567.7c.217.248.745.838.745,1.195,0,.388-.931,1.412-1.21,1.738a28.442,28.442,0,0,1-3.041,3.072c-.357.31-1.21,1.04-1.536,1.257-.093.062-.2.155-.2.264,0,.124.217.124.279.124h2.948c.729,0,1.474-.016,2.2-.016.853,0,1.6.062,1.6.745,0,.326-.062.745-.062,1.365v5.322c0,.683.062,1.567.062,1.784,0,.372-.279.419-.791.419H107.96c-.962,0-1.148-.047-1.148-.465,0-.093.016-.171.016-.248,0-.31-.217-.419-.481-.419h-6.1c-.264,0-.465.109-.465.388,0,.062.016.2.016.31,0,.419-.248.419-1.195.419H97.5c-.838,0-1.1-.047-1.1-.419,0-.155.062-1.21.062-1.784V37.1Zm9.759,1.272a.633.633,0,0,0,.621-.621V36.189a.613.613,0,0,0-.621-.621h-5.9a.622.622,0,0,0-.621.621v1.583a.632.632,0,0,0,.621.621Z" transform="translate(-48.243 -18.223)" fill="#231815"/><path d="M111.738,27.943c.171.31.264.481.512.481a2.926,2.926,0,0,0,.977-.481,2.116,2.116,0,0,1,.822-.419c.326,0,.636.4.9.76a2.018,2.018,0,0,1,.543.946c0,.2-.341.357-.714.528-.357.171-.714.326-1.055.481-.233.093-.465.171-.465.465a1.558,1.558,0,0,0,.248.559,20.032,20.032,0,0,0,1.474,2.42c.388.5.838.9.838,1.133,0,.434-1.164,1.334-1.5,1.334a.913.913,0,0,1-.434-.186,7.594,7.594,0,0,0-3.662-1.412c-.559,0-1.241.341-1.241.962,0,1.334,2.2,1.567,3.165,1.567.31,0,.621-.031.9-.031.465,0,.5.388.5.76a4.816,4.816,0,0,1-.171,1.257c-.078.279-.217.357-.605.357a13.763,13.763,0,0,1-2.87-.4c-1.707-.434-3.212-1.443-3.212-3.4a3.274,3.274,0,0,1,3.506-3.181,6.79,6.79,0,0,1,1.086.124c.124,0,.248-.062.248-.2a2.282,2.282,0,0,0-.326-.683c-.155-.264-.248-.4-.527-.4a.565.565,0,0,0-.217.031,21.118,21.118,0,0,1-3.46.559c-.419,0-.481-.14-.605-.512a5.969,5.969,0,0,1-.326-1.381c0-.2,0-.4.481-.419a19.611,19.611,0,0,0,2.591-.233c.233-.047.4-.124.4-.357a3.162,3.162,0,0,0-.574-.962c-.171-.233-.559-.636-.559-.853,0-.155.171-.295.341-.372a5.89,5.89,0,0,1,1.769-.59c.326,0,.45.248.915,1.1.093.186.2.388.326.621Z" transform="translate(-40.152 -16.105)" fill="#231815"/><path d="M120.382,26.625s.217.031.217.155a.531.531,0,0,1-.109.264,1.658,1.658,0,0,0-.248.962.338.338,0,0,0,.341.357c.279,0,1.769-.341,2.172-.434a3.687,3.687,0,0,1,.636-.124c.217,0,.295.31.326.481a7.5,7.5,0,0,1,.171,1.3c0,.388-.186.434-.683.528-.776.14-1.567.264-2.358.372-.372.047-.543.093-.543.419,0,.217.109.388.341.388a13.748,13.748,0,0,0,1.629-.326,1.827,1.827,0,0,1,.388-.062c.124,0,.2.124.264.326a6.334,6.334,0,0,1,.109,1.474c0,.5-.481.559-1.893.714-.621.062-.745.14-.745.419,0,.838,0,.962.5,1.117.652.217,2.715,1.086,2.715,1.815,0,.341-.652,1.489-1.133,1.489a3.208,3.208,0,0,1-1.148-.714,1.735,1.735,0,0,0-.683-.372c-.217,0-.279.171-.357.341a2.879,2.879,0,0,1-2.917,1.536,3.432,3.432,0,0,1-1.877-.481,2.178,2.178,0,0,1-.962-1.815,2.1,2.1,0,0,1,.884-1.691,4.164,4.164,0,0,1,2.389-.636h.171a.306.306,0,0,0,.326-.341.369.369,0,0,0-.357-.419c-.279,0-1.226.078-1.908.078-.59,0-.745,0-.838-.434a6.143,6.143,0,0,1-.217-1.427c0-.233.031-.45.31-.45.45,0,1.1.078,1.846.078h.419c.388,0,.683-.031.683-.372a.354.354,0,0,0-.372-.388c-.528,0-1.458.062-2.188.062h-.465c-.621,0-1.1,0-1.195-.233a5.484,5.484,0,0,1-.171-1.614c0-.217,0-.481.31-.481s1.908.14,2.917.14h.341c.372,0,.652-.031.652-.357,0-.14-.078-.993-.124-1.272a2.069,2.069,0,0,1-.047-.434c0-.186.109-.233.295-.233.295,0,1.846.2,2.234.264ZM116.519,36.8c0,.372.574.388.838.388.419,0,.915-.109.915-.636,0-.217-.186-.233-.481-.233C117.48,36.322,116.519,36.353,116.519,36.8Z" transform="translate(-35.856 -16.028)" fill="#231815"/></g></g></svg>