<svg xmlns="http://www.w3.org/2000/svg" xmlns:xlink="http://www.w3.org/1999/xlink" width="561.666" height="26.608" viewBox="0 0 561.666 26.608"><defs><clipPath id="a"><rect width="561.666" height="26.608" fill="none"/></clipPath></defs><g clip-path="url(#a)"><path d="M5.221,17.323c-.886.372-1.854.743-2.879,1.111a1.18,1.18,0,0,1,.026.285c0,.341-.112.545-.259.545s-.285-.117-.424-.341A33.312,33.312,0,0,1,0,15.759c1.824-.519,3.622-1.15,5.221-1.746V8.484H3.881a28.38,28.38,0,0,1-.739,4.08c-.03.108-.061.169-.173.169A.326.326,0,0,1,2.8,12.7a10.624,10.624,0,0,0-2.567-.255H.086c1.4-3.337,1.543-8.1,1.543-10.469,0,0,2.109.086,2.853.2.311.056.536.147.536.29s-.195.277-.735.458c-.03.48-.061,1.478-.147,2.65H5.221V1.724A10.8,10.8,0,0,0,5.135.155S7.845.181,8.817.35c.341.061.458.182.458.29,0,.2-.458.458-.8.54-.03.372-.061.545-.061.856v3.54h2.14V7.914A28.761,28.761,0,0,0,13.438.073s2.42.337,3.367.54a.39.39,0,0,1,.341.341c0,.143-.173.281-.774.372-.173.683-.6,2.023-1.167,3.592H25.644c-.061,3.964.056,13.088-1.055,16.909a5.518,5.518,0,0,1-5.762,4.37c-1.284,0-1.34-.173-1.37-.233a10.482,10.482,0,0,0-1.686-3.047,15.386,15.386,0,0,1-2.451,2.161A.259.259,0,0,1,13.179,25a13.993,13.993,0,0,0-3.393-1.258c6.306-3.9,8.61-10.953,9.41-16.083H17.968C15.6,16.783,11.151,19.549,11.13,19.549a.2.2,0,0,1-.173-.061,10.324,10.324,0,0,0-2.541-1.055V26.3H5.221Zm3.194.514c3.652-2.369,5.731-6.561,6.643-10.183h-1c-1.137,2.395-2.109,3.795-2.3,3.795a.3.3,0,0,1-.147-.086,11.485,11.485,0,0,0-2.991-1,9.087,9.087,0,0,0,1.565-1.876H8.415V12.7c1.223-.54,2.14-.968,2.541-1.193v.765a10.287,10.287,0,0,0,.112,2,.475.475,0,0,1,.03.169c0,.086,0,.169-2.684,1.426ZM22.078,7.654c-.51,3.825-1.971,10.214-5.986,14.89a12.913,12.913,0,0,0,2.451.372c2.706,0,3.739-1.686,3.933-15.262Z" transform="translate(0 0.242)" fill="#c90044"/><path d="M12.99,16.8c0-.285.03-2.079.056-3.959a13.625,13.625,0,0,1-1.513,2.334c-.026,0-.086-.056-.112-.108A12.734,12.734,0,0,0,8.854,12.6c3.082-3.082,5.334-9.068,5.96-12.517.03,0,4.136.912,4.136,1.483,0,.2-.285.372-.713.372-.061,0-.143-.03-.229-.03-.372,1.137-1.055,2.991-2,5.109.143,0,.29.026.4.026.519.052.713.2.713.341,0,.229-.341.458-.8.571,0,.138-.022,1.258-.022,1.258v2.131C19.292,7.7,20.209,2.312,20.347,1.279c3.168.458,3.821.661,3.821.968,0,.2-.255.4-.739.428-.143.575-.372,1.66-.769,2.918h2.165V2.312a19.456,19.456,0,0,0-.086-2s2.939.056,3.851.2c.285.056.458.169.458.337s-.255.4-.83.519c-.03.4-.056.912-.056,1.167V5.593h6.5V8.756h-6.5v4.815h7.473V16.74H28.188v9.47H24.8V16.74H17.356V13.571h7.469V8.756h-3.25c-1.024,2.481-2.079,4.08-2.312,4.08a.2.2,0,0,1-.112-.03,11.734,11.734,0,0,0-2.848-.769l-.03,14.289H12.9Z" transform="translate(29.415 0.285)" fill="#c90044"/><path d="M38.281,10.792a6.978,6.978,0,0,0-6.133-6.9,6.583,6.583,0,0,1,.117,1.34c0,4.331-3.047,10.209-5.818,13.174a4.494,4.494,0,0,1-3.255,1.712c-2.079,0-5.36-2.74-5.36-7.184,0-5.8,5.507-12.184,13.23-12.184,6.388,0,11.043,4.37,11.043,10.239-.03,9.3-10.5,11.808-11.355,11.808a.217.217,0,0,1-.2-.112,23.117,23.117,0,0,0-3.536-3.164c4.845-.35,11.264-2.563,11.264-8.731m-17,2.057c0,2.135,1.34,3.224,1.854,3.224a1.256,1.256,0,0,0,.938-.519c2.114-2.312,4.482-7.1,4.482-10.408a6.317,6.317,0,0,0-.086-1c-4.11,1.258-7.188,5.394-7.188,8.705" transform="translate(59.243 2.495)" fill="#c90044"/><path d="M32.343,13.213c-1.2,1-2.027,1.712-2.027,2.624,0,1.508,3.2,2.338,6.47,2.338A31.754,31.754,0,0,0,46.2,16.493a28.439,28.439,0,0,0-.826,3.907c0,.2-.061.229-.229.285a27.875,27.875,0,0,1-7.473,1.055c-6.877,0-11.151-2.455-11.151-5.45,0-1.906,1.772-3.592,2.226-3.964ZM28.635.89a20.717,20.717,0,0,0,6.868.968,38.563,38.563,0,0,0,7.015-.627c.233-.03.428-.2.575-.2a7.693,7.693,0,0,1,1.573,3.142c0,.225-.177.251-.549.337a20.4,20.4,0,0,0-7.81,3.881l-3.423-.912C33.739,6.794,34.911,6,35.589,5.45c.086-.078.147-.108.147-.138,0-.056-.117-.056-.173-.056A27.075,27.075,0,0,1,28.41,4.4Z" transform="translate(88.11 2.956)" fill="#c90044"/><path d="M51.585,12.659c-6.358.341-13.261,2.282-13.261,5.558,0,.748.341,2.771,5.848,2.771a27.109,27.109,0,0,0,8.956-1.651,30.834,30.834,0,0,0-.687,4.219c0,.112-.056.169-.173.2a32.336,32.336,0,0,1-7.214.882c-6.557,0-10.412-2.477-10.412-6.246,0-2.675,2.312-5.07,6.164-6.838a10.14,10.14,0,0,1-.687-4.08c0-.942.061-1.971.061-3.086,0-.908-.061-2.364-.147-3.907,0-.086-.026-.143-.026-.195S40.032.2,40.118.2c.255,0,3.652.428,4.193.54.32.056.488.173.488.316,0,.169-.255.337-.687.458-.086,1-.4,5.187-.4,6.185a6.066,6.066,0,0,0,.48,2.567c.717-.229,1.487-.458,2.312-.661,1.37-.337,3.566-.791,4.677-1.107a.551.551,0,0,1,.2-.03c.147,0,.2.061.2.2v3.994Z" transform="translate(115.09 0.657)" fill="#c90044"/><path d="M47.238,16.537c0-.311.03-2.451.061-4.621a17.3,17.3,0,0,1-1.686,2.343c-.03,0-.056-.03-.082-.056a18.771,18.771,0,0,0-2.771-2.14A28.857,28.857,0,0,0,49.524,0c.51.082,3.985.851,3.985,1.4,0,.169-.281.316-.713.316H52.6a38,38,0,0,1-2.425,5.355c.316,0,.54.035.6.035.458.056.657.195.657.363,0,.2-.316.458-.851.605-.03.225-.03,1.651-.03,1.651L50.406,26.15l-3.255-.03ZM64.319,5.161H52.628v-3h17.2v3h-2.14V18.793c0,1.4.082,2.485.082,2.68v.143c0,3.678-3.1,4.283-5.731,4.283-.4,0-.765,0-1.111-.03-.143,0-.229-.035-.255-.151a17.972,17.972,0,0,0-2.252-3.471,25,25,0,0,0,3.6.428c1.418,0,2.3-.4,2.3-1.629ZM53,7.586h8.9V19.45H58.878V17.795H55.908v2.567H53Zm5.878,2.675H55.908v4.793h2.969Z" transform="translate(142.06 0)" fill="#c90044"/><path d="M52.273,4.329a1.152,1.152,0,0,1-.138-.341c0-.117.108-.147.372-.147,4.785-.086,12.6-2.308,20.725-3.077a.619.619,0,0,0,.32-.112.775.775,0,0,1,.311-.117c.346,0,1.625,3.082,1.625,3.54,0,.169-.082.255-.225.255a1.653,1.653,0,0,1-.458-.117,13.037,13.037,0,0,0-4.024.774c-2.477.942-7.24,5.048-7.24,8.7,0,4.223,4.876,5.217,9.639,5.364a31.567,31.567,0,0,0-2.766,3.678.208.208,0,0,1-.173.112h-.086c-.8-.112-10.179-1.6-10.179-8.722,0-2.943,1.712-6.28,5.247-9.1-3.851.657-7.9,2.14-11.32,2.654Zm19.71,2.023a12.842,12.842,0,0,1,2.762,3.795L72.61,11.292A13.227,13.227,0,0,0,69.986,7.3Zm3.25-1.31A13.92,13.92,0,0,1,78,8.552l-2.109,1.2a12.81,12.81,0,0,0-2.624-3.683Z" transform="translate(173.206 1.774)" fill="#c90044"/><path d="M66.091,17.8a3.474,3.474,0,0,1-.575-.03c-2.308-.082-4.132-1.228-4.132-2.792a3.677,3.677,0,0,1,1.595-2.684l2.624.713c-.6.428-1.024.83-1.024,1.141,0,.29.372.54,1.34.54H66.2c.086-1.448.2-2.848.346-4.162a7.113,7.113,0,0,1-.769.03h-.233a10.549,10.549,0,0,1-3.938-.739s-.052-2.913-.052-3.112c0-.229.026-.372.2-.372a.691.691,0,0,1,.255.086,10.791,10.791,0,0,0,3.769,1c.311,0,.683,0,1.055-.026.194-2.135.363-4.024.363-5.705,0-.428,0-.83-.022-1.2,0-.082-.03-.138-.03-.195,0-.086.052-.147.2-.147.086,0,2.939.428,3.907.692.346.082.484.195.484.311,0,.169-.372.367-.739.393-.177,1.513-.432,3.289-.713,5.226.886-.233,1.768-.51,2.654-.83l-.06,3.134c0,.117,0,.177-.143.2-.882.29-1.85.549-2.883.778-.138,1.31-.281,2.675-.367,4.02a27.551,27.551,0,0,0,4.136-1.794v1.336c0,.739,0,1.595.056,2.083v.086c0,.393-2.939,1.336-4.361,1.651v.882c0,2.451,1.31,3.428,2.935,3.428a5.393,5.393,0,0,0,5.131-5.022c0-2.369-2.023-4.876-4.815-7.214a27.866,27.866,0,0,0,4.024-.8.267.267,0,0,1,.138-.03c.2,0,4.3,3.709,4.3,7.957a8.718,8.718,0,0,1-8.753,8.476c-3.484,0-6.22-2.286-6.22-6.622v-.255Z" transform="translate(203.934 0.478)" fill="#c90044"/><path d="M69.036,4.175H80.36V7.084H69.036Zm1.2,11.519h9.332v9.695H76.539v-1.4h-3.25v1.573H70.233ZM70.467.436h8.9V2.969h-8.9Zm.03,7.845H79.25v2.451H70.5Zm.026,3.678h8.731V14.44H70.523Zm6.017,6.388h-3.25v2.879h3.25Zm5.1-4.024h4.37V10.533h-5.8V7.654h5.8V4.408c-1.4.169-2.8.307-4.024.393-.147,0-.2,0-.259-.147a11.936,11.936,0,0,0-1.854-2.65c3.851-.056,9.928-.769,12.262-1.88.117.138,1.63,1.906,2.088,2.593a.64.64,0,0,1,.138.372.239.239,0,0,1-.259.255,1.132,1.132,0,0,1-.739-.367,34.259,34.259,0,0,1-4.132.938V7.654h6.241v2.879H89.234v3.791h4.478v11.13H90.518V24.023H84.838v1.513H81.644Zm8.874,2.766H84.838v3.994h5.679Z" transform="translate(229.356 0.415)" fill="#c90044"/><path d="M77.713,9.371a1.506,1.506,0,0,1-.06-.29c0-.108.06-.138.285-.169a32.424,32.424,0,0,0,5.705-.683c.341-.086.713-.169,1.085-.229-.03-2.083-.112-4.249-.29-6.358,0,0,3.026.143,4.11.316.367.056.545.169.545.285,0,.2-.372.45-.83.51,0,1.2-.026,2.857-.052,4.56,1.936-.337,4.1-.709,6.5-1.024.03-.679.03-1.4.03-2.079,0-1.344-.03-2.654-.112-3.743,0,0,3.021.264,4.05.458.311.065.454.173.454.32,0,.169-.311.4-.8.48-.052,1.318-.108,2.736-.173,4.11,1.941-.225,3.994-.428,6.159-.6l-.255,3.419a.137.137,0,0,1-.143.147c-2.079.026-4.076.108-5.986.277a26.471,26.471,0,0,1-.514,4.05,4.761,4.761,0,0,1-4.763,3.942c-1.055,0-2.42-.316-2.42-.8a27.129,27.129,0,0,0-.657-3.739A5.577,5.577,0,0,0,92.43,13.7c1.681,0,1.85-1.595,2.1-4.244-2.338.285-4.5.653-6.388,1.05-.056,2.373-.056,4.223-.056,4.452,0,2.226.147,4.219,4.616,4.219a32.685,32.685,0,0,0,7.3-1.076,29.329,29.329,0,0,0-.916,3.873.269.269,0,0,1-.22.259,46.66,46.66,0,0,1-5.563.372c-7.59,0-8.584-3.4-8.584-8.156v-.916c.026-.683.026-1.457.026-2.226l-.566.143c-1.828.454-3.855.942-5.338,1.145Z" transform="translate(257.981 1.551)" fill="#c90044"/><path d="M86.556,15.288a.249.249,0,0,1-.091-.143c0-.255,2.684-2.226,5.079-4.219a67.181,67.181,0,0,0,6.73-6.5c.03-.03.056-.03.056-.056H98.3a.341.341,0,0,0-.143.026,20.866,20.866,0,0,1-6.246,1.249h-.372L90.29,2.23V2.144c0-.086.03-.117.087-.117h.056a10.289,10.289,0,0,0,2.023.173,28.609,28.609,0,0,0,8.5-1.483c.311-.117.4-.29.566-.29.341,0,3.086,2,3.086,2.451,0,.2-.29.29-.657.432-2.17,1.967-5.308,4.763-7.326,6.561-.065.056-.091.086-.091.112s.026.03.061.03a.16.16,0,0,0,.112-.03,12.3,12.3,0,0,1,3.877-.717c3.964,0,7.586,2.256,7.586,6.168,0,4.621-4.819,8.268-10.438,8.268-4.729,0-6.985-2.282-6.985-4.448,0-1.768,1.457-3.51,4.3-3.51,2.974,0,5.2,1.915,5.312,4.249,2.792-.886,3.994-2.879,3.994-4.422,0-1.824-1.461-3.389-4.534-3.389-.458,0-.947.056-1.461.108a11.62,11.62,0,0,0-8.329,4.789c-.052.091-.112.151-.169.151s-.082-.03-.173-.061Zm10.581,4.906c0-2.023-2.2-2.023-2.308-2.023-.346,0-1.284.056-1.284.856,0,.169.056,1.457,3.562,1.569a1.919,1.919,0,0,0,.03-.4" transform="translate(287.26 1.421)" fill="#c90044"/><path d="M96.5,3.779h7.443c.087-1,.117-1.967.117-2.9V.019s2.879.138,3.791.316c.372.056.6.2.6.372s-.259.337-.856.484c-.056.765-.117,1.621-.2,2.589h13.857V7.03H106.961c-.112.83-.251,1.69-.454,2.541h8.614c.173,0,.311-.2.51-.2.026,0,2.395,1.253,2.395,1.712,0,.173-.229.29-.54.341a22.912,22.912,0,0,1-4.361,7.7,21.825,21.825,0,0,0,9.323,3.332,24.347,24.347,0,0,0-3.566,3.086.156.156,0,0,1-.138.082,20.3,20.3,0,0,1-8.014-4.05A21.328,21.328,0,0,1,102.569,26a.159.159,0,0,1-.143-.086,11.176,11.176,0,0,0-2.533-2.334c-.29.307-.605.6-.916.882-.061.03-.082.056-.147.056a.119.119,0,0,1-.086-.026A14.94,14.94,0,0,0,95.04,23c4.88-3.281,7.5-9.781,8.5-15.975H96.5Zm11.916,15.6a20.8,20.8,0,0,1-3.25-4.845,23.892,23.892,0,0,1-4.871,8.64,19.06,19.06,0,0,0,8.122-3.795m-.765-6.9a12.9,12.9,0,0,0,3.047,4.681,15.219,15.219,0,0,0,2.771-4.681Z" transform="translate(315.748 0.063)" fill="#c90044"/><path d="M104.356,23.51a123.35,123.35,0,0,0,6.5-12.867,20.914,20.914,0,0,1-4.845.683c-.255-.769-1.024-3.505-1.024-3.566s.052-.108.138-.108c.065,0,.117.026.173.026a13.346,13.346,0,0,0,1.716.112,27.073,27.073,0,0,0,5.131-.627A30.128,30.128,0,0,0,113.506.774s3.363.571,4.08.774c.346.086.484.255.484.393,0,.2-.341.4-.912.428-.259.916-.713,2.736-1.171,4.283.316-.03.631-.056.942-.056,2.853,0,4.309,1.621,4.309,6.155a21.817,21.817,0,0,1-.942,6.475,5.946,5.946,0,0,1-5.705,4.391,5.318,5.318,0,0,1-2.822-.769c-.117-.056-.138-.112-.138-.255a36.325,36.325,0,0,0-.488-4.132c-.826,1.794-1.738,3.648-2.71,5.7Zm9.98-3.622a2.668,2.668,0,0,0,2.563-2,17.574,17.574,0,0,0,.83-5.36c0-1.34-.082-2.68-1.457-2.68a7.759,7.759,0,0,0-1.478.169c-1.089,2.736-2.226,5.39-3.566,8.243a4.182,4.182,0,0,0,3.108,1.629M124.6,6.653c3.7,2.533,6.077,5.645,6.25,8.809l-3.367,1.681a.5.5,0,0,1-.147.061c-.052,0-.082-.061-.108-.173-.264-2.9-1.573-6.017-5.623-8.666-.2-.147-.285-.2-.285-.255s.117-.117.32-.2Zm-.225-4.538A14.406,14.406,0,0,1,128.2,5.054l-1.66,1.569a12.625,12.625,0,0,0-3.76-3.134ZM127.2.178a14.9,14.9,0,0,1,3.76,2.68l-1.6,1.625a13.4,13.4,0,0,0-3.7-2.909Z" transform="translate(346.699 0.591)" fill="#c90044"/><path d="M125.982,14.275a.249.249,0,0,1,.052.173c0,.03-.022.086-.022.117-1.716,3.618-3.4,5.239-5.277,5.239a5.043,5.043,0,0,1-2.485-.791c-3.847-2.252-4.876-6.3-4.876-12.379,0-1.167.086-2.762.086-4.08,0-.367,0-.713-.026-1.029,0-.169,0-.22.112-.22.2,0,4.595.341,4.595.851,0,.169-.29.372-.8.458-.086.826-.372,4.219-.372,6.306,0,2.589.424,5.156,2.8,6.5a1.538,1.538,0,0,0,.769.255c.938,0,1.707-1.34,3.052-5.187a23.4,23.4,0,0,0,2.395,3.791m7.356,1.6a.285.285,0,0,1-.138.056c-.061,0-.086-.086-.086-.259,0-.195.026-.363.026-.566,0-4.223-2.364-9.3-6.159-12.863l3.505-1.115c3.683,3.2,6.475,8.817,6.475,12.72v.341Z" transform="translate(376.659 3.744)" fill="#c90044"/><path d="M121.295,15.277a.231.231,0,0,1-.091-.138c0-.255,2.684-2.226,5.079-4.219a67.182,67.182,0,0,0,6.73-6.5c.03-.03.056-.03.056-.056h-.026a.342.342,0,0,0-.143.026,20.866,20.866,0,0,1-6.246,1.249h-.372l-1.253-3.415V2.137c0-.091.03-.117.086-.117h.056a10.289,10.289,0,0,0,2.023.173A28.748,28.748,0,0,0,135.7.711c.311-.117.4-.29.566-.29.341,0,3.086,2,3.086,2.451,0,.2-.29.29-.657.432-2.17,1.967-5.308,4.763-7.331,6.561-.06.056-.086.086-.086.112s.026.03.06.03a.165.165,0,0,0,.112-.03,12.3,12.3,0,0,1,3.877-.717c3.964,0,7.586,2.256,7.586,6.168,0,4.621-4.819,8.269-10.438,8.269-4.729,0-6.985-2.282-6.985-4.448,0-1.768,1.457-3.514,4.3-3.514,2.974,0,5.2,1.919,5.312,4.253,2.792-.886,3.985-2.883,3.985-4.422,0-1.824-1.452-3.389-4.53-3.389-.458,0-.942.056-1.457.108a11.62,11.62,0,0,0-8.329,4.789c-.052.091-.112.151-.169.151s-.086-.03-.173-.061Zm10.581,4.91c0-2.023-2.2-2.023-2.308-2.023-.346,0-1.284.056-1.284.856,0,.169.056,1.457,3.562,1.569a1.939,1.939,0,0,0,.03-.4" transform="translate(402.672 1.398)" fill="#c90044"/><path d="M132.212,4.076A4.223,4.223,0,1,1,127.993,8.3a4.235,4.235,0,0,1,4.219-4.227m0,6.081A1.854,1.854,0,1,0,130.357,8.3a1.855,1.855,0,0,0,1.854,1.854" transform="translate(425.227 13.541)" fill="#c90044"/></g></svg>