<svg xmlns="http://www.w3.org/2000/svg" xmlns:xlink="http://www.w3.org/1999/xlink" width="719.488" height="197.079" viewBox="0 0 719.488 197.079"><defs><linearGradient id="a" x1="0.013" y1="0.966" x2="1" gradientUnits="objectBoundingBox"><stop offset="0" stop-color="#006eba"/><stop offset="0.067" stop-color="#166cb6"/><stop offset="0.145" stop-color="#366bb2"/><stop offset="0.386" stop-color="#ca3962"/><stop offset="0.427" stop-color="#cf3360"/><stop offset="0.48" stop-color="#dd225d"/><stop offset="0.5" stop-color="#e41b5c"/><stop offset="0.569" stop-color="#e5354d"/><stop offset="0.639" stop-color="#e74c41"/><stop offset="0.738" stop-color="#ee7f29"/><stop offset="0.8" stop-color="#f3a219"/><stop offset="0.903" stop-color="#f6b413"/><stop offset="1" stop-color="#f9c110"/></linearGradient><linearGradient id="b" x1="0" y1="1" y2="0.293" xlink:href="#a"/><linearGradient id="c" x1="0" y1="0" y2="0.707" xlink:href="#a"/><linearGradient id="d" x1="0" y1="0" xlink:href="#a"/></defs><g transform="translate(-280.007 -913.994)"><path d="M2418.118,1192.555a1.146,1.146,0,0,0-1.08-1.16c-.479,0-1,.08-1.479.08-.92,0-1-.481-1-1.6v-2.24c0-1.119.08-1.559,1-1.559.4,0,1.2.039,1.519.039.8,0,1.04-.72,1.04-1.4v-1.92c0-1.119-.12-2.479-.12-2.639,0-.6.4-.64.88-.64.8,0,3.2.16,4.159.24.561,0,1.24.08,1.24.721,0,.359-.24.48-.48.679-.359.28-.359.76-.359,1.719v1.881c0,.719.279,1.359,1.08,1.359.359,0,1.119-.039,1.559-.039.92,0,1,.4,1,1.559v2.24c0,1.119-.08,1.6-1,1.6-.48,0-1-.08-1.48-.08a1.112,1.112,0,0,0-1.159,1.039v2.48c0,.44.04,1.08.639,1.08a6.906,6.906,0,0,0,1.56-.6,1.467,1.467,0,0,1,.6-.161c.84,0,.88,2.959.88,3.639,0,1.32-.12,1.52-2.44,2.44-.84.359-1.239.64-1.239,1.6v5.119c0,1,.04,2,.04,3.039,0,3.721-2.68,4.721-5.919,4.721-1.6,0-2.56-.041-2.56-4.561,0-.679.239-1.238,1.04-1.238.319,0,.68.039,1,.039.96,0,1.08-.279,1.08-1.359v-3.359c0-.36,0-1.241-.84-1.241a1.229,1.229,0,0,0-1.239.68.8.8,0,0,1-.641.48c-.439,0-.519-.48-.919-2.359-.121-.56-.24-1.2-.4-2a7.941,7.941,0,0,1-.24-1.279c0-.522.28-.641,2.88-1.24a1.444,1.444,0,0,0,1.4-1.52Zm16.438,20.836a1.152,1.152,0,0,0-1.12,1.16v.439c0,.76-.321,1-1.04,1h-2.56c-1.6,0-1.879-.119-1.879-1,0-1.48.079-2.959.079-4.478v-17.078c0-1.241-.079-2.44-.079-3.68,0-1.359.8-1.6,1.959-1.6s2.32.08,3.48.08h1.4a1.166,1.166,0,0,0,1.079-1.119v-3.558c0-1.881-.12-3.041-.12-3.4,0-.48.32-.56.721-.56.279,0,.8,0,2.678.16,1.8.16,2.96.2,2.96.76,0,.281-.2.441-.4.6a1.818,1.818,0,0,0-.36,1.362c-.04,1.2-.04,2.359-.04,3.519v1.078a1.281,1.281,0,0,0,1.161,1.16h1.439c1.159,0,2.279-.08,3.44-.08s2,.2,2,1.6c0,1.24-.08,2.439-.08,3.68v17.078c0,1.519.12,3,.12,4.478,0,.92-.48,1-1.24,1h-2.92c-.8,0-1.359,0-1.359-1v-.519c0-.68-.48-1-1.08-1.08Zm1.319-19a.947.947,0,0,0-.96-.961h-.6a.949.949,0,0,0-.96.961v2.718a.949.949,0,0,0,.96.961h.6a.973.973,0,0,0,.96-.961Zm-.96,13.876a.972.972,0,0,0,.96-.958v-3.28a.973.973,0,0,0-.96-.961h-.6a.948.948,0,0,0-.96.961v3.28a.947.947,0,0,0,.96.958Zm7.959-10.2a1.173,1.173,0,0,0,1.12-1.121v-2.4a1.144,1.144,0,0,0-1.12-1.121h-.439a1.144,1.144,0,0,0-1.121,1.121v2.4a1.146,1.146,0,0,0,1.121,1.121Zm0,10.2a1.171,1.171,0,0,0,1.12-1.119v-2.961a1.144,1.144,0,0,0-1.12-1.119h-.439a1.145,1.145,0,0,0-1.121,1.119v2.961a1.144,1.144,0,0,0,1.121,1.119Zm22.2,6.719c-.04.2-.239.52-.519.52-.481,0-.68-.6-1.4-2.44-.2-.519-.44-1.16-.761-1.92a5.209,5.209,0,0,1-.439-1.478,1.031,1.031,0,0,1,.72-1,6.66,6.66,0,0,0,.759-.359c1.52-.881,2.2-1.122,2.2-2.68v-5.039a1.113,1.113,0,0,0-1.16-1.16c-.241,0-.68.08-1.041.08-.919,0-1-.481-1-1.561v-2.119c0-1.08.081-1.641.92-1.641.6,0,1.56.121,2.321.121h.519c.88,0,1.76-.08,2.64-.08,1.279,0,2.159.44,2.159,1.879,0,1.121-.08,2.28-.08,3.52v4.719c0,3.439,1.92,4.72,2.44,4.72a.147.147,0,0,0,.16-.16.712.712,0,0,0-.24-.4,6.464,6.464,0,0,1-.96-1.879c0-.4.48-.442.76-.481.76-.121,5.479-1.2,5.479-1.759,0-.2-.36-.241-.48-.241h-1.2c-1.319,0-2.639.08-3.959.08-.76,0-.84-.439-.84-1.279v-1.4c0-.84.08-1.28.84-1.28,1.32,0,2.64.081,3.959.081h.6a.463.463,0,0,0,.479-.481v-.32c0-.36-.319-.44-.6-.44-.96,0-1.919.08-2.879.08-.76,0-.84-.439-.84-1.32v-1c0-1.318.04-1.719.92-1.719.92,0,1.88.08,2.8.08.36,0,.52-.121.52-.48,0-1.16-.239-1.2-1.079-1.24-1.96-.08-3.72-.241-3.72-2.639,0-.121.08-1.439.08-1.721v-.8c0-.839-.08-1.4-.08-1.88,0-1.159.68-1.319,1.4-1.319.8,0,1.6.039,2.4.039h.88a.5.5,0,0,0,.52-.48v-.16a.529.529,0,0,0-.52-.52h-.6c-1.12,0-2.239.08-3.359.08-1.04,0-1.08-.24-1.08-1.24V1181.6c0-.959.08-1.16,1.04-1.16,1.16,0,2.279.041,3.4.041h2c.88,0,1.72-.041,2.56-.041,1,0,1.439.4,1.439,1.519,0,.641-.08,1.361-.08,2.281v.959c0,2.4.24,2.36,1.08,2.6.6.16.96.4.96,1.08a6.687,6.687,0,0,1-1.76,4.119c-.08.08-.2.2-.2.279,0,.241.241.241.4.282.319,0,.639.16.639.519,0,.28-.16.36-.32.52a.5.5,0,0,0-.16.359.274.274,0,0,0,.28.281h1.68c.52,0,.639-.281.639-.72a1.954,1.954,0,0,0-.04-.481c0-.08-.04-.238-.04-.359a.952.952,0,0,1,.08-.32,1.186,1.186,0,0,0,.081-.4,1.48,1.48,0,0,0-.28-.682,3.358,3.358,0,0,1-.28-1.4c0-.16.04-1.32.04-1.52v-1c0-.839-.04-1.4-.04-1.88,0-1.159.64-1.319,1.4-1.319.8,0,1.6.039,2.4.039h1.519a.462.462,0,0,0,.48-.48v-.16a.5.5,0,0,0-.48-.52h-1.32c-1.119,0-2.239.08-3.359.08-1,0-1.08-.24-1.08-1.16V1181.6c0-.959.08-1.16,1.04-1.16,1.12,0,2.24.041,3.4.041h2.72c.84,0,1.679-.041,2.519-.041,1,0,1.44.4,1.44,1.519,0,.641-.04,1.361-.04,2.281v.959c0,.721.08,1.321.08,1.959,0,.522.16.721.64.84s1,.361,1,1c0,.76-.6,3.8-2.319,4.279a10.51,10.51,0,0,1-2.919.282.294.294,0,0,0-.32.32c0,.078.04.158.04.238,0,.2-.2.362-.32.481a.486.486,0,0,0-.24.4c0,.2.24.24.4.24,1.04,0,2.08-.08,3.119-.08.88,0,.92.44.92,1.559v1.121c0,.92-.04,1.359-.92,1.359-1.039,0-2.079-.08-3.119-.08-.281,0-.68.08-.68.44v.281a.53.53,0,0,0,.52.52h.919c1.281,0,2.6-.081,3.92-.081.8,0,.88.36.88,1.28v1.439c0,.84-.08,1.24-.84,1.24-1.32,0-2.639-.08-3.96-.08h-1.439c-.16,0-.48.039-.48.241,0,.679,5.2,1.6,6,1.718.72.121.879.08.879.561a5.4,5.4,0,0,1-.8,2.2.988.988,0,0,0-.16.44c0,.24.2.32.4.4.64.16.72.721.72,1.279a5.636,5.636,0,0,1-.92,3.321,2.291,2.291,0,0,1-1.36.64c-1.04.08-4.159.119-5.439.119H2481.2c-3.319,0-7.438-.119-9.838-1.24a6.769,6.769,0,0,1-1.879-1.279,1.685,1.685,0,0,0-1.04-.481c-.52,0-1.28.641-2.04,1.321-.2.16-.36.32-.56.48A1.845,1.845,0,0,0,2465.078,1214.99Zm4.44-30.8a19,19,0,0,1,1.92,3.481c0,.719-3.24,2.558-3.84,2.558-.44,0-.6-.48-.76-.8a31.73,31.73,0,0,0-3.759-5.68c-.2-.24-.56-.641-.56-.92,0-.76,2.8-2.76,3.639-2.76C2466.838,1180.076,2469.078,1183.516,2469.518,1184.195Zm13.238,19.957c-.24,0-.681.039-.681.36,0,.281.521.759.88,1.08.6.56,1.12,1.08,1.12,1.4s-.24.44-.519.44c-.08,0-.241-.039-.321-.039a1.143,1.143,0,0,0-.36-.08,1.3,1.3,0,0,0-.359.119,44.535,44.535,0,0,1-4.56,1.72c-.16.08-.72.2-.72.44,0,.279.96.279,3.28.279h7.558c.521,0,2.8-.039,3.52-.039.16,0,.6-.041.6-.32,0-.2-.519-.36-.679-.4a25.736,25.736,0,0,1-4.8-1.959c-.24-.16-.441-.281-.441-.56,0-.481.84-1.36,1.2-1.68.12-.119.4-.4.4-.56s-.2-.2-.32-.2Zm-4.279-15.556a.505.505,0,0,0-.481.558c0,.68.32.68.92.68h.36c.48,0,.84-.2.84-.76a.441.441,0,0,0-.48-.478Zm7.4,11.758a.53.53,0,0,0,.52-.52v-.2a.53.53,0,0,0-.52-.52h-2a.5.5,0,0,0-.479.52v.2a.523.523,0,0,0,.479.52Zm5.159-11.758a.532.532,0,0,0-.48.558c0,.68.32.68.92.68h.92c.28,0,.839,0,.839-.8,0-.359-.279-.439-.6-.439Zm20.165-.92c0-1.24.44-1.281,4.839-1.52.8-.041,1.72-.08,2.839-.16,5.04-.32,16.638-1.641,21.517-2.56a1.5,1.5,0,0,1,.4-.04c.72,0,.84.559,1,1.319a28.118,28.118,0,0,1,.519,4.439c0,.76-.439.76-2.159.8a16.3,16.3,0,0,0-5.719.719,12.43,12.43,0,0,0-8.279,11.68c0,3.8,2,4.837,5.52,4.837,1,0,2.319-.119,2.879-.119.759,0,1.04.119,1.04.879a18.162,18.162,0,0,1-.68,4.68c-.32.8-.88.92-1.72.92-7.4,0-13.6-1.92-13.6-10.559a16.763,16.763,0,0,1,3.439-10.2,1.14,1.14,0,0,0,.239-.6c0-.359-.279-.6-.719-.6a14.2,14.2,0,0,0-2.16.361c-2.12.4-4.879,1-6.959,1.6a2.773,2.773,0,0,1-.559.08c-.84,0-1.12-1.8-1.32-3.041A21.547,21.547,0,0,1,2511.2,1187.676Zm26.555,6.638c.52.6,2.72,3.319,2.72,3.918,0,.8-2.16,2.041-2.56,2.041-.2,0-.279-.121-.8-.919-.76-1.161-1.559-2.2-2.439-3.321a.68.68,0,0,1-.2-.439c0-.561,2.24-1.76,2.679-1.76C2537.354,1193.834,2537.595,1194.113,2537.754,1194.314Zm7.959,1.479c0,.8-2.119,2.08-2.56,2.08-.28,0-.479-.359-.6-.56a31.115,31.115,0,0,0-2.56-3.479,1.26,1.26,0,0,1-.32-.6c0-.519,2.2-1.759,2.68-1.759C2542.793,1191.475,2545.713,1195.273,2545.713,1195.793Zm41.041-13.717c1.519,0,3.039-.08,4.559-.08.64,0,.76.32.76,1.039v1.6c0,.72-.12,1-.76,1-1.52,0-3.04-.08-4.559-.08h-25c-1.52,0-3.039.08-4.559.08-.64,0-.761-.28-.761-.959v-1.641c0-.719.121-1.039.761-1.039,1.52,0,3.039.08,4.559.08h8.318a.987.987,0,0,0,1.12-.92,4.955,4.955,0,0,0-.08-.72c0-.081-.04-.28-.04-.36,0-.48.561-.48.88-.48,1.16,0,3.96.2,5.159.32.321.041.96.08.96.52,0,.2-.2.32-.4.48a.63.63,0,0,0-.28.52c0,.361.2.64.719.64Zm-.24,25.795c0,.281.12.4,1.32,1.32a23.077,23.077,0,0,0,3.319,2.08c.6.321.76.481.76.719,0,.84-2.319,3.44-3.4,3.44-.361,0-.68-.16-1.48-.76a30.39,30.39,0,0,1-6.039-5.639,22.2,22.2,0,0,1-3.519-6.4c-.2-.641-.441-.881-1-.881h-1.121c-.439,0-.759,0-.759.24,0,.121.2.24.28.321a11.424,11.424,0,0,1,4.4,8.478c0,4.359-3.08,5.08-6.8,5.08h-.88c-1.321,0-2.08-.2-2.2-2.721,0-.119,0-.8-.519-.8a9.114,9.114,0,0,0-1.4.519.654.654,0,0,0-.24.119c-1.32.6-7.239,2.92-8.358,2.92-.92,0-2.08-1.84-2.08-2.68,0-.359.28-.48.84-.638a68.4,68.4,0,0,0,14.437-5.44.62.62,0,0,0,.361-.519.433.433,0,0,0-.481-.442,1.051,1.051,0,0,0-.479.122,71.59,71.59,0,0,1-8.959,3.878,28.641,28.641,0,0,1-3.52,1c-.84,0-1.68-1.64-1.68-2.279,0-.441.361-.521.681-.6a60.581,60.581,0,0,0,11.478-4.161.481.481,0,0,0,.32-.439c0-.281-.36-.442-.6-.442a.807.807,0,0,0-.439.122c-1.64.8-8.439,3.558-9.918,3.558-.96,0-1.8-1.8-1.8-2.439,0-.479.72-.559,1.079-.639,1.641-.361,3.24-.84,4.84-1.361.2-.039.6-.2.6-.44s-.241-.279-.44-.279c-.36,0-.721.039-1.12.039-.72,0-.76-.359-.76-1.158a.8.8,0,0,0-.8-.881h-1.24c-1,0-1.559-.08-1.559-.68,0-.279.08-.84.08-1.4v-1.039c0-.76-.04-1.279-.04-1.6,0-1,1.12-1.08,2.439-1.08,1.4,0,2.8.039,4.2.039h19.877c1.4,0,2.8-.039,4.2-.039,1.439,0,2.479.119,2.479,1.08,0,.28-.08.8-.08,1.6v1.039c0,.6.08,1.16.08,1.4,0,.561-.439.68-1.4.68h-1.441a.779.779,0,0,0-.84.76v.16c0,.8-.08,1.119-.759,1.119-1.12,0-2.2-.08-3.32-.08-.439,0-.92.121-.92.68,0,.08.4,1.681,1.241,1.681.519,0,1.679-1.16,2.079-1.56.32-.321.48-.52.72-.52a22.639,22.639,0,0,1,3.36,2.36c.239.2.8.56.8.92,0,.24-.281.359-.481.359-.16,0-.319-.039-.479-.039h-.2a.776.776,0,0,0-.479.238c-.481.361-.88.641-1.2.881C2586.874,1207.232,2586.514,1207.473,2586.514,1207.871Zm-22.437-10.4c-.279,0-.68.041-.68.521a.578.578,0,0,0,.521.6h20.636c.4,0,.56-.24.56-.641,0-.359-.28-.48-.639-.48Zm15.438-10.957c1.08,0,2.16-.041,3.24-.041s1.919.16,1.919,1.439c0,.441-.04.881-.04,1.641v.48c0,.76.04,1.2.04,1.6,0,1.279-.8,1.478-1.879,1.478s-2.16-.039-3.28-.039h-10.558c-1.08,0-2.16.039-3.239.039s-1.88-.2-1.88-1.439c0-.44.04-.879.04-1.639v-.48c0-.8-.04-1.2-.04-1.641,0-1.238.8-1.439,1.84-1.439,1.119,0,2.2.041,3.279.041Zm-10.4,3.439a.443.443,0,0,0,.44.44h9.4a.445.445,0,0,0,.441-.44v-.24a.445.445,0,0,0-.441-.44h-9.4a.42.42,0,0,0-.44.44Zm2.44,21.035c-.12.08-.481.2-.481.4,0,.24.2.24.4.24h.319c.681,0,1.76-.08,1.76-1.039,0-.24-.12-.4-.36-.4A10.313,10.313,0,0,0,2571.557,1210.99Zm39.6-.279c-1.679,0-3.4.08-5.08.08-.879,0-.959-.439-.959-1.559v-1.759c0-1.16.08-1.561,1-1.561,1.68,0,3.361.08,5.04.08h7.6a.453.453,0,0,0,.479-.439v-.362a.454.454,0,0,0-.479-.439h-6.48c-1.519,0-3.079.08-4.638.08-.96,0-1.04-.359-1.04-1.519v-.8c0-1.918,0-2.28,1.04-2.28.88,0,1.759.081,2.679.081.4,0,.52-.28.52-.639,0-.4-.16-.68-.56-.68-1.639,0-3.24.078-4.88.078-.879,0-.96-.439-.96-1.519v-1.639c0-1.08.081-1.519.96-1.519,1.4,0,2.8.08,4.2.08h.72a.492.492,0,0,0,.52-.442c0-.359-.04-.76-.52-.76-.64,0-1.28.041-1.92.041-.919,0-1.08-.359-1.08-1.439v-2.041c0-.92.161-1.279,1-1.279,1.28,0,2.52.08,3.8.08h.8c.6,0,.6-.561.6-.879a.618.618,0,0,0-.68-.6h-1.88c-1.6,0-3.2.08-4.8.08-.959,0-1.039-.359-1.039-1.478v-2.16c0-1.119.08-1.481,1.039-1.481,1.6,0,3.2.08,4.8.08h1.2c1.12,0,1.4-.6,1.4-1.039,0-.24-.12-1.039-.12-1.24,0-.4.519-.439.8-.439.88,0,3.72.2,4.679.279,1.2.08,1.48.16,1.48.48,0,.16-.08.241-.4.44-.24.2-.439.361-.439.679a.815.815,0,0,0,.92.84h3.479c.8,0,1.119-.439,1.119-.879a5.443,5.443,0,0,0-.08-.839c0-.122-.04-.241-.04-.321,0-.439.521-.439.84-.439.96,0,4.16.2,5.239.32.32,0,.92.039.92.44,0,.16-.2.32-.4.439-.241.16-.441.32-.441.6,0,.361.2.679.76.679h1.72c1.639,0,3.239-.08,4.84-.08.959,0,1.039.362,1.039,1.481v2.16c0,1.119-.08,1.478-1.039,1.478-1.6,0-3.2-.08-4.84-.08h-1.76c-.439,0-.76.16-.76.641,0,.439.12.84.68.84h.56c1.28,0,2.52-.08,3.8-.08.92,0,1,.4,1,1.48v1.84c0,1-.08,1.439-.96,1.439-.639,0-1.319-.041-1.959-.041-.52,0-.8.041-.8.641a.582.582,0,0,0,.6.561h.92c1.359,0,2.72-.08,4.079-.08.88,0,.96.439.96,1.519v1.639c0,1.08-.08,1.519-.96,1.519-1.519,0-3.04-.078-4.6-.078h-.44c-.48,0-.56.279-.56.8a.5.5,0,0,0,.56.52c.88,0,1.76-.081,2.68-.081.96,0,1.039.4,1.039,1.641v.879c0,1.68-.039,2.08-1.039,2.08-1.56,0-3.12-.08-4.68-.08h-6.518a.445.445,0,0,0-.441.439v.362a.443.443,0,0,0,.441.439h7.438c1.72,0,3.4-.08,5.079-.08.92,0,1,.4,1,1.561v1.759c0,1.12-.08,1.559-.96,1.559-1.72,0-3.4-.08-5.119-.08h-6.6a1.133,1.133,0,0,0-1.24,1.16c0,.959.08,1.92.08,2.92,0,1.039-.4,1.119-1.84,1.119h-2.439c-1.279,0-1.72-.08-1.72-1.08s.08-2,.08-3a1.113,1.113,0,0,0-1.2-1.119Zm5.639-17.477a.421.421,0,0,0-.441.44v.359a.447.447,0,0,0,.441.442h1.96a.455.455,0,0,0,.479-.442v-.359a.454.454,0,0,0-.479-.44Zm1.92,7.079a.5.5,0,0,0,.519-.479v-.32a.5.5,0,0,0-.519-.52h-1.84a.5.5,0,0,0-.521.52v.32a.5.5,0,0,0,.521.479Zm1.6-13.159a.716.716,0,0,0-.8.721.734.734,0,0,0,.759.76h3.919c.641,0,.88-.2.88-.84,0-.32-.2-.641-.76-.641Zm5.12,6.08a.42.42,0,0,0-.441.44v.359a.446.446,0,0,0,.441.442h2a.446.446,0,0,0,.44-.442v-.359a.444.444,0,0,0-.44-.44Zm1.919,7.079a.5.5,0,0,0,.52-.479v-.32a.5.5,0,0,0-.52-.52h-1.839a.483.483,0,0,0-.521.52v.32a.474.474,0,0,0,.521.479Zm40.4,9.718c-.56,0-.919.041-.919.481a.652.652,0,0,0,.159.4,20.125,20.125,0,0,1,1.24,1.719.869.869,0,0,1,.16.4.444.444,0,0,1-.48.4c-.279,0-.6-.161-.88-.161a.912.912,0,0,0-.439.12,38.287,38.287,0,0,1-10.279,2.4c-.36.039-1.2.119-1.519.119-.721,0-1.04-.56-1.521-1.519a8.094,8.094,0,0,1-.759-2.28c0-.72.879-.72,1.4-.759a39.234,39.234,0,0,0,5.8-.721c.2-.039.4-.119.4-.279s-.2-.2-.479-.241c-1.08-.16-1.44-.72-1.44-1.8s.08-2.2.08-3.321v-3.84c0-1.119-.08-2.238-.08-3.318,0-1.4.68-1.84,1.959-1.84,1.2,0,2.361.119,3.52.119h13.2c1.119,0,2.279-.08,3.439-.08,1.32,0,2.04.321,2.04,1.8,0,1.119-.081,2.2-.081,3.318v3.84c0,1.119.081,2.24.081,3.36a1.553,1.553,0,0,1-1.08,1.72c-.16,0-.56.078-.56.28,0,.24.6.32,1.08.4a48.814,48.814,0,0,0,5.8.719c.48,0,.88.041.88.64,0,.879-1.119,3.8-2.52,3.8a48.631,48.631,0,0,1-8.518-1.48,40.552,40.552,0,0,1-4.28-1.44.492.492,0,0,1-.28-.439,2.621,2.621,0,0,1,.4-1,2.319,2.319,0,0,0,.361-.92c0-.559-.361-.6-1-.6Zm9.839-29.955c.6,0,4.6,1,5.479,1.2.32.08.68.2.68.561s-.481.519-.76.6c-.36.08-.36.121-.6.48a2.17,2.17,0,0,0-.36.76c0,.32.32.32.56.32.8,0,1.639-.041,2.439-.041.92,0,2.12.121,2.12,1.281,0,.68-.08,1.36-.08,2.039v1.321c0,.679.08,1.359.08,1.959,0,.879-.44,1-1.8,1h-2.36c-.96,0-1.56-.08-1.56-1,0-.4.08-.881.08-1.241,0-.919-.48-1.279-1.36-1.279h-19.716c-.6,0-1.44.08-1.44,1.24,0,.479.04.959.04,1.28,0,.92-.48,1-2.04,1h-2.159c-.88,0-1.481-.08-1.481-1,0-.52.08-1.2.08-1.959v-1.321c0-.679-.08-1.359-.08-2,0-1.279,1.281-1.32,2.241-1.32.759,0,1.519.041,2.319.041.28,0,.64-.08.64-.439a5.809,5.809,0,0,0-.72-1.4.724.724,0,0,1-.16-.359c0-.522,1.48-.84,1.92-.961a16.8,16.8,0,0,1,2.96-.719c.6,0,.719.36,1.039.84a14.092,14.092,0,0,1,1.08,2.2c.32.8.559.879,1.4.879,1.24,0,1.32-.639,1.32-1.639,0-.8-.12-1.88-.12-2.08,0-.64.441-.72.92-.72,1.04,0,3.76.2,4.879.24.321.041,1.4.041,1.4.519,0,.282-.281.442-.681.641-.44.24-.6.279-.6,1.6,0,.92.321,1.439,1.281,1.439,1.279,0,1.559-.639,2.559-3.359C2677.154,1180.316,2677.234,1180.076,2677.595,1180.076Zm-2.68,8.918c1.04,0,2.08-.08,3.119-.08,1.24,0,1.76.4,1.76,1.68,0,.441-.04.84-.04,1.281v.4c0,.442.04.84.04,1.282,0,1.238-.52,1.679-1.72,1.679-1.039,0-2.079-.08-3.159-.08h-9.278c-1.04,0-2.08.08-3.159.08-1.2,0-1.72-.4-1.72-1.679,0-.442.04-.84.04-1.282v-.4c0-.441-.04-.84-.04-1.281,0-1.239.519-1.68,1.72-1.68,1.039,0,2.079.08,3.159.08Zm1.28,11.039a.453.453,0,0,0,.48-.439v-.2a.485.485,0,0,0-.48-.479h-11.839a.485.485,0,0,0-.479.479v.2a.453.453,0,0,0,.479.439Zm-11.839,2.28a.453.453,0,0,0-.479.439v.24a.454.454,0,0,0,.479.44H2676.2a.454.454,0,0,0,.48-.44v-.24a.453.453,0,0,0-.48-.439Zm.04,3.519a.5.5,0,0,0-.519.481v.119a.529.529,0,0,0,.519.519h11.759a.529.529,0,0,0,.52-.519v-.119a.5.5,0,0,0-.52-.481Zm1.84-13.678a.444.444,0,0,0,.441.44h7.238a.443.443,0,0,0,.44-.44v-.24a.443.443,0,0,0-.44-.439h-7.238a.42.42,0,0,0-.441.439Zm42.322,21.477a.8.8,0,0,0-.8.8v.32c0,.961-.361,1.121-1.56,1.121h-2.439c-1.681,0-2.16-.08-2.16-1,0-1.641.12-3.24.12-4.879v-5.48c0-1.36-.08-2.639-.08-3.918,0-1.561.92-1.881,2.279-1.881s2.76.121,4.12.121h2.6c1.36,0,2.719-.121,4.08-.121,1.4,0,2.359.281,2.359,1.881,0,1.318-.12,2.6-.12,3.918v5.48c0,1.639.12,3.238.12,4.838,0,.961-.44,1.041-1.96,1.041h-2.2c-1.32,0-1.72-.121-1.72-1.041v-.439a.785.785,0,0,0-.759-.76Zm-.92-5.92a1.094,1.094,0,0,0,1.12,1.121h1.439a1.144,1.144,0,0,0,1.12-1.121v-2.559a1.144,1.144,0,0,0-1.12-1.119h-1.439a1.144,1.144,0,0,0-1.12,1.119Zm20.356-16.836c0,1.6.12,3.2.12,4.838,0,.92-.44,1-1.8,1h-2.359c-1.479,0-1.8-.039-2-.559-.04-.2-.12-.4-.88-.4h-5.4c-.761,0-.8.2-.88.4-.2.52-.521.559-2,.559h-2.319c-1.321,0-1.8-.08-1.8-1,0-1.52.08-3.2.08-4.838V1187c0-1.32-.08-2.641-.08-3.92,0-1.56.96-1.84,2.319-1.84,1.4,0,2.8.08,4.159.08h6.44c1.359,0,2.758-.08,4.119-.08s2.359.241,2.359,1.84c0,1.32-.08,2.6-.08,3.92Zm-13.237-1.121a1.117,1.117,0,0,0,1.119,1.121h4.96a1.093,1.093,0,0,0,1.119-1.121v-2.318a1.094,1.094,0,0,0-1.119-1.122h-4.96a1.094,1.094,0,0,0-1.119,1.122Zm11.517,23.877a.794.794,0,0,0-.8.76v.4c0,.959-.4,1.08-1.72,1.08h-2.319c-1.64,0-2.121-.08-2.121-1,0-1.641.121-3.24.121-4.879v-5.48c0-1.36-.081-2.639-.081-3.918,0-1.561.92-1.881,2.281-1.881,1.4,0,2.759.121,4.119.121h2.72c1.359,0,2.718-.121,4.079-.121,1.4,0,2.359.281,2.359,1.881,0,1.318-.12,2.6-.12,3.918v5.48c0,1.639.12,3.238.12,4.838,0,.961-.439,1.041-1.88,1.041h-2.2c-1.56,0-2.08-.08-2.08-.961,0-.16.04-.32.04-.48a.8.8,0,0,0-.8-.8Zm-.92-5.92a1.119,1.119,0,0,0,1.121,1.121h1.279a1.117,1.117,0,0,0,1.12-1.121v-2.559a1.117,1.117,0,0,0-1.12-1.119h-1.279a1.145,1.145,0,0,0-1.121,1.119Zm41.762-26.475c.72.321,1.239.6,1.239.959,0,.321-.439.442-.719.522a2.584,2.584,0,0,0-1.08,1.519c0,.319.2.44.48.44a17.971,17.971,0,0,0,3.239-.881,3.571,3.571,0,0,1,1.121-.279c.879,0,1.079.839,1.239,1.56a17.575,17.575,0,0,1,.48,3.238c0,.6-.36.76-2.559,1.161s-4.92.88-7.4,1.16c-1.279.16-1.359,1.039-1.359,1.08,0,.2.2.279.359.279a1.309,1.309,0,0,0,.361-.119,9.98,9.98,0,0,1,3.4-.6,5.857,5.857,0,0,1,2.88.639,4.006,4.006,0,0,1,1.919,2.279.718.718,0,0,0,.681.481,22.77,22.77,0,0,0,3.718-1.879c.361-.2.64-.361.8-.441a1.376,1.376,0,0,1,.521-.2c1,0,2.4,4.6,2.4,5.52,0,.519-.4.639-1.2.92-1.92.719-3.119,1.24-4.959,2-.96.4-1.12.76-1.12,1.838,0,.48.04,1.441.04,2.32,0,2.561-.04,2.6-2.28,2.6-2.759,0-3.6-.12-3.6-1.36a9.859,9.859,0,0,1,.08-1.08v-.2a.507.507,0,0,0-.48-.561c-.4,0-2.4,1.28-2.4,2.68,0,2,3.4,2,4.8,2a33.674,33.674,0,0,0,7.438-1,4.837,4.837,0,0,1,1-.121c.96,0,1,1.441,1,4,0,1.519-.08,1.92-1.24,2.16a54.768,54.768,0,0,1-7.759.481,14.986,14.986,0,0,1-7-1.282,6.494,6.494,0,0,1-4.08-6.2c0-3.758,2.84-5.918,5.76-7.639.68-.4,1.479-.839,2.2-1.2.36-.16.68-.359.68-.8a1.141,1.141,0,0,0-1.239-1.041c-1.521,0-4.28,1.4-5.48,2.321a18.049,18.049,0,0,0-4.239,5.677.651.651,0,0,1-.6.442c-.88,0-4.959-2.24-4.959-3.2,0-.321.239-.561.72-1.08,1.64-1.881,4.239-6.04,5.519-7.84a.884.884,0,0,0,.24-.559.582.582,0,0,0-.6-.56c-.48,0-1.04.039-1.56.039-1.36,0-1.48-.12-1.48-3.12,0-2.478.16-2.519,1.441-2.519.879,0,2.319.08,3.638.08,1.96,0,2.321-.16,2.64-.719a19.8,19.8,0,0,0,1.88-4.959c.12-.6.2-.881.6-.881A49.045,49.045,0,0,1,2767.116,1181.236Zm-264.141,65.1c1.239,0,3-.078,3.8-.078.88,0,1.88,1.078,2.48,1.718l.32.321c.64.679,1.76,1.84,1.76,2.439a11.149,11.149,0,0,1-.36,1.321c-.16.679-.28,1.238-.44,1.918-1.72,8.48-6.319,14-13.758,18.158-1.2.638-4.838,2.519-6.039,2.519-.88,0-1.6-1.279-2-1.959a10,10,0,0,1-1.319-3c0-.439.4-.56.76-.64a25.541,25.541,0,0,0,11.557-6.678c2.481-2.68,4.32-6.959,4.32-9.119,0-.721-.72-.8-1.36-.8h-12.717c-1.72,0-3.4.041-5.12.041-1.36,0-1.559-.16-1.559-1.721v-2.6c0-1.68.2-1.918,1.359-1.918,1.8,0,3.64.078,5.44.078Zm14.6-2.4a4.16,4.16,0,1,1-4.16-4.16A4.165,4.165,0,0,1,2517.572,1243.941Zm-6.279,0a2.084,2.084,0,0,0,2.119,2.12,2.108,2.108,0,0,0,2.12-2.12,2.12,2.12,0,0,0-4.239,0Zm27.363,19.317c0,.959.12,1.92,1.04,1.92a16.629,16.629,0,0,0,3-1.2c1.321-.561,9.439-5.2,13.678-9.879.32-.321.72-.76,1.12-.76.8,0,2.84,4.039,2.84,5.078,0,.441-.44.84-.761,1.16a55.069,55.069,0,0,1-6.558,5.32,75.241,75.241,0,0,1-13.758,7.479l-1.2.559a3.8,3.8,0,0,1-1.08.361,21.548,21.548,0,0,1-3.72-1.68c-.92-.56-.92-1.08-.92-2.041v-23.555c0-.32-.079-.759-.079-1.041a.46.46,0,0,1,.439-.519c.321,0,4.2.56,5.039.68,1.4.2,1.8.32,1.8.72a.42.42,0,0,1-.2.36c-.64.56-.68,1-.68,2.879Zm49.16,2.48c0,2.158.2,2.52,2.6,2.52a82.126,82.126,0,0,0,10.4-.76,3.874,3.874,0,0,1,.72-.08c.88,0,1,1.318,1,3.158v.721c0,.92-.079,1.76-.8,2.16a2.5,2.5,0,0,1-.919.279c-1.28.119-7.119.4-7.918.4q-2.64,0-5.28-.121c-1.559-.08-3.519-.44-4.639-1.559-1.24-1.281-1.36-3.881-1.36-6v-5.4a.905.905,0,0,0-.92-.92h-.2l-.8.16c-.8.2-5.4,1.16-5.839,1.16-.639,0-.839-.76-1-1.441a33.627,33.627,0,0,1-.639-3.758c0-.641.719-.8,1.4-.92,1.68-.32,3.36-.6,5.039-.92l1.96-.4a1.215,1.215,0,0,0,1-1.241v-2.759c0-1.479,0-2.959-.08-4.44,0-.639-.12-1.318-.12-1.959,0-.32.08-.519.44-.519.28,0,3.52.359,4.16.4,1.2.119,2.639.238,2.639.8,0,.16-.08.24-.24.439a1.975,1.975,0,0,0-.6,1.721v5.078a.888.888,0,0,0,.88.881,2.4,2.4,0,0,0,.4-.08l6.8-1.32,4.879-1.081c.959,0,4,3,4,3.961,0,.4-.24.6-.52.879-.359.4-1.4,1.721-1.8,2.241-1.92,2.359-3.92,4.677-5.959,6.959-.4.439-1,1.119-1.641,1.119-.839,0-4.239-2.241-4.239-3.36,0-.32,1.321-1.48,1.68-1.8.32-.281,2.36-2.08,2.36-2.4a.285.285,0,0,0-.32-.279c-.2,0-.76.158-1,.2l-4.479.959a1.246,1.246,0,0,0-1.04,1.2Zm13.838-18.838c0,.8-2,2.241-2.4,2.241-.2,0-.359-.2-.48-.36-.96-1.2-1.92-2.32-3-3.48-.119-.119-.319-.321-.319-.52,0-.6,2.159-1.959,2.52-1.959S2601.654,1246.3,2601.654,1246.9Zm4.4-3c0,.8-1.959,2.241-2.4,2.241-.24,0-.4-.241-.519-.4-.88-1.08-1.96-2.359-2.96-3.359-.16-.16-.36-.32-.36-.559,0-.56,2.04-2,2.52-2C2602.733,1239.822,2606.053,1243.3,2606.053,1243.9Zm44.92,8.639c.08.121.12.281.24.441a6.369,6.369,0,0,1,.68,1.879c0,.959-3.24,4.039-4.08,4.84-6.438,6.278-12.877,9.877-20.875,13.717a1.736,1.736,0,0,0-1.081,1.039.347.347,0,0,1-.32.24c-.319,0-.559-.359-.72-.638a35.65,35.65,0,0,1-1.879-3.08,10.106,10.106,0,0,1-1.16-2.4c0-.359.44-.558.76-.638a42.108,42.108,0,0,0,10.238-4.4c4.919-2.918,11.078-7.918,14.438-12.517.08-.12.16-.2.24-.321.359-.519.68-.959,1.119-.959C2649.373,1249.74,2650.613,1251.9,2650.973,1252.539Zm-24.076-8.158a45.734,45.734,0,0,1,7.039,5.039.857.857,0,0,1,.36.721c0,1.16-2.84,4.4-3.76,4.4a1.735,1.735,0,0,1-1-.6,41.254,41.254,0,0,0-6.72-4.679c-.319-.2-.719-.44-.719-.84,0-.8,2.4-4.6,3.559-4.6A4.069,4.069,0,0,1,2626.9,1244.381Zm50.839,25.875c0,1.32.04,2.64.04,4,0,1.92-.12,2.08-2.719,2.08h-1.8c-1.6,0-2.08-.2-2.08-1.24,0-1.6.08-3.16.08-4.76V1247.26c0-1.639-.08-3.719-.08-4.959,0-.52.08-.76.64-.76a59.13,59.13,0,0,1,6.159.8c.24.08.44.24.44.48a.7.7,0,0,1-.24.479,2.082,2.082,0,0,0-.44,1.439v7.76c0,.2.04.561.48.561.24,0,.479-.161.68-.161a4.145,4.145,0,0,1,1.48.639c1.279.8,2.919,2.08,3.438,2.481a46.87,46.87,0,0,1,3.68,3.238,1.031,1.031,0,0,1,.28.64c0,.8-2.92,4.04-3.839,4.04-.36,0-.76-.4-1-.639-.681-.641-3.96-3.6-4.6-3.6-.56,0-.6.559-.6.959Zm33.48-.119a3.932,3.932,0,0,1-4.159,4.119,3.479,3.479,0,0,1-3.72-3.52,3.986,3.986,0,0,1,4.119-4.279A3.617,3.617,0,0,1,2711.216,1270.137Zm-5.4-6.2c-1.04,0-1.2-.161-1.239-1.2l-.4-9.478c-.16-2.481-.48-8-.48-8.8,0-.68.24-.84,1.119-.84h4.88c.88,0,1.119.16,1.119.84,0,.8-.319,6.279-.479,9.279l-.36,9c-.04,1.039-.2,1.2-1.24,1.2Z" transform="translate(-1956.337 -173.371)" fill="url(#a)"/><path d="M-160.276-9.214a9.423,9.423,0,0,1,.119,1.53c0,2.788-.408,4.59-2.567,6.086a6.717,6.717,0,0,1-1.785.935l1.972,1.615C-157.9-1.53-157.811-5-157.811-9.214Zm8.041-3.553a8.469,8.469,0,0,1-1.717.153h-9.163a13.477,13.477,0,0,1-2.074-.17v2.363c.8-.068,1.36-.119,2.074-.119h8.857a10.11,10.11,0,0,1-3.128,3.162l1.751,1.411a17.106,17.106,0,0,0,4.1-4.658,8.56,8.56,0,0,1,.663-.884Zm7.242-.153-1.6,1.7a35.345,35.345,0,0,1,4.25,3.672l1.734-1.785A35.7,35.7,0,0,0-144.993-12.92ZM-147.118-1.6-145.69.646a18.41,18.41,0,0,0,6.307-2.4,18.077,18.077,0,0,0,6.29-6.29l-1.326-2.4a16.12,16.12,0,0,1-6.188,6.613A17.522,17.522,0,0,1-147.118-1.6Zm23.324-9.095c.187-.442.34-.884.476-1.241s.357-.952.544-1.377l-2.618-.527a6.678,6.678,0,0,1-.357,1.751,10.684,10.684,0,0,1-.986,2.312,13.018,13.018,0,0,1-2.941,3.5l2.142,1.292a13.939,13.939,0,0,0,2.737-3.57h3.587a9.057,9.057,0,0,1-3.468,7,6.33,6.33,0,0,1-1.615.952L-124,.935c3.077-1.938,4.845-4.964,5.151-9.486h2.38a17.572,17.572,0,0,1,1.768.068v-2.329a11.147,11.147,0,0,1-1.768.119ZM-110.126-5.2c.629-.051,1.768-.085,2.737-.085h9.129c.714,0,1.581.068,1.989.085V-7.871c-.442.034-1.207.1-1.989.1h-9.129c-.884,0-2.125-.051-2.737-.1Zm31.909-1.054a55.523,55.523,0,0,0-7.106-2.635v-2.5a18.488,18.488,0,0,1,.153-2.057h-2.652a11.856,11.856,0,0,1,.17,2.057v9.758a18.191,18.191,0,0,1-.17,2.363h2.652c-.068-.68-.153-1.87-.153-2.363V-6.443A49.1,49.1,0,0,1-79.186-3.91Zm11.543-5.61.017,2.176a46.594,46.594,0,0,0,7.225,0v-2.176A34.351,34.351,0,0,1-66.674-11.866Zm-.578,7.021a10.375,10.375,0,0,0-.289,2.193c0,1.717,1.377,2.771,4.284,2.771a23.4,23.4,0,0,0,4.352-.34L-58.956-2.5a19.4,19.4,0,0,1-4.216.442c-1.7,0-2.346-.442-2.346-1.19a5.54,5.54,0,0,1,.2-1.411Zm-4.369-8.33a12.579,12.579,0,0,1-.17,1.649,46.678,46.678,0,0,0-.7,6.664A21.492,21.492,0,0,0-71.825.646L-69.887.51c-.017-.238-.017-.51-.034-.7a4.945,4.945,0,0,1,.1-.782A40.589,40.589,0,0,1-68.612-5.1l-1.054-.816c-.238.544-.51,1.105-.748,1.7A8.124,8.124,0,0,1-70.482-5.3a41.624,41.624,0,0,1,.816-6.171,14.15,14.15,0,0,1,.408-1.5Zm25.908,8.126h-2.992V-7.99h2.992Zm-4.9-4.709V-3.3h6.936v-6.46Zm-1.632,8.432V-11.764h10.217V-1.326Zm-2.108-12.512v15.3h2.108v-.9h10.217v.9h2.21v-15.3ZM-25.33-2.329v1.6H-31.5v-1.6Zm-8.109,3.808H-31.5V1.02h6.171v.408h2.023V-4.063H-33.439Zm2.873-8.313a13.136,13.136,0,0,0,2.108-1.938,14.62,14.62,0,0,0,2.176,1.938Zm4.879-4.522A11.631,11.631,0,0,1-24.531-9.35l1.87-.663a8.109,8.109,0,0,0-.816-1.343h2.754v-1.7h-4.743c.153-.357.306-.714.442-1.071l-1.989-.459a8.917,8.917,0,0,1-1.666,2.89v-1.36h-3.689c.17-.34.306-.7.442-1.037l-1.938-.493a10.9,10.9,0,0,1-2.618,4.2A15.146,15.146,0,0,1-34.8-9.282a14.277,14.277,0,0,0,1.53-2.074h.17a9.77,9.77,0,0,1,.935,2.006l1.785-.595a8.274,8.274,0,0,0-.7-1.411H-29c-.136.119-.255.238-.391.34a8.424,8.424,0,0,1,.884.544h-.986a16.841,16.841,0,0,1-6.953,4.794A8.684,8.684,0,0,1-35.36-4.114,21.864,21.864,0,0,0-31.773-6v.816h6.817v-.748a21.836,21.836,0,0,0,3.485,1.785,10.105,10.105,0,0,1,1.19-1.683,16.031,16.031,0,0,1-7.055-4.386,9.123,9.123,0,0,0,.884-1.139Zm11.951-.748-2.584-.034a9.757,9.757,0,0,1,.119,1.7c0,1.037.034,2.992.187,4.539.476,4.522,2.091,6.188,3.927,6.188,1.36,0,2.414-1.037,3.536-3.961l-1.7-2.04c-.323,1.326-.986,3.3-1.785,3.3-1.054,0-1.564-1.649-1.8-4.08-.1-1.207-.119-2.482-.1-3.57A13.34,13.34,0,0,1-13.736-12.1Zm8.415.357-2.142.714C-5.627-8.959-4.726-5-4.471-2.3l2.227-.85C-2.431-5.729-3.723-9.792-5.321-11.747Zm14.892,5.3a24.734,24.734,0,0,1,3.247-.187,24.317,24.317,0,0,1,2.89.2l.051-2.023A29.228,29.228,0,0,0,12.8-8.6c-1.088,0-2.295.085-3.23.17ZM10.9-11.849c-.918.221-1.87.408-2.822.561l.136-.646c.085-.374.238-1.122.357-1.581L6-13.719a8.741,8.741,0,0,1-.068,1.7q-.051.408-.153.969c-.51.034-1,.051-1.5.051a16.574,16.574,0,0,1-2.125-.136L2.21-9.027c.6.034,1.224.068,2.04.068.34,0,.714-.017,1.105-.034C5.236-8.517,5.117-8.041,5-7.6A37.118,37.118,0,0,1,2.091-.017L4.454.765A54.3,54.3,0,0,0,7.123-7.021c.187-.68.357-1.428.51-2.159C8.755-9.316,9.894-9.5,10.9-9.724ZM8.534-4.386a11.555,11.555,0,0,0-.289,2.244c0,1.7,1.445,2.686,4.284,2.686A26.939,26.939,0,0,0,15.963.306l.085-2.159a19.517,19.517,0,0,1-3.5.34c-1.8,0-2.227-.544-2.227-1.275A5.824,5.824,0,0,1,10.557-4.2Zm25.007-6.171A23.384,23.384,0,0,0,32.2-12.886l-1.343.561a19.035,19.035,0,0,1,1.326,2.363Zm-5.78,4.3a28.068,28.068,0,0,1,3.247-.187,24.119,24.119,0,0,1,2.89.221l.051-2.04A29.147,29.147,0,0,0,30.991-8.4a31.715,31.715,0,0,0-3.23.17Zm1.326-5.389c-.918.221-1.87.408-2.822.544l.136-.629c.085-.374.238-1.122.357-1.6l-2.567-.2a8.869,8.869,0,0,1-.068,1.717c-.034.255-.085.595-.153.952-.51.034-1,.051-1.5.051a16.308,16.308,0,0,1-2.125-.119L20.4-8.84c.595.034,1.224.068,2.04.068.34,0,.714-.017,1.1-.034-.1.476-.238.952-.357,1.411A37.506,37.506,0,0,1,20.281.187l2.363.782a55.025,55.025,0,0,0,2.669-7.786c.187-.7.357-1.445.51-2.159a30.3,30.3,0,0,0,3.264-.561ZM26.724-4.182a11.219,11.219,0,0,0-.289,2.244c0,1.7,1.445,2.686,4.284,2.686A26.939,26.939,0,0,0,34.153.51l.085-2.159a21.206,21.206,0,0,1-3.5.34c-1.8,0-2.227-.561-2.227-1.292a5.96,5.96,0,0,1,.238-1.411Zm6.137-8.925a18.024,18.024,0,0,1,1.377,2.346l1.343-.578A20.118,20.118,0,0,0,34.2-13.651Zm9.5,1-2.584-.034a9.757,9.757,0,0,1,.119,1.7c0,1.037.034,2.992.187,4.539C40.562-1.377,42.177.289,44.013.289c1.36,0,2.414-1.037,3.536-3.961l-1.7-2.04c-.323,1.326-.986,3.3-1.785,3.3-1.054,0-1.564-1.649-1.8-4.08-.1-1.207-.119-2.482-.1-3.57A13.34,13.34,0,0,1,42.364-12.1Zm8.415.357-2.142.714C50.473-8.959,51.374-5,51.629-2.3l2.227-.85C53.669-5.729,52.377-9.792,50.779-11.747Zm14.892,5.3a24.734,24.734,0,0,1,3.247-.187,24.317,24.317,0,0,1,2.89.2l.051-2.023A29.228,29.228,0,0,0,68.9-8.6c-1.088,0-2.295.085-3.23.17ZM67-11.849c-.918.221-1.87.408-2.822.561l.136-.646c.085-.374.238-1.122.357-1.581l-2.567-.2a8.74,8.74,0,0,1-.068,1.7q-.051.408-.153.969c-.51.034-1,.051-1.5.051a16.574,16.574,0,0,1-2.125-.136l.051,2.108c.595.034,1.224.068,2.04.068.34,0,.714-.017,1.1-.034-.119.476-.238.952-.357,1.394A37.118,37.118,0,0,1,58.191-.017l2.363.782a54.3,54.3,0,0,0,2.669-7.786c.187-.68.357-1.428.51-2.159C64.855-9.316,65.994-9.5,67-9.724ZM64.634-4.386a11.555,11.555,0,0,0-.289,2.244c0,1.7,1.445,2.686,4.284,2.686A26.939,26.939,0,0,0,72.063.306l.085-2.159a19.517,19.517,0,0,1-3.5.34c-1.8,0-2.227-.544-2.227-1.275A5.825,5.825,0,0,1,66.657-4.2ZM91.477-9.758V-11.7H84.762v-2.771H82.671V-11.7H76.16v1.938h4.862c-.187,3.638-.578,7.514-5.168,9.639A6.463,6.463,0,0,1,77.282,1.6a9.979,9.979,0,0,0,5.457-7.242h4.675C87.176-2.55,86.87-1.071,86.428-.7a1.091,1.091,0,0,1-.816.221c-.493,0-1.683,0-2.856-.119a4.7,4.7,0,0,1,.714,1.989,23.285,23.285,0,0,0,2.907,0A2.51,2.51,0,0,0,88.213.612c.68-.748,1.037-2.652,1.343-7.276a8.272,8.272,0,0,0,.068-.884H83.062c.085-.731.136-1.479.187-2.21Zm7.174,6.7c-.629,0-1.309-.833-1.309-2.533a5.279,5.279,0,0,1,4.267-4.879,27.023,27.023,0,0,1-.9,4.08C100.028-4.114,99.348-3.06,98.651-3.06ZM103.275.7C107.525.051,109.7-2.465,109.7-6a6.425,6.425,0,0,0-6.8-6.579,7.507,7.507,0,0,0-7.752,7.208c0,2.839,1.581,4.9,3.434,4.9,1.836,0,3.3-2.074,4.3-5.474a36.586,36.586,0,0,0,1-4.573,4.167,4.167,0,0,1,3.519,4.454,4.558,4.558,0,0,1-3.825,4.5c-.442.1-.918.187-1.564.272Zm18.972-6.511V-9.469h3.842v3.655Zm-5.967,0V-9.469h3.825v3.655Zm5.967-5.644V-14.4h-2.142v2.941H114.24V-2.89h2.04v-.935h3.825v5.3h2.142v-5.3h3.842v.85h2.125v-8.483Zm14.518-2.176a18.638,18.638,0,0,1-.357,3.57c-.85.068-1.649.119-2.176.136a15.632,15.632,0,0,1-1.785,0l.187,2.278c.527-.085,1.394-.2,1.87-.255.323-.051.85-.119,1.445-.187a25.024,25.024,0,0,1-3.4,7.871l2.21.884a35.756,35.756,0,0,0,3.417-8.993c.476-.034.884-.068,1.156-.068,1.071,0,1.649.187,1.649,1.53a12.451,12.451,0,0,1-.7,4.607,1.224,1.224,0,0,1-1.258.731,9.687,9.687,0,0,1-2.057-.357L137.343.34a9.4,9.4,0,0,0,2.006.238A2.7,2.7,0,0,0,142.12-.969a16.458,16.458,0,0,0,.952-6.137c0-2.414-1.258-3.213-3.043-3.213-.34,0-.85.034-1.411.068.119-.612.255-1.224.34-1.734.085-.425.2-.952.306-1.394Zm6.273,2.686a19.443,19.443,0,0,1,2.856,6.409l2.125-1a30.343,30.343,0,0,0-2.941-6.256Zm12.24-.646c1.309.34,5.066,1.122,6.766,1.343l.51-2.074a53.3,53.3,0,0,1-6.732-1.309Zm.646,1.343-2.278-.306a61.3,61.3,0,0,1-.833,7.021l1.955.493a3.649,3.649,0,0,1,.629-.986A5.9,5.9,0,0,1,160.038-6c1.479,0,2.516.8,2.516,1.887,0,2.142-2.669,3.383-7.718,2.669l.646,2.21c7,.612,9.435-1.751,9.435-4.828,0-2.04-1.717-3.859-4.675-3.859a8.255,8.255,0,0,0-4.947,1.6C155.414-7.293,155.7-9.316,155.924-10.251Z" transform="translate(640 960.965)" fill="#d70056"/><path d="M1592,194.549c4.94-14.179,13.015-27.523,24.748-37.04,6.375-5.323,13.356-9.782,19.6-15.085-7.312-4.958-10.214-15.349-4.946-22.885,2.219-3.282,5.9-5.882,10.041-5.942,5.536-.09,11.442,3.191,12.952,8.8,1.793,7.139-3.326,13.386-7.9,18.131,4.234.437,8.737-.646,12.677-2.067,15.947-6.778,25.464-23.5,28.147-30.861a148.048,148.048,0,0,0,6.8-28.624c.167-1.142.484-5.665.617-6.714l11.45,11.743c-.628,9.428-6.583,24.87-15.084,37.084-3,4.371-11.215,12.673-15.673,15.552a62.128,62.128,0,0,1-13.809,7.015c-6.274,2.159-13.413,3.327-19.847,1.351-6.916,5.978-14.833,10.746-21.912,16.324a70.039,70.039,0,0,0-18.167,21.518,88.912,88.912,0,0,0-6.015,12.9Zm44.706-71.468c-3.217,4.7-.855,12.73,3.818,15.537q.767-.761,1.511-1.549c3.984-4.09,11.047-12.624,3.451-16.444a7.537,7.537,0,0,0-3.321-.83A6.377,6.377,0,0,0,1636.706,123.08Zm58.529,36.658,7.071-7.071,7.071,7.071-7.071,7.071Zm-71.6-100.2,10.607-10.606,10.606,10.606-10.606,10.607ZM1735.3,58.121l9.192-9.192,9.193,9.192-9.193,9.193Zm-48.6-51.05L1693.778,0l7.07,7.071-7.07,7.071Z" transform="translate(-754.899 914.701)" stroke="rgba(0,0,0,0)" stroke-miterlimit="10" stroke-width="1" fill="url(#b)"/><path d="M0,1.2C4.94,15.376,13.015,28.721,24.748,38.237c6.375,5.323,13.356,9.782,19.6,15.085C37.04,58.28,34.137,68.671,39.4,76.207c2.219,3.282,5.9,5.882,10.041,5.942,5.536.09,11.442-3.19,12.952-8.8,1.793-7.139-3.326-13.386-7.9-18.13,4.234-.437,8.737.646,12.677,2.067,15.947,6.778,25.464,23.5,28.147,30.861a148.048,148.048,0,0,1,6.8,28.624c.167,1.142.484,5.665.617,6.714l11.45-11.743c-.628-9.428-6.583-24.87-15.084-37.084-3-4.371-11.215-12.673-15.673-15.552a62.128,62.128,0,0,0-13.809-7.015C63.341,49.93,56.2,48.762,49.768,50.738c-6.916-5.978-14.833-10.746-21.912-16.324A70.039,70.039,0,0,1,9.689,12.9,88.912,88.912,0,0,1,3.675,0ZM44.706,72.666c-3.217-4.7-.855-12.73,3.818-15.537q.767.761,1.511,1.549c3.984,4.09,11.047,12.624,3.451,16.444a7.537,7.537,0,0,1-3.321.83A6.377,6.377,0,0,1,44.706,72.666Zm58.529-36.658,7.071,7.071,7.071-7.071-7.071-7.071Zm-71.6,100.2,10.607,10.607L52.848,136.21,42.242,125.6ZM143.3,137.625l9.192,9.192,9.193-9.192-9.193-9.193Zm-48.6,51.05,7.071,7.071,7.07-7.071-7.07-7.071Z" transform="translate(442.401 1110.448) rotate(180)" stroke="rgba(0,0,0,0)" stroke-miterlimit="10" stroke-width="1" fill="url(#c)"/><path d="M3824.1,1069.394h-.828l-.586.586-8.586,8.586-8.586-8.586-.586-.586H3644.1v2h160l10,10,10-10h160v-2Z" transform="translate(-3174.096 -94.394)" fill="url(#d)"/></g></svg>