<svg xmlns="http://www.w3.org/2000/svg" width="375" height="47"><defs><clipPath id="a"><path transform="translate(-4586 1392)" fill="#fff7e2" d="M0 0h375v47H0z"/></clipPath></defs><g transform="translate(4586 -1392)" clip-path="url(#a)"><path d="M-3960.999 1392c-15.628 0-15.628 16.2-31.256 16.2s-15.628-16.2-31.256-16.2-15.627 16.2-31.252 16.2-15.626-16.2-31.253-16.2-15.626 16.2-31.251 16.2-15.627-16.2-31.252-16.2-15.623 16.2-31.247 16.2-15.625-16.2-31.251-16.2-15.625 16.2-31.252 16.2-15.625-16.2-31.25-16.2-15.625 16.2-31.25 16.2-15.625-16.2-31.248-16.2-15.625 16.2-31.249 16.2-15.625-16.2-31.25-16.2-15.624 16.2-31.247 16.2-15.626-16.2-31.251-16.2-15.624 16.2-31.247 16.2-15.624-16.2-31.247-16.2-15.622 16.2-31.245 16.2-15.624-16.2-31.246-16.2v47h625z" fill="#fff7e2"/></g></svg>