<svg xmlns="http://www.w3.org/2000/svg" width="25.001" height="25"><path d="M12.5 25a2.663 2.663 0 01-2.776-2.525v-7.2h-7.2A2.663 2.663 0 010 12.5a2.662 2.662 0 012.526-2.775h7.2v-7.2A2.663 2.663 0 0112.5 0a2.663 2.663 0 012.776 2.525v7.2h7.2A2.661 2.661 0 0125 12.5a2.662 2.662 0 01-2.524 2.776h-7.2v7.2A2.663 2.663 0 0112.5 25zM2.525 10.725A1.666 1.666 0 001 12.5a1.667 1.667 0 001.526 1.776h8.2v8.2A1.667 1.667 0 0012.5 24a1.667 1.667 0 001.776-1.525v-8.2h8.2A1.667 1.667 0 0024 12.5a1.666 1.666 0 00-1.524-1.775h-8.2v-8.2A1.667 1.667 0 0012.5 1a1.667 1.667 0 00-1.776 1.525v8.2z" fill="#d70056"/></svg>