<svg xmlns="http://www.w3.org/2000/svg" xmlns:xlink="http://www.w3.org/1999/xlink" width="63.448" height="69.119"><defs><linearGradient id="a" x1="1" y1=".289" x2="0" y2="1" gradientUnits="objectBoundingBox"><stop offset="0" stop-color="#006eba"/><stop offset=".067" stop-color="#166cb6"/><stop offset=".145" stop-color="#366bb2"/><stop offset=".386" stop-color="#ca3962"/><stop offset=".427" stop-color="#cf3360"/><stop offset=".48" stop-color="#dd225d"/><stop offset=".5" stop-color="#e41b5c"/><stop offset=".569" stop-color="#e5354d"/><stop offset=".639" stop-color="#e74c41"/><stop offset=".738" stop-color="#ee7f29"/><stop offset=".8" stop-color="#f3a219"/><stop offset=".903" stop-color="#f6b413"/><stop offset="1" stop-color="#f9c110"/></linearGradient><linearGradient id="c" x1="1" y1="-.001" x2=".002" y2="1.007" xlink:href="#a"/><clipPath id="b"><path fill="none" d="M0 0h28.013v36.025H0z"/></clipPath></defs><path d="M42.6 62.266l5.139-5.139 5.14 5.139-5.14 5.14zm-29.129-1.713l3.429-3.426 3.425 3.426-3.425 3.426zM62.6 43.525l3.422-3.425 3.426 3.426-3.426 3.426zm-6.065-27.33l4.453-4.453 4.454 4.453-4.454 4.454zM6 3.426l5.139-5.14 5.14 5.14-5.14 5.139zm40.922 0L50.349 0l3.426 3.426-3.426 3.427z" transform="translate(-6 1.713)" fill="url(#a)"/><g transform="rotate(13 -42.477 78.26)" clip-path="url(#b)"><path d="M27.286 3.876h-3.15V.727A.727.727 0 0023.41 0H8.288a.714.714 0 00-.137.014h-.005a.728.728 0 00-.176.063L7.928.1a.753.753 0 00-.155.114l-7.56 7.56a.74.74 0 00-.113.154l-.022.041a.748.748 0 00-.063.177.809.809 0 00-.015.142v23.134a.727.727 0 00.727.727h3.15V35.3a.727.727 0 00.727.727h22.682a.727.727 0 00.727-.727V4.6a.727.727 0 00-.727-.727" fill="#fff"/><path d="M27.286 3.876h-3.15V.727A.727.727 0 0023.41 0H8.288a.709.709 0 00-.136.014h-.007a.715.715 0 00-.175.063L7.928.1a.75.75 0 00-.154.114L.213 7.774a.735.735 0 00-.113.154.82.82 0 00-.022.041.733.733 0 00-.063.177.722.722 0 00-.015.142v23.134a.727.727 0 00.727.727h3.15V35.3a.727.727 0 00.727.727h22.682a.727.727 0 00.727-.727V4.6a.727.727 0 00-.727-.727M7.561 2.481v5.08h-5.08zM1.454 9.014h6.834a.727.727 0 00.727-.727V1.454h13.668V30.7H1.454zm25.105 25.558H5.33v-2.423h18.08a.727.727 0 00.727-.727V5.33h2.423zM5.156 12.3a.484.484 0 01.485-.485h11.816a.485.485 0 010 .969H5.641a.484.484 0 01-.485-.485m0 4.727a.484.484 0 01.485-.485h8.809a.485.485 0 010 .969H5.641a.484.484 0 01-.485-.485m0 4.727a.484.484 0 01.485-.485h7.52a.485.485 0 010 .969h-7.52a.484.484 0 01-.485-.485m0 4.726A.484.484 0 015.641 26h12.245a.485.485 0 010 .969H5.641a.484.484 0 01-.485-.485" fill="url(#c)"/></g></svg>