<svg xmlns="http://www.w3.org/2000/svg" xmlns:xlink="http://www.w3.org/1999/xlink" width="197.792" height="134.897"><defs><linearGradient id="a" x1="-.015" y1=".998" x2=".951" y2=".04" gradientUnits="objectBoundingBox"><stop offset="0" stop-color="#006eba"/><stop offset=".067" stop-color="#166cb6"/><stop offset=".145" stop-color="#366bb2"/><stop offset=".386" stop-color="#ca3962"/><stop offset=".427" stop-color="#cf3360"/><stop offset=".48" stop-color="#dd225d"/><stop offset=".5" stop-color="#e41b5c"/><stop offset=".569" stop-color="#e5354d"/><stop offset=".639" stop-color="#e74c41"/><stop offset=".738" stop-color="#ee7f29"/><stop offset=".8" stop-color="#f3a219"/><stop offset=".903" stop-color="#f6b413"/><stop offset="1" stop-color="#f9c110"/></linearGradient><linearGradient id="b" x1="0" y1="1" x2=".927" y2=".129" xlink:href="#a"/><linearGradient id="c" x1="0" y1="1" x2="1" y2=".293" xlink:href="#a"/></defs><path d="M82.683 23.45l-34.647 6.12a4.501 4.501 0 013.71-4.413l25.94-4.582a4.501 4.501 0 014.997 2.875zm-34.378 8.104l9.127 51.663 34.805-6.149-9.127-51.662zm14.55 56.493l25.94-4.582a4.501 4.501 0 003.71-4.414l-34.647 6.12a4.501 4.501 0 004.998 2.876z" fill="#fff"/><path d="M834.955-912.577H808.62a7.509 7.509 0 00-7.5 7.5v54.847a7.508 7.508 0 007.5 7.5h26.335a7.508 7.508 0 007.5-7.5v-54.847a7.509 7.509 0 00-7.5-7.5zm-26.335 3h26.335a4.5 4.5 0 014.419 3.7H804.2a4.5 4.5 0 014.42-3.7zm26.335 63.847H808.62a4.5 4.5 0 01-4.419-3.7h35.173a4.5 4.5 0 01-4.419 3.7zm4.5-5.7H804.12v-52.449h35.335zM818.5-907.7a.666.666 0 01.665-.666h5.239a.666.666 0 01.665.666.665.665 0 01-.665.665h-5.239a.665.665 0 01-.665-.665z" fill="url(#a)" transform="rotate(-10.02 5762.562 3875.63)"/><path d="M928.4-928.181l-7.752-7.753a3.5 3.5 0 00-4.95 0l-34.1 34.1-5 14.525a2.484 2.484 0 00.6 2.581 2.484 2.484 0 001.76.733 2.522 2.522 0 00.821-.138l14.523-5 34.1-34.1a3.5 3.5 0 00-.002-4.948z" fill="url(#b)" transform="translate(-768.097 1005.169)"/><path d="M115.626 106.385l7.531 7.531-11.483 3.953zm42.559-27.276l-7.752-7.753a.5.5 0 00-.708 0l-33.149 33.149 8.46 8.46 33.149-33.15a.5.5 0 000-.706z" fill="#fff"/><path d="M-435.116 127.826l7.071-7.071 7.07 7.071-7.07 7.071zm-114.41-10.606l7.071-7.071 7.07 7.071-7.07 7.071zM-616 110.148l10.607-10.606 10.606 10.606-10.606 10.607zm176.579-26l10.607-10.606 10.607 10.606-10.607 10.606zm-29.911-63.722l9.192-9.192 9.193 9.192-9.193 9.193zm-49.829-13.355L-512.09 0l7.07 7.071-7.07 7.071z" transform="translate(616)" fill="url(#c)"/></svg>