<svg xmlns="http://www.w3.org/2000/svg" xmlns:xlink="http://www.w3.org/1999/xlink" width="74.653" height="65.482"><defs><linearGradient id="a" x1="-.015" y1=".998" x2=".951" y2=".04" gradientUnits="objectBoundingBox"><stop offset="0" stop-color="#006eba"/><stop offset=".067" stop-color="#166cb6"/><stop offset=".145" stop-color="#366bb2"/><stop offset=".386" stop-color="#ca3962"/><stop offset=".427" stop-color="#cf3360"/><stop offset=".48" stop-color="#dd225d"/><stop offset=".5" stop-color="#e41b5c"/><stop offset=".569" stop-color="#e5354d"/><stop offset=".639" stop-color="#e74c41"/><stop offset=".738" stop-color="#ee7f29"/><stop offset=".8" stop-color="#f3a219"/><stop offset=".903" stop-color="#f6b413"/><stop offset="1" stop-color="#f9c110"/></linearGradient><linearGradient id="b" x1="0" y1="1" x2=".927" y2=".129" xlink:href="#a"/><linearGradient id="c" x1="0" y1="1" x2="1" y2=".293" xlink:href="#a"/></defs><path d="M18.857 11.61L2.039 14.58a2.186 2.186 0 011.8-2.146l12.592-2.225a2.186 2.186 0 012.426 1.4zM2.169 15.537l4.43 25.078 16.895-2.984-4.43-25.078zm7.063 27.424l12.592-2.225a2.186 2.186 0 001.8-2.146L6.805 41.562a2.186 2.186 0 002.426 1.4z" fill="#fff"/><path d="M16.424 0H3.641A3.645 3.645 0 000 3.641v26.624a3.644 3.644 0 003.641 3.641h12.783a3.645 3.645 0 003.641-3.641V3.641A3.645 3.645 0 0016.424 0zM3.641 1.456h12.783a2.185 2.185 0 012.145 1.8H1.5a2.185 2.185 0 012.141-1.8zm12.783 30.993H3.641a2.185 2.185 0 01-2.145-1.8h17.073a2.185 2.185 0 01-2.145 1.8zm2.184-2.766H1.456V4.223h17.153zM8.438 2.366a.323.323 0 01.323-.323H11.3a.323.323 0 010 .646H8.761a.323.323 0 01-.323-.323z" transform="matrix(.985 -.174 .174 .985 0 11.633)" fill="url(#a)"/><path d="M901.676-932.7l-3.763-3.763a1.7 1.7 0 00-2.4 0L878.96-919.91l-2.427 7.051a1.206 1.206 0 00.29 1.253 1.206 1.206 0 00.854.356 1.222 1.222 0 00.4-.067l7.05-2.426 16.553-16.554a1.7 1.7 0 00-.004-2.403z" transform="translate(-845.219 970.068)" fill="url(#b)"/><path d="M34.768 51.641l3.656 3.656-5.574 1.918zm20.659-13.24l-3.763-3.764a.244.244 0 00-.344 0L35.23 50.725l4.107 4.107L55.428 38.74a.242.242 0 000-.34z" fill="#fff"/><path d="M87.806 62.05l3.433-3.433 3.431 3.433-3.432 3.433zM32.268 56.9l3.432-3.432 3.433 3.432-3.433 3.433zm53.448-16.054l5.148-5.146 5.149 5.149-5.149 5.149zM71.2 9.913l4.461-4.462 4.459 4.462-4.462 4.462zm-24.192-6.48L50.441 0l3.432 3.433-3.432 3.432z" transform="translate(-21.36)" fill="url(#c)"/></svg>