<svg xmlns="http://www.w3.org/2000/svg" width="56" height="56"><path d="M56 28a28 28 0 10-32.375 27.66V36.094h-7.109V28h7.109v-6.169c0-7.017 4.18-10.894 10.576-10.894a43.057 43.057 0 016.268.547v6.891h-3.531c-3.478 0-4.563 2.158-4.563 4.373V28h7.766L38.9 36.094h-6.525V55.66A28.007 28.007 0 0056 28z" fill="#d70056"/><path d="M38.9 36.093l1.241-8.094h-7.766v-5.252c0-2.214 1.085-4.373 4.563-4.373h3.531v-6.891a43.065 43.065 0 00-6.268-.547c-6.4 0-10.576 3.876-10.576 10.894v6.169h-7.109v8.094h7.109v19.566a28.3 28.3 0 008.75 0V36.093z" fill="#fff"/></svg>