<svg xmlns="http://www.w3.org/2000/svg" width="56" height="56"><path d="M28 0A28 28 0 110 28 28 28 0 0128 0z" fill="#d70056"/><path d="M22.443 42.604c12.368 0 19.131-10.246 19.131-19.131q0-.437-.019-.869a13.683 13.683 0 003.354-3.481 13.413 13.413 0 01-3.861 1.058 6.747 6.747 0 002.956-3.719 13.481 13.481 0 01-4.269 1.632 6.718 6.718 0 00-4.908-2.124 6.725 6.725 0 00-6.725 6.723 6.719 6.719 0 00.174 1.533 19.089 19.089 0 01-13.859-7.025 6.7 6.7 0 00-.911 3.379 6.719 6.719 0 002.992 5.6 6.676 6.676 0 01-3.045-.841v.086a6.727 6.727 0 005.395 6.592 6.742 6.742 0 01-1.772.237 6.7 6.7 0 01-1.264-.121 6.732 6.732 0 006.281 4.67 13.491 13.491 0 01-8.351 2.878 13.688 13.688 0 01-1.6-.093 19.036 19.036 0 0010.307 3.02" fill="#fff"/></svg>