<svg xmlns="http://www.w3.org/2000/svg" width="302.006" height="83.998"><defs><linearGradient id="a" x1=".157" y1=".843" x2=".843" y2=".157" gradientUnits="objectBoundingBox"><stop offset="0" stop-color="#006fbc"/><stop offset=".16" stop-color="#006fbc"/><stop offset=".18" stop-color="#086cb8"/><stop offset=".21" stop-color="#1f67af"/><stop offset=".25" stop-color="#445da0"/><stop offset=".3" stop-color="#79508b"/><stop offset=".35" stop-color="#ba4071"/><stop offset=".39" stop-color="#e73560"/><stop offset=".41" stop-color="#e62f5f"/><stop offset=".45" stop-color="#e61e5c"/><stop offset=".49" stop-color="#e50358"/><stop offset=".5" stop-color="#e50058"/><stop offset=".53" stop-color="#e50558"/><stop offset=".57" stop-color="#e5165b"/><stop offset=".61" stop-color="#e6315f"/><stop offset=".61" stop-color="#e73560"/><stop offset=".66" stop-color="#ea4d51"/><stop offset=".75" stop-color="#f28d2e"/><stop offset=".82" stop-color="#f9ba15"/><stop offset="1" stop-color="#fbc311"/></linearGradient></defs><path d="M156.118 62.173h145.888l-7.928-20.064 7.928-20.049H156.118z" fill="#fbc311"/><path fill="#fbc311" d="M72.128 22.06h152.738v40.113H72.128z"/><path d="M78.506 63.549c-1.707 2.932-7.23 2.979-9.619 5.353-2.389 2.389-2.42 7.913-5.353 9.619-2.9 1.676-7.7-1.04-11-.155-3.2.853-5.989 5.632-9.449 5.632s-6.253-4.779-9.449-5.632c-3.3-.884-8.114 1.831-11 .155-2.932-1.691-2.979-7.23-5.353-9.619-2.389-2.389-7.913-2.42-9.619-5.353-1.676-2.9 1.04-7.7.155-11-.853-3.2-5.632-5.989-5.632-9.449s4.779-6.253 5.632-9.449c.884-3.3-1.831-8.114-.155-11 1.691-2.932 7.23-2.979 9.619-5.353 2.395-2.388 2.421-7.915 5.354-9.615 2.9-1.676 7.7 1.04 11 .155 3.2-.853 5.989-5.632 9.449-5.632s6.252 4.777 9.448 5.629c3.3.884 8.114-1.831 11-.155 2.932 1.691 2.979 7.23 5.353 9.619 2.389 2.389 7.913 2.42 9.619 5.353 1.676 2.9-1.04 7.7-.155 11 .853 3.2 5.632 5.989 5.632 9.449s-4.779 6.253-5.632 9.449c-.884 3.304 1.827 8.114.155 10.999zm-.791-17.982a14.446 14.446 0 001.863-2.466 12.509 12.509 0 00-1.862-2.467 15.255 15.255 0 01-3.615-5.834 15.605 15.605 0 01.2-7.013 14.552 14.552 0 00.372-2.9 14.075 14.075 0 00-2.746-1.148 15.325 15.325 0 01-6.128-3.3 15.428 15.428 0 01-3.3-6.128 15.1 15.1 0 00-1.148-2.746h-.217a17.392 17.392 0 00-2.684.372 23.608 23.608 0 01-4.344.528 10.394 10.394 0 01-2.669-.326 15.07 15.07 0 01-5.834-3.615 14.446 14.446 0 00-2.467-1.862 12.509 12.509 0 00-2.467 1.862 15.186 15.186 0 01-5.834 3.615 10.481 10.481 0 01-2.669.326 23.608 23.608 0 01-4.344-.528 16.9 16.9 0 00-2.684-.372h-.22a15.1 15.1 0 00-1.148 2.746 15.225 15.225 0 01-3.3 6.128 15.428 15.428 0 01-6.128 3.3 15.1 15.1 0 00-2.752 1.144 14.416 14.416 0 00.372 2.9 15.613 15.613 0 01.2 7.013 15.247 15.247 0 01-3.615 5.849 14.446 14.446 0 00-1.862 2.467 12.509 12.509 0 001.864 2.471 15.317 15.317 0 013.615 5.849 15.6 15.6 0 01-.2 7.013 14.552 14.552 0 00-.372 2.9 15.1 15.1 0 002.746 1.148 15.225 15.225 0 016.128 3.3 15.428 15.428 0 013.3 6.128 15.1 15.1 0 001.148 2.746h.217a17.392 17.392 0 002.684-.372 23.608 23.608 0 014.344-.528 10.394 10.394 0 012.669.326 15.248 15.248 0 015.85 3.622 14.446 14.446 0 002.467 1.862 12.993 12.993 0 002.467-1.846 15.186 15.186 0 015.834-3.615 10.517 10.517 0 012.684-.326 23.609 23.609 0 014.344.528 16.9 16.9 0 002.684.372h.22a15.1 15.1 0 001.148-2.746 15.224 15.224 0 013.3-6.128 15.428 15.428 0 016.128-3.3 15.1 15.1 0 002.746-1.148 14.415 14.415 0 00-.372-2.9 15.461 15.461 0 01-.186-7.028 15.07 15.07 0 013.615-5.834z" fill="#231815" opacity=".65"/><path d="M76.163 50.346c.853-3.2 5.632-5.989 5.632-9.449s-4.779-6.253-5.632-9.449c-.884-3.3 1.831-8.114.155-11-1.691-2.932-7.23-2.979-9.619-5.353-2.389-2.389-2.42-7.913-5.353-9.619-2.9-1.676-7.7 1.04-11 .155C47.15 4.779 44.357 0 40.9 0s-6.253 4.779-9.449 5.632c-3.3.884-8.114-1.831-11-.155-2.935 1.691-2.981 7.23-5.351 9.623-2.389 2.389-7.913 2.42-9.619 5.353-1.676 2.9 1.04 7.7.155 11C4.779 34.645 0 37.438 0 40.9s4.779 6.253 5.632 9.449c.884 3.3-1.831 8.114-.155 11 1.691 2.932 7.23 2.979 9.619 5.353 2.389 2.389 2.42 7.913 5.353 9.619 2.9 1.676 7.7-1.04 11-.155 3.2.853 5.989 5.632 9.449 5.632s6.253-4.779 9.449-5.632c3.3-.884 8.114 1.831 11 .155 2.932-1.691 2.979-7.23 5.353-9.619 2.389-2.389 7.913-2.42 9.619-5.353 1.675-2.904-1.04-7.698-.156-11.003z" fill="url(#a)"/><path d="M71.912 49.213a15.915 15.915 0 00.186 7.028 14.554 14.554 0 01.372 2.9 15.1 15.1 0 01-2.746 1.148 15.224 15.224 0 00-6.128 3.3 15.428 15.428 0 00-3.3 6.128 15.584 15.584 0 01-1.148 2.746h-.217a16.67 16.67 0 01-2.684-.372 23.608 23.608 0 00-4.344-.528 10.6 10.6 0 00-2.684.326 15.07 15.07 0 00-5.836 3.622 13.5 13.5 0 01-2.467 1.846 12.509 12.509 0 01-2.467-1.862 15.318 15.318 0 00-5.852-3.618 10.482 10.482 0 00-2.669-.326 23.607 23.607 0 00-4.345.532 17.646 17.646 0 01-2.684.372h-.216a15.1 15.1 0 01-1.148-2.746 15.225 15.225 0 00-3.305-6.132 15.428 15.428 0 00-6.128-3.3 15.1 15.1 0 01-2.746-1.15 14.416 14.416 0 01.372-2.9 15.613 15.613 0 00.2-7.013 15.247 15.247 0 00-3.615-5.849 14.446 14.446 0 01-1.86-2.468 12.508 12.508 0 011.862-2.467 15.317 15.317 0 003.615-5.853 15.613 15.613 0 00-.2-7.013 14.552 14.552 0 01-.372-2.9 15.1 15.1 0 012.746-1.148 15.225 15.225 0 006.128-3.3 15.428 15.428 0 003.3-6.128 15.584 15.584 0 011.151-2.748h.217a16.671 16.671 0 012.683.372 23.608 23.608 0 004.344.528 10.394 10.394 0 002.669-.326 15.07 15.07 0 005.834-3.615 14.446 14.446 0 012.468-1.862 12.509 12.509 0 012.467 1.862 15.186 15.186 0 005.834 3.615 10.481 10.481 0 002.669.326 23.608 23.608 0 004.344-.528 17.646 17.646 0 012.684-.372h.217a15.1 15.1 0 011.148 2.746 15.224 15.224 0 003.3 6.128 15.428 15.428 0 006.128 3.3 15.1 15.1 0 012.746 1.148 14.415 14.415 0 01-.372 2.9 15.613 15.613 0 00-.2 7.013 15.07 15.07 0 003.62 5.84 14.445 14.445 0 011.86 2.462 12.508 12.508 0 01-1.86 2.472 15.255 15.255 0 00-3.615 5.834z" fill="#fff"/><path d="M41.581 52.658l-2.389-5.865H28.129l-2.389 5.865h-5.865l11.217-26.36h5.306l11.218 26.36h-6.02zm-7.929-19.44l-3.475 8.487h6.951zm21.113 16.989a.123.123 0 00-.109-.062c-.279 0-.559.016-.838.016-.543 0-.884-.093-.884-.7 0-.357.016-.7.016-1.086v-2.42c0-.388-.016-.745-.016-1.071 0-.574.279-.714.807-.714.45 0 .915.031 1.365.031H60.8c.434 0 .9-.031 1.334-.031.543 0 .838.124.838.714 0 .372-.016.714-.016 1.071v2.42c0 .372.016.714.016 1.071 0 .605-.295.714-.822.714-.4 0-.791-.016-1.179-.031-.078.031-.078.047-.078.093s.031.078.047.078a22.533 22.533 0 004.267.931c.217.016.388.062.388.31 0 .295-.357 1.164-.791 1.164a17.5 17.5 0 01-2.979-.605 14.063 14.063 0 01-2.11-.714c-.109-.047-.217-.109-.217-.233a1.939 1.939 0 01.31-.683.262.262 0 00.047-.155c0-.124-.093-.155-.186-.171h-3.504c-.14.016-.248.062-.248.217a.232.232 0 00.047.155 3.656 3.656 0 01.543.838c0 .093-.109.155-.186.155a1.031 1.031 0 01-.233-.047.551.551 0 00-.155-.031.7.7 0 00-.171.047 21.692 21.692 0 01-4.375 1.164 3.053 3.053 0 01-.372.047c-.481 0-.776-1.04-.776-1.179 0-.279.31-.31.528-.341a16.4 16.4 0 003.863-.869c.031-.016.078-.047.078-.093zm1.834-11.159c.357 0 .5-.14.5-.481a8.3 8.3 0 00-.047-1.241.528.528 0 01-.016-.155c0-.233.155-.264.357-.264.341 0 1.226.078 1.6.093.124.016.419.031.419.217 0 .124-.14.186-.279.279-.233.14-.248.233-.233 1.086 0 .341.14.481.5.481h.4a.708.708 0 00.745-.372 13.971 13.971 0 00.745-1.334c.031-.109.078-.233.186-.233a4.57 4.57 0 01.946.264c.915.279.915.372.915.434 0 .155-.171.171-.279.217a.337.337 0 00-.264.171c-.078.093-.248.372-.31.45a.4.4 0 00-.047.171.22.22 0 00.248.217c.5 0 .977-.016 1.489-.016.481 0 .993.047.993.652 0 .264-.031.528-.031.791v.543c0 .233.031.434.031.667 0 .419-.264.4-.9.4s-.9.016-.9-.388c0-.233.031-.45.031-.683v-.116c0-.357-.14-.5-.5-.5h-9.79c-.341 0-.5.14-.5.5v.124c0 .233.031.45.031.683 0 .4-.279.388-.884.388s-.9.016-.9-.388c0-.217.031-.45.031-.683v-.543c0-.248-.031-.512-.031-.776 0-.59.481-.667.946-.667.512 0 1.024.016 1.536.016.155 0 .279-.078.279-.248a.459.459 0 00-.031-.155c-.109-.186-.279-.45-.4-.636-.047-.078-.14-.155-.14-.264 0-.264 1.179-.605 1.4-.605.248 0 .388.233.7.776a3.025 3.025 0 01.419.838c0 .124-.093.171-.186.217-.031.031-.016.078.016.078h1.221zm5.291 3.506c0 .14.016.295.016.434 0 .512-.279.667-.745.667-.388 0-.776-.031-1.164-.031h-4.065c-.372 0-.76.031-1.133.031-.481 0-.76-.14-.76-.667 0-.14.016-.295.016-.434v-.5c0-.14-.016-.279-.016-.419 0-.512.264-.667.745-.667.388 0 .776.016 1.148.016h4.065c.388 0 .76-.016 1.148-.016.481 0 .76.14.76.652 0 .155-.016.295-.016.434v.5zm-.916 3.294a.261.261 0 00.279-.279v-.062a.278.278 0 00-.279-.279h-6.02a.288.288 0 00-.279.279v.062a.269.269 0 00.279.279zm-6.02.915a.278.278 0 00-.279.279v.093a.288.288 0 00.279.279h6.02a.278.278 0 00.279-.279v-.093a.269.269 0 00-.279-.279zm0 1.583a.288.288 0 00-.279.279v.123a.288.288 0 00.279.279h6.02a.278.278 0 00.279-.279v-.124a.278.278 0 00-.279-.276zm.807-6a.3.3 0 00.279.279h3.863a.3.3 0 00.279-.279v-.098a.3.3 0 00-.279-.279h-3.862a.3.3 0 00-.279.279z" fill="#d70056" style="isolation:isolate"/><path d="M111.137 38.908c4.887 0 8.254 2.25 8.254 6.609 0 3.879-2.5 8.13-9.945 8.13a15.509 15.509 0 01-6.315-1.35c-.434-.217-.652-.4-.652-.683a1.844 1.844 0 01.155-.59l1.071-2.793c.186-.434.31-.621.528-.621a1.326 1.326 0 01.59.279 9.075 9.075 0 004.763 1.319c3.2 0 4.53-1.412 4.53-3.351s-1.877-2.855-4.189-2.855a9.282 9.282 0 00-2.917.4 3.023 3.023 0 01-1.008.217 3.508 3.508 0 01-.977-.186l-.683-.186c-.621-.186-.807-.341-.807-.807a2.061 2.061 0 01.031-.4c.124-1.04.217-1.939.31-3.072l.341-4.127c.093-1.195.186-2.188.217-3.227.031-.745.155-.9.776-.9.4 0 3.786.062 5.415.062h1.939c1.629 0 5.167-.062 5.384-.062.652 0 .776.186.776.9v3.1c0 .714-.124.9-.776.9-.217 0-3.755-.062-5.384-.062h-2.714c-.807 0-.962.124-1.008.915l-.093 1.35a9.536 9.536 0 00-.062.714c0 .372.124.5.5.5.279 0 1.133-.124 1.97-.124zm31.682 2.622c0 7.633-4.561 12.071-10.286 12.071s-9.821-3.879-9.821-11.171c0-6.563 3.475-11.885 10.286-11.885 5.415 0 9.821 3.693 9.821 10.985zm-14.827 1.039c0 4.127 1.691 6.253 4.561 6.253 3.01 0 5.042-2.839 5.042-7.106s-1.815-6.128-4.592-6.128c-3.573-.001-5.011 3.258-5.011 6.981zm22.77 6.873c0-.372-.016-.621-.357-.621a.545.545 0 00-.279.093 16.541 16.541 0 01-2.808.993c-.745 0-1.691-1.955-1.691-2.436 0-.388.372-.481.7-.528a26.512 26.512 0 005.058-1.893c.729-.357 1.071-.543 1.071-.776s-.357-.512-.807-.915c-.109-.093-.217-.2-.357-.31-.109-.124-.4-.357-.4-.528 0-.481 1.645-1.753 2.11-1.753.2 0 .372.2.528.326.434.372.9.745 1.319 1.117a.86.86 0 00.465.279 9.256 9.256 0 002.9-2.746c0-.217-.326-.248-.9-.248h-3.46a1.237 1.237 0 00-1.117.419c-.683.729-4.1 3.879-4.9 3.879a3.234 3.234 0 01-1.9-1.954c0-.264.326-.465.838-.807 1.831-1.226 4.686-3.693 5.539-5.741.155-.357.248-.621.59-.621.248 0 2.358.528 2.808.621.2.047.636.155.636.419 0 .155-.2.217-.326.248-.155.047-.326.062-.419.217a1.866 1.866 0 00-.2.388c0 .155.124.171.512.171h2.529c.838 0 1.676-.016 2.513-.016a1.771 1.771 0 011.567.7c.217.248.745.838.745 1.195 0 .388-.931 1.412-1.21 1.738a28.442 28.442 0 01-3.041 3.072c-.357.31-1.21 1.04-1.536 1.257-.093.062-.2.155-.2.264 0 .124.217.124.279.124h2.948c.729 0 1.474-.016 2.2-.016.853 0 1.6.062 1.6.745 0 .326-.062.745-.062 1.365v5.322c0 .683.062 1.567.062 1.784 0 .372-.279.419-.791.419h-1.321c-.962 0-1.148-.047-1.148-.465 0-.093.016-.171.016-.248 0-.31-.217-.419-.481-.419h-6.1c-.264 0-.465.109-.465.388 0 .062.016.2.016.31 0 .419-.248.419-1.195.419h-1.103c-.838 0-1.1-.047-1.1-.419 0-.155.062-1.21.062-1.784v-3.048zm9.759 1.272a.633.633 0 00.621-.621v-1.582a.613.613 0 00-.621-.621h-5.9a.622.622 0 00-.621.621v1.583a.632.632 0 00.621.621zm13.545-8.331c.171.31.264.481.512.481a2.926 2.926 0 00.977-.481 2.116 2.116 0 01.822-.419c.326 0 .636.4.9.76a2.018 2.018 0 01.543.946c0 .2-.341.357-.714.528-.357.171-.714.326-1.055.481-.233.093-.465.171-.465.465a1.558 1.558 0 00.248.559 20.032 20.032 0 001.474 2.42c.388.5.838.9.838 1.133 0 .434-1.164 1.334-1.5 1.334a.913.913 0 01-.434-.186 7.594 7.594 0 00-3.662-1.412c-.559 0-1.241.341-1.241.962 0 1.334 2.2 1.567 3.165 1.567.31 0 .621-.031.9-.031.465 0 .5.388.5.76a4.816 4.816 0 01-.171 1.257c-.078.279-.217.357-.605.357a13.763 13.763 0 01-2.87-.4c-1.707-.434-3.212-1.443-3.212-3.4a3.274 3.274 0 013.506-3.181 6.79 6.79 0 011.086.124c.124 0 .248-.062.248-.2a2.282 2.282 0 00-.326-.683c-.155-.264-.248-.4-.527-.4a.565.565 0 00-.217.031 21.118 21.118 0 01-3.46.559c-.419 0-.481-.14-.605-.512a5.969 5.969 0 01-.326-1.381c0-.2 0-.4.481-.419a19.611 19.611 0 002.591-.233c.233-.047.4-.124.4-.357a3.162 3.162 0 00-.574-.962c-.171-.233-.559-.636-.559-.853 0-.155.171-.295.341-.372a5.89 5.89 0 011.769-.59c.326 0 .45.248.915 1.1.093.186.2.388.326.621zm12.94-1.241s.217.031.217.155a.531.531 0 01-.109.264 1.658 1.658 0 00-.248.962.338.338 0 00.341.357c.279 0 1.769-.341 2.172-.434a3.687 3.687 0 01.636-.124c.217 0 .295.31.326.481a7.5 7.5 0 01.171 1.3c0 .388-.186.434-.683.528-.776.14-1.567.264-2.358.372-.372.047-.543.093-.543.419 0 .217.109.388.341.388a13.748 13.748 0 001.629-.326 1.827 1.827 0 01.388-.062c.124 0 .2.124.264.326a6.334 6.334 0 01.109 1.474c0 .5-.481.559-1.893.714-.621.062-.745.14-.745.419 0 .838 0 .962.5 1.117.652.217 2.715 1.086 2.715 1.815 0 .341-.652 1.489-1.133 1.489a3.208 3.208 0 01-1.148-.714 1.735 1.735 0 00-.683-.372c-.217 0-.279.171-.357.341a2.879 2.879 0 01-2.917 1.536 3.432 3.432 0 01-1.877-.481 2.178 2.178 0 01-.962-1.815 2.1 2.1 0 01.884-1.691 4.164 4.164 0 012.389-.636h.171a.306.306 0 00.326-.341.369.369 0 00-.357-.419c-.279 0-1.226.078-1.908.078-.59 0-.745 0-.838-.434a6.143 6.143 0 01-.217-1.427c0-.233.031-.45.31-.45.45 0 1.1.078 1.846.078h.419c.388 0 .683-.031.683-.372a.354.354 0 00-.372-.388c-.528 0-1.458.062-2.188.062h-.465c-.621 0-1.1 0-1.195-.233a5.484 5.484 0 01-.171-1.614c0-.217 0-.481.31-.481s1.908.14 2.917.14h.341c.372 0 .652-.031.652-.357 0-.14-.078-.993-.124-1.272a2.069 2.069 0 01-.047-.434c0-.186.109-.233.295-.233.295 0 1.846.2 2.234.264zm-3.863 10.175c0 .372.574.388.838.388.419 0 .915-.109.915-.636 0-.217-.186-.233-.481-.233-.311.003-1.272.034-1.272.481z" fill="#231815"/></svg>