<svg xmlns="http://www.w3.org/2000/svg" width="392" height="109"><defs><linearGradient id="a" x1=".157" y1=".843" x2=".843" y2=".157" gradientUnits="objectBoundingBox"><stop offset="0" stop-color="#006fbc"/><stop offset=".16" stop-color="#006fbc"/><stop offset=".18" stop-color="#086cb8"/><stop offset=".21" stop-color="#1f67af"/><stop offset=".25" stop-color="#445da0"/><stop offset=".3" stop-color="#79508b"/><stop offset=".35" stop-color="#ba4071"/><stop offset=".39" stop-color="#e73560"/><stop offset=".41" stop-color="#e62f5f"/><stop offset=".45" stop-color="#e61e5c"/><stop offset=".49" stop-color="#e50358"/><stop offset=".5" stop-color="#e50058"/><stop offset=".53" stop-color="#e50558"/><stop offset=".57" stop-color="#e5165b"/><stop offset=".61" stop-color="#e6315f"/><stop offset=".61" stop-color="#e73560"/><stop offset=".66" stop-color="#ea4d51"/><stop offset=".75" stop-color="#f28d2e"/><stop offset=".82" stop-color="#f9ba15"/><stop offset="1" stop-color="#fbc311"/></linearGradient></defs><g fill="#016fbc"><path d="M202.69 80.432h189.311L381.713 54.4l10.288-26.02H202.69z"/><path d="M92.579 28.38h198.199v52.052H92.579z"/></g><path d="M148.706 63.369c2.074 0 6.382-.081 6.664-.081.846 0 1.007.242 1.007 1.168v3.523c0 .926-.161 1.168-1.007 1.168-.282 0-4.59-.081-6.664-.081h-5.717c-2.114 0-6.785.081-7.067.081-.846 0-1.007-.242-1.007-1.168v-1.71a1.67 1.67 0 011.007-1.868 35.56 35.56 0 002.195-1.671c7.63-6.463 11.053-9.946 11.053-13.227 0-2.194-1.429-3.7-4.308-3.7a7.791 7.791 0 00-5.678 2.8c-.362.4-.564.6-.805.6s-.443-.2-.805-.564l-2.96-3.161c-.322-.362-.483-.6-.483-.886 0-.242.161-.483.523-.846a15.191 15.191 0 0110.71-4.355c6.865 0 10.791 3.906 10.791 9.02s-4.107 9.744-9.3 14.214c-.322.282-.443.443-.443.564s.242.2.725.2h1.55zm38.232-9.664c0 9.905-5.919 15.663-13.348 15.663s-12.744-5.037-12.744-14.495c0-8.516 4.51-15.422 13.348-15.422 7.026 0 12.744 4.792 12.744 14.254zm-19.247 1.349c0 5.355 2.194 8.114 5.919 8.114 3.906 0 6.543-3.684 6.543-9.221s-2.356-7.953-5.959-7.953c-4.63 0-6.503 4.228-6.503 9.06zm49.769-1.349c0 9.905-5.919 15.663-13.348 15.663s-12.744-5.037-12.744-14.495c0-8.516 4.51-15.422 13.348-15.422 7.026 0 12.744 4.792 12.744 14.254zm-19.247 1.349c0 5.355 2.194 8.114 5.919 8.114 3.906 0 6.543-3.684 6.543-9.221s-2.356-7.953-5.959-7.953c-4.628 0-6.503 4.228-6.503 9.06zm29.556 8.94c0-.483-.02-.805-.463-.805a.707.707 0 00-.362.121 21.464 21.464 0 01-3.644 1.289c-.966 0-2.194-2.537-2.194-3.161 0-.5.483-.624.906-.685a34.4 34.4 0 006.563-2.456c.946-.463 1.389-.7 1.389-1.007s-.463-.664-1.047-1.188c-.141-.121-.282-.262-.463-.4-.141-.161-.523-.463-.523-.685 0-.624 2.134-2.275 2.738-2.275.262 0 .483.262.685.423.564.483 1.168.966 1.711 1.45a1.116 1.116 0 00.6.362c.523 0 3.765-3.02 3.765-3.564 0-.282-.423-.322-1.168-.322h-4.49a1.606 1.606 0 00-1.45.544c-.886.946-5.315 5.033-6.362 5.033a4.2 4.2 0 01-2.456-2.537c0-.342.423-.6 1.087-1.047 2.376-1.591 6.08-4.792 7.187-7.449.2-.463.322-.805.765-.805.322 0 3.06.685 3.644.805.262.06.825.2.825.544 0 .2-.262.282-.423.322-.2.06-.423.081-.544.282a2.422 2.422 0 00-.262.5c0 .2.181.221.664.221h3.282c1.087 0 2.174-.02 3.262-.02a2.3 2.3 0 012.033.906c.282.322.966 1.087.966 1.55 0 .5-1.208 1.832-1.57 2.255a36.905 36.905 0 01-3.946 3.986c-.463.4-1.57 1.349-1.993 1.631-.121.081-.262.2-.262.342 0 .161.282.161.362.161h3.825c.946 0 1.913-.02 2.859-.02 1.107 0 2.074.081 2.074.966 0 .423-.081.966-.081 1.772v6.904c0 .886.081 2.033.081 2.315 0 .483-.362.544-1.027.544h-1.711c-1.248 0-1.49-.06-1.49-.6 0-.121.02-.221.02-.322 0-.4-.282-.544-.624-.544h-7.912c-.342 0-.6.141-.6.5 0 .081.02.262.02.4 0 .544-.322.544-1.55.544h-1.429c-1.087 0-1.429-.06-1.429-.544 0-.2.081-1.57.081-2.315v-3.942zm12.664 1.651a.821.821 0 00.805-.805v-2.054a.8.8 0 00-.805-.805h-7.651a.808.808 0 00-.805.805v2.051a.82.82 0 00.805.805zm17.576-10.827c.221.4.342.624.664.624a3.8 3.8 0 001.268-.624 2.746 2.746 0 011.067-.544c.423 0 .825.523 1.168.987a2.619 2.619 0 01.7 1.228c0 .262-.443.463-.926.685-.463.221-.926.423-1.369.624-.3.121-.6.221-.6.6a2.022 2.022 0 00.322.725 25.994 25.994 0 001.913 3.141c.5.644 1.087 1.168 1.087 1.47 0 .564-1.51 1.731-1.953 1.731a1.185 1.185 0 01-.564-.242 9.855 9.855 0 00-4.751-1.832c-.725 0-1.611.443-1.611 1.248 0 1.731 2.859 2.033 4.107 2.033.4 0 .805-.04 1.168-.04.6 0 .644.5.644.987a6.25 6.25 0 01-.221 1.631c-.1.362-.282.463-.785.463a17.86 17.86 0 01-3.725-.523c-2.215-.564-4.168-1.872-4.168-4.409s2.134-4.127 4.55-4.127a8.811 8.811 0 011.409.161c.161 0 .322-.081.322-.262a2.961 2.961 0 00-.423-.886c-.2-.342-.322-.523-.684-.523a.734.734 0 00-.282.04 27.4 27.4 0 01-4.49.725c-.544 0-.624-.181-.785-.664a7.744 7.744 0 01-.423-1.792c0-.262 0-.523.624-.544a25.448 25.448 0 003.362-.3c.3-.06.523-.161.523-.463a4.1 4.1 0 00-.745-1.248c-.221-.3-.725-.825-.725-1.107 0-.2.221-.383.443-.483a7.642 7.642 0 012.3-.765c.423 0 .584.322 1.188 1.429.121.242.262.5.423.805zm16.79-1.615s.282.04.282.2a.689.689 0 01-.141.342 2.151 2.151 0 00-.322 1.248.439.439 0 00.443.463c.362 0 2.3-.443 2.819-.564a4.785 4.785 0 01.825-.161c.282 0 .383.4.423.624a9.733 9.733 0 01.221 1.691c0 .5-.242.564-.886.685a75.049 75.049 0 01-3.06.483c-.483.06-.7.121-.7.544 0 .282.141.5.443.5a17.835 17.835 0 002.114-.423 2.372 2.372 0 01.5-.081c.161 0 .262.161.342.423a8.216 8.216 0 01.141 1.913c0 .644-.624.725-2.456.926-.805.081-.966.181-.966.544 0 1.087 0 1.248.644 1.45.846.282 3.523 1.409 3.523 2.356 0 .443-.846 1.933-1.47 1.933a4.163 4.163 0 01-1.49-.926 2.252 2.252 0 00-.886-.483c-.282 0-.362.221-.463.443-.644 1.55-2.235 1.993-3.785 1.993a4.453 4.453 0 01-2.436-.624 2.826 2.826 0 01-1.248-2.356 2.729 2.729 0 011.148-2.194 5.4 5.4 0 013.1-.825h.221a.4.4 0 00.423-.443.478.478 0 00-.463-.544c-.362 0-1.59.1-2.476.1-.765 0-.966 0-1.087-.564a7.972 7.972 0 01-.282-1.852c0-.3.04-.584.4-.584.584 0 1.429.1 2.4.1h.544c.5 0 .886-.04.886-.483a.46.46 0 00-.483-.5c-.685 0-1.893.081-2.839.081h-.6c-.805 0-1.429 0-1.55-.3a7.118 7.118 0 01-.221-2.094c0-.282 0-.624.4-.624s2.476.181 3.785.181h.443c.483 0 .846-.04.846-.463 0-.181-.1-1.289-.161-1.651a2.683 2.683 0 01-.06-.564c0-.242.141-.3.382-.3.383 0 2.4.262 2.9.342zm-5.013 13.207c0 .483.745.5 1.087.5.544 0 1.188-.141 1.188-.825 0-.282-.242-.3-.624-.3-.4 0-1.651.04-1.651.624z" fill="#fff"/><path d="M101.873 82.465c-2.215 3.805-9.382 3.866-12.482 6.946-3.1 3.1-3.141 10.268-6.946 12.482-3.765 2.174-9.986-1.349-14.274-.2-4.147 1.107-7.771 7.308-12.261 7.308s-8.114-6.2-12.261-7.308c-4.288-1.148-10.53 2.376-14.274.2-3.806-2.194-3.866-9.382-6.946-12.482-3.1-3.1-10.268-3.141-12.482-6.946-2.174-3.765 1.349-9.986.2-14.274-1.107-4.152-7.308-7.772-7.308-12.261s6.2-8.114 7.308-12.261c1.148-4.288-2.376-10.53-.2-14.274 2.193-3.806 9.382-3.866 12.482-6.947 3.1-3.1 3.141-10.268 6.946-12.482 3.765-2.174 9.986 1.349 14.274.2C47.796 9.06 51.42 2.859 55.91 2.859s8.114 6.2 12.261 7.308c4.288 1.148 10.53-2.376 14.274-.2 3.805 2.194 3.866 9.382 6.946 12.482 3.1 3.1 10.268 3.141 12.482 6.946 2.174 3.765-1.349 9.986-.2 14.274 1.107 4.147 7.308 7.771 7.308 12.261s-6.2 8.114-7.308 12.261c-1.144 4.288 2.375 10.529.2 14.274zm-1.027-23.334a18.746 18.746 0 002.416-3.2 16.233 16.233 0 00-2.416-3.2c-1.812-2.094-3.845-4.47-4.691-7.57-.846-3.181-.262-6.342.262-9.1a18.883 18.883 0 00.483-3.765 18.264 18.264 0 00-3.564-1.49c-2.637-.926-5.657-1.973-7.953-4.288-2.315-2.315-3.362-5.315-4.288-7.953a19.593 19.593 0 00-1.49-3.564h-.276a22.569 22.569 0 00-3.483.483 30.635 30.635 0 01-5.637.685 13.488 13.488 0 01-3.463-.423c-3.1-.825-5.476-2.879-7.57-4.691a18.745 18.745 0 00-3.2-2.416 16.232 16.232 0 00-3.2 2.416c-2.094 1.812-4.49 3.866-7.57 4.691a13.6 13.6 0 01-3.463.423 30.635 30.635 0 01-5.637-.685 21.936 21.936 0 00-3.483-.483h-.294a19.594 19.594 0 00-1.49 3.564c-.926 2.658-1.973 5.657-4.288 7.953-2.315 2.315-5.315 3.362-7.953 4.288a19.594 19.594 0 00-3.564 1.49 18.706 18.706 0 00.483 3.765c.523 2.778 1.107 5.919.262 9.1-.825 3.1-2.879 5.476-4.691 7.59a18.746 18.746 0 00-2.416 3.2 16.232 16.232 0 002.416 3.2c1.812 2.094 3.845 4.49 4.691 7.59.846 3.181.262 6.342-.262 9.1a18.883 18.883 0 00-.483 3.765 19.593 19.593 0 003.564 1.49c2.658.926 5.657 1.973 7.953 4.288 2.315 2.315 3.362 5.315 4.288 7.953a19.593 19.593 0 001.49 3.564h.282a22.569 22.569 0 003.483-.483 30.635 30.635 0 015.637-.685 13.489 13.489 0 013.463.423c3.1.825 5.476 2.879 7.59 4.691a18.747 18.747 0 003.2 2.416 16.861 16.861 0 003.2-2.4c2.094-1.812 4.49-3.866 7.57-4.691a13.647 13.647 0 013.483-.423 30.636 30.636 0 015.644.69 21.936 21.936 0 003.483.483h.282a19.6 19.6 0 001.49-3.564c.926-2.659 1.973-5.659 4.293-7.954 2.315-2.315 5.315-3.362 7.953-4.288a19.593 19.593 0 003.564-1.49 18.706 18.706 0 00-.483-3.765c-.523-2.778-1.107-5.919-.242-9.12.825-3.1 2.879-5.476 4.691-7.57z" fill="#231815" opacity=".65"/><path d="M98.833 65.332c1.107-4.147 7.308-7.771 7.308-12.261s-6.2-8.114-7.308-12.261c-1.148-4.288 2.376-10.53.2-14.274-2.195-3.805-9.382-3.866-12.482-6.946-3.1-3.1-3.141-10.268-6.946-12.482-3.765-2.174-9.986 1.349-14.274.2C61.184 6.2 57.56 0 53.071 0S44.957 6.2 40.81 7.308c-4.288 1.148-10.53-2.376-14.274-.2-3.806 2.192-3.866 9.381-6.947 12.481-3.1 3.1-10.268 3.141-12.482 6.946-2.174 3.765 1.349 9.986.2 14.274C6.2 44.957 0 48.581 0 53.071s6.2 8.114 7.308 12.261c1.148 4.288-2.376 10.53-.2 14.274 2.194 3.805 9.382 3.866 12.482 6.946 3.1 3.1 3.141 10.268 6.946 12.482 3.765 2.174 9.986-1.349 14.274-.2 4.147 1.107 7.771 7.308 12.261 7.308s8.114-6.2 12.261-7.308c4.288-1.148 10.53 2.376 14.274.2 3.805-2.194 3.866-9.382 6.946-12.482 3.1-3.1 10.268-3.141 12.482-6.946 2.175-3.765-1.349-9.986-.201-14.274z" fill="url(#a)"/><path d="M93.316 63.862c-.846 3.181-.262 6.342.242 9.12a18.884 18.884 0 01.483 3.765 19.6 19.6 0 01-3.564 1.49c-2.658.926-5.657 1.973-7.953 4.288-2.315 2.315-3.362 5.315-4.288 7.953a20.223 20.223 0 01-1.49 3.564h-.282a21.634 21.634 0 01-3.483-.483 30.635 30.635 0 00-5.637-.685 13.76 13.76 0 00-3.483.423c-3.1.825-5.476 2.879-7.57 4.691a17.517 17.517 0 01-3.2 2.4 16.232 16.232 0 01-3.2-2.416c-2.094-1.812-4.49-3.845-7.59-4.691a13.6 13.6 0 00-3.463-.423 30.635 30.635 0 00-5.637.685 22.9 22.9 0 01-3.483.483h-.282a19.593 19.593 0 01-1.49-3.564c-.926-2.658-1.973-5.657-4.288-7.953-2.315-2.315-5.315-3.362-7.953-4.288a19.592 19.592 0 01-3.564-1.49 18.706 18.706 0 01.483-3.765c.523-2.778 1.107-5.919.262-9.1-.825-3.1-2.879-5.476-4.691-7.59a18.746 18.746 0 01-2.416-3.2 16.232 16.232 0 012.416-3.2c1.812-2.094 3.845-4.49 4.691-7.59.846-3.181.262-6.322-.262-9.1a18.883 18.883 0 01-.483-3.765 19.594 19.594 0 013.564-1.49c2.658-.926 5.657-1.973 7.953-4.288 2.315-2.315 3.362-5.315 4.288-7.953a20.222 20.222 0 011.49-3.564h.282a21.633 21.633 0 013.483.483 30.635 30.635 0 005.637.685 13.488 13.488 0 003.463-.423c3.1-.825 5.476-2.879 7.57-4.691a18.746 18.746 0 013.2-2.416 16.232 16.232 0 013.2 2.416c2.094 1.812 4.49 3.866 7.57 4.691a13.6 13.6 0 003.463.423 30.635 30.635 0 005.637-.685 22.9 22.9 0 013.483-.483h.284a19.6 19.6 0 011.49 3.564c.926 2.658 1.973 5.657 4.288 7.953 2.315 2.315 5.315 3.362 7.953 4.288a19.594 19.594 0 013.564 1.49 18.708 18.708 0 01-.483 3.765c-.523 2.778-1.107 5.919-.262 9.1.825 3.1 2.879 5.476 4.691 7.57a18.745 18.745 0 012.416 3.2 16.232 16.232 0 01-2.416 3.2c-1.812 2.094-3.845 4.47-4.691 7.57z" fill="#fff"/><path d="M48.138 68.331H31.991V34.367h15.764c6.946 0 11.214 3.443 11.214 8.778v.1a7.91 7.91 0 01-4.47 7.328c3.926 1.51 6.362 3.785 6.362 8.335v.1c0 6.2-5.053 9.322-12.7 9.322zm3.4-23.918c0-2.235-1.752-3.5-4.892-3.5h-7.367v7.184h6.885c3.3 0 5.376-1.067 5.376-3.584zm1.892 13.59c0-2.275-1.691-3.684-5.537-3.684h-8.634v7.469h8.879c3.3 0 5.295-1.168 5.295-3.684zm17.637 7.147a.16.16 0 00-.141-.081c-.362 0-.725.02-1.087.02-.7 0-1.148-.121-1.148-.906 0-.463.02-.906.02-1.409v-3.14c0-.5-.02-.966-.02-1.389 0-.745.362-.926 1.047-.926.584 0 1.188.04 1.772.04h7.391c.564 0 1.168-.04 1.731-.04.7 0 1.087.161 1.087.926 0 .483-.02.926-.02 1.389v3.141c0 .483.02.926.02 1.389 0 .785-.383.926-1.067.926-.523 0-1.027-.02-1.53-.04-.1.04-.1.06-.1.121s.04.1.06.1a29.241 29.241 0 005.537 1.208c.282.02.5.081.5.4 0 .383-.463 1.51-1.027 1.51a22.709 22.709 0 01-3.866-.785 18.247 18.247 0 01-2.738-.926c-.141-.06-.282-.141-.282-.3a2.516 2.516 0 01.4-.886.34.34 0 00.06-.2c0-.161-.121-.2-.242-.221h-4.543c-.181.02-.322.081-.322.282a.3.3 0 00.06.2 4.744 4.744 0 01.7 1.087c0 .121-.141.2-.242.2a1.338 1.338 0 01-.3-.06.716.716 0 00-.2-.04.908.908 0 00-.221.06 28.148 28.148 0 01-5.678 1.51 3.961 3.961 0 01-.483.06c-.624 0-1.007-1.349-1.007-1.53 0-.362.4-.4.685-.443a21.288 21.288 0 005.013-1.127c.04-.02.1-.06.1-.121zm2.376-14.476c.463 0 .644-.181.644-.624a10.775 10.775 0 00-.06-1.611.685.685 0 01-.02-.2c0-.3.2-.342.463-.342.443 0 1.591.1 2.074.121.161.02.544.04.544.282 0 .161-.181.242-.362.362-.3.181-.322.3-.3 1.409 0 .443.181.624.644.624h.523a.919.919 0 00.966-.483 18.122 18.122 0 00.966-1.731c.04-.141.1-.3.242-.3a5.93 5.93 0 011.228.342c1.188.362 1.188.483 1.188.564 0 .2-.221.221-.362.282a.438.438 0 00-.342.221c-.1.121-.322.483-.4.584a.525.525 0 00-.06.221.285.285 0 00.322.282c.644 0 1.268-.02 1.933-.02.624 0 1.289.06 1.289.846 0 .342-.04.685-.04 1.027v.7c0 .3.04.564.04.866 0 .544-.342.523-1.168.523s-1.168.02-1.168-.5c0-.3.04-.584.04-.886v-.161c0-.463-.181-.644-.644-.644h-12.7c-.443 0-.644.181-.644.644v.161c0 .3.04.584.04.886 0 .523-.362.5-1.148.5s-1.168.02-1.168-.5c0-.282.04-.584.04-.886v-.7c0-.322-.04-.664-.04-1.007 0-.765.624-.866 1.228-.866.664 0 1.329.02 1.993.02.2 0 .362-.1.362-.322a.6.6 0 00-.04-.2 18.253 18.253 0 00-.523-.825c-.06-.1-.181-.2-.181-.342 0-.342 1.53-.785 1.812-.785.322 0 .5.3.906 1.007a3.925 3.925 0 01.536 1.084c0 .161-.121.221-.242.282-.04.04-.02.1.02.1h1.591zm6.865 4.55c0 .181.02.383.02.564 0 .664-.362.866-.966.866-.5 0-1.007-.04-1.51-.04h-5.273c-.483 0-.987.04-1.47.04-.624 0-.987-.181-.987-.866 0-.181.02-.383.02-.564v-.644c0-.181-.02-.362-.02-.544 0-.664.342-.866.966-.866.5 0 1.007.02 1.49.02h5.275c.5 0 .987-.02 1.49-.02.624 0 .987.181.987.846 0 .2-.02.383-.02.564v.644zm-1.186 4.273a.338.338 0 00.362-.362v-.081a.361.361 0 00-.362-.362h-7.811a.374.374 0 00-.362.362v.081a.349.349 0 00.362.362zm-7.811 1.184a.361.361 0 00-.362.362v.121a.374.374 0 00.362.362h7.812a.361.361 0 00.362-.362v-.121a.349.349 0 00-.362-.362zm0 2.054a.374.374 0 00-.362.362v.161a.374.374 0 00.362.362h7.812a.361.361 0 00.362-.362v-.161a.361.361 0 00-.362-.362zm1.047-7.791a.39.39 0 00.362.362h5.013a.39.39 0 00.362-.362v-.121a.39.39 0 00-.362-.362H72.72a.39.39 0 00-.362.362z" fill="#d70056" style="isolation:isolate"/></svg>