<svg xmlns="http://www.w3.org/2000/svg" width="132.631" height="27.079"><defs><linearGradient id="a" y1="1" x2="1" y2=".036" gradientUnits="objectBoundingBox"><stop offset="0" stop-color="#006eba"/><stop offset=".067" stop-color="#166cb6"/><stop offset=".145" stop-color="#366bb2"/><stop offset=".386" stop-color="#ca3962"/><stop offset=".427" stop-color="#cf3360"/><stop offset=".48" stop-color="#dd225d"/><stop offset=".5" stop-color="#e41b5c"/><stop offset=".569" stop-color="#e5354d"/><stop offset=".639" stop-color="#e74c41"/><stop offset=".738" stop-color="#ee7f29"/><stop offset=".8" stop-color="#f3a219"/><stop offset=".903" stop-color="#f6b413"/><stop offset="1" stop-color="#f9c110"/></linearGradient></defs><path d="M2145.684 626.433c-2.491 0-4.043-.029-4.043-2.492 0-1.113.059-2.2.059-3.281v-5.949c0-.117-.029-.234-.176-.234-.293 0-.381.586-.41.821a31.147 31.147 0 01-1.817 7.62c-.147.38-.294.821-.763.821-.527 0-2.755-.586-2.755-1.436a2.251 2.251 0 01.176-.7 33.676 33.676 0 001.67-7.239c.146-1.055.146-1.495.586-1.495.322 0 2.052.411 2.49.5a1.558 1.558 0 00.352.088c.411 0 .586-.322.586-.7 0-.2-.029-.41-.029-.645 0-.41.205-.5.586-.5.762 0 1.524.089 2.315.089.235 0 .469-.029.469-.322a21.286 21.286 0 00-1.23-2.7.873.873 0 01-.147-.439c0-.352.352-.558.615-.674.117-.059.205-.147.205-.234 0-.177-.146-.177-.44-.177h-6.623a.8.8 0 00-.821.821v3.107c0 4.484-.557 9.876-2.315 14.009-.557 1.348-.791 1.641-1.378 1.641-1.143 0-3.078-1.055-3.078-1.729a2.479 2.479 0 01.264-.733c1.729-3.4 2.169-8.441 2.169-12.309v-4.221c0-1.113-.059-2.168-.059-3.048 0-1.2.674-1.465 1.729-1.465s2.11.059 3.165.059h3.518a.833.833 0 00.82-.879c0-.41-.116-1.612-.116-1.905 0-.38.293-.439.615-.439a7.741 7.741 0 01.791.059c1.085.087 2.169.175 3.254.292.234.029.7.059.7.41 0 .176-.118.293-.323.469a1.548 1.548 0 00-.292 1.172.819.819 0 00.821.821h4.953c1.23 0 2.461-.059 3.693-.059.792 0 .849.292.849 1.2v1.582c0 .909-.058 1.2-.82 1.2-1.231 0-2.491-.059-3.722-.059H2148c-.293 0-.674.059-.674.44a1.784 1.784 0 00.263.645c.47.937 2.579 5.3 2.579 6.1 0 .908-2.608 1.29-2.93 1.29-.5 0-.673-.264-.791-.7-.117-.381-.263-1-.527-1-.177 0-.206.381-.206 1.026v5.8c0 1.406.206 1.406 1.2 1.406h1.026a2.232 2.232 0 00.967-.117c.352-.264.5-1.877.527-2.345.029-.557.059-.879.939-.879a6.6 6.6 0 011.963.352.7.7 0 00.235.059.378.378 0 00.352-.352 43.859 43.859 0 00-1.963-5.539.828.828 0 01-.059-.264c0-.7 2.345-1.26 2.755-1.26a.7.7 0 01.674.439 30.4 30.4 0 011.759 4.543 37.411 37.411 0 011.084 4.1c0 .968-2.609 1.466-2.9 1.466-.47 0-.557-.293-.615-.674-.03-.176-.059-.351-.176-.351-.146 0-.176.175-.205.439a8.324 8.324 0 01-1.377 3.869c-.7.791-1.465.791-3.253.791zm34.969-4.249a1.655 1.655 0 00-1.671.938 8.1 8.1 0 01-2.9 2.462 14.657 14.657 0 01-4.308 1.436c-.645 0-.967-.7-1.231-1.173a5.118 5.118 0 01-.674-1.787c0-.44.352-.469.762-.5 1.553-.088 3.986-.762 3.986-1.2 0-.176-.235-.176-.528-.176-.674 0-1.348.059-2.022.059-.557 0-.586-.176-.7-.41a.361.361 0 00-.293-.147 1.275 1.275 0 00-.557.206 12.358 12.358 0 01-2.96 1.405c-.7 0-2.022-2.432-2.022-2.96 0-.351.469-.468.791-.586.528-.177 4.1-1.583 4.1-2.022 0-.146-.235-.146-.5-.146-1.054 0-2.111.059-3.165.059-.792 0-.792-.235-.792-1.056v-.879c0-.879.059-1.055.792-1.055 1.2 0 2.4.059 3.634.059h2.814c.38 0 1.347-.088 1.347-.645 0-.234-.293-.234-.586-.234-.82 0-1.641.059-2.462.059-.908 0-1.465-.206-1.465-1.2 0-.7.059-1.435.059-2.227v-1.582c0-.762-.059-1.524-.059-2.2 0-1.026.586-1.231 1.465-1.231.323 0 .674.029.909.029.351 0 .38-.176.38-.44 0-.322-.2-.322-.41-.322h-2.169c-1.172 0-2.374.059-3.546.059-.7 0-.762-.234-.762-.966v-1.085c0-.761.058-.967.762-.967 1.2 0 2.373.059 3.546.059h1.992c.294 0 .586-.117.586-.469 0-.117-.059-.615-.059-.762 0-.293.294-.322.528-.322.7 0 2.432.147 3.194.205.528.029 1.056.029 1.056.322 0 .147-.088.176-.294.352-.117.088-.234.176-.234.322s.087.352.41.352h3.018c.322 0 .586-.117.586-.469a3.6 3.6 0 00-.059-.557.661.661 0 01-.029-.205c0-.293.323-.322.557-.322.674 0 2.433.147 3.2.205.5.029 1.055.029 1.055.322 0 .117-.088.176-.323.352a.4.4 0 00-.206.322c0 .264.206.352.44.352h2.139c1.2 0 2.374-.059 3.547-.059.7 0 .761.234.761.967v1.085c0 .761-.058.966-.761.966-1.172 0-2.346-.059-3.547-.059h-2.227c-.235 0-.411.088-.411.352 0 .234.058.41.323.41.293 0 .644-.029.938-.029.908 0 1.465.205 1.465 1.231 0 .674-.059 1.436-.059 2.2v1.582c0 .791.059 1.524.059 2.227 0 .967-.528 1.2-1.436 1.2-.85 0-1.7-.059-2.55-.059h-3.956c-.176 0-.235 0-.323.205s-.146.234-.323.264c-.117.029-.234.117-.234.234 0 .176.293.176.352.176h8.265c1.2 0 2.432-.059 3.634-.059.762 0 .791.234.791 1v.82c0 .938 0 1.173-.791 1.173-1.2 0-2.4-.059-3.6-.059-.118 0-.411 0-.411.175 0 .381 3.663 2.052 4.778 2.4.2.059.527.117.527.411 0 .41-1.524 2.93-2.228 2.93a11.492 11.492 0 01-2.989-1.407 1.278 1.278 0 00-.586-.2c-.38 0-.409.468-.468.879a12.843 12.843 0 01-.586 2.374 2.37 2.37 0 01-1.055 1.377c-.879.615-2.7.615-3.781.615-.761 0-1.318-.029-1.553-.5a5.471 5.471 0 01-.439-1.935c0-.791.263-.908.908-.908.293 0 .674.029 1.142.029.733 0 1.407-.117 1.407-1.348 0-.264-.059-.293-.937-.293zm3.019-13.979a.326.326 0 00-.323-.323h-8.763a.326.326 0 00-.323.323v.175a.325.325 0 00.323.322h8.763a.347.347 0 00.323-.322zm0 2.93a.364.364 0 00-.38-.352h-8.676a.339.339 0 00-.352.352v.088a.363.363 0 00.352.38h8.676a.388.388 0 00.38-.38zm-7.561 7.913c.322 0 .468-.088.468-.469 0-.5 0-.85-.292-.85-.146 0-.44.322-.762.616-.117.117-.41.322-.41.5s.147.205.586.205zm4.455-13.54c.205 0 .44 0 .44-.44 0-.264-.147-.352-.41-.352h-3.224c-.264 0-.439.059-.439.352s.029.44.41.44zm1.378 13.54c.615 0 .879-.029.879-.234 0-.176-.879-1.2-1.553-1.2-.117 0-.205.029-.205.146 0 .059.029.117.029.176 0 .205-.177.294-.323.352a.485.485 0 00-.293.41c0 .293.264.352.5.352zm32.624-8.557c0 .733.41.967 1.084.967h5.129c.792 0 1.582-.029 2.344-.029 1.729 0 1.758 1.056 1.758 2.14a31.1 31.1 0 01-1.67 10.258 4.994 4.994 0 01-2.14 2.637 5.084 5.084 0 01-2.461.41c-2.813 0-3.839 0-3.839-2.843 0-.673.029-1.494.733-1.494a9.467 9.467 0 011.23.147 7.363 7.363 0 00.909.088 1.906 1.906 0 001.846-1.172 15.715 15.715 0 00.908-5.129c0-1-.351-1.025-1.846-1.025h-3.753c-.761 0-.967.234-1.143.879a14.055 14.055 0 01-.967 2.286 22.313 22.313 0 01-7.767 7.825 1.754 1.754 0 01-.908.293c-.967 0-2.55-1.729-2.55-2.814 0-.5.352-.7.761-.937a21.9 21.9 0 005.158-4.279 13.175 13.175 0 002.638-6.36 20.494 20.494 0 00.205-2.989c0-.733-.205-1.142-1-1.142h-3.839c-1.172 0-2.344.059-3.517.059-.7 0-.762-.323-.762-1.2v-1.846c0-.879.088-1.172.791-1.172 1.173 0 2.315.088 3.487.088h5.51c.7 0 .849-.616.849-1.2a14.288 14.288 0 00-.117-1.935.917.917 0 01-.029-.263c0-.382.293-.44.616-.44.5 0 2.842.176 3.458.234.293.029.293.029.528.059.5.059.821.088.821.44 0 .234-.294.41-.469.5-.352.176-.381.205-.381 1.641 0 .586.264.967.879.967h5.685c1.172 0 2.315-.088 3.487-.088.7 0 .792.293.792 1.172v1.846c0 .879-.059 1.2-.762 1.2-1.172 0-2.344-.059-3.517-.059h-6.564c-.586 0-.674.146-.908.586a1.2 1.2 0 01-.44.41.694.694 0 00-.264.645zm23.393-3.722a12.932 12.932 0 012.55 1.582c.38.293 2.05 1.553 2.05 1.964 0 .469-1.523 2.784-2.2 2.784-.234 0-.556-.293-.792-.5a32.476 32.476 0 00-3.486-2.579c-.177-.117-.353-.234-.353-.469.002-.467 1.555-2.782 2.229-2.782zm4.894 8.235c.439.293 1.319.849 1.319 1.29 0 .557-3.605 7.268-4.162 8.264a2.54 2.54 0 00-.352.879c0 .235.118.5.118.733a.415.415 0 01-.382.41 7.861 7.861 0 01-1.67-1.231 9.142 9.142 0 00-.469-.38c-.322-.265-1.495-1.114-1.495-1.524a1.291 1.291 0 01.382-.7 21.66 21.66 0 002.52-3.9c.558-1 1.876-3.664 2.227-4.543.059-.147.118-.293.323-.293a4.288 4.288 0 011.289.733c.086.058.204.174.351.258zm-1.29-12.954c.5.353 1.523 1.144 1.905 1.495a.687.687 0 01.292.469c0 .411-.732 1.26-1 1.583-.293.381-.82 1.143-1.348 1.143a3.55 3.55 0 01-1.172-.762.939.939 0 00-.176-.147 21.2 21.2 0 00-2.667-1.934.418.418 0 01-.263-.382 3.6 3.6 0 01.821-1.378 6.933 6.933 0 00.469-.615c.234-.352.586-.82 1.054-.82.443-.002 1.674 1.055 2.084 1.348zm13.628 8.851a.8.8 0 00.821.821h1.964c1.172 0 2.344-.089 3.487-.089.821 0 .88.265.88 1.172v1.524c0 .849-.059 1.085-.851 1.085-1.172 0-2.344-.059-3.516-.059h-3.752c-.117 0-.264 0-.264.147 0 .059 0 .059.088.117a.418.418 0 01.146.322c0 .294-.293.352-.527.382-.352.029-.5.059-.586.2-.674 1.2-1.318 2.4-1.992 3.576a6.441 6.441 0 00-.7 1.318c0 .293.293.322.528.322.351 0 3.106-.234 3.663-.264.351-.029 1.025-.059 1.025-.528a10.527 10.527 0 00-1.054-2.051 2.164 2.164 0 01-.263-.615c0-.7 3.193-1.613 3.6-1.613a.633.633 0 01.557.381 43.231 43.231 0 012.725 5.158 21.039 21.039 0 011.232 3.077c0 .7-3.049 1.817-3.664 1.817a.539.539 0 01-.586-.44c-.44-1.436-.674-1.729-1.377-1.729-.353 0-1.729.176-2.2.234-3.077.353-6.564.587-9.232.791-.264.029-.264.088-.5.645a.456.456 0 01-.44.264c-.5 0-.557-.381-1-1.817a22.642 22.642 0 01-.586-2.461c0-.5.322-.557.937-.557h1.085c.761 0 .879-.264 1.582-1.495a32.145 32.145 0 002.2-4.748c0-.351-.353-.439-.645-.439-1.026 0-2.022.059-3.048.059-.761 0-.82-.264-.82-1.085v-1.641c0-.82.088-1.055.849-1.055 1.173 0 2.345.089 3.488.089h1.611a.839.839 0 00.821-.821v-1.729a.839.839 0 00-.821-.821h-1.458c-1.027 0-2.022.088-2.873.088-.586 0-.645-.263-.645-1v-1.729c0-.85.059-1.172.674-1.172.5 0 1.729.088 2.843.088h1.289c.557 0 1-.263 1-.879v-.645c0-.557-.029-1.348-.088-1.876a1.1 1.1 0 01-.029-.293c0-.381.264-.44.586-.44.556 0 2.931.235 3.575.293.323.029.88.059.88.44a.688.688 0 01-.322.5 1.485 1.485 0 00-.293 1.113v.909c0 .41.264.879 1.054.879h1.671c1.114 0 2.315-.088 2.842-.088.616 0 .674.322.674 1.231v1.536c0 .879-.059 1.142-.645 1.142-.879 0-1.875-.088-2.872-.088h-1.9a.819.819 0 00-.821.821z" transform="translate(-2129.771 -600.058)" fill="url(#a)"/></svg>